<svg width="24" height="24" viewBox="0 0 24 24" fill="none" xmlns="http://www.w3.org/2000/svg">
<path d="M12 21.9996C10.75 21.9996 9.57931 21.7623 8.48798 21.2876C7.39598 20.8123 6.44598 20.1703 5.63798 19.3616C4.82931 18.5536 4.18731 17.6036 3.71198 16.5116C3.23731 15.4203 2.99998 14.2496 2.99998 12.9996C2.99998 11.7496 3.23731 10.5786 3.71198 9.48661C4.18731 8.39528 4.82931 7.44528 5.63798 6.63661C6.44598 5.82861 7.39598 5.18728 8.48798 4.71261C9.57931 4.23728 10.75 3.99961 12 3.99961C13.25 3.99961 14.421 4.23728 15.513 4.71261C16.6043 5.18728 17.5543 5.82861 18.363 6.63661C19.171 7.44528 19.8126 8.39528 20.288 9.48661C20.7626 10.5786 21 11.7496 21 12.9996C21 14.2496 20.7626 15.4203 20.288 16.5116C19.8126 17.6036 19.171 18.5536 18.363 19.3616C17.5543 20.1703 16.6043 20.8123 15.513 21.2876C14.421 21.7623 13.25 21.9996 12 21.9996ZM14.8 17.1996L16.2 15.7996L13 12.5996V7.99961H11V13.3996L14.8 17.1996ZM5.59998 2.34961L6.99998 3.74961L2.74998 7.99961L1.34998 6.59961L5.59998 2.34961ZM18.4 2.34961L22.65 6.59961L21.25 7.99961L17 3.74961L18.4 2.34961Z" />
</svg>
