<svg width="20" height="20" viewBox="0 0 20 20" xmlns="http://www.w3.org/2000/svg">
<path fill-rule="evenodd" clip-rule="evenodd" d="M5.29279 7.70679C5.10532 7.51926 5 7.26495 5 6.99979C5 6.73462 5.10532 6.48031 5.29279 6.29279L9.29279 2.29279C9.48031 2.10532 9.73462 2 9.99979 2C10.265 2 10.5193 2.10532 10.7068 2.29279L14.7068 6.29279C14.8889 6.48139 14.9897 6.73399 14.9875 6.99619C14.9852 7.25838 14.88 7.5092 14.6946 7.6946C14.5092 7.88001 14.2584 7.98518 13.9962 7.98746C13.734 7.98974 13.4814 7.88894 13.2928 7.70679L10.9998 5.41379V16.9998C10.9998 17.265 10.8944 17.5194 10.7069 17.7069C10.5194 17.8944 10.265 17.9998 9.99979 17.9998C9.73457 17.9998 9.48022 17.8944 9.29268 17.7069C9.10514 17.5194 8.99979 17.265 8.99979 16.9998V5.41379L6.70679 7.70679C6.51926 7.89426 6.26495 7.99957 5.99979 7.99957C5.73462 7.99957 5.48031 7.89426 5.29279 7.70679Z"/>
</svg>
