<svg width="20" height="20" viewBox="0 0 20 20" xmlns="http://www.w3.org/2000/svg">
<path fill-rule="evenodd" clip-rule="evenodd" d="M14.7066 12.293C14.8941 12.4805 14.9994 12.7348 14.9994 13C14.9994 13.2652 14.8941 13.5195 14.7066 13.707L10.7066 17.707C10.5191 17.8945 10.2648 17.9998 9.99959 17.9998C9.73443 17.9998 9.48012 17.8945 9.29259 17.707L5.29259 13.707C5.19708 13.6148 5.1209 13.5044 5.06849 13.3824C5.01608 13.2604 4.9885 13.1292 4.98734 12.9964C4.98619 12.8636 5.01149 12.7319 5.06177 12.609C5.11205 12.4861 5.18631 12.3745 5.2802 12.2806C5.37409 12.1867 5.48574 12.1125 5.60864 12.0622C5.73154 12.0119 5.86321 11.9866 5.99599 11.9877C6.12877 11.9889 6.25999 12.0165 6.382 12.0689C6.504 12.1213 6.61435 12.1975 6.70659 12.293L8.99959 14.586V3C8.99959 2.73478 9.10495 2.48043 9.29249 2.29289C9.48002 2.10536 9.73438 2 9.99959 2C10.2648 2 10.5192 2.10536 10.7067 2.29289C10.8942 2.48043 10.9996 2.73478 10.9996 3V14.586L13.2926 12.293C13.4801 12.1055 13.7344 12.0002 13.9996 12.0002C14.2648 12.0002 14.5191 12.1055 14.7066 12.293Z"/>
</svg>
