<svg width="20" height="20" viewBox="0 0 20 20" xmlns="http://www.w3.org/2000/svg">
<path fill-rule="evenodd" clip-rule="evenodd" d="M12.293 5.29279C12.4805 5.10532 12.7348 5 13 5C13.2652 5 13.5195 5.10532 13.707 5.29279L17.707 9.29279C17.8945 9.48031 17.9998 9.73462 17.9998 9.99979C17.9998 10.265 17.8945 10.5193 17.707 10.7068L13.707 14.7068C13.5184 14.8889 13.2658 14.9897 13.0036 14.9875C12.7414 14.9852 12.4906 14.88 12.3052 14.6946C12.1198 14.5092 12.0146 14.2584 12.0123 13.9962C12.01 13.734 12.1108 13.4814 12.293 13.2928L14.586 10.9998H3C2.73478 10.9998 2.48043 10.8944 2.29289 10.7069C2.10536 10.5194 2 10.265 2 9.99979C2 9.73457 2.10536 9.48022 2.29289 9.29268C2.48043 9.10514 2.73478 8.99979 3 8.99979H14.586L12.293 6.70679C12.1055 6.51926 12.0002 6.26495 12.0002 5.99979C12.0002 5.73462 12.1055 5.48031 12.293 5.29279Z"/>
</svg>
