<svg width="20" height="20" viewBox="0 0 20 20" xmlns="http://www.w3.org/2000/svg">
<path fill-rule="evenodd" clip-rule="evenodd" d="M7.70679 14.7064C7.51926 14.8939 7.26495 14.9992 6.99979 14.9992C6.73462 14.9992 6.48031 14.8939 6.29279 14.7064L2.29279 10.7064C2.10532 10.5189 2 10.2646 2 9.99943C2 9.73427 2.10532 9.47996 2.29279 9.29243L6.29279 5.29243C6.48139 5.11027 6.73399 5.00948 6.99619 5.01176C7.25838 5.01403 7.5092 5.1192 7.6946 5.30461C7.88001 5.49002 7.98518 5.74083 7.98746 6.00303C7.98974 6.26523 7.88894 6.51783 7.70679 6.70643L5.41379 8.99943H16.9998C17.265 8.99943 17.5194 9.10479 17.7069 9.29232C17.8944 9.47986 17.9998 9.73421 17.9998 9.99943C17.9998 10.2646 17.8944 10.519 17.7069 10.7065C17.5194 10.8941 17.265 10.9994 16.9998 10.9994H5.41379L7.70679 13.2924C7.89426 13.48 7.99957 13.7343 7.99957 13.9994C7.99957 14.2646 7.89426 14.5189 7.70679 14.7064Z"/>
</svg>
