<svg width="20" height="20" viewBox="0 0 20 20" xmlns="http://www.w3.org/2000/svg">
<path fill-rule="evenodd" clip-rule="evenodd" d="M15.998 8V11.5706L15.5341 11.1066L7.14771 2.72025C8.01562 2.25173 8.99385 2 9.99803 2C11.5893 2 13.1155 2.63214 14.2407 3.75736C15.3659 4.88258 15.998 6.4087 15.998 8ZM4.52856 5.53323C4.18216 6.30132 3.99803 7.14117 3.99803 8V11.586L3.29103 12.293C3.15122 12.4329 3.05601 12.611 3.01745 12.805C2.97888 12.9989 2.99868 13.2 3.07435 13.3827C3.15002 13.5654 3.27816 13.7215 3.44257 13.8314C3.60698 13.9413 3.80028 14 3.99803 14H12.9953L14.7567 15.7614C15.0163 16.021 15.2703 16.1299 15.5657 16.1574C15.8611 16.1849 16.0955 16.1265 16.3158 15.9063C16.5361 15.686 16.595 15.441 16.5683 15.1548C16.5417 14.8685 16.1709 14.3471 16.1709 14.3471L14.1137 12.29L4.24024 2.41648C4.01423 2.19047 3.72297 2.04821 3.43055 2.021C3.13812 1.99379 2.86848 2.08386 2.68095 2.2714C2.49341 2.45894 2.40334 2.72857 2.43055 3.021C2.45776 3.31342 2.60001 3.60468 2.82603 3.8307L4.52856 5.53323ZM9.99803 18C9.20238 18 8.43932 17.6839 7.87671 17.1213C7.3141 16.5587 6.99803 15.7956 6.99803 15H12.998C12.998 15.7956 12.682 16.5587 12.1194 17.1213C11.5567 17.6839 10.7937 18 9.99803 18Z"/>
</svg>
