<svg width="20" height="18" viewBox="0 0 20 18" fill="none" xmlns="http://www.w3.org/2000/svg">
<path d="M12.0156 3.98438V2.01562H7.98438V3.98438H12.0156ZM18.0156 3.98438C18.5469 3.98438 19 4.1875 19.375 4.59375C19.7812 5 19.9844 5.46875 19.9844 6V9C19.9844 9.53125 19.7812 10 19.375 10.4062C19 10.8125 18.5469 11.0156 18.0156 11.0156H12.0156V9H7.98438V11.0156H1.98438C1.42188 11.0156 0.953125 10.8281 0.578125 10.4531C0.203125 10.0469 0.015625 9.5625 0.015625 9V6C0.015625 5.46875 0.203125 5 0.578125 4.59375C0.984375 4.1875 1.45312 3.98438 1.98438 3.98438H5.96875V2.01562L7.98438 0H11.9688L13.9844 2.01562V3.98438H18.0156ZM7.98438 12.9844H12.0156V12H19V15.9844C19 16.5469 18.7969 17.0312 18.3906 17.4375C18.0156 17.8125 17.5469 18 16.9844 18H3.01562C2.45312 18 1.96875 17.8125 1.5625 17.4375C1.1875 17.0312 1 16.5469 1 15.9844V12H7.98438V12.9844Z"/>
</svg>
