<svg width="20" height="20" viewBox="0 0 20 20" xmlns="http://www.w3.org/2000/svg">
<path fill-rule="evenodd" clip-rule="evenodd" d="M16.7074 5.29279C16.8949 5.48031 17.0002 5.73462 17.0002 5.99979C17.0002 6.26495 16.8949 6.51926 16.7074 6.70679L8.70741 14.7068C8.51988 14.8943 8.26557 14.9996 8.00041 14.9996C7.73524 14.9996 7.48094 14.8943 7.29341 14.7068L3.29341 10.7068C3.11125 10.5182 3.01045 10.2656 3.01273 10.0034C3.01501 9.74119 3.12018 9.49038 3.30559 9.30497C3.491 9.11956 3.74181 9.01439 4.00401 9.01211C4.2662 9.00983 4.5188 9.11063 4.70741 9.29279L8.00041 12.5858L15.2934 5.29279C15.4809 5.10532 15.7352 5 16.0004 5C16.2656 5 16.5199 5.10532 16.7074 5.29279Z"/>
</svg>
