<svg width="20" height="20" viewBox="0 0 20 20" xmlns="http://www.w3.org/2000/svg">
<path fill-rule="evenodd" clip-rule="evenodd" d="M7.29279 14.7064C7.10532 14.5189 7 14.2646 7 13.9994C7 13.7343 7.10532 13.48 7.29279 13.2924L10.5858 9.99943L7.29279 6.70643C7.11063 6.51783 7.00983 6.26523 7.01211 6.00303C7.01439 5.74083 7.11956 5.49002 7.30497 5.30461C7.49038 5.1192 7.74119 5.01403 8.00339 5.01176C8.26558 5.00948 8.51818 5.11027 8.70679 5.29243L12.7068 9.29243C12.8943 9.47996 12.9996 9.73427 12.9996 9.99943C12.9996 10.2646 12.8943 10.5189 12.7068 10.7064L8.70679 14.7064C8.51926 14.8939 8.26495 14.9992 7.99979 14.9992C7.73462 14.9992 7.48031 14.8939 7.29279 14.7064Z"/>
</svg>
