<svg width="20" height="20" viewBox="0 0 20 20" xmlns="http://www.w3.org/2000/svg">
<path fill-rule="evenodd" clip-rule="evenodd" d="M5.29279 7.29357C5.48031 7.1061 5.73462 7.00078 5.99979 7.00078C6.26495 7.00078 6.51926 7.1061 6.70679 7.29357L9.99979 10.5866L13.2928 7.29357C13.385 7.19806 13.4954 7.12188 13.6174 7.06947C13.7394 7.01706 13.8706 6.98947 14.0034 6.98832C14.1362 6.98717 14.2678 7.01247 14.3907 7.06275C14.5136 7.11303 14.6253 7.18728 14.7192 7.28117C14.8131 7.37507 14.8873 7.48672 14.9376 7.60962C14.9879 7.73251 15.0132 7.86419 15.012 7.99697C15.0109 8.12975 14.9833 8.26097 14.9309 8.38297C14.8785 8.50498 14.8023 8.61532 14.7068 8.70757L10.7068 12.7076C10.5193 12.895 10.265 13.0004 9.99979 13.0004C9.73462 13.0004 9.48031 12.895 9.29279 12.7076L5.29279 8.70757C5.10532 8.52004 5 8.26573 5 8.00057C5 7.73541 5.10532 7.4811 5.29279 7.29357Z"/>
</svg>
