<svg width="20" height="20" viewBox="0 0 20 20" xmlns="http://www.w3.org/2000/svg">
<path fill-rule="evenodd" clip-rule="evenodd" d="M12.7068 5.29279C12.8943 5.48031 12.9996 5.73462 12.9996 5.99979C12.9996 6.26495 12.8943 6.51926 12.7068 6.70679L9.41379 9.99979L12.7068 13.2928C12.8889 13.4814 12.9897 13.734 12.9875 13.9962C12.9852 14.2584 12.88 14.5092 12.6946 14.6946C12.5092 14.88 12.2584 14.9852 11.9962 14.9875C11.734 14.9897 11.4814 14.8889 11.2928 14.7068L7.29279 10.7068C7.10532 10.5193 7 10.265 7 9.99979C7 9.73462 7.10532 9.48031 7.29279 9.29279L11.2928 5.29279C11.4803 5.10532 11.7346 5 11.9998 5C12.265 5 12.5193 5.10532 12.7068 5.29279Z"/>
</svg>
