<svg width="20" height="20" viewBox="0 0 20 20" fill="none" xmlns="http://www.w3.org/2000/svg">
<path fill-rule="evenodd" clip-rule="evenodd" d="M8 1.88235C6.3775 1.88235 4.82145 2.52689 3.67417 3.67417C2.52689 4.82145 1.88235 6.3775 1.88235 8C1.88235 8.80338 2.04059 9.59889 2.34803 10.3411C2.65547 11.0833 3.10609 11.7578 3.67417 12.3258C4.24225 12.8939 4.91665 13.3445 5.65888 13.652C6.4011 13.9594 7.19662 14.1176 8 14.1176C8.80338 14.1176 9.5989 13.9594 10.3411 13.652C11.0833 13.3445 11.7578 12.8939 12.3258 12.3258C12.8939 11.7578 13.3445 11.0833 13.652 10.3411C13.9594 9.5989 14.1176 8.80338 14.1176 8C14.1176 6.3775 13.4731 4.82145 12.3258 3.67417C11.1785 2.52689 9.6225 1.88235 8 1.88235ZM2.34315 2.34315C3.84344 0.842855 5.87827 0 8 0C10.1217 0 12.1566 0.842855 13.6569 2.34315C15.1571 3.84344 16 5.87827 16 8C16 9.05057 15.7931 10.0909 15.391 11.0615C14.989 12.0321 14.3997 12.914 13.6569 13.6569C12.914 14.3997 12.0321 14.989 11.0615 15.391C10.0909 15.7931 9.05057 16 8 16C6.94943 16 5.90914 15.7931 4.93853 15.391C3.96793 14.989 3.08601 14.3997 2.34315 13.6569C1.60028 12.914 1.011 12.0321 0.608964 11.0615C0.206926 10.0909 0 9.05057 0 8C5.60985e-08 5.87827 0.842855 3.84344 2.34315 2.34315Z"/>
<circle cx="8" cy="8" r="5"/>
</svg>
