<svg width="24" height="24" viewBox="0 0 24 24" fill="none" xmlns="http://www.w3.org/2000/svg">
<path d="M12 16C11.4467 16 10.9267 15.8949 10.44 15.6848C9.95333 15.4749 9.53 15.19 9.17 14.83C8.81 14.47 8.52507 14.0467 8.3152 13.56C8.10507 13.0733 8 12.5533 8 12C8 11.4467 8.10507 10.9267 8.3152 10.44C8.52507 9.95333 8.81 9.53 9.17 9.17C9.53 8.81 9.95333 8.52493 10.44 8.3148C10.9267 8.10493 11.4467 8 12 8C12.5533 8 13.0733 8.10493 13.56 8.3148C14.0467 8.52493 14.47 8.81 14.83 9.17C15.19 9.53 15.4749 9.95333 15.6848 10.44C15.8949 10.9267 16 11.4467 16 12C16 12.5533 15.8949 13.0733 15.6848 13.56C15.4749 14.0467 15.19 14.47 14.83 14.83C14.47 15.19 14.0467 15.4749 13.56 15.6848C13.0733 15.8949 12.5533 16 12 16Z" />
</svg>
