<svg width="18" height="20" viewBox="0 0 18 20" fill="none" xmlns="http://www.w3.org/2000/svg">
<path d="M3 1.98438V10L5.48438 8.5L8.01562 10V1.98438H3ZM15 0.015625C15.5312 0.015625 16 0.21875 16.4062 0.625C16.8125 1 17.0156 1.45313 17.0156 1.98438V18.0156C17.0156 18.5469 16.8125 19.0156 16.4062 19.4219C16 19.7969 15.5312 19.9844 15 19.9844H3C2.46875 19.9844 2 19.7969 1.59375 19.4219C1.1875 19.0156 0.984375 18.5469 0.984375 18.0156V1.98438C0.984375 1.45313 1.1875 1 1.59375 0.625C2 0.21875 2.46875 0.015625 3 0.015625H15Z" fill="class-copy"/>
</svg>
