<svg width="20" height="20" viewBox="0 0 20 20" xmlns="http://www.w3.org/2000/svg">
<path fill-rule="evenodd" clip-rule="evenodd" d="M3.11586 2.42021C2.93136 2.42021 2.75442 2.4935 2.62396 2.62396C2.4935 2.75442 2.42021 2.93136 2.42021 3.11586V10.0724C2.42021 10.2569 2.4935 10.4338 2.62396 10.5643C2.75442 10.6947 2.93136 10.768 3.11586 10.768H3.81151V6.59412C3.81151 5.85613 4.10468 5.14836 4.62652 4.62652C5.14836 4.10468 5.85613 3.81151 6.59412 3.81151H10.768V3.11586C10.768 2.93136 10.6947 2.75442 10.5643 2.62396C10.4338 2.4935 10.2569 2.42021 10.0724 2.42021H3.11586ZM12.855 3.81151V3.11586C12.855 2.37787 12.5618 1.6701 12.04 1.14826C11.5181 0.626419 10.8104 0.333252 10.0724 0.333252H3.11586C2.37787 0.333252 1.6701 0.626419 1.14826 1.14826C0.626419 1.6701 0.333252 2.37787 0.333252 3.11586V10.0724C0.333252 10.8104 0.626419 11.5181 1.14826 12.04C1.6701 12.5618 2.37787 12.855 3.11586 12.855H3.81151V13.5506C3.81151 14.2886 4.10468 14.9964 4.62652 15.5182C5.14836 16.0401 5.85613 16.3333 6.59412 16.3333H13.5506C14.2886 16.3333 14.9964 16.0401 15.5182 15.5182C16.0401 14.9964 16.3333 14.2886 16.3333 13.5506V6.59412C16.3333 5.85613 16.0401 5.14836 15.5182 4.62652C14.9964 4.10468 14.2886 3.81151 13.5506 3.81151H12.855ZM6.59412 5.89847C6.40962 5.89847 6.23268 5.97176 6.10222 6.10222C5.97176 6.23268 5.89847 6.40962 5.89847 6.59412V13.5506C5.89847 13.7351 5.97176 13.9121 6.10222 14.0425C6.23268 14.173 6.40962 14.2463 6.59412 14.2463H13.5506C13.7351 14.2463 13.9121 14.173 14.0425 14.0425C14.173 13.9121 14.2463 13.7351 14.2463 13.5506V6.59412C14.2463 6.40962 14.173 6.23268 14.0425 6.10222C13.9121 5.97176 13.7351 5.89847 13.5506 5.89847H6.59412Z" />
</svg>
