<svg width="24" height="24" viewBox="0 0 24 24" fill="none" xmlns="http://www.w3.org/2000/svg">
<path d="M9 14.25C8.65 14.25 8.35433 14.129 8.113 13.887C7.871 13.6457 7.75 13.35 7.75 13C7.75 12.65 7.871 12.3543 8.113 12.113C8.35433 11.871 8.65 11.75 9 11.75C9.35 11.75 9.64567 11.871 9.887 12.113C10.129 12.3543 10.25 12.65 10.25 13C10.25 13.35 10.129 13.6457 9.887 13.887C9.64567 14.129 9.35 14.25 9 14.25ZM15 14.25C14.65 14.25 14.3543 14.129 14.113 13.887C13.871 13.6457 13.75 13.35 13.75 13C13.75 12.65 13.871 12.3543 14.113 12.113C14.3543 11.871 14.65 11.75 15 11.75C15.35 11.75 15.6457 11.871 15.887 12.113C16.129 12.3543 16.25 12.65 16.25 13C16.25 13.35 16.129 13.6457 15.887 13.887C15.6457 14.129 15.35 14.25 15 14.25ZM12 20C14.2333 20 16.125 19.225 17.675 17.675C19.225 16.125 20 14.2333 20 12C20 11.6 19.975 11.2123 19.925 10.837C19.875 10.4623 19.7833 10.1 19.65 9.75C19.3 9.83333 18.95 9.896 18.6 9.938C18.25 9.97933 17.8833 10 17.5 10C15.9833 10 14.55 9.675 13.2 9.025C11.85 8.375 10.7 7.46667 9.75 6.3C9.21667 7.6 8.45433 8.72933 7.463 9.688C6.471 10.646 5.31667 11.3667 4 11.85V12C4 14.2333 4.775 16.125 6.325 17.675C7.875 19.225 9.76667 20 12 20ZM12 22C10.6167 22 9.31667 21.7373 8.1 21.212C6.88333 20.6873 5.825 19.975 4.925 19.075C4.025 18.175 3.31267 17.1167 2.788 15.9C2.26267 14.6833 2 13.3833 2 12C2 10.6167 2.26267 9.31667 2.788 8.1C3.31267 6.88333 4.025 5.825 4.925 4.925C5.825 4.025 6.88333 3.31233 8.1 2.787C9.31667 2.26233 10.6167 2 12 2C13.3833 2 14.6833 2.26233 15.9 2.787C17.1167 3.31233 18.175 4.025 19.075 4.925C19.975 5.825 20.6873 6.88333 21.212 8.1C21.7373 9.31667 22 10.6167 22 12C22 13.3833 21.7373 14.6833 21.212 15.9C20.6873 17.1167 19.975 18.175 19.075 19.075C18.175 19.975 17.1167 20.6873 15.9 21.212C14.6833 21.7373 13.3833 22 12 22Z" />
</svg>
