<svg width="20" height="20" viewBox="0 0 20 20" fill="none" xmlns="http://www.w3.org/2000/svg">
<circle cx="10" cy="9" r="8" />
<path fill-rule="evenodd" clip-rule="evenodd" d="M10.8784 5.01675C11.017 5.05356 11.1331 5.14812 11.1973 5.2764C11.439 5.75996 11.6195 6.05344 11.801 6.2914C11.9848 6.53226 12.1792 6.72944 12.4749 7.02514C13.1582 7.70846 13.5 8.60506 13.5 9.50001C13.5 10.395 13.1582 11.2916 12.4749 11.9749C11.108 13.3417 8.89196 13.3417 7.52512 11.9749C6.84181 11.2916 6.5 10.395 6.5 9.50001C6.5 8.60506 6.8418 7.70846 7.52512 7.02514C7.66812 6.88214 7.88318 6.83936 8.07002 6.91675C8.25686 6.99414 8.37868 7.17646 8.37868 7.37869C8.37868 7.9386 8.41364 8.36522 8.5774 8.70551C8.66745 8.89263 8.80792 9.07557 9.05002 9.23881C9.10784 8.70843 9.21375 8.06224 9.35687 7.44888C9.46955 6.96597 9.60969 6.48386 9.77649 6.08183C9.85992 5.88074 9.95427 5.68927 10.0614 5.52395C10.1657 5.36304 10.2997 5.19929 10.4727 5.08398C10.592 5.00442 10.7398 4.97994 10.8784 5.01675ZM11.0607 11.5607C10.4749 12.1464 9.52512 12.1464 8.93934 11.5607C8.64644 11.2678 8.5 10.8839 8.5 10.5C8.5 10.5 8.93934 10.75 9.75002 10.75C9.75002 10.25 10 8.74999 10.375 8.49999C10.625 8.99999 10.7678 9.14644 11.0607 9.43934C11.3535 9.73223 11.5 10.1161 11.5 10.5C11.5 10.8839 11.3535 11.2678 11.0607 11.5607Z" fill="white"/>
</svg>
