<svg width="24" height="24" viewBox="0 0 24 24" fill="none" xmlns="http://www.w3.org/2000/svg">
<path d="M13.85 21.0504C12.9667 21.0504 12.2127 20.7464 11.588 20.1384C10.9627 19.5297 10.65 18.7837 10.65 17.9004C10.65 17.4004 10.7583 16.8671 10.975 16.3004C11.1917 15.7337 11.521 15.1964 11.963 14.6884C12.4043 14.1797 12.9623 13.7294 13.637 13.3374C14.3123 12.9461 15.1083 12.6754 16.025 12.5254C15.975 11.8587 15.8167 11.3877 15.55 11.1124C15.2833 10.8377 14.95 10.7004 14.55 10.7004C14.05 10.7004 13.5083 10.9087 12.925 11.3254C12.3417 11.7421 11.65 12.4254 10.85 13.3754C9.55 14.9254 8.596 15.9337 7.988 16.4004C7.37933 16.8671 6.725 17.1004 6.025 17.1004C5.175 17.1004 4.45833 16.7881 3.875 16.1634C3.29167 15.5381 3 14.7837 3 13.9004C3 13.0171 3.19567 12.1087 3.587 11.1754C3.979 10.2421 4.64167 9.12539 5.575 7.82539C5.875 7.39206 6.10433 7.02539 6.263 6.72539C6.421 6.42539 6.5 6.18372 6.5 6.00039C6.5 5.88372 6.47933 5.79606 6.438 5.73739C6.396 5.67939 6.33333 5.65039 6.25 5.65039C6.08333 5.65039 5.875 5.75439 5.625 5.96239C5.375 6.17106 5.08333 6.48372 4.75 6.90039L3 5.15039C3.53333 4.50039 4.075 4.00439 4.625 3.66239C5.175 3.32106 5.71667 3.15039 6.25 3.15039C7.03333 3.15039 7.68767 3.42106 8.213 3.96239C8.73767 4.50439 9 5.16706 9 5.95039C9 6.43372 8.875 6.96272 8.625 7.53739C8.375 8.11272 7.95833 8.80039 7.375 9.60039C6.74167 10.5004 6.271 11.2921 5.963 11.9754C5.65433 12.6587 5.5 13.2421 5.5 13.7254C5.5 14.0087 5.546 14.2254 5.638 14.3754C5.72933 14.5254 5.85833 14.6004 6.025 14.6004C6.225 14.6004 6.50433 14.4294 6.863 14.0874C7.221 13.7461 7.94167 12.9421 9.025 11.6754C9.54167 11.0587 10.0333 10.5294 10.5 10.0874C10.9667 9.64606 11.425 9.28772 11.875 9.01239C12.325 8.73772 12.7667 8.53372 13.2 8.40039C13.6333 8.26706 14.0833 8.20039 14.55 8.20039C15.8333 8.20039 16.796 8.62539 17.438 9.47539C18.0793 10.3254 18.4417 11.3004 18.525 12.4004H21V14.9004H18.525C18.425 16.3504 18.0167 17.7377 17.3 19.0624C16.5833 20.3877 15.4333 21.0504 13.85 21.0504ZM13.9 18.5504C14.55 18.5504 15.0377 18.1797 15.363 17.4384C15.6877 16.6964 15.9 15.9087 16 15.0754C15.0667 15.3087 14.3583 15.7127 13.875 16.2874C13.3917 16.8627 13.15 17.3671 13.15 17.8004C13.15 18.0337 13.2167 18.2171 13.35 18.3504C13.4833 18.4837 13.6667 18.5504 13.9 18.5504Z" />
</svg>
