<svg width="20" height="20" viewBox="0 0 20 20" xmlns="http://www.w3.org/2000/svg">
<path fill-rule="evenodd" clip-rule="evenodd" d="M7.32651 0.0267496C7.80276 0.145812 8.09231 0.628408 7.97325 1.10466L7.13828 4.44454H10.639L11.5818 0.673494C11.7009 0.197245 12.1834 -0.0923129 12.6597 0.0267496C13.1359 0.145812 13.4255 0.628408 13.3064 1.10466L12.4715 4.44454H15.1107C15.6016 4.44454 15.9996 4.8425 15.9996 5.3334C15.9996 5.82431 15.6016 6.22227 15.1107 6.22227H12.027L11.1382 9.77773H13.333C13.8239 9.77773 14.2218 10.1757 14.2218 10.6666C14.2218 11.1575 13.8239 11.5555 13.333 11.5555H10.6937L9.75098 15.3265C9.63192 15.8028 9.14932 16.0923 8.67307 15.9733C8.19682 15.8542 7.90727 15.3716 8.02633 14.8953L8.8613 11.5555H5.36055L4.41779 15.3265C4.29873 15.8028 3.81613 16.0923 3.33988 15.9733C2.86363 15.8542 2.57407 15.3716 2.69314 14.8953L3.52811 11.5555H0.888866C0.397959 11.5555 0 11.1575 0 10.6666C0 10.1757 0.397959 9.77773 0.888866 9.77773H3.97254L4.8614 6.22227H2.6666C2.17569 6.22227 1.77773 5.82431 1.77773 5.3334C1.77773 4.8425 2.17569 4.44454 2.6666 4.44454H5.30584L6.2486 0.673494C6.36766 0.197245 6.85026 -0.0923129 7.32651 0.0267496ZM6.69385 6.22227L5.80498 9.77773H9.30573L10.1946 6.22227H6.69385Z" />
</svg>
