<svg width="20" height="20" viewBox="0 0 20 20" xmlns="http://www.w3.org/2000/svg">
<path fill-rule="evenodd" clip-rule="evenodd" d="M12.5863 4.58568C12.7708 4.39465 12.9915 4.24229 13.2355 4.13747C13.4795 4.03265 13.742 3.97748 14.0075 3.97517C14.2731 3.97287 14.5364 4.02347 14.7822 4.12403C15.028 4.22459 15.2513 4.3731 15.4391 4.56089C15.6269 4.74867 15.7754 4.97197 15.876 5.21777C15.9765 5.46356 16.0271 5.72692 16.0248 5.99248C16.0225 6.25804 15.9673 6.52048 15.8625 6.76448C15.7577 7.00849 15.6053 7.22918 15.4143 7.41368L12.4143 10.4137C12.0393 10.7886 11.5307 10.9992 11.0003 10.9992C10.47 10.9992 9.96138 10.7886 9.58633 10.4137C9.39772 10.2315 9.14512 10.1307 8.88292 10.133C8.62073 10.1353 8.36991 10.2404 8.18451 10.4259C7.9991 10.6113 7.89393 10.8621 7.89165 11.1243C7.88937 11.3865 7.99017 11.6391 8.17232 11.8277C8.92244 12.5776 9.93967 12.9988 11.0003 12.9988C12.061 12.9988 13.0782 12.5776 13.8283 11.8277L16.8283 8.82768C17.557 8.07327 17.9601 7.06286 17.951 6.01407C17.9419 4.96528 17.5212 3.96203 16.7796 3.2204C16.038 2.47877 15.0347 2.05809 13.9859 2.04898C12.9371 2.03987 11.9267 2.44304 11.1723 3.17168L9.67232 4.67168C9.57681 4.76392 9.50063 4.87427 9.44822 4.99627C9.39581 5.11827 9.36823 5.2495 9.36707 5.38227C9.36592 5.51505 9.39122 5.64673 9.4415 5.76963C9.49178 5.89253 9.56604 6.00418 9.65993 6.09807C9.75382 6.19196 9.86547 6.26622 9.98837 6.3165C10.1113 6.36678 10.2429 6.39208 10.3757 6.39093C10.5085 6.38977 10.6397 6.36219 10.7617 6.30978C10.8837 6.25737 10.9941 6.18119 11.0863 6.08568L12.5863 4.58568ZM7.58632 9.58568C7.96138 9.21073 8.47 9.0001 9.00032 9.0001C9.53065 9.0001 10.0393 9.21073 10.4143 9.58568C10.5066 9.68119 10.6169 9.75737 10.7389 9.80978C10.8609 9.86219 10.9921 9.88977 11.1249 9.89093C11.2577 9.89208 11.3894 9.86678 11.5123 9.8165C11.6352 9.76622 11.7468 9.69196 11.8407 9.59807C11.9346 9.50418 12.0089 9.39253 12.0591 9.26963C12.1094 9.14673 12.1347 9.01505 12.1336 8.88227C12.1324 8.7495 12.1048 8.61828 12.0524 8.49627C12 8.37427 11.9238 8.26392 11.8283 8.17168C11.0782 7.42179 10.061 7.00053 9.00032 7.00053C7.93967 7.00053 6.92244 7.42179 6.17232 8.17168L3.17232 11.1717C2.79028 11.5407 2.48556 11.982 2.27592 12.4701C2.06628 12.9581 1.95594 13.483 1.95132 14.0141C1.94671 14.5452 2.04791 15.0719 2.24904 15.5635C2.45016 16.0551 2.74717 16.5017 3.12274 16.8773C3.49832 17.2528 3.94492 17.5498 4.43651 17.751C4.92809 17.9521 5.45481 18.0533 5.98593 18.0487C6.51705 18.0441 7.04193 17.9337 7.52994 17.7241C8.01796 17.5144 8.45934 17.2097 8.82832 16.8277L10.3283 15.3277C10.4238 15.2354 10.5 15.1251 10.5524 15.0031C10.6048 14.8811 10.6324 14.7499 10.6336 14.6171C10.6347 14.4843 10.6094 14.3526 10.5591 14.2297C10.5089 14.1068 10.4346 13.9952 10.3407 13.9013C10.2468 13.8074 10.1352 13.7331 10.0123 13.6829C9.88938 13.6326 9.7577 13.6073 9.62492 13.6084C9.49214 13.6096 9.36092 13.6372 9.23892 13.6896C9.11692 13.742 9.00657 13.8182 8.91432 13.9137L7.41432 15.4137C7.22983 15.6047 7.00914 15.7571 6.76513 15.8619C6.52113 15.9667 6.25869 16.0219 5.99313 16.0242C5.72757 16.0265 5.46421 15.9759 5.21842 15.8753C4.97262 15.7748 4.74932 15.6263 4.56153 15.4385C4.37375 15.2507 4.22524 15.0274 4.12468 14.7816C4.02412 14.5358 3.97352 14.2724 3.97582 14.0069C3.97813 13.7413 4.0333 13.4789 4.13812 13.2349C4.24294 12.9909 4.3953 12.7702 4.58632 12.5857L7.58632 9.58568Z"/>
</svg>
