<svg width="24" height="24" viewBox="0 0 24 24" fill="none" xmlns="http://www.w3.org/2000/svg">
<path d="M12 22.5C10.8 21.3667 9.425 20.5 7.875 19.9C6.325 19.3 4.7 19 3 19V8C4.68333 8 6.3 8.304 7.85 8.912C9.4 9.52067 10.7833 10.4 12 11.55C13.2167 10.4 14.6 9.52067 16.15 8.912C17.7 8.304 19.3167 8 21 8V19C19.2833 19 17.6543 19.3 16.113 19.9C14.571 20.5 13.2 21.3667 12 22.5ZM12 9C10.9 9 9.95833 8.60833 9.175 7.825C8.39167 7.04167 8 6.1 8 5C8 3.9 8.39167 2.95833 9.175 2.175C9.95833 1.39167 10.9 1 12 1C13.1 1 14.0417 1.39167 14.825 2.175C15.6083 2.95833 16 3.9 16 5C16 6.1 15.6083 7.04167 14.825 7.825C14.0417 8.60833 13.1 9 12 9Z" />
</svg>
