<svg width="24" height="24" viewBox="0 0 24 24" fill="none" xmlns="http://www.w3.org/2000/svg">
<path d="M14 9.9V8.2C14.55 7.96667 15.1127 7.79167 15.688 7.675C16.2627 7.55833 16.8667 7.5 17.5 7.5C17.9333 7.5 18.3583 7.53333 18.775 7.6C19.1917 7.66667 19.6 7.75 20 7.85V9.45C19.6 9.3 19.196 9.18767 18.788 9.113C18.3793 9.03767 17.95 9 17.5 9C16.8667 9 16.2583 9.07933 15.675 9.238C15.0917 9.396 14.5333 9.61667 14 9.9ZM14 15.4V13.7C14.55 13.4667 15.1127 13.2917 15.688 13.175C16.2627 13.0583 16.8667 13 17.5 13C17.9333 13 18.3583 13.0333 18.775 13.1C19.1917 13.1667 19.6 13.25 20 13.35V14.95C19.6 14.8 19.196 14.6877 18.788 14.613C18.3793 14.5377 17.95 14.5 17.5 14.5C16.8667 14.5 16.2583 14.575 15.675 14.725C15.0917 14.875 14.5333 15.1 14 15.4ZM14 12.65V10.95C14.55 10.7167 15.1127 10.5417 15.688 10.425C16.2627 10.3083 16.8667 10.25 17.5 10.25C17.9333 10.25 18.3583 10.2833 18.775 10.35C19.1917 10.4167 19.6 10.5 20 10.6V12.2C19.6 12.05 19.196 11.9377 18.788 11.863C18.3793 11.7877 17.95 11.75 17.5 11.75C16.8667 11.75 16.2583 11.8293 15.675 11.988C15.0917 12.146 14.5333 12.3667 14 12.65ZM13 17.05C13.7333 16.7 14.471 16.4373 15.213 16.262C15.9543 16.0873 16.7167 16 17.5 16C18.1 16 18.6877 16.05 19.263 16.15C19.8377 16.25 20.4167 16.4 21 16.6V6.7C20.45 6.46667 19.8793 6.29167 19.288 6.175C18.696 6.05833 18.1 6 17.5 6C16.7167 6 15.9417 6.1 15.175 6.3C14.4083 6.5 13.6833 6.8 13 7.2V17.05ZM12 20C11.2 19.3667 10.3333 18.875 9.4 18.525C8.46667 18.175 7.5 18 6.5 18C5.61667 18 4.69167 18.1667 3.725 18.5C2.75833 18.8333 1.85 19.35 1 20.05V5.55C1.73333 5.05 2.596 4.66667 3.588 4.4C4.57933 4.13333 5.55 4 6.5 4C7.46667 4 8.41267 4.125 9.338 4.375C10.2627 4.625 11.15 5 12 5.5C12.85 5 13.7377 4.625 14.663 4.375C15.5877 4.125 16.5333 4 17.5 4C18.45 4 19.421 4.13333 20.413 4.4C21.4043 4.66667 22.2667 5.05 23 5.55V20.05C22.1667 19.35 21.2627 18.8333 20.288 18.5C19.3127 18.1667 18.3833 18 17.5 18C16.5 18 15.5333 18.175 14.6 18.525C13.6667 18.875 12.8 19.3667 12 20Z" />
</svg>
