<svg width="20" height="20" viewBox="0 0 20 20" fill="none" xmlns="http://www.w3.org/2000/svg">
<path d="M13.0938 14.5469C12.1875 15.1719 11.1562 15.4844 10 15.4844C8.84375 15.4844 7.79688 15.1719 6.85938 14.5469C5.95312 13.8906 5.29688 13.0469 4.89062 12.0156H15.1094C14.7031 13.0469 14.0312 13.8906 13.0938 14.5469ZM7.51562 8.59375C7.23438 8.875 6.89062 9.01562 6.48438 9.01562C6.07812 9.01562 5.71875 8.875 5.40625 8.59375C5.125 8.28125 4.98438 7.92188 4.98438 7.51562C4.98438 7.10938 5.125 6.76562 5.40625 6.48438C5.71875 6.17188 6.07812 6.01562 6.48438 6.01562C6.89062 6.01562 7.23438 6.17188 7.51562 6.48438C7.82812 6.76562 7.98438 7.10938 7.98438 7.51562C7.98438 7.92188 7.82812 8.28125 7.51562 8.59375ZM14.5469 8.59375C14.2656 8.875 13.9219 9.01562 13.5156 9.01562C13.1094 9.01562 12.75 8.875 12.4375 8.59375C12.1562 8.28125 12.0156 7.92188 12.0156 7.51562C12.0156 7.10938 12.1562 6.76562 12.4375 6.48438C12.75 6.17188 13.1094 6.01562 13.5156 6.01562C13.9219 6.01562 14.2656 6.17188 14.5469 6.48438C14.8594 6.76562 15.0156 7.10938 15.0156 7.51562C15.0156 7.92188 14.8594 8.28125 14.5469 8.59375ZM4.32812 15.6719C5.92188 17.2344 7.8125 18.0156 10 18.0156C12.1875 18.0156 14.0625 17.2344 15.625 15.6719C17.2188 14.0781 18.0156 12.1875 18.0156 10C18.0156 7.8125 17.2188 5.9375 15.625 4.375C14.0625 2.78125 12.1875 1.98438 10 1.98438C7.8125 1.98438 5.92188 2.78125 4.32812 4.375C2.76562 5.9375 1.98438 7.8125 1.98438 10C1.98438 12.1875 2.76562 14.0781 4.32812 15.6719ZM2.92188 2.96875C4.89062 1 7.25 0.015625 10 0.015625C12.75 0.015625 15.0938 1 17.0312 2.96875C19 4.90625 19.9844 7.25 19.9844 10C19.9844 12.75 19 15.1094 17.0312 17.0781C15.0938 19.0156 12.75 19.9844 10 19.9844C7.25 19.9844 4.89062 19.0156 2.92188 17.0781C0.984375 15.1094 0.015625 12.75 0.015625 10C0.015625 7.25 0.984375 4.90625 2.92188 2.96875Z" />
</svg>
