<svg width="20" height="20" viewBox="0 0 20 20" xmlns="http://www.w3.org/2000/svg">
<path d="M13.586 3.58519C13.7705 3.39417 13.9912 3.2418 14.2352 3.13698C14.4792 3.03216 14.7416 2.97699 15.0072 2.97468C15.2728 2.97238 15.5361 3.02298 15.7819 3.12354C16.0277 3.2241 16.251 3.37261 16.4388 3.5604C16.6266 3.74818 16.7751 3.97148 16.8756 4.21728C16.9762 4.46307 17.0268 4.72643 17.0245 4.99199C17.0222 5.25755 16.967 5.51999 16.8622 5.76399C16.7574 6.008 16.605 6.22869 16.414 6.41319L15.621 7.20619L12.793 4.37819L13.586 3.58519ZM11.379 5.79219L3 14.1712V16.9992H5.828L14.208 8.62019L11.378 5.79219H11.379Z" />
</svg>
