<svg width="24" height="24" viewBox="0 0 24 24" fill="none" xmlns="http://www.w3.org/2000/svg">
<path d="M19.95 15.9498L18.4 14.3998C19.1333 13.7165 19.7083 12.9081 20.125 11.9748C20.5417 11.0415 20.75 10.0498 20.75 8.9998C20.75 7.9498 20.5417 6.96647 20.125 6.0498C19.7083 5.13314 19.1333 4.33314 18.4 3.6498L19.95 2.0498C20.8833 2.93314 21.625 3.9748 22.175 5.1748C22.725 6.3748 23 7.6498 23 8.9998C23 10.3498 22.725 11.6248 22.175 12.8248C21.625 14.0248 20.8833 15.0665 19.95 15.9498ZM16.75 12.7498L15.15 11.1498C15.45 10.8665 15.6917 10.5458 15.875 10.1878C16.0583 9.82914 16.15 9.43314 16.15 8.9998C16.15 8.56647 16.0583 8.17047 15.875 7.8118C15.6917 7.4538 15.45 7.13314 15.15 6.8498L16.75 5.2498C17.2833 5.73314 17.7 6.29547 18 6.9368C18.3 7.5788 18.45 8.26647 18.45 8.9998C18.45 9.73314 18.3 10.4205 18 11.0618C17.7 11.7038 17.2833 12.2665 16.75 12.7498ZM9 12.9998C7.9 12.9998 6.95833 12.6081 6.175 11.8248C5.39167 11.0415 5 10.0998 5 8.9998C5 7.8998 5.39167 6.95814 6.175 6.1748C6.95833 5.39147 7.9 4.9998 9 4.9998C10.1 4.9998 11.0417 5.39147 11.825 6.1748C12.6083 6.95814 13 7.8998 13 8.9998C13 10.0998 12.6083 11.0415 11.825 11.8248C11.0417 12.6081 10.1 12.9998 9 12.9998ZM1 20.9998V18.1998C1 17.6498 1.14167 17.1331 1.425 16.6498C1.70833 16.1665 2.1 15.7998 2.6 15.5498C3.45 15.1165 4.40833 14.7498 5.475 14.4498C6.54167 14.1498 7.71667 13.9998 9 13.9998C10.2833 13.9998 11.4583 14.1498 12.525 14.4498C13.5917 14.7498 14.55 15.1165 15.4 15.5498C15.9 15.7998 16.2917 16.1665 16.575 16.6498C16.8583 17.1331 17 17.6498 17 18.1998V20.9998H1Z" />
</svg>
