<svg width="20" height="20" viewBox="0 0 20 20" xmlns="http://www.w3.org/2000/svg">
<path fill-rule="evenodd" clip-rule="evenodd" d="M9.99979 3C10.265 3.00006 10.5193 3.10545 10.7068 3.293L13.7068 6.293C13.8889 6.4816 13.9897 6.7342 13.9875 6.9964C13.9852 7.2586 13.88 7.50941 13.6946 7.69482C13.5092 7.88023 13.2584 7.9854 12.9962 7.98767C12.734 7.98995 12.4814 7.88916 12.2928 7.707L9.99979 5.414L7.70679 7.707C7.51818 7.88916 7.26558 7.98995 7.00339 7.98767C6.74119 7.9854 6.49038 7.88023 6.30497 7.69482C6.11956 7.50941 6.01439 7.2586 6.01211 6.9964C6.00983 6.7342 6.11063 6.4816 6.29279 6.293L9.29279 3.293C9.48028 3.10545 9.73459 3.00006 9.99979 3ZM6.29279 12.293C6.48031 12.1055 6.73462 12.0002 6.99979 12.0002C7.26495 12.0002 7.51926 12.1055 7.70679 12.293L9.99979 14.586L12.2928 12.293C12.4814 12.1108 12.734 12.01 12.9962 12.0123C13.2584 12.0146 13.5092 12.1198 13.6946 12.3052C13.88 12.4906 13.9852 12.7414 13.9875 13.0036C13.9897 13.2658 13.8889 13.5184 13.7068 13.707L10.7068 16.707C10.5193 16.8945 10.265 16.9998 9.99979 16.9998C9.73462 16.9998 9.48031 16.8945 9.29279 16.707L6.29279 13.707C6.10532 13.5195 6 13.2652 6 13C6 12.7348 6.10532 12.4805 6.29279 12.293Z" />
</svg>
