<svg width="20" height="20" viewBox="0 0 20 20" xmlns="http://www.w3.org/2000/svg">
<path fill-rule="evenodd" clip-rule="evenodd" d="M11.4897 3.17C11.1097 1.61 8.88975 1.61 8.50975 3.17C8.45302 3.40442 8.34174 3.62213 8.18497 3.80541C8.02821 3.9887 7.83038 4.13238 7.60759 4.22477C7.38481 4.31716 7.14336 4.35564 6.90289 4.33709C6.66242 4.31854 6.42973 4.24347 6.22375 4.118C4.85175 3.282 3.28175 4.852 4.11775 6.224C4.65775 7.11 4.17875 8.266 3.17075 8.511C1.60975 8.89 1.60975 11.111 3.17075 11.489C3.40523 11.5458 3.62298 11.6572 3.80626 11.8141C3.98955 11.971 4.13319 12.1689 4.22549 12.3918C4.31779 12.6147 4.35614 12.8563 4.33742 13.0968C4.3187 13.3373 4.24343 13.5701 4.11775 13.776C3.28175 15.148 4.85175 16.718 6.22375 15.882C6.42969 15.7563 6.6624 15.6811 6.90293 15.6623C7.14347 15.6436 7.38502 15.682 7.60793 15.7743C7.83084 15.8666 8.02879 16.0102 8.18568 16.1935C8.34256 16.3768 8.45394 16.5945 8.51075 16.829C8.88975 18.39 11.1108 18.39 11.4888 16.829C11.5457 16.5946 11.6572 16.377 11.8142 16.1939C11.9711 16.0107 12.169 15.8672 12.3918 15.7749C12.6147 15.6826 12.8561 15.6442 13.0966 15.6628C13.3371 15.6815 13.5698 15.7565 13.7758 15.882C15.1477 16.718 16.7178 15.148 15.8818 13.776C15.7563 13.57 15.6812 13.3373 15.6626 13.0969C15.644 12.8564 15.6824 12.6149 15.7747 12.3921C15.8669 12.1692 16.0105 11.9713 16.1936 11.8144C16.3768 11.6575 16.5944 11.546 16.8288 11.489C18.3898 11.11 18.3898 8.889 16.8288 8.511C16.5943 8.45419 16.3765 8.34281 16.1932 8.18593C16.01 8.02904 15.8663 7.83109 15.774 7.60818C15.6817 7.38527 15.6434 7.14372 15.6621 6.90318C15.6808 6.66265 15.7561 6.42994 15.8818 6.224C16.7178 4.852 15.1477 3.282 13.7758 4.118C13.5698 4.24368 13.3371 4.31895 13.0966 4.33767C12.856 4.35639 12.6145 4.31804 12.3916 4.22574C12.1687 4.13344 11.9707 3.9898 11.8138 3.80651C11.6569 3.62323 11.5456 3.40548 11.4888 3.171L11.4897 3.17ZM9.99975 13C10.7954 13 11.5585 12.6839 12.1211 12.1213C12.6837 11.5587 12.9998 10.7956 12.9998 10C12.9998 9.20435 12.6837 8.44129 12.1211 7.87868C11.5585 7.31607 10.7954 7 9.99975 7C9.2041 7 8.44104 7.31607 7.87843 7.87868C7.31582 8.44129 6.99975 9.20435 6.99975 10C6.99975 10.7956 7.31582 11.5587 7.87843 12.1213C8.44104 12.6839 9.2041 13 9.99975 13Z" />
</svg>
