<svg width="24" height="24" viewBox="0 0 24 24" fill="none" xmlns="http://www.w3.org/2000/svg">
<path d="M8 24C7.71667 24 7.479 23.904 7.287 23.712C7.09567 23.5207 7 23.2833 7 23C7 22.7167 7.09567 22.4793 7.287 22.288C7.479 22.096 7.71667 22 8 22C8.28333 22 8.521 22.096 8.713 22.288C8.90433 22.4793 9 22.7167 9 23C9 23.2833 8.90433 23.5207 8.713 23.712C8.521 23.904 8.28333 24 8 24ZM12 24C11.7167 24 11.4793 23.904 11.288 23.712C11.096 23.5207 11 23.2833 11 23C11 22.7167 11.096 22.4793 11.288 22.288C11.4793 22.096 11.7167 22 12 22C12.2833 22 12.521 22.096 12.713 22.288C12.9043 22.4793 13 22.7167 13 23C13 23.2833 12.9043 23.5207 12.713 23.712C12.521 23.904 12.2833 24 12 24ZM16 24C15.7167 24 15.4793 23.904 15.288 23.712C15.096 23.5207 15 23.2833 15 23C15 22.7167 15.096 22.4793 15.288 22.288C15.4793 22.096 15.7167 22 16 22C16.2833 22 16.5207 22.096 16.712 22.288C16.904 22.4793 17 22.7167 17 23C17 23.2833 16.904 23.5207 16.712 23.712C16.5207 23.904 16.2833 24 16 24ZM12 14C11.1667 14 10.4583 13.7083 9.875 13.125C9.29167 12.5417 9 11.8333 9 11V5C9 4.16667 9.29167 3.45833 9.875 2.875C10.4583 2.29167 11.1667 2 12 2C12.8333 2 13.5417 2.29167 14.125 2.875C14.7083 3.45833 15 4.16667 15 5V11C15 11.8333 14.7083 12.5417 14.125 13.125C13.5417 13.7083 12.8333 14 12 14ZM11 21V17.9C9.26667 17.6667 7.83333 16.896 6.7 15.588C5.56667 14.2793 5 12.75 5 11H7C7 12.3833 7.48767 13.5623 8.463 14.537C9.43767 15.5123 10.6167 16 12 16C13.3833 16 14.5627 15.5123 15.538 14.537C16.5127 13.5623 17 12.3833 17 11H19C19 12.75 18.4333 14.2793 17.3 15.588C16.1667 16.896 14.7333 17.6667 13 17.9V21H11Z" />
</svg>
