<svg width="20" height="20" viewBox="0 0 20 20" xmlns="http://www.w3.org/2000/svg">
<path d="M15.0004 8C15.6096 8.00002 16.2043 7.8146 16.7055 7.4684C17.2067 7.1222 17.5907 6.63162 17.8063 6.06191C18.0219 5.49219 18.059 4.87034 17.9126 4.27904C17.7662 3.68774 17.4433 3.15501 16.9868 2.7517C16.5302 2.34839 15.9618 2.09362 15.3569 2.02125C14.7521 1.94888 14.1395 2.06235 13.6008 2.34658C13.062 2.6308 12.6225 3.0723 12.3407 3.61238C12.059 4.15245 11.9483 4.7655 12.0234 5.37L7.08342 7.84C6.65965 7.43136 6.12501 7.15642 5.54611 7.04945C4.96721 6.94247 4.36962 7.00819 3.8278 7.2384C3.28598 7.46862 2.82387 7.85317 2.49903 8.34414C2.17418 8.83511 2.00098 9.4108 2.00098 9.9995C2.00098 10.5882 2.17418 11.1639 2.49903 11.6549C2.82387 12.1458 3.28598 12.5304 3.8278 12.7606C4.36962 12.9908 4.96721 13.0565 5.54611 12.9496C6.12501 12.8426 6.65965 12.5676 7.08342 12.159L12.0234 14.629C11.9359 15.3312 12.0995 16.0418 12.4852 16.6351C12.8709 17.2284 13.454 17.6663 14.1313 17.8713C14.8086 18.0763 15.5366 18.0353 16.1866 17.7555C16.8366 17.4757 17.3668 16.9751 17.6834 16.3422C18 15.7093 18.0827 14.9849 17.9169 14.2969C17.751 13.6089 17.3473 13.0017 16.7771 12.5826C16.2069 12.1635 15.5069 11.9595 14.8007 12.0066C14.0946 12.0537 13.4279 12.3489 12.9184 12.84L7.97842 10.37C8.00868 10.1243 8.00868 9.87574 7.97842 9.63L12.9184 7.16C13.4564 7.68 14.1904 8 15.0004 8Z" />
</svg>
