<svg width="24" height="24" viewBox="0 0 24 24" fill="none" xmlns="http://www.w3.org/2000/svg">
<path d="M12 22C8.85002 21.6167 6.39601 20.4373 4.63801 18.462C2.87935 16.4873 2.00835 13.95 2.02501 10.85C3.85835 11.0333 5.40835 11.3667 6.67501 11.85C7.94168 12.3333 8.97101 13.0167 9.76301 13.9C10.5543 14.7833 11.125 15.8873 11.475 17.212C11.825 18.5373 12 20.1333 12 22ZM14 21.6C13.9667 20.4333 13.8793 19.3543 13.738 18.363C13.596 17.371 13.375 16.4333 13.075 15.55C13.8583 14.2 14.9373 13.1 16.312 12.25C17.6873 11.4 19.575 10.9333 21.975 10.85C21.9917 13.5 21.2877 15.775 19.863 17.675C18.4377 19.575 16.4833 20.8833 14 21.6ZM12 13.575C11.6167 12.9917 11.096 12.4167 10.438 11.85C9.77935 11.2833 9.01668 10.7667 8.15001 10.3C8.35001 8.88333 8.80001 7.42067 9.50001 5.912C10.2 4.404 11.0333 3.1 12 2C12.9667 3.1 13.8 4.404 14.5 5.912C15.2 7.42067 15.65 8.88333 15.85 10.3C14.9833 10.75 14.2207 11.2583 13.562 11.825C12.904 12.3917 12.3833 12.975 12 13.575Z" />
</svg>
