<svg width="24" height="24" viewBox="0 0 24 24" fill="none" xmlns="http://www.w3.org/2000/svg">
<path d="M1 21L12 2L23 21H1Z" fill="var(--eds-theme-color-icon-utility-warning-hover)"/>
<path d="M13 15H11V10H13V15Z" fill="var(--eds-theme-color-icon-neutral-default-inverse)"/>
<path d="M12.713 17.712C12.521 17.904 12.2833 18 12 18C11.7167 18 11.4793 17.904 11.288 17.712C11.096 17.5207 11 17.2833 11 17C11 16.7167 11.096 16.4793 11.288 16.288C11.4793 16.096 11.7167 16 12 16C12.2833 16 12.521 16.096 12.713 16.288C12.9043 16.4793 13 16.7167 13 17C13 17.2833 12.9043 17.5207 12.713 17.712Z" fill="var(--eds-theme-color-icon-neutral-default-inverse)"/>
</svg>
