<svg width="24" height="24" viewBox="0 0 24 24" fill="none" xmlns="http://www.w3.org/2000/svg">
<path d="M9.5 13.5C8.53333 13.5 7.70833 13.1583 7.025 12.475C6.34167 11.7917 6 10.9667 6 10C6 9.03333 6.34167 8.20833 7.025 7.525C7.70833 6.84167 8.53333 6.5 9.5 6.5C10.4667 6.5 11.2917 6.84167 11.975 7.525C12.6583 8.20833 13 9.03333 13 10C13 10.9667 12.6583 11.7917 11.975 12.475C11.2917 13.1583 10.4667 13.5 9.5 13.5ZM9.5 11.5C9.91667 11.5 10.2707 11.354 10.562 11.062C10.854 10.7707 11 10.4167 11 10C11 9.58333 10.854 9.22933 10.562 8.938C10.2707 8.646 9.91667 8.5 9.5 8.5C9.08333 8.5 8.72933 8.646 8.438 8.938C8.146 9.22933 8 9.58333 8 10C8 10.4167 8.146 10.7707 8.438 11.062C8.72933 11.354 9.08333 11.5 9.5 11.5ZM16.5 14.5C15.8 14.5 15.2083 14.2583 14.725 13.775C14.2417 13.2917 14 12.7 14 12C14 11.3 14.2417 10.7083 14.725 10.225C15.2083 9.74167 15.8 9.5 16.5 9.5C17.2 9.5 17.7917 9.74167 18.275 10.225C18.7583 10.7083 19 11.3 19 12C19 12.7 18.7583 13.2917 18.275 13.775C17.7917 14.2583 17.2 14.5 16.5 14.5ZM10.3 19.8C11.05 18.2833 12.05 17.2707 13.3 16.762C14.55 16.254 15.6167 16 16.5 16C16.8833 16 17.2583 16.0333 17.625 16.1C17.9917 16.1667 18.35 16.25 18.7 16.35C19.1 15.7167 19.4167 15.0333 19.65 14.3C19.8833 13.5667 20 12.8 20 12C20 9.76667 19.225 7.875 17.675 6.325C16.125 4.775 14.2333 4 12 4C9.76667 4 7.875 4.775 6.325 6.325C4.775 7.875 4 9.76667 4 12C4 12.75 4.09567 13.4667 4.287 14.15C4.479 14.8333 4.76667 15.4667 5.15 16.05C5.8 15.7167 6.48767 15.4583 7.213 15.275C7.93767 15.0917 8.7 15 9.5 15C10.0333 15 10.546 15.0457 11.038 15.137C11.5293 15.229 12.0167 15.35 12.5 15.5C12.1167 15.7 11.7543 15.9333 11.413 16.2C11.071 16.4667 10.75 16.75 10.45 17.05C10.25 17.0167 10.0793 17 9.938 17C9.796 17 9.65 17 9.5 17C8.95 17 8.41667 17.0583 7.9 17.175C7.38333 17.2917 6.88333 17.4667 6.4 17.7C6.93333 18.2333 7.52933 18.6793 8.188 19.038C8.846 19.396 9.55 19.65 10.3 19.8ZM12 22C10.6167 22 9.31667 21.7373 8.1 21.212C6.88333 20.6873 5.825 19.975 4.925 19.075C4.025 18.175 3.31267 17.1167 2.788 15.9C2.26267 14.6833 2 13.3833 2 12C2 10.6167 2.26267 9.31667 2.788 8.1C3.31267 6.88333 4.025 5.825 4.925 4.925C5.825 4.025 6.88333 3.31233 8.1 2.787C9.31667 2.26233 10.6167 2 12 2C13.3833 2 14.6833 2.26233 15.9 2.787C17.1167 3.31233 18.175 4.025 19.075 4.925C19.975 5.825 20.6873 6.88333 21.212 8.1C21.7373 9.31667 22 10.6167 22 12C22 13.3833 21.7373 14.6833 21.212 15.9C20.6873 17.1167 19.975 18.175 19.075 19.075C18.175 19.975 17.1167 20.6873 15.9 21.212C14.6833 21.7373 13.3833 22 12 22Z" />
</svg>
