<svg width="24" height="24" viewBox="0 0 24 24" fill="none" xmlns="http://www.w3.org/2000/svg">
<path d="M3 18C2.45 18 1.97933 17.8043 1.588 17.413C1.196 17.021 1 16.55 1 16C1 15.45 1.196 14.979 1.588 14.587C1.97933 14.1957 2.45 14 3 14C3.1 14 3.18767 14 3.263 14C3.33767 14 3.41667 14.0167 3.5 14.05L8.05 9.5C8.01667 9.41667 8 9.33733 8 9.262C8 9.18733 8 9.1 8 9C8 8.45 8.196 7.979 8.588 7.587C8.97933 7.19567 9.45 7 10 7C10.55 7 11.021 7.19567 11.413 7.587C11.8043 7.979 12 8.45 12 9C12 9.03333 11.9833 9.2 11.95 9.5L14.5 12.05C14.5833 12.0167 14.6627 12 14.738 12C14.8127 12 14.9 12 15 12C15.1 12 15.1873 12 15.262 12C15.3373 12 15.4167 12.0167 15.5 12.05L19.05 8.5C19.0167 8.41667 19 8.33733 19 8.262C19 8.18733 19 8.1 19 8C19 7.45 19.1957 6.97933 19.587 6.588C19.979 6.196 20.45 6 21 6C21.55 6 22.021 6.196 22.413 6.588C22.8043 6.97933 23 7.45 23 8C23 8.55 22.8043 9.02067 22.413 9.412C22.021 9.804 21.55 10 21 10C20.9 10 20.8127 10 20.738 10C20.6627 10 20.5833 9.98333 20.5 9.95L16.95 13.5C16.9833 13.5833 17 13.6627 17 13.738C17 13.8127 17 13.9 17 14C17 14.55 16.8043 15.0207 16.413 15.412C16.021 15.804 15.55 16 15 16C14.45 16 13.9793 15.804 13.588 15.412C13.196 15.0207 13 14.55 13 14C13 13.9 13 13.8127 13 13.738C13 13.6627 13.0167 13.5833 13.05 13.5L10.5 10.95C10.4167 10.9833 10.3373 11 10.262 11C10.1873 11 10.1 11 10 11C9.96667 11 9.8 10.9833 9.5 10.95L4.95 15.5C4.98333 15.5833 5 15.6627 5 15.738C5 15.8127 5 15.9 5 16C5 16.55 4.804 17.021 4.412 17.413C4.02067 17.8043 3.55 18 3 18Z" />
</svg>
