<svg width="24" height="24" viewBox="0 0 24 24" fill="none" xmlns="http://www.w3.org/2000/svg">
<path d="M19.95 17.2502L7.85 5.0002C8.48333 4.66686 9.146 4.41686 9.838 4.2502C10.5293 4.08353 11.25 4.0002 12 4.0002C13.2333 4.0002 14.396 4.23353 15.488 4.7002C16.5793 5.16686 17.5333 5.81253 18.35 6.6372C19.1667 7.46253 19.8127 8.4252 20.288 9.5252C20.7627 10.6252 21 11.8169 21 13.1002C21 13.8502 20.9083 14.5709 20.725 15.2622C20.5417 15.9542 20.2833 16.6169 19.95 17.2502ZM21.25 8.0002L17 3.7502L18.4 2.3502L22.65 6.60019L21.25 8.0002ZM20.5 23.4002L17.35 20.2502C16.6 20.8002 15.771 21.2295 14.863 21.5382C13.9543 21.8462 13 22.0002 12 22.0002C10.7667 22.0002 9.604 21.7669 8.512 21.3002C7.42066 20.8335 6.46666 20.2002 5.65 19.4002C4.83333 18.6002 4.18733 17.6585 3.712 16.5752C3.23733 15.4919 3 14.3335 3 13.1002C3 12.0669 3.15433 11.0962 3.463 10.1882C3.771 9.27953 4.21666 8.4502 4.8 7.7002L3.95 6.85019L2.75 8.0502L1.35 6.6502L2.55 5.4502L0.699997 3.6002L2.1 2.2002L21.9 22.0002L20.5 23.4002Z" />
</svg>
