<svg width="20" height="20" viewBox="0 0 20 20" xmlns="http://www.w3.org/2000/svg">
<path fill-rule="evenodd" clip-rule="evenodd" d="M12.0004 12.9994C11.7352 12.9994 11.4808 13.1048 11.2933 13.2923C11.1058 13.4799 11.0004 13.7342 11.0004 13.9994C11.0004 14.2646 11.1058 14.519 11.2933 14.7065C11.4808 14.8941 11.7352 14.9994 12.0004 14.9994H17.0004C17.2656 14.9994 17.52 14.8941 17.7075 14.7065C17.8951 14.519 18.0004 14.2646 18.0004 13.9994V8.99943C18.0004 8.73421 17.8951 8.47986 17.7075 8.29232C17.52 8.10479 17.2656 7.99943 17.0004 7.99943C16.7352 7.99943 16.4808 8.10479 16.2933 8.29232C16.1058 8.47986 16.0004 8.73421 16.0004 8.99943V11.5854L11.7074 7.29243C11.5199 7.10496 11.2656 6.99964 11.0004 6.99964C10.7352 6.99964 10.4809 7.10496 10.2934 7.29243L8.00041 9.58543L3.70741 5.29243C3.5188 5.11027 3.2662 5.00948 3.00401 5.01176C2.74181 5.01403 2.491 5.1192 2.30559 5.30461C2.12018 5.49002 2.01501 5.74083 2.01273 6.00303C2.01045 6.26523 2.11125 6.51783 2.29341 6.70643L7.29341 11.7064C7.48094 11.8939 7.73524 11.9992 8.00041 11.9992C8.26557 11.9992 8.51988 11.8939 8.70741 11.7064L11.0004 9.41343L14.5864 12.9994H12.0004Z" />
</svg>
