<svg width="20" height="20" viewBox="0 0 20 20" xmlns="http://www.w3.org/2000/svg">
<path fill-rule="evenodd" clip-rule="evenodd" d="M12.0004 7C11.7352 7 11.4808 6.89464 11.2933 6.70711C11.1058 6.51957 11.0004 6.26522 11.0004 6C11.0004 5.73478 11.1058 5.48043 11.2933 5.29289C11.4808 5.10536 11.7352 5 12.0004 5H17.0004C17.2656 5 17.52 5.10536 17.7075 5.29289C17.8951 5.48043 18.0004 5.73478 18.0004 6V11C18.0004 11.2652 17.8951 11.5196 17.7075 11.7071C17.52 11.8946 17.2656 12 17.0004 12C16.7352 12 16.4808 11.8946 16.2933 11.7071C16.1058 11.5196 16.0004 11.2652 16.0004 11V8.414L11.7074 12.707C11.5199 12.8945 11.2656 12.9998 11.0004 12.9998C10.7352 12.9998 10.4809 12.8945 10.2934 12.707L8.00041 10.414L3.70741 14.707C3.5188 14.8892 3.2662 14.99 3.00401 14.9877C2.74181 14.9854 2.491 14.8802 2.30559 14.6948C2.12018 14.5094 2.01501 14.2586 2.01273 13.9964C2.01045 13.7342 2.11125 13.4816 2.29341 13.293L7.29341 8.293C7.48094 8.10553 7.73524 8.00021 8.00041 8.00021C8.26557 8.00021 8.51988 8.10553 8.70741 8.293L11.0004 10.586L14.5864 7H12.0004Z" />
</svg>
