<svg width="20" height="20" viewBox="0 0 20 20" xmlns="http://www.w3.org/2000/svg">
<path fill-rule="evenodd" clip-rule="evenodd" d="M8.25685 3.09812C9.02185 1.73812 10.9788 1.73812 11.7428 3.09812L17.3228 13.0181C18.0728 14.3521 17.1098 15.9981 15.5808 15.9981H4.41985C2.88985 15.9981 1.92685 14.3521 2.67685 13.0181L8.25685 3.09812ZM10.9998 12.9991C10.9998 13.2643 10.8945 13.5187 10.707 13.7062C10.5194 13.8938 10.2651 13.9991 9.99985 13.9991C9.73463 13.9991 9.48028 13.8938 9.29274 13.7062C9.10521 13.5187 8.99985 13.2643 8.99985 12.9991C8.99985 12.7339 9.10521 12.4796 9.29274 12.292C9.48028 12.1045 9.73463 11.9991 9.99985 11.9991C10.2651 11.9991 10.5194 12.1045 10.707 12.292C10.8945 12.4796 10.9998 12.7339 10.9998 12.9991ZM9.99985 4.99913C9.73463 4.99913 9.48028 5.10448 9.29274 5.29202C9.10521 5.47955 8.99985 5.73391 8.99985 5.99913V8.99913C8.99985 9.26434 9.10521 9.5187 9.29274 9.70623C9.48028 9.89377 9.73463 9.99913 9.99985 9.99913C10.2651 9.99913 10.5194 9.89377 10.707 9.70623C10.8945 9.5187 10.9998 9.26434 10.9998 8.99913V5.99913C10.9998 5.73391 10.8945 5.47955 10.707 5.29202C10.5194 5.10448 10.2651 4.99913 9.99985 4.99913Z"/>
</svg>
