<svg width="21" height="20" viewBox="0 0 21 20" fill="none" xmlns="http://www.w3.org/2000/svg">
<path d="M9.9954 4.00098L14.6596 13.3161C15.3713 12.9602 16.1952 12.9015 16.9502 13.1531C17.7051 13.4047 18.3292 13.9459 18.6851 14.6576C19.041 15.3693 19.0996 16.1932 18.8481 16.9482C18.5965 17.7031 18.0553 18.3272 17.3436 18.6831C16.9912 18.8593 16.6075 18.9644 16.2145 18.9924C15.8215 19.0203 15.4268 18.9706 15.053 18.846M12.9213 3.31152C12.766 2.65384 12.3932 2.06785 11.8633 1.64849C11.3333 1.22914 10.6774 1.00098 10.0016 1.00098C9.32582 1.00098 8.66984 1.22914 8.13992 1.64849C7.61001 2.06785 7.2372 2.65384 7.08189 3.31152C6.92659 3.96921 6.99788 4.66007 7.28423 5.27217C7.57058 5.88428 8.0552 6.38178 8.65959 6.68408L4 16.001M15.9982 16.2128L6.99485 16.2128C6.96691 16.6059 6.86183 16.9896 6.68559 17.3421C6.32967 18.0539 5.70555 18.5952 4.95053 18.8469C4.19551 19.0986 3.37144 19.04 2.65959 18.6841C1.94775 18.3282 1.40646 17.704 1.15478 16.949C0.903109 16.194 0.961673 15.3699 1.31759 14.6581" stroke="#000000" stroke-width="2" stroke-linecap="round" stroke-linejoin="round"/>
</svg>
