<svg width="20" height="20" viewBox="0 0 20 20" xmlns="http://www.w3.org/2000/svg">
<path fill-rule="evenodd" clip-rule="evenodd" d="M4.29279 4.29357C4.48031 4.1061 4.73462 4.00078 4.99979 4.00078C5.26495 4.00078 5.51926 4.1061 5.70679 4.29357L9.99979 8.58657L14.2928 4.29357C14.385 4.19806 14.4954 4.12188 14.6174 4.06947C14.7394 4.01706 14.8706 3.98947 15.0034 3.98832C15.1362 3.98717 15.2678 4.01247 15.3907 4.06275C15.5136 4.11303 15.6253 4.18728 15.7192 4.28117C15.8131 4.37507 15.8873 4.48672 15.9376 4.60962C15.9879 4.73251 16.0132 4.86419 16.012 4.99697C16.0109 5.12975 15.9833 5.26097 15.9309 5.38297C15.8785 5.50498 15.8023 5.61532 15.7068 5.70757L11.4138 10.0006L15.7068 14.2936C15.8889 14.4822 15.9897 14.7348 15.9875 14.997C15.9852 15.2592 15.88 15.51 15.6946 15.6954C15.5092 15.8808 15.2584 15.986 14.9962 15.9882C14.734 15.9905 14.4814 15.8897 14.2928 15.7076L9.99979 11.4146L5.70679 15.7076C5.51818 15.8897 5.26558 15.9905 5.00339 15.9882C4.74119 15.986 4.49038 15.8808 4.30497 15.6954C4.11956 15.51 4.01439 15.2592 4.01211 14.997C4.00983 14.7348 4.11063 14.4822 4.29279 14.2936L8.58579 10.0006L4.29279 5.70757C4.10532 5.52004 4 5.26573 4 5.00057C4 4.73541 4.10532 4.4811 4.29279 4.29357Z" />
</svg>
