<?xml version="1.0" encoding="utf-8"?>
<svg xmlns="http://www.w3.org/2000/svg">
<symbol id="arrow-narrow-down" viewBox="0 0 20 20">
<path fill-rule="evenodd" clip-rule="evenodd" d="M14.7066 12.293C14.8941 12.4805 14.9994 12.7348 14.9994 13C14.9994 13.2652 14.8941 13.5195 14.7066 13.707L10.7066 17.707C10.5191 17.8945 10.2648 17.9998 9.99959 17.9998C9.73443 17.9998 9.48012 17.8945 9.29259 17.707L5.29259 13.707C5.19708 13.6148 5.1209 13.5044 5.06849 13.3824C5.01608 13.2604 4.9885 13.1292 4.98734 12.9964C4.98619 12.8636 5.01149 12.7319 5.06177 12.609C5.11205 12.4861 5.18631 12.3745 5.2802 12.2806C5.37409 12.1867 5.48574 12.1125 5.60864 12.0622C5.73154 12.0119 5.86321 11.9866 5.99599 11.9877C6.12877 11.9889 6.25999 12.0165 6.382 12.0689C6.504 12.1213 6.61435 12.1975 6.70659 12.293L8.99959 14.586V3C8.99959 2.73478 9.10495 2.48043 9.29249 2.29289C9.48002 2.10536 9.73438 2 9.99959 2C10.2648 2 10.5192 2.10536 10.7067 2.29289C10.8942 2.48043 10.9996 2.73478 10.9996 3V14.586L13.2926 12.293C13.4801 12.1055 13.7344 12.0002 13.9996 12.0002C14.2648 12.0002 14.5191 12.1055 14.7066 12.293Z"/>

</symbol>
<symbol id="arrow-narrow-left" viewBox="0 0 20 20">
<path fill-rule="evenodd" clip-rule="evenodd" d="M7.70679 14.7064C7.51926 14.8939 7.26495 14.9992 6.99979 14.9992C6.73462 14.9992 6.48031 14.8939 6.29279 14.7064L2.29279 10.7064C2.10532 10.5189 2 10.2646 2 9.99943C2 9.73427 2.10532 9.47996 2.29279 9.29243L6.29279 5.29243C6.48139 5.11027 6.73399 5.00948 6.99619 5.01176C7.25838 5.01403 7.5092 5.1192 7.6946 5.30461C7.88001 5.49002 7.98518 5.74083 7.98746 6.00303C7.98974 6.26523 7.88894 6.51783 7.70679 6.70643L5.41379 8.99943H16.9998C17.265 8.99943 17.5194 9.10479 17.7069 9.29232C17.8944 9.47986 17.9998 9.73421 17.9998 9.99943C17.9998 10.2646 17.8944 10.519 17.7069 10.7065C17.5194 10.8941 17.265 10.9994 16.9998 10.9994H5.41379L7.70679 13.2924C7.89426 13.48 7.99957 13.7343 7.99957 13.9994C7.99957 14.2646 7.89426 14.5189 7.70679 14.7064Z"/>

</symbol>
<symbol id="arrow-narrow-right" viewBox="0 0 20 20">
<path fill-rule="evenodd" clip-rule="evenodd" d="M12.293 5.29279C12.4805 5.10532 12.7348 5 13 5C13.2652 5 13.5195 5.10532 13.707 5.29279L17.707 9.29279C17.8945 9.48031 17.9998 9.73462 17.9998 9.99979C17.9998 10.265 17.8945 10.5193 17.707 10.7068L13.707 14.7068C13.5184 14.8889 13.2658 14.9897 13.0036 14.9875C12.7414 14.9852 12.4906 14.88 12.3052 14.6946C12.1198 14.5092 12.0146 14.2584 12.0123 13.9962C12.01 13.734 12.1108 13.4814 12.293 13.2928L14.586 10.9998H3C2.73478 10.9998 2.48043 10.8944 2.29289 10.7069C2.10536 10.5194 2 10.265 2 9.99979C2 9.73457 2.10536 9.48022 2.29289 9.29268C2.48043 9.10514 2.73478 8.99979 3 8.99979H14.586L12.293 6.70679C12.1055 6.51926 12.0002 6.26495 12.0002 5.99979C12.0002 5.73462 12.1055 5.48031 12.293 5.29279Z"/>

</symbol>
<symbol id="arrow-narrow-up" viewBox="0 0 20 20">
<path fill-rule="evenodd" clip-rule="evenodd" d="M5.29279 7.70679C5.10532 7.51926 5 7.26495 5 6.99979C5 6.73462 5.10532 6.48031 5.29279 6.29279L9.29279 2.29279C9.48031 2.10532 9.73462 2 9.99979 2C10.265 2 10.5193 2.10532 10.7068 2.29279L14.7068 6.29279C14.8889 6.48139 14.9897 6.73399 14.9875 6.99619C14.9852 7.25838 14.88 7.5092 14.6946 7.6946C14.5092 7.88001 14.2584 7.98518 13.9962 7.98746C13.734 7.98974 13.4814 7.88894 13.2928 7.70679L10.9998 5.41379V16.9998C10.9998 17.265 10.8944 17.5194 10.7069 17.7069C10.5194 17.8944 10.265 17.9998 9.99979 17.9998C9.73457 17.9998 9.48022 17.8944 9.29268 17.7069C9.10514 17.5194 8.99979 17.265 8.99979 16.9998V5.41379L6.70679 7.70679C6.51926 7.89426 6.26495 7.99957 5.99979 7.99957C5.73462 7.99957 5.48031 7.89426 5.29279 7.70679Z"/>

</symbol>
<symbol id="bell" viewBox="0 0 20 20">
<path d="M9.99979 2C8.40849 2 6.88236 2.63214 5.75715 3.75736C4.63193 4.88258 3.99979 6.4087 3.99979 8V11.586L3.29279 12.293C3.15298 12.4329 3.05777 12.611 3.0192 12.805C2.98064 12.9989 3.00044 13.2 3.07611 13.3827C3.15178 13.5654 3.27992 13.7215 3.44433 13.8314C3.60874 13.9413 3.80204 14 3.99979 14H15.9998C16.1975 14 16.3908 13.9413 16.5552 13.8314C16.7197 13.7215 16.8478 13.5654 16.9235 13.3827C16.9991 13.2 17.0189 12.9989 16.9804 12.805C16.9418 12.611 16.8466 12.4329 16.7068 12.293L15.9998 11.586V8C15.9998 6.4087 15.3676 4.88258 14.2424 3.75736C13.1172 2.63214 11.5911 2 9.99979 2ZM9.99979 18C9.20414 18 8.44108 17.6839 7.87847 17.1213C7.31586 16.5587 6.99979 15.7956 6.99979 15H12.9998C12.9998 15.7956 12.6837 16.5587 12.1211 17.1213C11.5585 17.6839 10.7954 18 9.99979 18Z"/>

</symbol>
<symbol id="campaign" viewBox="0 0 24 24">
<path d="M18,12L18,12c0,0.55,0.45,1,1,1h2c0.55,0,1-0.45,1-1v0c0-0.55-0.45-1-1-1h-2C18.45,11,18,11.45,18,12z"/>
<path d="M16.59,16.82c-0.33,0.44-0.24,1.05,0.2,1.37c0.53,0.39,1.09,0.81,1.62,1.21c0.44,0.33,1.06,0.24,1.38-0.2 c0-0.01,0.01-0.01,0.01-0.02c0.33-0.44,0.24-1.06-0.2-1.38c-0.53-0.4-1.09-0.82-1.61-1.21c-0.44-0.33-1.06-0.23-1.39,0.21 C16.6,16.81,16.59,16.82,16.59,16.82z"/>
<path d="M19.81,4.81c0-0.01-0.01-0.01-0.01-0.02c-0.33-0.44-0.95-0.53-1.38-0.2c-0.53,0.4-1.1,0.82-1.62,1.22 c-0.44,0.33-0.52,0.95-0.19,1.38c0,0.01,0.01,0.01,0.01,0.02c0.33,0.44,0.94,0.53,1.38,0.2c0.53-0.39,1.09-0.82,1.62-1.22 C20.05,5.87,20.13,5.25,19.81,4.81z"/>
<path d="M8,9H4c-1.1,0-2,0.9-2,2v2c0,1.1,0.9,2,2,2h1v3c0,0.55,0.45,1,1,1h0c0.55,0,1-0.45,1-1v-3h1l5,3V6L8,9z"/>
<path d="M15.5,12c0-1.33-0.58-2.53-1.5-3.35v6.69C14.92,14.53,15.5,13.33,15.5,12z"/>

</symbol>
<symbol id="category" viewBox="0 0 24 24">
<path d="M11.15 3.4L7.43 9.48c-.41.66.07 1.52.85 1.52h7.43c.78 0 1.26-.86.85-1.52L12.85 3.4c-.39-.64-1.31-.64-1.7 0z"/>
<circle cx="17.5" cy="17.5" r="4.5"/>
<path d="M4 21.5h6c.55 0 1-.45 1-1v-6c0-.55-.45-1-1-1H4c-.55 0-1 .45-1 1v6c0 .55.45 1 1 1z"/>

</symbol>
<symbol id="check-circle" viewBox="0 0 20 20">
<path fill-rule="evenodd" clip-rule="evenodd" d="M10 18C12.1217 18 14.1566 17.1571 15.6569 15.6569C17.1571 14.1566 18 12.1217 18 10C18 7.87827 17.1571 5.84344 15.6569 4.34315C14.1566 2.84285 12.1217 2 10 2C7.87827 2 5.84344 2.84285 4.34315 4.34315C2.84285 5.84344 2 7.87827 2 10C2 12.1217 2.84285 14.1566 4.34315 15.6569C5.84344 17.1571 7.87827 18 10 18ZM13.707 8.707C13.8892 8.5184 13.99 8.2658 13.9877 8.0036C13.9854 7.7414 13.8802 7.49059 13.6948 7.30518C13.5094 7.11977 13.2586 7.0146 12.9964 7.01233C12.7342 7.01005 12.4816 7.11084 12.293 7.293L9 10.586L7.707 9.293C7.5184 9.11084 7.2658 9.01005 7.0036 9.01233C6.7414 9.0146 6.49059 9.11977 6.30518 9.30518C6.11977 9.49059 6.0146 9.7414 6.01233 10.0036C6.01005 10.2658 6.11084 10.5184 6.293 10.707L8.293 12.707C8.48053 12.8945 8.73484 12.9998 9 12.9998C9.26516 12.9998 9.51947 12.8945 9.707 12.707L13.707 8.707Z"/>

</symbol>
<symbol id="check" viewBox="0 0 20 20">
<path fill-rule="evenodd" clip-rule="evenodd" d="M16.7074 5.29279C16.8949 5.48031 17.0002 5.73462 17.0002 5.99979C17.0002 6.26495 16.8949 6.51926 16.7074 6.70679L8.70741 14.7068C8.51988 14.8943 8.26557 14.9996 8.00041 14.9996C7.73524 14.9996 7.48094 14.8943 7.29341 14.7068L3.29341 10.7068C3.11125 10.5182 3.01045 10.2656 3.01273 10.0034C3.01501 9.74119 3.12018 9.49038 3.30559 9.30497C3.491 9.11956 3.74181 9.01439 4.00401 9.01211C4.2662 9.00983 4.5188 9.11063 4.70741 9.29279L8.00041 12.5858L15.2934 5.29279C15.4809 5.10532 15.7352 5 16.0004 5C16.2656 5 16.5199 5.10532 16.7074 5.29279Z"/>

</symbol>
<symbol id="chevron-down" viewBox="0 0 20 20">
<path fill-rule="evenodd" clip-rule="evenodd" d="M5.29279 7.29357C5.48031 7.1061 5.73462 7.00078 5.99979 7.00078C6.26495 7.00078 6.51926 7.1061 6.70679 7.29357L9.99979 10.5866L13.2928 7.29357C13.385 7.19806 13.4954 7.12188 13.6174 7.06947C13.7394 7.01706 13.8706 6.98947 14.0034 6.98832C14.1362 6.98717 14.2678 7.01247 14.3907 7.06275C14.5136 7.11303 14.6253 7.18728 14.7192 7.28117C14.8131 7.37507 14.8873 7.48672 14.9376 7.60962C14.9879 7.73251 15.0132 7.86419 15.012 7.99697C15.0109 8.12975 14.9833 8.26097 14.9309 8.38297C14.8785 8.50498 14.8023 8.61532 14.7068 8.70757L10.7068 12.7076C10.5193 12.895 10.265 13.0004 9.99979 13.0004C9.73462 13.0004 9.48031 12.895 9.29279 12.7076L5.29279 8.70757C5.10532 8.52004 5 8.26573 5 8.00057C5 7.73541 5.10532 7.4811 5.29279 7.29357Z"/>

</symbol>
<symbol id="chevron-left" viewBox="0 0 20 20">
<path fill-rule="evenodd" clip-rule="evenodd" d="M12.7068 5.29279C12.8943 5.48031 12.9996 5.73462 12.9996 5.99979C12.9996 6.26495 12.8943 6.51926 12.7068 6.70679L9.41379 9.99979L12.7068 13.2928C12.8889 13.4814 12.9897 13.734 12.9875 13.9962C12.9852 14.2584 12.88 14.5092 12.6946 14.6946C12.5092 14.88 12.2584 14.9852 11.9962 14.9875C11.734 14.9897 11.4814 14.8889 11.2928 14.7068L7.29279 10.7068C7.10532 10.5193 7 10.265 7 9.99979C7 9.73462 7.10532 9.48031 7.29279 9.29279L11.2928 5.29279C11.4803 5.10532 11.7346 5 11.9998 5C12.265 5 12.5193 5.10532 12.7068 5.29279Z"/>

</symbol>
<symbol id="chevron-right" viewBox="0 0 20 20">
<path fill-rule="evenodd" clip-rule="evenodd" d="M7.29279 14.7064C7.10532 14.5189 7 14.2646 7 13.9994C7 13.7343 7.10532 13.48 7.29279 13.2924L10.5858 9.99943L7.29279 6.70643C7.11063 6.51783 7.00983 6.26523 7.01211 6.00303C7.01439 5.74083 7.11956 5.49002 7.30497 5.30461C7.49038 5.1192 7.74119 5.01403 8.00339 5.01176C8.26558 5.00948 8.51818 5.11027 8.70679 5.29243L12.7068 9.29243C12.8943 9.47996 12.9996 9.73427 12.9996 9.99943C12.9996 10.2646 12.8943 10.5189 12.7068 10.7064L8.70679 14.7064C8.51926 14.8939 8.26495 14.9992 7.99979 14.9992C7.73462 14.9992 7.48031 14.8939 7.29279 14.7064Z"/>

</symbol>
<symbol id="chevron-up" viewBox="0 0 20 20">
<path fill-rule="evenodd" clip-rule="evenodd" d="M14.7074 12.7068C14.5199 12.8943 14.2656 12.9996 14.0004 12.9996C13.7352 12.9996 13.4809 12.8943 13.2934 12.7068L10.0004 9.41379L6.70741 12.7068C6.5188 12.8889 6.2662 12.9897 6.00401 12.9875C5.74181 12.9852 5.491 12.88 5.30559 12.6946C5.12018 12.5092 5.01501 12.2584 5.01273 11.9962C5.01045 11.734 5.11125 11.4814 5.29341 11.2928L9.29341 7.29279C9.48094 7.10532 9.73524 7 10.0004 7C10.2656 7 10.5199 7.10532 10.7074 7.29279L14.7074 11.2928C14.8949 11.4803 15.0002 11.7346 15.0002 11.9998C15.0002 12.265 14.8949 12.5193 14.7074 12.7068Z"/>

</symbol>
<symbol id="circle" viewBox="0 0 24 24">
<circle cx="12" cy="12" r="8"/>

</symbol>
<symbol id="clock" viewBox="0 0 20 20">
<path fill-rule="evenodd" clip-rule="evenodd" d="M10 18C12.1217 18 14.1566 17.1571 15.6569 15.6569C17.1571 14.1566 18 12.1217 18 10C18 7.87827 17.1571 5.84344 15.6569 4.34315C14.1566 2.84285 12.1217 2 10 2C7.87827 2 5.84344 2.84285 4.34315 4.34315C2.84285 5.84344 2 7.87827 2 10C2 12.1217 2.84285 14.1566 4.34315 15.6569C5.84344 17.1571 7.87827 18 10 18ZM11 6C11 5.73478 10.8946 5.48043 10.7071 5.29289C10.5196 5.10536 10.2652 5 10 5C9.73478 5 9.48043 5.10536 9.29289 5.29289C9.10536 5.48043 9 5.73478 9 6V10C9.00006 10.2652 9.10545 10.5195 9.293 10.707L12.121 13.536C12.2139 13.6289 12.3242 13.7026 12.4456 13.7529C12.567 13.8032 12.6971 13.8291 12.8285 13.8291C12.9599 13.8291 13.09 13.8032 13.2114 13.7529C13.3328 13.7026 13.4431 13.6289 13.536 13.536C13.6289 13.4431 13.7026 13.3328 13.7529 13.2114C13.8032 13.09 13.8291 12.9599 13.8291 12.8285C13.8291 12.6971 13.8032 12.567 13.7529 12.4456C13.7026 12.3242 13.6289 12.2139 13.536 12.121L11 9.586V6Z"/>

</symbol>
<symbol id="cog" viewBox="0 0 20 20">
<path fill-rule="evenodd" clip-rule="evenodd" d="M11.4897 3.17C11.1097 1.61 8.88975 1.61 8.50975 3.17C8.45302 3.40442 8.34174 3.62213 8.18497 3.80541C8.02821 3.9887 7.83038 4.13238 7.60759 4.22477C7.38481 4.31716 7.14336 4.35564 6.90289 4.33709C6.66242 4.31854 6.42973 4.24347 6.22375 4.118C4.85175 3.282 3.28175 4.852 4.11775 6.224C4.65775 7.11 4.17875 8.266 3.17075 8.511C1.60975 8.89 1.60975 11.111 3.17075 11.489C3.40523 11.5458 3.62298 11.6572 3.80626 11.8141C3.98955 11.971 4.13319 12.1689 4.22549 12.3918C4.31779 12.6147 4.35614 12.8563 4.33742 13.0968C4.3187 13.3373 4.24343 13.5701 4.11775 13.776C3.28175 15.148 4.85175 16.718 6.22375 15.882C6.42969 15.7563 6.6624 15.6811 6.90293 15.6623C7.14347 15.6436 7.38502 15.682 7.60793 15.7743C7.83084 15.8666 8.02879 16.0102 8.18568 16.1935C8.34256 16.3768 8.45394 16.5945 8.51075 16.829C8.88975 18.39 11.1108 18.39 11.4888 16.829C11.5457 16.5946 11.6572 16.377 11.8142 16.1939C11.9711 16.0107 12.169 15.8672 12.3918 15.7749C12.6147 15.6826 12.8561 15.6442 13.0966 15.6628C13.3371 15.6815 13.5698 15.7565 13.7758 15.882C15.1477 16.718 16.7178 15.148 15.8818 13.776C15.7563 13.57 15.6812 13.3373 15.6626 13.0969C15.644 12.8564 15.6824 12.6149 15.7747 12.3921C15.8669 12.1692 16.0105 11.9713 16.1936 11.8144C16.3768 11.6575 16.5944 11.546 16.8288 11.489C18.3898 11.11 18.3898 8.889 16.8288 8.511C16.5943 8.45419 16.3765 8.34281 16.1932 8.18593C16.01 8.02904 15.8663 7.83109 15.774 7.60818C15.6817 7.38527 15.6434 7.14372 15.6621 6.90318C15.6808 6.66265 15.7561 6.42994 15.8818 6.224C16.7178 4.852 15.1477 3.282 13.7758 4.118C13.5698 4.24368 13.3371 4.31895 13.0966 4.33767C12.856 4.35639 12.6145 4.31804 12.3916 4.22574C12.1687 4.13344 11.9707 3.9898 11.8138 3.80651C11.6569 3.62323 11.5456 3.40548 11.4888 3.171L11.4897 3.17ZM9.99975 13C10.7954 13 11.5585 12.6839 12.1211 12.1213C12.6837 11.5587 12.9998 10.7956 12.9998 10C12.9998 9.20435 12.6837 8.44129 12.1211 7.87868C11.5585 7.31607 10.7954 7 9.99975 7C9.2041 7 8.44104 7.31607 7.87843 7.87868C7.31582 8.44129 6.99975 9.20435 6.99975 10C6.99975 10.7956 7.31582 11.5587 7.87843 12.1213C8.44104 12.6839 9.2041 13 9.99975 13Z"/>

</symbol>
<symbol id="copy" viewBox="0 0 20 20">
<path fill-rule="evenodd" clip-rule="evenodd" d="M3.11586 2.42021C2.93136 2.42021 2.75442 2.4935 2.62396 2.62396C2.4935 2.75442 2.42021 2.93136 2.42021 3.11586V10.0724C2.42021 10.2569 2.4935 10.4338 2.62396 10.5643C2.75442 10.6947 2.93136 10.768 3.11586 10.768H3.81151V6.59412C3.81151 5.85613 4.10468 5.14836 4.62652 4.62652C5.14836 4.10468 5.85613 3.81151 6.59412 3.81151H10.768V3.11586C10.768 2.93136 10.6947 2.75442 10.5643 2.62396C10.4338 2.4935 10.2569 2.42021 10.0724 2.42021H3.11586ZM12.855 3.81151V3.11586C12.855 2.37787 12.5618 1.6701 12.04 1.14826C11.5181 0.626419 10.8104 0.333252 10.0724 0.333252H3.11586C2.37787 0.333252 1.6701 0.626419 1.14826 1.14826C0.626419 1.6701 0.333252 2.37787 0.333252 3.11586V10.0724C0.333252 10.8104 0.626419 11.5181 1.14826 12.04C1.6701 12.5618 2.37787 12.855 3.11586 12.855H3.81151V13.5506C3.81151 14.2886 4.10468 14.9964 4.62652 15.5182C5.14836 16.0401 5.85613 16.3333 6.59412 16.3333H13.5506C14.2886 16.3333 14.9964 16.0401 15.5182 15.5182C16.0401 14.9964 16.3333 14.2886 16.3333 13.5506V6.59412C16.3333 5.85613 16.0401 5.14836 15.5182 4.62652C14.9964 4.10468 14.2886 3.81151 13.5506 3.81151H12.855ZM6.59412 5.89847C6.40962 5.89847 6.23268 5.97176 6.10222 6.10222C5.97176 6.23268 5.89847 6.40962 5.89847 6.59412V13.5506C5.89847 13.7351 5.97176 13.9121 6.10222 14.0425C6.23268 14.173 6.40962 14.2463 6.59412 14.2463H13.5506C13.7351 14.2463 13.9121 14.173 14.0425 14.0425C14.173 13.9121 14.2463 13.7351 14.2463 13.5506V6.59412C14.2463 6.40962 14.173 6.23268 14.0425 6.10222C13.9121 5.97176 13.7351 5.89847 13.5506 5.89847H6.59412Z"/>

</symbol>
<symbol id="dangerous" viewBox="0 0 24 24">
<path d="M0,0h24v24H0V0z" fill="none"/>
<path d="M14.9,3H9.1C8.57,3,8.06,3.21,7.68,3.59l-4.1,4.1C3.21,8.06,3,8.57,3,9.1v5.8c0,0.53,0.21,1.04,0.59,1.41l4.1,4.1 C8.06,20.79,8.57,21,9.1,21h5.8c0.53,0,1.04-0.21,1.41-0.59l4.1-4.1C20.79,15.94,21,15.43,21,14.9V9.1c0-0.53-0.21-1.04-0.59-1.41 l-4.1-4.1C15.94,3.21,15.43,3,14.9,3z M15.54,15.54L15.54,15.54c-0.39,0.39-1.02,0.39-1.41,0L12,13.41l-2.12,2.12 c-0.39,0.39-1.02,0.39-1.41,0l0,0c-0.39-0.39-0.39-1.02,0-1.41L10.59,12L8.46,9.88c-0.39-0.39-0.39-1.02,0-1.41l0,0 c0.39-0.39,1.02-0.39,1.41,0L12,10.59l2.12-2.12c0.39-0.39,1.02-0.39,1.41,0l0,0c0.39,0.39,0.39,1.02,0,1.41L13.41,12l2.12,2.12 C15.93,14.51,15.93,15.15,15.54,15.54z"/>

</symbol>
<symbol id="dots-horizontal" viewBox="0 0 20 20">
<path d="M6 10C6 10.5304 5.78929 11.0391 5.41421 11.4142C5.03914 11.7893 4.53043 12 4 12C3.46957 12 2.96086 11.7893 2.58579 11.4142C2.21071 11.0391 2 10.5304 2 10C2 9.46957 2.21071 8.96086 2.58579 8.58579C2.96086 8.21071 3.46957 8 4 8C4.53043 8 5.03914 8.21071 5.41421 8.58579C5.78929 8.96086 6 9.46957 6 10ZM12 10C12 10.5304 11.7893 11.0391 11.4142 11.4142C11.0391 11.7893 10.5304 12 10 12C9.46957 12 8.96086 11.7893 8.58579 11.4142C8.21071 11.0391 8 10.5304 8 10C8 9.46957 8.21071 8.96086 8.58579 8.58579C8.96086 8.21071 9.46957 8 10 8C10.5304 8 11.0391 8.21071 11.4142 8.58579C11.7893 8.96086 12 9.46957 12 10ZM16 12C16.5304 12 17.0391 11.7893 17.4142 11.4142C17.7893 11.0391 18 10.5304 18 10C18 9.46957 17.7893 8.96086 17.4142 8.58579C17.0391 8.21071 16.5304 8 16 8C15.4696 8 14.9609 8.21071 14.5858 8.58579C14.2107 8.96086 14 9.46957 14 10C14 10.5304 14.2107 11.0391 14.5858 11.4142C14.9609 11.7893 15.4696 12 16 12Z"/>

</symbol>
<symbol id="exclamation-circle" viewBox="0 0 20 20">
<path fill-rule="evenodd" clip-rule="evenodd" d="M18 10C18 12.1217 17.1571 14.1566 15.6569 15.6569C14.1566 17.1571 12.1217 18 10 18C7.87827 18 5.84344 17.1571 4.34315 15.6569C2.84285 14.1566 2 12.1217 2 10C2 7.87827 2.84285 5.84344 4.34315 4.34315C5.84344 2.84285 7.87827 2 10 2C12.1217 2 14.1566 2.84285 15.6569 4.34315C17.1571 5.84344 18 7.87827 18 10ZM11 14C11 14.2652 10.8946 14.5196 10.7071 14.7071C10.5196 14.8946 10.2652 15 10 15C9.73478 15 9.48043 14.8946 9.29289 14.7071C9.10536 14.5196 9 14.2652 9 14C9 13.7348 9.10536 13.4804 9.29289 13.2929C9.48043 13.1054 9.73478 13 10 13C10.2652 13 10.5196 13.1054 10.7071 13.2929C10.8946 13.4804 11 13.7348 11 14ZM10 5C9.73478 5 9.48043 5.10536 9.29289 5.29289C9.10536 5.48043 9 5.73478 9 6V10C9 10.2652 9.10536 10.5196 9.29289 10.7071C9.48043 10.8946 9.73478 11 10 11C10.2652 11 10.5196 10.8946 10.7071 10.7071C10.8946 10.5196 11 10.2652 11 10V6C11 5.73478 10.8946 5.48043 10.7071 5.29289C10.5196 5.10536 10.2652 5 10 5Z"/>

</symbol>
<symbol id="exclamation" viewBox="0 0 20 20">
<path fill-rule="evenodd" clip-rule="evenodd" d="M8.25685 3.09812C9.02185 1.73812 10.9788 1.73812 11.7428 3.09812L17.3228 13.0181C18.0728 14.3521 17.1098 15.9981 15.5808 15.9981H4.41985C2.88985 15.9981 1.92685 14.3521 2.67685 13.0181L8.25685 3.09812ZM10.9998 12.9991C10.9998 13.2643 10.8945 13.5187 10.707 13.7062C10.5194 13.8938 10.2651 13.9991 9.99985 13.9991C9.73463 13.9991 9.48028 13.8938 9.29274 13.7062C9.10521 13.5187 8.99985 13.2643 8.99985 12.9991C8.99985 12.7339 9.10521 12.4796 9.29274 12.292C9.48028 12.1045 9.73463 11.9991 9.99985 11.9991C10.2651 11.9991 10.5194 12.1045 10.707 12.292C10.8945 12.4796 10.9998 12.7339 10.9998 12.9991ZM9.99985 4.99913C9.73463 4.99913 9.48028 5.10448 9.29274 5.29202C9.10521 5.47955 8.99985 5.73391 8.99985 5.99913V8.99913C8.99985 9.26434 9.10521 9.5187 9.29274 9.70623C9.48028 9.89377 9.73463 9.99913 9.99985 9.99913C10.2651 9.99913 10.5194 9.89377 10.707 9.70623C10.8945 9.5187 10.9998 9.26434 10.9998 8.99913V5.99913C10.9998 5.73391 10.8945 5.47955 10.707 5.29202C10.5194 5.10448 10.2651 4.99913 9.99985 4.99913Z"/>

</symbol>
<symbol id="external-link" viewBox="0 0 20 20">
<path d="M10.9996 3C10.7344 3 10.48 3.10536 10.2925 3.29289C10.1049 3.48043 9.99959 3.73478 9.99959 4C9.99959 4.26522 10.1049 4.51957 10.2925 4.70711C10.48 4.89464 10.7344 5 10.9996 5H13.5856L7.29259 11.293C7.19708 11.3852 7.1209 11.4956 7.06849 11.6176C7.01608 11.7396 6.9885 11.8708 6.98734 12.0036C6.98619 12.1364 7.01149 12.2681 7.06177 12.391C7.11205 12.5139 7.18631 12.6255 7.2802 12.7194C7.37409 12.8133 7.48574 12.8875 7.60864 12.9378C7.73154 12.9881 7.86321 13.0134 7.99599 13.0123C8.12877 13.0111 8.25999 12.9835 8.382 12.9311C8.504 12.8787 8.61435 12.8025 8.70659 12.707L14.9996 6.414V9C14.9996 9.26522 15.1049 9.51957 15.2925 9.70711C15.48 9.89464 15.7344 10 15.9996 10C16.2648 10 16.5192 9.89464 16.7067 9.70711C16.8942 9.51957 16.9996 9.26522 16.9996 9V4C16.9996 3.73478 16.8942 3.48043 16.7067 3.29289C16.5192 3.10536 16.2648 3 15.9996 3H10.9996Z"/>
<path d="M5 5C4.46957 5 3.96086 5.21071 3.58579 5.58579C3.21071 5.96086 3 6.46957 3 7V15C3 15.5304 3.21071 16.0391 3.58579 16.4142C3.96086 16.7893 4.46957 17 5 17H13C13.5304 17 14.0391 16.7893 14.4142 16.4142C14.7893 16.0391 15 15.5304 15 15V12C15 11.7348 14.8946 11.4804 14.7071 11.2929C14.5196 11.1054 14.2652 11 14 11C13.7348 11 13.4804 11.1054 13.2929 11.2929C13.1054 11.4804 13 11.7348 13 12V15H5V7H8C8.26522 7 8.51957 6.89464 8.70711 6.70711C8.89464 6.51957 9 6.26522 9 6C9 5.73478 8.89464 5.48043 8.70711 5.29289C8.51957 5.10536 8.26522 5 8 5H5Z"/>

</symbol>
<symbol id="information-circle" viewBox="0 0 20 20">
<path fill-rule="evenodd" clip-rule="evenodd" d="M18 10C18 12.1217 17.1571 14.1566 15.6569 15.6569C14.1566 17.1571 12.1217 18 10 18C7.87827 18 5.84344 17.1571 4.34315 15.6569C2.84285 14.1566 2 12.1217 2 10C2 7.87827 2.84285 5.84344 4.34315 4.34315C5.84344 2.84285 7.87827 2 10 2C12.1217 2 14.1566 2.84285 15.6569 4.34315C17.1571 5.84344 18 7.87827 18 10ZM11 6C11 6.26522 10.8946 6.51957 10.7071 6.70711C10.5196 6.89464 10.2652 7 10 7C9.73478 7 9.48043 6.89464 9.29289 6.70711C9.10536 6.51957 9 6.26522 9 6C9 5.73478 9.10536 5.48043 9.29289 5.29289C9.48043 5.10536 9.73478 5 10 5C10.2652 5 10.5196 5.10536 10.7071 5.29289C10.8946 5.48043 11 5.73478 11 6ZM9 9C8.73478 9 8.48043 9.10536 8.29289 9.29289C8.10536 9.48043 8 9.73478 8 10C8 10.2652 8.10536 10.5196 8.29289 10.7071C8.48043 10.8946 8.73478 11 9 11V14C9 14.2652 9.10536 14.5196 9.29289 14.7071C9.48043 14.8946 9.73478 15 10 15H11C11.2652 15 11.5196 14.8946 11.7071 14.7071C11.8946 14.5196 12 14.2652 12 14C12 13.7348 11.8946 13.4804 11.7071 13.2929C11.5196 13.1054 11.2652 13 11 13V10C11 9.73478 10.8946 9.48043 10.7071 9.29289C10.5196 9.10536 10.2652 9 10 9H9Z"/>

</symbol>
<symbol id="link" viewBox="0 0 20 20">
<path fill-rule="evenodd" clip-rule="evenodd" d="M12.5863 4.58568C12.7708 4.39465 12.9915 4.24229 13.2355 4.13747C13.4795 4.03265 13.742 3.97748 14.0075 3.97517C14.2731 3.97287 14.5364 4.02347 14.7822 4.12403C15.028 4.22459 15.2513 4.3731 15.4391 4.56089C15.6269 4.74867 15.7754 4.97197 15.876 5.21777C15.9765 5.46356 16.0271 5.72692 16.0248 5.99248C16.0225 6.25804 15.9673 6.52048 15.8625 6.76448C15.7577 7.00849 15.6053 7.22918 15.4143 7.41368L12.4143 10.4137C12.0393 10.7886 11.5307 10.9992 11.0003 10.9992C10.47 10.9992 9.96138 10.7886 9.58633 10.4137C9.39772 10.2315 9.14512 10.1307 8.88292 10.133C8.62073 10.1353 8.36991 10.2404 8.18451 10.4259C7.9991 10.6113 7.89393 10.8621 7.89165 11.1243C7.88937 11.3865 7.99017 11.6391 8.17232 11.8277C8.92244 12.5776 9.93967 12.9988 11.0003 12.9988C12.061 12.9988 13.0782 12.5776 13.8283 11.8277L16.8283 8.82768C17.557 8.07327 17.9601 7.06286 17.951 6.01407C17.9419 4.96528 17.5212 3.96203 16.7796 3.2204C16.038 2.47877 15.0347 2.05809 13.9859 2.04898C12.9371 2.03987 11.9267 2.44304 11.1723 3.17168L9.67232 4.67168C9.57681 4.76392 9.50063 4.87427 9.44822 4.99627C9.39581 5.11827 9.36823 5.2495 9.36707 5.38227C9.36592 5.51505 9.39122 5.64673 9.4415 5.76963C9.49178 5.89253 9.56604 6.00418 9.65993 6.09807C9.75382 6.19196 9.86547 6.26622 9.98837 6.3165C10.1113 6.36678 10.2429 6.39208 10.3757 6.39093C10.5085 6.38977 10.6397 6.36219 10.7617 6.30978C10.8837 6.25737 10.9941 6.18119 11.0863 6.08568L12.5863 4.58568ZM7.58632 9.58568C7.96138 9.21073 8.47 9.0001 9.00032 9.0001C9.53065 9.0001 10.0393 9.21073 10.4143 9.58568C10.5066 9.68119 10.6169 9.75737 10.7389 9.80978C10.8609 9.86219 10.9921 9.88977 11.1249 9.89093C11.2577 9.89208 11.3894 9.86678 11.5123 9.8165C11.6352 9.76622 11.7468 9.69196 11.8407 9.59807C11.9346 9.50418 12.0089 9.39253 12.0591 9.26963C12.1094 9.14673 12.1347 9.01505 12.1336 8.88227C12.1324 8.7495 12.1048 8.61828 12.0524 8.49627C12 8.37427 11.9238 8.26392 11.8283 8.17168C11.0782 7.42179 10.061 7.00053 9.00032 7.00053C7.93967 7.00053 6.92244 7.42179 6.17232 8.17168L3.17232 11.1717C2.79028 11.5407 2.48556 11.982 2.27592 12.4701C2.06628 12.9581 1.95594 13.483 1.95132 14.0141C1.94671 14.5452 2.04791 15.0719 2.24904 15.5635C2.45016 16.0551 2.74717 16.5017 3.12274 16.8773C3.49832 17.2528 3.94492 17.5498 4.43651 17.751C4.92809 17.9521 5.45481 18.0533 5.98593 18.0487C6.51705 18.0441 7.04193 17.9337 7.52994 17.7241C8.01796 17.5144 8.45934 17.2097 8.82832 16.8277L10.3283 15.3277C10.4238 15.2354 10.5 15.1251 10.5524 15.0031C10.6048 14.8811 10.6324 14.7499 10.6336 14.6171C10.6347 14.4843 10.6094 14.3526 10.5591 14.2297C10.5089 14.1068 10.4346 13.9952 10.3407 13.9013C10.2468 13.8074 10.1352 13.7331 10.0123 13.6829C9.88938 13.6326 9.7577 13.6073 9.62492 13.6084C9.49214 13.6096 9.36092 13.6372 9.23892 13.6896C9.11692 13.742 9.00657 13.8182 8.91432 13.9137L7.41432 15.4137C7.22983 15.6047 7.00914 15.7571 6.76513 15.8619C6.52113 15.9667 6.25869 16.0219 5.99313 16.0242C5.72757 16.0265 5.46421 15.9759 5.21842 15.8753C4.97262 15.7748 4.74932 15.6263 4.56153 15.4385C4.37375 15.2507 4.22524 15.0274 4.12468 14.7816C4.02412 14.5358 3.97352 14.2724 3.97582 14.0069C3.97813 13.7413 4.0333 13.4789 4.13812 13.2349C4.24294 12.9909 4.3953 12.7702 4.58632 12.5857L7.58632 9.58568Z"/>

</symbol>
<symbol id="loop2" viewBox="0 0 32 32">
<title>loop2</title>
<path d="M27.802 5.197c-2.925-3.194-7.13-5.197-11.803-5.197-8.837 0-16 7.163-16 16h3c0-7.18 5.82-13 13-13 3.844 0 7.298 1.669 9.678 4.322l-4.678 4.678h11v-11l-4.198 4.197z"/>
<path d="M29 16c0 7.18-5.82 13-13 13-3.844 0-7.298-1.669-9.678-4.322l4.678-4.678h-11v11l4.197-4.197c2.925 3.194 7.13 5.197 11.803 5.197 8.837 0 16-7.163 16-16h-3z"/>

</symbol>
<symbol id="menu-book" viewBox="0 0 24 24">
<path d="M17.5 4.5c-1.95 0-4.05.4-5.5 1.5-1.45-1.1-3.55-1.5-5.5-1.5-1.45 0-2.99.22-4.28.79C1.49 5.62 1 6.33 1 7.14v11.28c0 1.3 1.22 2.26 2.48 1.94.98-.25 2.02-.36 3.02-.36 1.56 0 3.22.26 4.56.92.6.3 1.28.3 1.87 0 1.34-.67 3-.92 4.56-.92 1 0 2.04.11 3.02.36 1.26.33 2.48-.63 2.48-1.94V7.14c0-.81-.49-1.52-1.22-1.85-1.28-.57-2.82-.79-4.27-.79zM21 17.23c0 .63-.58 1.09-1.2.98-.75-.14-1.53-.2-2.3-.2-1.7 0-4.15.65-5.5 1.5V8c1.35-.85 3.8-1.5 5.5-1.5.92 0 1.83.09 2.7.28.46.1.8.51.8.98v9.47z"/>
<path d="M13.98 11.01c-.32 0-.61-.2-.71-.52-.13-.39.09-.82.48-.94 1.54-.5 3.53-.66 5.36-.45.41.05.71.42.66.83-.05.41-.42.71-.83.66-1.62-.19-3.39-.04-4.73.39-.08.01-.16.03-.23.03zM13.98 13.67c-.32 0-.61-.2-.71-.52-.13-.39.09-.82.48-.94 1.53-.5 3.53-.66 5.36-.45.41.05.71.42.66.83-.05.41-.42.71-.83.66-1.62-.19-3.39-.04-4.73.39-.08.02-.16.03-.23.03zM13.98 16.33c-.32 0-.61-.2-.71-.52-.13-.39.09-.82.48-.94 1.53-.5 3.53-.66 5.36-.45.41.05.71.42.66.83-.05.41-.42.7-.83.66-1.62-.19-3.39-.04-4.73.39-.08.02-.16.03-.23.03z"/>

</symbol>
<symbol id="menu" viewBox="0 0 18 12">
<path d="M0 0H18V2H0V0ZM0 5H18V7H0V5ZM0 10H18V12H0V10Z"/>

</symbol>
<symbol id="minus" viewBox="0 0 20 20">
<path fill-rule="evenodd" clip-rule="evenodd" d="M5 10C5 9.73478 5.10536 9.48043 5.29289 9.29289C5.48043 9.10536 5.73478 9 6 9H14C14.2652 9 14.5196 9.10536 14.7071 9.29289C14.8946 9.48043 15 9.73478 15 10C15 10.2652 14.8946 10.5196 14.7071 10.7071C14.5196 10.8946 14.2652 11 14 11H6C5.73478 11 5.48043 10.8946 5.29289 10.7071C5.10536 10.5196 5 10.2652 5 10Z"/>

</symbol>
<symbol id="pencil" viewBox="0 0 20 20">
<path d="M13.586 3.58519C13.7705 3.39417 13.9912 3.2418 14.2352 3.13698C14.4792 3.03216 14.7416 2.97699 15.0072 2.97468C15.2728 2.97238 15.5361 3.02298 15.7819 3.12354C16.0277 3.2241 16.251 3.37261 16.4388 3.5604C16.6266 3.74818 16.7751 3.97148 16.8756 4.21728C16.9762 4.46307 17.0268 4.72643 17.0245 4.99199C17.0222 5.25755 16.967 5.51999 16.8622 5.76399C16.7574 6.008 16.605 6.22869 16.414 6.41319L15.621 7.20619L12.793 4.37819L13.586 3.58519ZM11.379 5.79219L3 14.1712V16.9992H5.828L14.208 8.62019L11.378 5.79219H11.379Z"/>

</symbol>
<symbol id="plus" viewBox="0 0 20 20">
<path fill-rule="evenodd" clip-rule="evenodd" d="M10 5C10.2652 5 10.5196 5.10536 10.7071 5.29289C10.8946 5.48043 11 5.73478 11 6V9H14C14.2652 9 14.5196 9.10536 14.7071 9.29289C14.8946 9.48043 15 9.73478 15 10C15 10.2652 14.8946 10.5196 14.7071 10.7071C14.5196 10.8946 14.2652 11 14 11H11V14C11 14.2652 10.8946 14.5196 10.7071 14.7071C10.5196 14.8946 10.2652 15 10 15C9.73478 15 9.48043 14.8946 9.29289 14.7071C9.10536 14.5196 9 14.2652 9 14V11H6C5.73478 11 5.48043 10.8946 5.29289 10.7071C5.10536 10.5196 5 10.2652 5 10C5 9.73478 5.10536 9.48043 5.29289 9.29289C5.48043 9.10536 5.73478 9 6 9H9V6C9 5.73478 9.10536 5.48043 9.29289 5.29289C9.48043 5.10536 9.73478 5 10 5Z"/>

</symbol>
<symbol id="question-mark-circle" viewBox="0 0 20 20">
<path fill-rule="evenodd" clip-rule="evenodd" d="M18 10C18 12.1217 17.1571 14.1566 15.6569 15.6569C14.1566 17.1571 12.1217 18 10 18C7.87827 18 5.84344 17.1571 4.34315 15.6569C2.84285 14.1566 2 12.1217 2 10C2 7.87827 2.84285 5.84344 4.34315 4.34315C5.84344 2.84285 7.87827 2 10 2C12.1217 2 14.1566 2.84285 15.6569 4.34315C17.1571 5.84344 18 7.87827 18 10ZM10 7C9.8243 6.99983 9.65165 7.04595 9.49945 7.13373C9.34724 7.22151 9.22085 7.34784 9.133 7.5C9.06957 7.61788 8.98311 7.72182 8.87876 7.80566C8.77441 7.8895 8.65429 7.95154 8.52552 7.9881C8.39675 8.02466 8.26194 8.03499 8.12911 8.01849C7.99627 8.00198 7.86809 7.95897 7.75218 7.89201C7.63628 7.82505 7.53499 7.7355 7.45433 7.62867C7.37367 7.52184 7.31529 7.3999 7.28263 7.27008C7.24997 7.14027 7.24371 7.00522 7.26421 6.87294C7.28472 6.74065 7.33157 6.61384 7.402 6.5C7.73222 5.92811 8.24191 5.48116 8.85203 5.22846C9.46214 4.97576 10.1386 4.93144 10.7765 5.10236C11.4143 5.27328 11.978 5.64989 12.38 6.1738C12.782 6.6977 13 7.33962 13 8C13.0002 8.62062 12.8079 9.22603 12.4498 9.73285C12.0916 10.2397 11.5851 10.623 11 10.83V11C11 11.2652 10.8946 11.5196 10.7071 11.7071C10.5196 11.8946 10.2652 12 10 12C9.73478 12 9.48043 11.8946 9.29289 11.7071C9.10536 11.5196 9 11.2652 9 11V10C9 9.73478 9.10536 9.48043 9.29289 9.29289C9.48043 9.10536 9.73478 9 10 9C10.2652 9 10.5196 8.89464 10.7071 8.70711C10.8946 8.51957 11 8.26522 11 8C11 7.73478 10.8946 7.48043 10.7071 7.29289C10.5196 7.10536 10.2652 7 10 7ZM10 15C10.2652 15 10.5196 14.8946 10.7071 14.7071C10.8946 14.5196 11 14.2652 11 14C11 13.7348 10.8946 13.4804 10.7071 13.2929C10.5196 13.1054 10.2652 13 10 13C9.73478 13 9.48043 13.1054 9.29289 13.2929C9.10536 13.4804 9 13.7348 9 14C9 14.2652 9.10536 14.5196 9.29289 14.7071C9.48043 14.8946 9.73478 15 10 15Z"/>

</symbol>
<symbol id="record-voice-over" viewBox="0 0 24 24">
<circle cx="9" cy="9" r="4"/>
<path d="M9 15c-2.67 0-8 1.34-8 4v1c0 .55.45 1 1 1h14c.55 0 1-.45 1-1v-1c0-2.66-5.33-4-8-4zm6.47-7.23c.32.79.32 1.67 0 2.46-.19.47-.11 1 .25 1.36l.03.03c.58.58 1.57.46 1.95-.27.76-1.45.76-3.15-.02-4.66-.38-.74-1.38-.88-1.97-.29l-.01.01c-.34.35-.42.89-.23 1.36zm3.71-4.88c-.4.4-.46 1.02-.13 1.48 1.97 2.74 1.96 6.41-.03 9.25-.32.45-.25 1.07.14 1.46l.03.03c.49.49 1.32.45 1.74-.1 2.75-3.54 2.76-8.37 0-12.02-.42-.55-1.26-.59-1.75-.1z"/>

</symbol>
<symbol id="search" viewBox="0 0 20 20">
<path fill-rule="evenodd" clip-rule="evenodd" d="M8 4.00077C6.93913 4.00077 5.92172 4.42219 5.17157 5.17234C4.42143 5.92248 4 6.9399 4 8.00077C4 9.06163 4.42143 10.079 5.17157 10.8292C5.92172 11.5793 6.93913 12.0008 8 12.0008C9.06087 12.0008 10.0783 11.5793 10.8284 10.8292C11.5786 10.079 12 9.06163 12 8.00077C12 6.9399 11.5786 5.92248 10.8284 5.17234C10.0783 4.42219 9.06087 4.00077 8 4.00077ZM2 8.00077C1.99988 7.05647 2.22264 6.12548 2.65017 5.28351C3.0777 4.44154 3.69792 3.71236 4.4604 3.15529C5.22287 2.59822 6.10606 2.22898 7.03815 2.0776C7.97023 1.92622 8.92488 1.99698 9.82446 2.28412C10.724 2.57126 11.5432 3.06667 12.2152 3.73006C12.8872 4.39346 13.3931 5.2061 13.6919 6.1019C13.9906 6.9977 14.0737 7.95136 13.9343 8.88532C13.795 9.81928 13.4372 10.7072 12.89 11.4768L17.707 16.2938C17.8892 16.4824 17.99 16.735 17.9877 16.9972C17.9854 17.2594 17.8802 17.5102 17.6948 17.6956C17.5094 17.881 17.2586 17.9862 16.9964 17.9884C16.7342 17.9907 16.4816 17.8899 16.293 17.7078L11.477 12.8918C10.5794 13.53 9.52335 13.9089 8.42468 13.9869C7.326 14.0648 6.22707 13.8389 5.2483 13.3337C4.26953 12.8286 3.44869 12.0638 2.87572 11.1231C2.30276 10.1824 1.99979 9.1022 2 8.00077Z"/>

</symbol>
<symbol id="selector" viewBox="0 0 20 20">
<path fill-rule="evenodd" clip-rule="evenodd" d="M9.99979 3C10.265 3.00006 10.5193 3.10545 10.7068 3.293L13.7068 6.293C13.8889 6.4816 13.9897 6.7342 13.9875 6.9964C13.9852 7.2586 13.88 7.50941 13.6946 7.69482C13.5092 7.88023 13.2584 7.9854 12.9962 7.98767C12.734 7.98995 12.4814 7.88916 12.2928 7.707L9.99979 5.414L7.70679 7.707C7.51818 7.88916 7.26558 7.98995 7.00339 7.98767C6.74119 7.9854 6.49038 7.88023 6.30497 7.69482C6.11956 7.50941 6.01439 7.2586 6.01211 6.9964C6.00983 6.7342 6.11063 6.4816 6.29279 6.293L9.29279 3.293C9.48028 3.10545 9.73459 3.00006 9.99979 3ZM6.29279 12.293C6.48031 12.1055 6.73462 12.0002 6.99979 12.0002C7.26495 12.0002 7.51926 12.1055 7.70679 12.293L9.99979 14.586L12.2928 12.293C12.4814 12.1108 12.734 12.01 12.9962 12.0123C13.2584 12.0146 13.5092 12.1198 13.6946 12.3052C13.88 12.4906 13.9852 12.7414 13.9875 13.0036C13.9897 13.2658 13.8889 13.5184 13.7068 13.707L10.7068 16.707C10.5193 16.8945 10.265 16.9998 9.99979 16.9998C9.73462 16.9998 9.48031 16.8945 9.29279 16.707L6.29279 13.707C6.10532 13.5195 6 13.2652 6 13C6 12.7348 6.10532 12.4805 6.29279 12.293Z"/>

</symbol>
<symbol id="sentiment-dissatisfied" viewBox="0 0 24 24">
<circle cx="15.5" cy="9.5" r="1.5"/>
<circle cx="8.5" cy="9.5" r="1.5"/>
<path d="M11.99 2C6.47 2 2 6.48 2 12s4.47 10 9.99 10C17.52 22 22 17.52 22 12S17.52 2 11.99 2zM12 20c-4.42 0-8-3.58-8-8s3.58-8 8-8 8 3.58 8 8-3.58 8-8 8zm0-6c-1.9 0-3.63.97-4.65 2.58-.22.35-.11.81.24 1.03.35.22.81.11 1.03-.24.74-1.18 2-1.88 3.38-1.88s2.64.7 3.38 1.88c.14.23.39.35.64.35.14 0 .27-.04.4-.11.35-.22.46-.68.24-1.03C15.63 14.96 13.9 14 12 14z"/>

</symbol>
<symbol id="sentiment-satisfied" viewBox="0 0 24 24">
<circle cx="15.5" cy="9.5" r="1.5"/>
<circle cx="8.5" cy="9.5" r="1.5"/>
<path d="M11.99 2C6.47 2 2 6.48 2 12s4.47 10 9.99 10C17.52 22 22 17.52 22 12S17.52 2 11.99 2zM12 20c-4.42 0-8-3.58-8-8s3.58-8 8-8 8 3.58 8 8-3.58 8-8 8zm4.41-6.11c-.35-.22-.82-.11-1.03.24-.74 1.17-2 1.87-3.38 1.87s-2.64-.7-3.38-1.88c-.22-.35-.68-.46-1.03-.24-.35.22-.46.68-.24 1.03C8.37 16.54 10.1 17.5 12 17.5s3.63-.97 4.65-2.58c.22-.35.11-.81-.24-1.03z"/>

</symbol>
<symbol id="share-custom" viewBox="0 0 20 20">
<path d="M15.0004 8C15.6096 8.00002 16.2043 7.8146 16.7055 7.4684C17.2067 7.1222 17.5907 6.63162 17.8063 6.06191C18.0219 5.49219 18.059 4.87034 17.9126 4.27904C17.7662 3.68774 17.4433 3.15501 16.9868 2.7517C16.5302 2.34839 15.9618 2.09362 15.3569 2.02125C14.7521 1.94888 14.1395 2.06235 13.6008 2.34658C13.062 2.6308 12.6225 3.0723 12.3407 3.61238C12.059 4.15245 11.9483 4.7655 12.0234 5.37L7.08342 7.84C6.65965 7.43136 6.12501 7.15642 5.54611 7.04945C4.96721 6.94247 4.36962 7.00819 3.8278 7.2384C3.28598 7.46862 2.82387 7.85317 2.49903 8.34414C2.17418 8.83511 2.00098 9.4108 2.00098 9.9995C2.00098 10.5882 2.17418 11.1639 2.49903 11.6549C2.82387 12.1458 3.28598 12.5304 3.8278 12.7606C4.36962 12.9908 4.96721 13.0565 5.54611 12.9496C6.12501 12.8426 6.65965 12.5676 7.08342 12.159L12.0234 14.629C11.9359 15.3312 12.0995 16.0418 12.4852 16.6351C12.8709 17.2284 13.454 17.6663 14.1313 17.8713C14.8086 18.0763 15.5366 18.0353 16.1866 17.7555C16.8366 17.4757 17.3668 16.9751 17.6834 16.3422C18 15.7093 18.0827 14.9849 17.9169 14.2969C17.751 13.6089 17.3473 13.0017 16.7771 12.5826C16.2069 12.1635 15.5069 11.9595 14.8007 12.0066C14.0946 12.0537 13.4279 12.3489 12.9184 12.84L7.97842 10.37C8.00868 10.1243 8.00868 9.87574 7.97842 9.63L12.9184 7.16C13.4564 7.68 14.1904 8 15.0004 8Z"/>

</symbol>
<symbol id="spinner" viewBox="0 0 32 32">
<title>spinner8</title>
<path d="M16 32c-4.274 0-8.292-1.664-11.314-4.686s-4.686-7.040-4.686-11.314c0-3.026 0.849-5.973 2.456-8.522 1.563-2.478 3.771-4.48 6.386-5.791l1.344 2.682c-2.126 1.065-3.922 2.693-5.192 4.708-1.305 2.069-1.994 4.462-1.994 6.922 0 7.168 5.832 13 13 13s13-5.832 13-13c0-2.459-0.69-4.853-1.994-6.922-1.271-2.015-3.066-3.643-5.192-4.708l1.344-2.682c2.615 1.31 4.824 3.313 6.386 5.791 1.607 2.549 2.456 5.495 2.456 8.522 0 4.274-1.664 8.292-4.686 11.314s-7.040 4.686-11.314 4.686z"/>

</symbol>
<symbol id="trash" viewBox="0 0 20 20">
<path fill-rule="evenodd" clip-rule="evenodd" d="M9 2C8.81434 2.0001 8.63237 2.05188 8.47447 2.14955C8.31658 2.24722 8.18899 2.38692 8.106 2.553L7.382 4H4C3.73478 4 3.48043 4.10536 3.29289 4.29289C3.10536 4.48043 3 4.73478 3 5C3 5.26522 3.10536 5.51957 3.29289 5.70711C3.48043 5.89464 3.73478 6 4 6V16C4 16.5304 4.21071 17.0391 4.58579 17.4142C4.96086 17.7893 5.46957 18 6 18H14C14.5304 18 15.0391 17.7893 15.4142 17.4142C15.7893 17.0391 16 16.5304 16 16V6C16.2652 6 16.5196 5.89464 16.7071 5.70711C16.8946 5.51957 17 5.26522 17 5C17 4.73478 16.8946 4.48043 16.7071 4.29289C16.5196 4.10536 16.2652 4 16 4H12.618L11.894 2.553C11.811 2.38692 11.6834 2.24722 11.5255 2.14955C11.3676 2.05188 11.1857 2.0001 11 2H9ZM7 8C7 7.73478 7.10536 7.48043 7.29289 7.29289C7.48043 7.10536 7.73478 7 8 7C8.26522 7 8.51957 7.10536 8.70711 7.29289C8.89464 7.48043 9 7.73478 9 8V14C9 14.2652 8.89464 14.5196 8.70711 14.7071C8.51957 14.8946 8.26522 15 8 15C7.73478 15 7.48043 14.8946 7.29289 14.7071C7.10536 14.5196 7 14.2652 7 14V8ZM12 7C11.7348 7 11.4804 7.10536 11.2929 7.29289C11.1054 7.48043 11 7.73478 11 8V14C11 14.2652 11.1054 14.5196 11.2929 14.7071C11.4804 14.8946 11.7348 15 12 15C12.2652 15 12.5196 14.8946 12.7071 14.7071C12.8946 14.5196 13 14.2652 13 14V8C13 7.73478 12.8946 7.48043 12.7071 7.29289C12.5196 7.10536 12.2652 7 12 7Z"/>

</symbol>
<symbol id="trending-up" viewBox="0 0 20 20">
<path fill-rule="evenodd" clip-rule="evenodd" d="M12.0004 7C11.7352 7 11.4808 6.89464 11.2933 6.70711C11.1058 6.51957 11.0004 6.26522 11.0004 6C11.0004 5.73478 11.1058 5.48043 11.2933 5.29289C11.4808 5.10536 11.7352 5 12.0004 5H17.0004C17.2656 5 17.52 5.10536 17.7075 5.29289C17.8951 5.48043 18.0004 5.73478 18.0004 6V11C18.0004 11.2652 17.8951 11.5196 17.7075 11.7071C17.52 11.8946 17.2656 12 17.0004 12C16.7352 12 16.4808 11.8946 16.2933 11.7071C16.1058 11.5196 16.0004 11.2652 16.0004 11V8.414L11.7074 12.707C11.5199 12.8945 11.2656 12.9998 11.0004 12.9998C10.7352 12.9998 10.4809 12.8945 10.2934 12.707L8.00041 10.414L3.70741 14.707C3.5188 14.8892 3.2662 14.99 3.00401 14.9877C2.74181 14.9854 2.491 14.8802 2.30559 14.6948C2.12018 14.5094 2.01501 14.2586 2.01273 13.9964C2.01045 13.7342 2.11125 13.4816 2.29341 13.293L7.29341 8.293C7.48094 8.10553 7.73524 8.00021 8.00041 8.00021C8.26557 8.00021 8.51988 8.10553 8.70741 8.293L11.0004 10.586L14.5864 7H12.0004Z"/>

</symbol>
<symbol id="x-circle" viewBox="0 0 20 20">
<path fill-rule="evenodd" clip-rule="evenodd" d="M10 18C12.1217 18 14.1566 17.1571 15.6569 15.6569C17.1571 14.1566 18 12.1217 18 10C18 7.87827 17.1571 5.84344 15.6569 4.34315C14.1566 2.84285 12.1217 2 10 2C7.87827 2 5.84344 2.84285 4.34315 4.34315C2.84285 5.84344 2 7.87827 2 10C2 12.1217 2.84285 14.1566 4.34315 15.6569C5.84344 17.1571 7.87827 18 10 18ZM8.707 7.293C8.5184 7.11084 8.2658 7.01005 8.0036 7.01233C7.7414 7.0146 7.49059 7.11977 7.30518 7.30518C7.11977 7.49059 7.0146 7.7414 7.01233 8.0036C7.01005 8.2658 7.11084 8.5184 7.293 8.707L8.586 10L7.293 11.293C7.19749 11.3852 7.12131 11.4956 7.0689 11.6176C7.01649 11.7396 6.9889 11.8708 6.98775 12.0036C6.9866 12.1364 7.0119 12.2681 7.06218 12.391C7.11246 12.5139 7.18671 12.6255 7.2806 12.7194C7.3745 12.8133 7.48615 12.8875 7.60905 12.9378C7.73194 12.9881 7.86362 13.0134 7.9964 13.0123C8.12918 13.0111 8.2604 12.9835 8.3824 12.9311C8.50441 12.8787 8.61475 12.8025 8.707 12.707L10 11.414L11.293 12.707C11.4816 12.8892 11.7342 12.99 11.9964 12.9877C12.2586 12.9854 12.5094 12.8802 12.6948 12.6948C12.8802 12.5094 12.9854 12.2586 12.9877 11.9964C12.99 11.7342 12.8892 11.4816 12.707 11.293L11.414 10L12.707 8.707C12.8892 8.5184 12.99 8.2658 12.9877 8.0036C12.9854 7.7414 12.8802 7.49059 12.6948 7.30518C12.5094 7.11977 12.2586 7.0146 11.9964 7.01233C11.7342 7.01005 11.4816 7.11084 11.293 7.293L10 8.586L8.707 7.293Z"/>

</symbol>
<symbol id="x" viewBox="0 0 20 20">
<path fill-rule="evenodd" clip-rule="evenodd" d="M4.29279 4.29357C4.48031 4.1061 4.73462 4.00078 4.99979 4.00078C5.26495 4.00078 5.51926 4.1061 5.70679 4.29357L9.99979 8.58657L14.2928 4.29357C14.385 4.19806 14.4954 4.12188 14.6174 4.06947C14.7394 4.01706 14.8706 3.98947 15.0034 3.98832C15.1362 3.98717 15.2678 4.01247 15.3907 4.06275C15.5136 4.11303 15.6253 4.18728 15.7192 4.28117C15.8131 4.37507 15.8873 4.48672 15.9376 4.60962C15.9879 4.73251 16.0132 4.86419 16.012 4.99697C16.0109 5.12975 15.9833 5.26097 15.9309 5.38297C15.8785 5.50498 15.8023 5.61532 15.7068 5.70757L11.4138 10.0006L15.7068 14.2936C15.8889 14.4822 15.9897 14.7348 15.9875 14.997C15.9852 15.2592 15.88 15.51 15.6946 15.6954C15.5092 15.8808 15.2584 15.986 14.9962 15.9882C14.734 15.9905 14.4814 15.8897 14.2928 15.7076L9.99979 11.4146L5.70679 15.7076C5.51818 15.8897 5.26558 15.9905 5.00339 15.9882C4.74119 15.986 4.49038 15.8808 4.30497 15.6954C4.11956 15.51 4.01439 15.2592 4.01211 14.997C4.00983 14.7348 4.11063 14.4822 4.29279 14.2936L8.58579 10.0006L4.29279 5.70757C4.10532 5.52004 4 5.26573 4 5.00057C4 4.73541 4.10532 4.4811 4.29279 4.29357Z"/>

</symbol></svg>