<?xml version="1.0" encoding="utf-8"?>
<svg xmlns="http://www.w3.org/2000/svg">
<symbol id="account-circle" viewBox="0 0 24 24">
<path d="M12 2C6.48 2 2 6.48 2 12s4.48 10 10 10 10-4.48 10-10S17.52 2 12 2zm0 3c1.66 0 3 1.34 3 3s-1.34 3-3 3-3-1.34-3-3 1.34-3 3-3zm0 14.2c-2.5 0-4.71-1.28-6-3.22.03-1.99 4-3.08 6-3.08 1.99 0 5.97 1.09 6 3.08-1.29 1.94-3.5 3.22-6 3.22z"/>

</symbol>
<symbol id="add-alarm" viewBox="0 0 24 24">
<path d="M15 12h-2v-2c0-.55-.45-1-1-1s-1 .45-1 1v2H9c-.55 0-1 .45-1 1s.45 1 1 1h2v2c0 .55.45 1 1 1s1-.45 1-1v-2h2c.55 0 1-.45 1-1s-.45-1-1-1zm6.18-6.99L18.1 2.45c-.42-.35-1.05-.3-1.41.13-.35.42-.29 1.05.13 1.41l3.07 2.56c.42.35 1.05.3 1.41-.13.36-.42.3-1.05-.12-1.41zM4.1 6.55l3.07-2.56c.43-.36.49-.99.13-1.41-.35-.43-.98-.48-1.4-.13L2.82 5.01c-.42.36-.48.99-.12 1.41.35.43.98.48 1.4.13zM12 4c-4.97 0-9 4.03-9 9s4.03 9 9 9 9-4.03 9-9-4.03-9-9-9zm0 16c-3.86 0-7-3.14-7-7s3.14-7 7-7 7 3.14 7 7-3.14 7-7 7z"/>

</symbol>
<symbol id="add-circle" viewBox="0 0 24 24">
<path d="M12 2C6.48 2 2 6.48 2 12s4.48 10 10 10 10-4.48 10-10S17.52 2 12 2zm4 11h-3v3c0 .55-.45 1-1 1s-1-.45-1-1v-3H8c-.55 0-1-.45-1-1s.45-1 1-1h3V8c0-.55.45-1 1-1s1 .45 1 1v3h3c.55 0 1 .45 1 1s-.45 1-1 1z"/>

</symbol>
<symbol id="add-comment" viewBox="0 0 24 24">
<path d="M22 4c0-1.1-.9-2-2-2H4c-1.1 0-2 .9-2 2v12c0 1.1.9 2 2 2h14l4 4V4zm-6 7h-3v3c0 .55-.45 1-1 1s-1-.45-1-1v-3H8c-.55 0-1-.45-1-1s.45-1 1-1h3V6c0-.55.45-1 1-1s1 .45 1 1v3h3c.55 0 1 .45 1 1s-.45 1-1 1z"/>

</symbol>
<symbol id="add" viewBox="0 0 24 24">
<path d="M18 13h-5v5c0 .55-.45 1-1 1s-1-.45-1-1v-5H6c-.55 0-1-.45-1-1s.45-1 1-1h5V6c0-.55.45-1 1-1s1 .45 1 1v5h5c.55 0 1 .45 1 1s-.45 1-1 1z"/>

</symbol>
<symbol id="alarm" viewBox="0 0 24 24">
<path d="M15.87 15.25l-3.37-2V8.72c0-.4-.32-.72-.72-.72h-.06c-.4 0-.72.32-.72.72v4.72c0 .35.18.68.49.86l3.65 2.19c.34.2.78.1.98-.24.21-.35.1-.8-.25-1zm5.31-10.24L18.1 2.45c-.42-.35-1.05-.3-1.41.13-.35.42-.29 1.05.13 1.41l3.07 2.56c.42.35 1.05.3 1.41-.13.36-.42.3-1.05-.12-1.41zM4.1 6.55l3.07-2.56c.43-.36.49-.99.13-1.41-.35-.43-.98-.48-1.4-.13L2.82 5.01c-.42.36-.48.99-.12 1.41.35.43.98.48 1.4.13zM12 4c-4.97 0-9 4.03-9 9s4.03 9 9 9 9-4.03 9-9-4.03-9-9-9zm0 16c-3.86 0-7-3.14-7-7s3.14-7 7-7 7 3.14 7 7-3.14 7-7 7z"/>

</symbol>
<symbol id="arrow-back" viewBox="0 0 24 24">
<path d="M19 11H7.83l4.88-4.88c.39-.39.39-1.03 0-1.42a.9959.9959 0 00-1.41 0l-6.59 6.59c-.39.39-.39 1.02 0 1.41l6.59 6.59c.39.39 1.02.39 1.41 0 .39-.39.39-1.02 0-1.41L7.83 13H19c.55 0 1-.45 1-1s-.45-1-1-1z"/>

</symbol>
<symbol id="arrow-downward" viewBox="0 0 24 24">
<path d="M11 5v11.17l-4.88-4.88c-.39-.39-1.03-.39-1.42 0-.39.39-.39 1.02 0 1.41l6.59 6.59c.39.39 1.02.39 1.41 0l6.59-6.59c.39-.39.39-1.02 0-1.41a.9959.9959 0 00-1.41 0L13 16.17V5c0-.55-.45-1-1-1s-1 .45-1 1z"/>

</symbol>
<symbol id="arrow-forward" viewBox="0 0 24 24">
<path d="M5 13h11.17l-4.88 4.88c-.39.39-.39 1.03 0 1.42.39.39 1.02.39 1.41 0l6.59-6.59c.39-.39.39-1.02 0-1.41l-6.58-6.6a.9959.9959 0 00-1.41 0c-.39.39-.39 1.02 0 1.41L16.17 11H5c-.55 0-1 .45-1 1s.45 1 1 1z"/>

</symbol>
<symbol id="arrow-narrow-down" viewBox="0 0 20 20">
<path fill-rule="evenodd" clip-rule="evenodd" d="M14.7066 12.293C14.8941 12.4805 14.9994 12.7348 14.9994 13C14.9994 13.2652 14.8941 13.5195 14.7066 13.707L10.7066 17.707C10.5191 17.8945 10.2648 17.9998 9.99959 17.9998C9.73443 17.9998 9.48012 17.8945 9.29259 17.707L5.29259 13.707C5.19708 13.6148 5.1209 13.5044 5.06849 13.3824C5.01608 13.2604 4.9885 13.1292 4.98734 12.9964C4.98619 12.8636 5.01149 12.7319 5.06177 12.609C5.11205 12.4861 5.18631 12.3745 5.2802 12.2806C5.37409 12.1867 5.48574 12.1125 5.60864 12.0622C5.73154 12.0119 5.86321 11.9866 5.99599 11.9877C6.12877 11.9889 6.25999 12.0165 6.382 12.0689C6.504 12.1213 6.61435 12.1975 6.70659 12.293L8.99959 14.586V3C8.99959 2.73478 9.10495 2.48043 9.29249 2.29289C9.48002 2.10536 9.73438 2 9.99959 2C10.2648 2 10.5192 2.10536 10.7067 2.29289C10.8942 2.48043 10.9996 2.73478 10.9996 3V14.586L13.2926 12.293C13.4801 12.1055 13.7344 12.0002 13.9996 12.0002C14.2648 12.0002 14.5191 12.1055 14.7066 12.293Z"/>

</symbol>
<symbol id="arrow-narrow-left" viewBox="0 0 20 20">
<path fill-rule="evenodd" clip-rule="evenodd" d="M7.70679 14.7064C7.51926 14.8939 7.26495 14.9992 6.99979 14.9992C6.73462 14.9992 6.48031 14.8939 6.29279 14.7064L2.29279 10.7064C2.10532 10.5189 2 10.2646 2 9.99943C2 9.73427 2.10532 9.47996 2.29279 9.29243L6.29279 5.29243C6.48139 5.11027 6.73399 5.00948 6.99619 5.01176C7.25838 5.01403 7.5092 5.1192 7.6946 5.30461C7.88001 5.49002 7.98518 5.74083 7.98746 6.00303C7.98974 6.26523 7.88894 6.51783 7.70679 6.70643L5.41379 8.99943H16.9998C17.265 8.99943 17.5194 9.10479 17.7069 9.29232C17.8944 9.47986 17.9998 9.73421 17.9998 9.99943C17.9998 10.2646 17.8944 10.519 17.7069 10.7065C17.5194 10.8941 17.265 10.9994 16.9998 10.9994H5.41379L7.70679 13.2924C7.89426 13.48 7.99957 13.7343 7.99957 13.9994C7.99957 14.2646 7.89426 14.5189 7.70679 14.7064Z"/>

</symbol>
<symbol id="arrow-narrow-right" viewBox="0 0 20 20">
<path fill-rule="evenodd" clip-rule="evenodd" d="M12.293 5.29279C12.4805 5.10532 12.7348 5 13 5C13.2652 5 13.5195 5.10532 13.707 5.29279L17.707 9.29279C17.8945 9.48031 17.9998 9.73462 17.9998 9.99979C17.9998 10.265 17.8945 10.5193 17.707 10.7068L13.707 14.7068C13.5184 14.8889 13.2658 14.9897 13.0036 14.9875C12.7414 14.9852 12.4906 14.88 12.3052 14.6946C12.1198 14.5092 12.0146 14.2584 12.0123 13.9962C12.01 13.734 12.1108 13.4814 12.293 13.2928L14.586 10.9998H3C2.73478 10.9998 2.48043 10.8944 2.29289 10.7069C2.10536 10.5194 2 10.265 2 9.99979C2 9.73457 2.10536 9.48022 2.29289 9.29268C2.48043 9.10514 2.73478 8.99979 3 8.99979H14.586L12.293 6.70679C12.1055 6.51926 12.0002 6.26495 12.0002 5.99979C12.0002 5.73462 12.1055 5.48031 12.293 5.29279Z"/>

</symbol>
<symbol id="arrow-narrow-up" viewBox="0 0 20 20">
<path fill-rule="evenodd" clip-rule="evenodd" d="M5.29279 7.70679C5.10532 7.51926 5 7.26495 5 6.99979C5 6.73462 5.10532 6.48031 5.29279 6.29279L9.29279 2.29279C9.48031 2.10532 9.73462 2 9.99979 2C10.265 2 10.5193 2.10532 10.7068 2.29279L14.7068 6.29279C14.8889 6.48139 14.9897 6.73399 14.9875 6.99619C14.9852 7.25838 14.88 7.5092 14.6946 7.6946C14.5092 7.88001 14.2584 7.98518 13.9962 7.98746C13.734 7.98974 13.4814 7.88894 13.2928 7.70679L10.9998 5.41379V16.9998C10.9998 17.265 10.8944 17.5194 10.7069 17.7069C10.5194 17.8944 10.265 17.9998 9.99979 17.9998C9.73457 17.9998 9.48022 17.8944 9.29268 17.7069C9.10514 17.5194 8.99979 17.265 8.99979 16.9998V5.41379L6.70679 7.70679C6.51926 7.89426 6.26495 7.99957 5.99979 7.99957C5.73462 7.99957 5.48031 7.89426 5.29279 7.70679Z"/>

</symbol>
<symbol id="arrow-upward" viewBox="0 0 24 24">
<path d="M13 19V7.83l4.88 4.88c.39.39 1.03.39 1.42 0 .39-.39.39-1.02 0-1.41l-6.59-6.59a.9959.9959 0 00-1.41 0l-6.6 6.58c-.39.39-.39 1.02 0 1.41.39.39 1.02.39 1.41 0L11 7.83V19c0 .55.45 1 1 1s1-.45 1-1z"/>

</symbol>
<symbol id="assessment" viewBox="0 0 24 24">
<path d="M19 3H5c-1.1 0-2 .9-2 2v14c0 1.1.9 2 2 2h14c1.1 0 2-.9 2-2V5c0-1.1-.9-2-2-2zM8 17c-.55 0-1-.45-1-1v-5c0-.55.45-1 1-1s1 .45 1 1v5c0 .55-.45 1-1 1zm4 0c-.55 0-1-.45-1-1V8c0-.55.45-1 1-1s1 .45 1 1v8c0 .55-.45 1-1 1zm4 0c-.55 0-1-.45-1-1v-2c0-.55.45-1 1-1s1 .45 1 1v2c0 .55-.45 1-1 1z"/>

</symbol>
<symbol id="assignment-late" viewBox="0 0 24 24">
<path d="M19 3h-4.18C14.4 1.84 13.3 1 12 1s-2.4.84-2.82 2H5c-1.1 0-2 .9-2 2v14c0 1.1.9 2 2 2h14c1.1 0 2-.9 2-2V5c0-1.1-.9-2-2-2zm-6 15h-2v-2h2v2zm0-5c0 .55-.45 1-1 1s-1-.45-1-1V9c0-.55.45-1 1-1s1 .45 1 1v4zm-1-8c-.55 0-1-.45-1-1s.45-1 1-1 1 .45 1 1-.45 1-1 1z"/>

</symbol>
<symbol id="assignment-turned-in" viewBox="0 0 24 24">
<path d="M19 3h-4.18C14.4 1.84 13.3 1 12 1s-2.4.84-2.82 2H5c-1.1 0-2 .9-2 2v14c0 1.1.9 2 2 2h14c1.1 0 2-.9 2-2V5c0-1.1-.9-2-2-2zm-7 0c.55 0 1 .45 1 1s-.45 1-1 1-1-.45-1-1 .45-1 1-1zM9.29 16.29L6.7 13.7a.9959.9959 0 010-1.41c.39-.39 1.02-.39 1.41 0L10 14.17l5.88-5.88c.39-.39 1.02-.39 1.41 0 .39.39.39 1.02 0 1.41l-6.59 6.59c-.38.39-1.02.39-1.41 0z"/>

</symbol>
<symbol id="assignment" viewBox="0 0 24 24">
<path d="M19 3h-4.18C14.4 1.84 13.3 1 12 1s-2.4.84-2.82 2H5c-1.1 0-2 .9-2 2v14c0 1.1.9 2 2 2h14c1.1 0 2-.9 2-2V5c0-1.1-.9-2-2-2zm-7 0c.55 0 1 .45 1 1s-.45 1-1 1-1-.45-1-1 .45-1 1-1zm1 14H8c-.55 0-1-.45-1-1s.45-1 1-1h5c.55 0 1 .45 1 1s-.45 1-1 1zm3-4H8c-.55 0-1-.45-1-1s.45-1 1-1h8c.55 0 1 .45 1 1s-.45 1-1 1zm0-4H8c-.55 0-1-.45-1-1s.45-1 1-1h8c.55 0 1 .45 1 1s-.45 1-1 1z"/>

</symbol>
<symbol id="attachment" viewBox="0 0 24 24">
<path d="M17.75 16H7.17c-2.09 0-3.95-1.53-4.15-3.61C2.79 10.01 4.66 8 7 8h12.36c1.31 0 2.5.94 2.63 2.24.15 1.5-1.02 2.76-2.49 2.76H9c-.55 0-1-.45-1-1s.45-1 1-1h8.75c.41 0 .75-.34.75-.75s-.34-.75-.75-.75H9.14c-1.31 0-2.5.94-2.63 2.24-.15 1.5 1.02 2.76 2.49 2.76h10.33c2.09 0 3.95-1.53 4.15-3.61.23-2.39-1.64-4.39-3.98-4.39H7.23c-2.87 0-5.44 2.1-5.71 4.96-.3 3.29 2.26 6.04 5.48 6.04h10.75c.41 0 .75-.34.75-.75s-.34-.75-.75-.75z"/>

</symbol>
<symbol id="autorenew" viewBox="0 0 24 24">
<path d="M12 6v1.79c0 .45.54.67.85.35l2.79-2.79c.2-.2.2-.51 0-.71l-2.79-2.79c-.31-.31-.85-.09-.85.36V4c-4.42 0-8 3.58-8 8 0 1.04.2 2.04.57 2.95.27.67 1.13.85 1.64.34.27-.27.38-.68.23-1.04C6.15 13.56 6 12.79 6 12c0-3.31 2.69-6 6-6zm5.79 2.71c-.27.27-.38.69-.23 1.04.28.7.44 1.46.44 2.25 0 3.31-2.69 6-6 6v-1.79c0-.45-.54-.67-.85-.35l-2.79 2.79c-.2.2-.2.51 0 .71l2.79 2.79c.31.31.85.09.85-.35V20c4.42 0 8-3.58 8-8 0-1.04-.2-2.04-.57-2.95-.27-.67-1.13-.85-1.64-.34z"/>

</symbol>
<symbol id="ban" viewBox="0 0 20 20">
<path fill-rule="evenodd" clip-rule="evenodd" d="M13.477 14.89C12.3213 15.7114 10.9121 16.0971 9.49925 15.9785C8.08636 15.86 6.7611 15.245 5.75847 14.2424C4.75584 13.2399 4.14063 11.9148 4.02193 10.5019C3.90322 9.08901 4.2887 7.67975 5.11 6.524L13.477 14.892V14.89ZM14.891 13.476L6.524 5.11C7.67971 4.28801 9.08923 3.90197 10.5025 4.02037C11.9158 4.13877 13.2414 4.75395 14.2442 5.75678C15.247 6.75961 15.8622 8.08525 15.9806 9.49851C16.099 10.9118 15.713 12.3213 14.891 13.477V13.476ZM18 10C18 12.1217 17.1571 14.1566 15.6569 15.6569C14.1566 17.1571 12.1217 18 10 18C7.87827 18 5.84344 17.1571 4.34315 15.6569C2.84285 14.1566 2 12.1217 2 10C2 7.87827 2.84285 5.84344 4.34315 4.34315C5.84344 2.84285 7.87827 2 10 2C12.1217 2 14.1566 2.84285 15.6569 4.34315C17.1571 5.84344 18 7.87827 18 10Z"/>

</symbol>
<symbol id="bell-off" viewBox="0 0 20 20">
<path fill-rule="evenodd" clip-rule="evenodd" d="M15.998 8V11.5706L15.5341 11.1066L7.14771 2.72025C8.01562 2.25173 8.99385 2 9.99803 2C11.5893 2 13.1155 2.63214 14.2407 3.75736C15.3659 4.88258 15.998 6.4087 15.998 8ZM4.52856 5.53323C4.18216 6.30132 3.99803 7.14117 3.99803 8V11.586L3.29103 12.293C3.15122 12.4329 3.05601 12.611 3.01745 12.805C2.97888 12.9989 2.99868 13.2 3.07435 13.3827C3.15002 13.5654 3.27816 13.7215 3.44257 13.8314C3.60698 13.9413 3.80028 14 3.99803 14H12.9953L14.7567 15.7614C15.0163 16.021 15.2703 16.1299 15.5657 16.1574C15.8611 16.1849 16.0955 16.1265 16.3158 15.9063C16.5361 15.686 16.595 15.441 16.5683 15.1548C16.5417 14.8685 16.1709 14.3471 16.1709 14.3471L14.1137 12.29L4.24024 2.41648C4.01423 2.19047 3.72297 2.04821 3.43055 2.021C3.13812 1.99379 2.86848 2.08386 2.68095 2.2714C2.49341 2.45894 2.40334 2.72857 2.43055 3.021C2.45776 3.31342 2.60001 3.60468 2.82603 3.8307L4.52856 5.53323ZM9.99803 18C9.20238 18 8.43932 17.6839 7.87671 17.1213C7.3141 16.5587 6.99803 15.7956 6.99803 15H12.998C12.998 15.7956 12.682 16.5587 12.1194 17.1213C11.5567 17.6839 10.7937 18 9.99803 18Z"/>

</symbol>
<symbol id="bell" viewBox="0 0 20 20">
<path d="M9.99979 2C8.40849 2 6.88236 2.63214 5.75715 3.75736C4.63193 4.88258 3.99979 6.4087 3.99979 8V11.586L3.29279 12.293C3.15298 12.4329 3.05777 12.611 3.0192 12.805C2.98064 12.9989 3.00044 13.2 3.07611 13.3827C3.15178 13.5654 3.27992 13.7215 3.44433 13.8314C3.60874 13.9413 3.80204 14 3.99979 14H15.9998C16.1975 14 16.3908 13.9413 16.5552 13.8314C16.7197 13.7215 16.8478 13.5654 16.9235 13.3827C16.9991 13.2 17.0189 12.9989 16.9804 12.805C16.9418 12.611 16.8466 12.4329 16.7068 12.293L15.9998 11.586V8C15.9998 6.4087 15.3676 4.88258 14.2424 3.75736C13.1172 2.63214 11.5911 2 9.99979 2ZM9.99979 18C9.20414 18 8.44108 17.6839 7.87847 17.1213C7.31586 16.5587 6.99979 15.7956 6.99979 15H12.9998C12.9998 15.7956 12.6837 16.5587 12.1211 17.1213C11.5585 17.6839 10.7954 18 9.99979 18Z"/>

</symbol>
<symbol id="book" viewBox="0 0 24 24">
<path d="M18 2H6c-1.1 0-2 .9-2 2v16c0 1.1.9 2 2 2h12c1.1 0 2-.9 2-2V4c0-1.1-.9-2-2-2zM6 4h5v8l-2.5-1.5L6 12V4z"/>

</symbol>
<symbol id="bookmark" viewBox="0 0 24 24">
<path d="M17 3H7c-1.1 0-2 .9-2 2v16l7-3 7 3V5c0-1.1-.9-2-2-2z"/>

</symbol>
<symbol id="campaign" viewBox="0 0 24 24">
<path d="M18,12L18,12c0,0.55,0.45,1,1,1h2c0.55,0,1-0.45,1-1v0c0-0.55-0.45-1-1-1h-2C18.45,11,18,11.45,18,12z"/>
<path d="M16.59,16.82c-0.33,0.44-0.24,1.05,0.2,1.37c0.53,0.39,1.09,0.81,1.62,1.21c0.44,0.33,1.06,0.24,1.38-0.2 c0-0.01,0.01-0.01,0.01-0.02c0.33-0.44,0.24-1.06-0.2-1.38c-0.53-0.4-1.09-0.82-1.61-1.21c-0.44-0.33-1.06-0.23-1.39,0.21 C16.6,16.81,16.59,16.82,16.59,16.82z"/>
<path d="M19.81,4.81c0-0.01-0.01-0.01-0.01-0.02c-0.33-0.44-0.95-0.53-1.38-0.2c-0.53,0.4-1.1,0.82-1.62,1.22 c-0.44,0.33-0.52,0.95-0.19,1.38c0,0.01,0.01,0.01,0.01,0.02c0.33,0.44,0.94,0.53,1.38,0.2c0.53-0.39,1.09-0.82,1.62-1.22 C20.05,5.87,20.13,5.25,19.81,4.81z"/>
<path d="M8,9H4c-1.1,0-2,0.9-2,2v2c0,1.1,0.9,2,2,2h1v3c0,0.55,0.45,1,1,1h0c0.55,0,1-0.45,1-1v-3h1l5,3V6L8,9z"/>
<path d="M15.5,12c0-1.33-0.58-2.53-1.5-3.35v6.69C14.92,14.53,15.5,13.33,15.5,12z"/>

</symbol>
<symbol id="cancel" viewBox="0 0 24 24">
<path d="M12 2C6.47 2 2 6.47 2 12s4.47 10 10 10 10-4.47 10-10S17.53 2 12 2zm4.3 14.3c-.39.39-1.02.39-1.41 0L12 13.41 9.11 16.3c-.39.39-1.02.39-1.41 0a.9959.9959 0 010-1.41L10.59 12 7.7 9.11a.9959.9959 0 010-1.41c.39-.39 1.02-.39 1.41 0L12 10.59l2.89-2.89c.39-.39 1.02-.39 1.41 0 .39.39.39 1.02 0 1.41L13.41 12l2.89 2.89c.38.38.38 1.02 0 1.41z"/>

</symbol>
<symbol id="category" viewBox="0 0 24 24">
<path d="M11.15 3.4L7.43 9.48c-.41.66.07 1.52.85 1.52h7.43c.78 0 1.26-.86.85-1.52L12.85 3.4c-.39-.64-1.31-.64-1.7 0z"/>
<circle cx="17.5" cy="17.5" r="4.5"/>
<path d="M4 21.5h6c.55 0 1-.45 1-1v-6c0-.55-.45-1-1-1H4c-.55 0-1 .45-1 1v6c0 .55.45 1 1 1z"/>

</symbol>
<symbol id="check-circle" viewBox="0 0 24 24">
<path d="M12 2C6.48 2 2 6.48 2 12s4.48 10 10 10 10-4.48 10-10S17.52 2 12 2zM9.29 16.29L5.7 12.7a.9959.9959 0 010-1.41c.39-.39 1.02-.39 1.41 0L10 14.17l6.88-6.88c.39-.39 1.02-.39 1.41 0 .39.39.39 1.02 0 1.41l-7.59 7.59c-.38.39-1.02.39-1.41 0z"/>

</symbol>
<symbol id="check" viewBox="0 0 24 24">
<path d="M9 16.17L5.53 12.7a.9959.9959 0 00-1.41 0c-.39.39-.39 1.02 0 1.41l4.18 4.18c.39.39 1.02.39 1.41 0L20.29 7.71c.39-.39.39-1.02 0-1.41a.9959.9959 0 00-1.41 0L9 16.17z"/>

</symbol>
<symbol id="chevron-down" viewBox="0 0 20 20">
<path fill-rule="evenodd" clip-rule="evenodd" d="M5.29279 7.29357C5.48031 7.1061 5.73462 7.00078 5.99979 7.00078C6.26495 7.00078 6.51926 7.1061 6.70679 7.29357L9.99979 10.5866L13.2928 7.29357C13.385 7.19806 13.4954 7.12188 13.6174 7.06947C13.7394 7.01706 13.8706 6.98947 14.0034 6.98832C14.1362 6.98717 14.2678 7.01247 14.3907 7.06275C14.5136 7.11303 14.6253 7.18728 14.7192 7.28117C14.8131 7.37507 14.8873 7.48672 14.9376 7.60962C14.9879 7.73251 15.0132 7.86419 15.012 7.99697C15.0109 8.12975 14.9833 8.26097 14.9309 8.38297C14.8785 8.50498 14.8023 8.61532 14.7068 8.70757L10.7068 12.7076C10.5193 12.895 10.265 13.0004 9.99979 13.0004C9.73462 13.0004 9.48031 12.895 9.29279 12.7076L5.29279 8.70757C5.10532 8.52004 5 8.26573 5 8.00057C5 7.73541 5.10532 7.4811 5.29279 7.29357Z"/>

</symbol>
<symbol id="chevron-left" viewBox="0 0 24 24">
<path d="M14.71 6.71a.9959.9959 0 00-1.41 0L8.71 11.3c-.39.39-.39 1.02 0 1.41l4.59 4.59c.39.39 1.02.39 1.41 0 .39-.39.39-1.02 0-1.41L10.83 12l3.88-3.88c.39-.39.38-1.03 0-1.41z"/>

</symbol>
<symbol id="chevron-right" viewBox="0 0 24 24">
<path d="M9.29 6.71c-.39.39-.39 1.02 0 1.41L13.17 12l-3.88 3.88c-.39.39-.39 1.02 0 1.41.39.39 1.02.39 1.41 0l4.59-4.59c.39-.39.39-1.02 0-1.41L10.7 6.7c-.38-.38-1.02-.38-1.41.01z"/>

</symbol>
<symbol id="chevron-up" viewBox="0 0 20 20">
<path fill-rule="evenodd" clip-rule="evenodd" d="M14.7074 12.7068C14.5199 12.8943 14.2656 12.9996 14.0004 12.9996C13.7352 12.9996 13.4809 12.8943 13.2934 12.7068L10.0004 9.41379L6.70741 12.7068C6.5188 12.8889 6.2662 12.9897 6.00401 12.9875C5.74181 12.9852 5.491 12.88 5.30559 12.6946C5.12018 12.5092 5.01501 12.2584 5.01273 11.9962C5.01045 11.734 5.11125 11.4814 5.29341 11.2928L9.29341 7.29279C9.48094 7.10532 9.73524 7 10.0004 7C10.2656 7 10.5199 7.10532 10.7074 7.29279L14.7074 11.2928C14.8949 11.4803 15.0002 11.7346 15.0002 11.9998C15.0002 12.265 14.8949 12.5193 14.7074 12.7068Z"/>

</symbol>
<symbol id="circle-empty" viewBox="0 0 20 20">
<path fill-rule="evenodd" clip-rule="evenodd" d="M8 1.88235C6.3775 1.88235 4.82145 2.52689 3.67417 3.67417C2.52689 4.82145 1.88235 6.3775 1.88235 8C1.88235 8.80338 2.04059 9.59889 2.34803 10.3411C2.65547 11.0833 3.10609 11.7578 3.67417 12.3258C4.24225 12.8939 4.91665 13.3445 5.65888 13.652C6.4011 13.9594 7.19662 14.1176 8 14.1176C8.80338 14.1176 9.5989 13.9594 10.3411 13.652C11.0833 13.3445 11.7578 12.8939 12.3258 12.3258C12.8939 11.7578 13.3445 11.0833 13.652 10.3411C13.9594 9.5989 14.1176 8.80338 14.1176 8C14.1176 6.3775 13.4731 4.82145 12.3258 3.67417C11.1785 2.52689 9.6225 1.88235 8 1.88235ZM2.34315 2.34315C3.84344 0.842855 5.87827 0 8 0C10.1217 0 12.1566 0.842855 13.6569 2.34315C15.1571 3.84344 16 5.87827 16 8C16 9.05057 15.7931 10.0909 15.391 11.0615C14.989 12.0321 14.3997 12.914 13.6569 13.6569C12.914 14.3997 12.0321 14.989 11.0615 15.391C10.0909 15.7931 9.05057 16 8 16C6.94943 16 5.90914 15.7931 4.93853 15.391C3.96793 14.989 3.08601 14.3997 2.34315 13.6569C1.60028 12.914 1.011 12.0321 0.608964 11.0615C0.206926 10.0909 0 9.05057 0 8C5.60985e-08 5.87827 0.842855 3.84344 2.34315 2.34315Z"/>

</symbol>
<symbol id="circle-full" viewBox="0 0 20 20">
<path fill-rule="evenodd" clip-rule="evenodd" d="M8 1.88235C6.3775 1.88235 4.82145 2.52689 3.67417 3.67417C2.52689 4.82145 1.88235 6.3775 1.88235 8C1.88235 8.80338 2.04059 9.59889 2.34803 10.3411C2.65547 11.0833 3.10609 11.7578 3.67417 12.3258C4.24225 12.8939 4.91665 13.3445 5.65888 13.652C6.4011 13.9594 7.19662 14.1176 8 14.1176C8.80338 14.1176 9.5989 13.9594 10.3411 13.652C11.0833 13.3445 11.7578 12.8939 12.3258 12.3258C12.8939 11.7578 13.3445 11.0833 13.652 10.3411C13.9594 9.5989 14.1176 8.80338 14.1176 8C14.1176 6.3775 13.4731 4.82145 12.3258 3.67417C11.1785 2.52689 9.6225 1.88235 8 1.88235ZM2.34315 2.34315C3.84344 0.842855 5.87827 0 8 0C10.1217 0 12.1566 0.842855 13.6569 2.34315C15.1571 3.84344 16 5.87827 16 8C16 9.05057 15.7931 10.0909 15.391 11.0615C14.989 12.0321 14.3997 12.914 13.6569 13.6569C12.914 14.3997 12.0321 14.989 11.0615 15.391C10.0909 15.7931 9.05057 16 8 16C6.94943 16 5.90914 15.7931 4.93853 15.391C3.96793 14.989 3.08601 14.3997 2.34315 13.6569C1.60028 12.914 1.011 12.0321 0.608964 11.0615C0.206926 10.0909 0 9.05057 0 8C5.60985e-08 5.87827 0.842855 3.84344 2.34315 2.34315Z"/>
<circle cx="8" cy="8" r="5"/>

</symbol>
<symbol id="circle-half-full" viewBox="0 0 20 20">
<path fill-rule="evenodd" clip-rule="evenodd" d="M8 1.88235C6.3775 1.88235 4.82145 2.52689 3.67417 3.67417C2.52689 4.82145 1.88235 6.3775 1.88235 8C1.88235 8.80338 2.04059 9.59889 2.34803 10.3411C2.65547 11.0833 3.10609 11.7578 3.67417 12.3258C4.24225 12.8939 4.91665 13.3445 5.65888 13.652C6.4011 13.9594 7.19662 14.1176 8 14.1176C8.80338 14.1176 9.5989 13.9594 10.3411 13.652C11.0833 13.3445 11.7578 12.8939 12.3258 12.3258C12.8939 11.7578 13.3445 11.0833 13.652 10.3411C13.9594 9.5989 14.1176 8.80338 14.1176 8C14.1176 6.3775 13.4731 4.82145 12.3258 3.67417C11.1785 2.52689 9.6225 1.88235 8 1.88235ZM2.34315 2.34315C3.84344 0.842855 5.87827 0 8 0C10.1217 0 12.1566 0.842855 13.6569 2.34315C15.1571 3.84344 16 5.87827 16 8C16 9.05057 15.7931 10.0909 15.391 11.0615C14.989 12.0321 14.3997 12.914 13.6569 13.6569C12.914 14.3997 12.0321 14.989 11.0615 15.391C10.0909 15.7931 9.05057 16 8 16C6.94943 16 5.90914 15.7931 4.93853 15.391C3.96793 14.989 3.08601 14.3997 2.34315 13.6569C1.60028 12.914 1.011 12.0321 0.608964 11.0615C0.206926 10.0909 0 9.05057 0 8C5.60985e-08 5.87827 0.842855 3.84344 2.34315 2.34315Z"/>
<path d="M8 3C9.32608 3 10.5979 3.52678 11.5355 4.46447C12.4732 5.40215 13 6.67392 13 8C13 9.32608 12.4732 10.5979 11.5355 11.5355C10.5979 12.4732 9.32608 13 8 13L8 8L8 3Z"/>

</symbol>
<symbol id="circle" viewBox="0 0 24 24">
<circle cx="12" cy="12" r="8"/>

</symbol>
<symbol id="clock" viewBox="0 0 20 20">
<path fill-rule="evenodd" clip-rule="evenodd" d="M10 18C12.1217 18 14.1566 17.1571 15.6569 15.6569C17.1571 14.1566 18 12.1217 18 10C18 7.87827 17.1571 5.84344 15.6569 4.34315C14.1566 2.84285 12.1217 2 10 2C7.87827 2 5.84344 2.84285 4.34315 4.34315C2.84285 5.84344 2 7.87827 2 10C2 12.1217 2.84285 14.1566 4.34315 15.6569C5.84344 17.1571 7.87827 18 10 18ZM11 6C11 5.73478 10.8946 5.48043 10.7071 5.29289C10.5196 5.10536 10.2652 5 10 5C9.73478 5 9.48043 5.10536 9.29289 5.29289C9.10536 5.48043 9 5.73478 9 6V10C9.00006 10.2652 9.10545 10.5195 9.293 10.707L12.121 13.536C12.2139 13.6289 12.3242 13.7026 12.4456 13.7529C12.567 13.8032 12.6971 13.8291 12.8285 13.8291C12.9599 13.8291 13.09 13.8032 13.2114 13.7529C13.3328 13.7026 13.4431 13.6289 13.536 13.536C13.6289 13.4431 13.7026 13.3328 13.7529 13.2114C13.8032 13.09 13.8291 12.9599 13.8291 12.8285C13.8291 12.6971 13.8032 12.567 13.7529 12.4456C13.7026 12.3242 13.6289 12.2139 13.536 12.121L11 9.586V6Z"/>

</symbol>
<symbol id="close" viewBox="0 0 24 24">
<path d="M18.3 5.71a.9959.9959 0 00-1.41 0L12 10.59 7.11 5.7a.9959.9959 0 00-1.41 0c-.39.39-.39 1.02 0 1.41L10.59 12 5.7 16.89c-.39.39-.39 1.02 0 1.41.39.39 1.02.39 1.41 0L12 13.41l4.89 4.89c.39.39 1.02.39 1.41 0 .39-.39.39-1.02 0-1.41L13.41 12l4.89-4.89c.38-.38.38-1.02 0-1.4z"/>

</symbol>
<symbol id="cloud-done" viewBox="0 0 24 24">
<path d="M19.35 10.04C18.67 6.59 15.64 4 12 4 9.11 4 6.6 5.64 5.35 8.04 2.34 8.36 0 10.91 0 14c0 3.31 2.69 6 6 6h13c2.76 0 5-2.24 5-5 0-2.64-2.05-4.78-4.65-4.96zm-8.64 6.25c-.39.39-1.02.39-1.41 0L7.2 14.2a.9959.9959 0 010-1.41c.39-.39 1.02-.39 1.41 0L10 14.18l4.48-4.48c.39-.39 1.02-.39 1.41 0 .39.39.39 1.02 0 1.41l-5.18 5.18z"/>

</symbol>
<symbol id="cog" viewBox="0 0 20 20">
<path fill-rule="evenodd" clip-rule="evenodd" d="M11.4897 3.17C11.1097 1.61 8.88975 1.61 8.50975 3.17C8.45302 3.40442 8.34174 3.62213 8.18497 3.80541C8.02821 3.9887 7.83038 4.13238 7.60759 4.22477C7.38481 4.31716 7.14336 4.35564 6.90289 4.33709C6.66242 4.31854 6.42973 4.24347 6.22375 4.118C4.85175 3.282 3.28175 4.852 4.11775 6.224C4.65775 7.11 4.17875 8.266 3.17075 8.511C1.60975 8.89 1.60975 11.111 3.17075 11.489C3.40523 11.5458 3.62298 11.6572 3.80626 11.8141C3.98955 11.971 4.13319 12.1689 4.22549 12.3918C4.31779 12.6147 4.35614 12.8563 4.33742 13.0968C4.3187 13.3373 4.24343 13.5701 4.11775 13.776C3.28175 15.148 4.85175 16.718 6.22375 15.882C6.42969 15.7563 6.6624 15.6811 6.90293 15.6623C7.14347 15.6436 7.38502 15.682 7.60793 15.7743C7.83084 15.8666 8.02879 16.0102 8.18568 16.1935C8.34256 16.3768 8.45394 16.5945 8.51075 16.829C8.88975 18.39 11.1108 18.39 11.4888 16.829C11.5457 16.5946 11.6572 16.377 11.8142 16.1939C11.9711 16.0107 12.169 15.8672 12.3918 15.7749C12.6147 15.6826 12.8561 15.6442 13.0966 15.6628C13.3371 15.6815 13.5698 15.7565 13.7758 15.882C15.1477 16.718 16.7178 15.148 15.8818 13.776C15.7563 13.57 15.6812 13.3373 15.6626 13.0969C15.644 12.8564 15.6824 12.6149 15.7747 12.3921C15.8669 12.1692 16.0105 11.9713 16.1936 11.8144C16.3768 11.6575 16.5944 11.546 16.8288 11.489C18.3898 11.11 18.3898 8.889 16.8288 8.511C16.5943 8.45419 16.3765 8.34281 16.1932 8.18593C16.01 8.02904 15.8663 7.83109 15.774 7.60818C15.6817 7.38527 15.6434 7.14372 15.6621 6.90318C15.6808 6.66265 15.7561 6.42994 15.8818 6.224C16.7178 4.852 15.1477 3.282 13.7758 4.118C13.5698 4.24368 13.3371 4.31895 13.0966 4.33767C12.856 4.35639 12.6145 4.31804 12.3916 4.22574C12.1687 4.13344 11.9707 3.9898 11.8138 3.80651C11.6569 3.62323 11.5456 3.40548 11.4888 3.171L11.4897 3.17ZM9.99975 13C10.7954 13 11.5585 12.6839 12.1211 12.1213C12.6837 11.5587 12.9998 10.7956 12.9998 10C12.9998 9.20435 12.6837 8.44129 12.1211 7.87868C11.5585 7.31607 10.7954 7 9.99975 7C9.2041 7 8.44104 7.31607 7.87843 7.87868C7.31582 8.44129 6.99975 9.20435 6.99975 10C6.99975 10.7956 7.31582 11.5587 7.87843 12.1213C8.44104 12.6839 9.2041 13 9.99975 13Z"/>

</symbol>
<symbol id="copy" viewBox="0 0 20 20">
<path fill-rule="evenodd" clip-rule="evenodd" d="M3.11586 2.42021C2.93136 2.42021 2.75442 2.4935 2.62396 2.62396C2.4935 2.75442 2.42021 2.93136 2.42021 3.11586V10.0724C2.42021 10.2569 2.4935 10.4338 2.62396 10.5643C2.75442 10.6947 2.93136 10.768 3.11586 10.768H3.81151V6.59412C3.81151 5.85613 4.10468 5.14836 4.62652 4.62652C5.14836 4.10468 5.85613 3.81151 6.59412 3.81151H10.768V3.11586C10.768 2.93136 10.6947 2.75442 10.5643 2.62396C10.4338 2.4935 10.2569 2.42021 10.0724 2.42021H3.11586ZM12.855 3.81151V3.11586C12.855 2.37787 12.5618 1.6701 12.04 1.14826C11.5181 0.626419 10.8104 0.333252 10.0724 0.333252H3.11586C2.37787 0.333252 1.6701 0.626419 1.14826 1.14826C0.626419 1.6701 0.333252 2.37787 0.333252 3.11586V10.0724C0.333252 10.8104 0.626419 11.5181 1.14826 12.04C1.6701 12.5618 2.37787 12.855 3.11586 12.855H3.81151V13.5506C3.81151 14.2886 4.10468 14.9964 4.62652 15.5182C5.14836 16.0401 5.85613 16.3333 6.59412 16.3333H13.5506C14.2886 16.3333 14.9964 16.0401 15.5182 15.5182C16.0401 14.9964 16.3333 14.2886 16.3333 13.5506V6.59412C16.3333 5.85613 16.0401 5.14836 15.5182 4.62652C14.9964 4.10468 14.2886 3.81151 13.5506 3.81151H12.855ZM6.59412 5.89847C6.40962 5.89847 6.23268 5.97176 6.10222 6.10222C5.97176 6.23268 5.89847 6.40962 5.89847 6.59412V13.5506C5.89847 13.7351 5.97176 13.9121 6.10222 14.0425C6.23268 14.173 6.40962 14.2463 6.59412 14.2463H13.5506C13.7351 14.2463 13.9121 14.173 14.0425 14.0425C14.173 13.9121 14.2463 13.7351 14.2463 13.5506V6.59412C14.2463 6.40962 14.173 6.23268 14.0425 6.10222C13.9121 5.97176 13.7351 5.89847 13.5506 5.89847H6.59412Z"/>

</symbol>
<symbol id="create-new-folder" viewBox="0 0 24 24">
<path d="M20 6h-8l-1.41-1.41C10.21 4.21 9.7 4 9.17 4H4c-1.11 0-1.99.89-1.99 2L2 18c0 1.11.89 2 2 2h16c1.1 0 2-.9 2-2V8c0-1.1-.9-2-2-2zm-2 8h-2v2c0 .55-.45 1-1 1s-1-.45-1-1v-2h-2c-.55 0-1-.45-1-1s.45-1 1-1h2v-2c0-.55.45-1 1-1s1 .45 1 1v2h2c.55 0 1 .45 1 1s-.45 1-1 1z"/>

</symbol>
<symbol id="create" viewBox="0 0 24 24">
<path d="M3 17.46v3.04c0 .28.22.5.5.5h3.04c.13 0 .26-.05.35-.15L17.81 9.94l-3.75-3.75L3.15 17.1c-.1.1-.15.22-.15.36zM20.71 7.04c.39-.39.39-1.02 0-1.41l-2.34-2.34a.9959.9959 0 00-1.41 0l-1.83 1.83 3.75 3.75 1.83-1.83z"/>

</symbol>
<symbol id="dangerous" viewBox="0 0 24 24">
<path d="M0,0h24v24H0V0z" fill="none"/>
<path d="M14.9,3H9.1C8.57,3,8.06,3.21,7.68,3.59l-4.1,4.1C3.21,8.06,3,8.57,3,9.1v5.8c0,0.53,0.21,1.04,0.59,1.41l4.1,4.1 C8.06,20.79,8.57,21,9.1,21h5.8c0.53,0,1.04-0.21,1.41-0.59l4.1-4.1C20.79,15.94,21,15.43,21,14.9V9.1c0-0.53-0.21-1.04-0.59-1.41 l-4.1-4.1C15.94,3.21,15.43,3,14.9,3z M15.54,15.54L15.54,15.54c-0.39,0.39-1.02,0.39-1.41,0L12,13.41l-2.12,2.12 c-0.39,0.39-1.02,0.39-1.41,0l0,0c-0.39-0.39-0.39-1.02,0-1.41L10.59,12L8.46,9.88c-0.39-0.39-0.39-1.02,0-1.41l0,0 c0.39-0.39,1.02-0.39,1.41,0L12,10.59l2.12-2.12c0.39-0.39,1.02-0.39,1.41,0l0,0c0.39,0.39,0.39,1.02,0,1.41L13.41,12l2.12,2.12 C15.93,14.51,15.93,15.15,15.54,15.54z"/>

</symbol>
<symbol id="delete" viewBox="0 0 24 24">
<path d="M6 19c0 1.1.9 2 2 2h8c1.1 0 2-.9 2-2V9c0-1.1-.9-2-2-2H8c-1.1 0-2 .9-2 2v10zM18 4h-2.5l-.71-.71c-.18-.18-.44-.29-.7-.29H9.91c-.26 0-.52.11-.7.29L8.5 4H6c-.55 0-1 .45-1 1s.45 1 1 1h12c.55 0 1-.45 1-1s-.45-1-1-1z"/>

</symbol>
<symbol id="description" viewBox="0 0 24 24">
<path d="M14.59 2.59c-.38-.38-.89-.59-1.42-.59H6c-1.1 0-2 .9-2 2v16c0 1.1.89 2 1.99 2H18c1.1 0 2-.9 2-2V8.83c0-.53-.21-1.04-.59-1.41l-4.82-4.83zM15 18H9c-.55 0-1-.45-1-1s.45-1 1-1h6c.55 0 1 .45 1 1s-.45 1-1 1zm0-4H9c-.55 0-1-.45-1-1s.45-1 1-1h6c.55 0 1 .45 1 1s-.45 1-1 1zm-2-6V3.5L18.5 9H14c-.55 0-1-.45-1-1z"/>

</symbol>
<symbol id="dots-horizontal" viewBox="0 0 20 20">
<path d="M6 10C6 10.5304 5.78929 11.0391 5.41421 11.4142C5.03914 11.7893 4.53043 12 4 12C3.46957 12 2.96086 11.7893 2.58579 11.4142C2.21071 11.0391 2 10.5304 2 10C2 9.46957 2.21071 8.96086 2.58579 8.58579C2.96086 8.21071 3.46957 8 4 8C4.53043 8 5.03914 8.21071 5.41421 8.58579C5.78929 8.96086 6 9.46957 6 10ZM12 10C12 10.5304 11.7893 11.0391 11.4142 11.4142C11.0391 11.7893 10.5304 12 10 12C9.46957 12 8.96086 11.7893 8.58579 11.4142C8.21071 11.0391 8 10.5304 8 10C8 9.46957 8.21071 8.96086 8.58579 8.58579C8.96086 8.21071 9.46957 8 10 8C10.5304 8 11.0391 8.21071 11.4142 8.58579C11.7893 8.96086 12 9.46957 12 10ZM16 12C16.5304 12 17.0391 11.7893 17.4142 11.4142C17.7893 11.0391 18 10.5304 18 10C18 9.46957 17.7893 8.96086 17.4142 8.58579C17.0391 8.21071 16.5304 8 16 8C15.4696 8 14.9609 8.21071 14.5858 8.58579C14.2107 8.96086 14 9.46957 14 10C14 10.5304 14.2107 11.0391 14.5858 11.4142C14.9609 11.7893 15.4696 12 16 12Z"/>

</symbol>
<symbol id="download" viewBox="0 0 20 20">
<path fill-rule="evenodd" clip-rule="evenodd" d="M3 17C3 16.7348 3.10536 16.4804 3.29289 16.2929C3.48043 16.1054 3.73478 16 4 16H16C16.2652 16 16.5196 16.1054 16.7071 16.2929C16.8946 16.4804 17 16.7348 17 17C17 17.2652 16.8946 17.5196 16.7071 17.7071C16.5196 17.8946 16.2652 18 16 18H4C3.73478 18 3.48043 17.8946 3.29289 17.7071C3.10536 17.5196 3 17.2652 3 17ZM6.293 9.293C6.48053 9.10553 6.73484 9.00021 7 9.00021C7.26516 9.00021 7.51947 9.10553 7.707 9.293L9 10.586V3C9 2.73478 9.10536 2.48043 9.29289 2.29289C9.48043 2.10536 9.73478 2 10 2C10.2652 2 10.5196 2.10536 10.7071 2.29289C10.8946 2.48043 11 2.73478 11 3V10.586L12.293 9.293C12.3852 9.19749 12.4956 9.12131 12.6176 9.0689C12.7396 9.01649 12.8708 8.9889 13.0036 8.98775C13.1364 8.9866 13.2681 9.0119 13.391 9.06218C13.5139 9.11246 13.6255 9.18671 13.7194 9.28061C13.8133 9.3745 13.8875 9.48615 13.9378 9.60905C13.9881 9.73194 14.0134 9.86362 14.0123 9.9964C14.0111 10.1292 13.9835 10.2604 13.9311 10.3824C13.8787 10.5044 13.8025 10.6148 13.707 10.707L10.707 13.707C10.5195 13.8945 10.2652 13.9998 10 13.9998C9.73484 13.9998 9.48053 13.8945 9.293 13.707L6.293 10.707C6.10553 10.5195 6.00021 10.2652 6.00021 10C6.00021 9.73484 6.10553 9.48053 6.293 9.293Z"/>

</symbol>
<symbol id="drag-indicator" viewBox="0 0 24 24">
<path d="M11 18c0 1.1-.9 2-2 2s-2-.9-2-2 .9-2 2-2 2 .9 2 2zm-2-8c-1.1 0-2 .9-2 2s.9 2 2 2 2-.9 2-2-.9-2-2-2zm0-6c-1.1 0-2 .9-2 2s.9 2 2 2 2-.9 2-2-.9-2-2-2zm6 4c1.1 0 2-.9 2-2s-.9-2-2-2-2 .9-2 2 .9 2 2 2zm0 2c-1.1 0-2 .9-2 2s.9 2 2 2 2-.9 2-2-.9-2-2-2zm0 6c-1.1 0-2 .9-2 2s.9 2 2 2 2-.9 2-2-.9-2-2-2z"/>

</symbol>
<symbol id="error" viewBox="0 0 24 24">
<path d="M12 2C6.48 2 2 6.48 2 12s4.48 10 10 10 10-4.48 10-10S17.52 2 12 2zm0 11c-.55 0-1-.45-1-1V8c0-.55.45-1 1-1s1 .45 1 1v4c0 .55-.45 1-1 1zm1 4h-2v-2h2v2z"/>

</symbol>
<symbol id="event-available" viewBox="0 0 24 24">
<path d="M16 10.53c-.29-.29-.77-.29-1.06 0l-4.35 4.35L9 13.29c-.29-.29-.77-.29-1.06 0-.29.29-.29.77 0 1.06l1.94 1.94c.39.39 1.02.39 1.41 0l4.7-4.7c.3-.29.3-.77.01-1.06zM19 3h-1V2c0-.55-.45-1-1-1s-1 .45-1 1v1H8V2c0-.55-.45-1-1-1s-1 .45-1 1v1H5c-1.11 0-1.99.9-1.99 2L3 19c0 1.1.89 2 2 2h14c1.1 0 2-.9 2-2V5c0-1.1-.9-2-2-2zm-1 16H6c-.55 0-1-.45-1-1V8h14v10c0 .55-.45 1-1 1z"/>

</symbol>
<symbol id="event-busy" viewBox="0 0 24 24">
<path d="M9.84 16.47l1.91-1.91 1.91 1.91c.29.29.77.29 1.06 0 .29-.29.29-.77 0-1.06l-1.91-1.91 1.91-1.91c.29-.29.29-.77 0-1.06-.29-.29-.77-.29-1.06 0l-1.91 1.91-1.91-1.91c-.29-.29-.77-.29-1.06 0-.29.29-.29.77 0 1.06l1.91 1.91-1.91 1.91c-.29.29-.29.77 0 1.06.29.29.77.29 1.06 0zM19 3h-1V2c0-.55-.45-1-1-1s-1 .45-1 1v1H8V2c0-.55-.45-1-1-1s-1 .45-1 1v1H5c-1.11 0-1.99.9-1.99 2L3 19c0 1.1.89 2 2 2h14c1.1 0 2-.9 2-2V5c0-1.1-.9-2-2-2zm-1 16H6c-.55 0-1-.45-1-1V8h14v10c0 .55-.45 1-1 1z"/>

</symbol>
<symbol id="event-note" viewBox="0 0 24 24">
<path d="M16 10H8c-.55 0-1 .45-1 1s.45 1 1 1h8c.55 0 1-.45 1-1s-.45-1-1-1zm3-7h-1V2c0-.55-.45-1-1-1s-1 .45-1 1v1H8V2c0-.55-.45-1-1-1s-1 .45-1 1v1H5c-1.11 0-2 .9-2 2v14c0 1.1.89 2 2 2h14c1.1 0 2-.9 2-2V5c0-1.1-.9-2-2-2zm-1 16H6c-.55 0-1-.45-1-1V8h14v10c0 .55-.45 1-1 1zm-5-5H8c-.55 0-1 .45-1 1s.45 1 1 1h5c.55 0 1-.45 1-1s-.45-1-1-1z"/>

</symbol>
<symbol id="event" viewBox="0 0 24 24">
<path d="M16 13h-3c-.55 0-1 .45-1 1v3c0 .55.45 1 1 1h3c.55 0 1-.45 1-1v-3c0-.55-.45-1-1-1zm0-10v1H8V3c0-.55-.45-1-1-1s-1 .45-1 1v1H5c-1.11 0-1.99.9-1.99 2L3 20c0 1.1.89 2 2 2h14c1.1 0 2-.9 2-2V6c0-1.1-.9-2-2-2h-1V3c0-.55-.45-1-1-1s-1 .45-1 1zm2 17H6c-.55 0-1-.45-1-1V9h14v10c0 .55-.45 1-1 1z"/>

</symbol>
<symbol id="exclamation-circle" viewBox="0 0 20 20">
<path fill-rule="evenodd" clip-rule="evenodd" d="M18 10C18 12.1217 17.1571 14.1566 15.6569 15.6569C14.1566 17.1571 12.1217 18 10 18C7.87827 18 5.84344 17.1571 4.34315 15.6569C2.84285 14.1566 2 12.1217 2 10C2 7.87827 2.84285 5.84344 4.34315 4.34315C5.84344 2.84285 7.87827 2 10 2C12.1217 2 14.1566 2.84285 15.6569 4.34315C17.1571 5.84344 18 7.87827 18 10ZM11 14C11 14.2652 10.8946 14.5196 10.7071 14.7071C10.5196 14.8946 10.2652 15 10 15C9.73478 15 9.48043 14.8946 9.29289 14.7071C9.10536 14.5196 9 14.2652 9 14C9 13.7348 9.10536 13.4804 9.29289 13.2929C9.48043 13.1054 9.73478 13 10 13C10.2652 13 10.5196 13.1054 10.7071 13.2929C10.8946 13.4804 11 13.7348 11 14ZM10 5C9.73478 5 9.48043 5.10536 9.29289 5.29289C9.10536 5.48043 9 5.73478 9 6V10C9 10.2652 9.10536 10.5196 9.29289 10.7071C9.48043 10.8946 9.73478 11 10 11C10.2652 11 10.5196 10.8946 10.7071 10.7071C10.8946 10.5196 11 10.2652 11 10V6C11 5.73478 10.8946 5.48043 10.7071 5.29289C10.5196 5.10536 10.2652 5 10 5Z"/>

</symbol>
<symbol id="exclamation" viewBox="0 0 20 20">
<path fill-rule="evenodd" clip-rule="evenodd" d="M8.25685 3.09812C9.02185 1.73812 10.9788 1.73812 11.7428 3.09812L17.3228 13.0181C18.0728 14.3521 17.1098 15.9981 15.5808 15.9981H4.41985C2.88985 15.9981 1.92685 14.3521 2.67685 13.0181L8.25685 3.09812ZM10.9998 12.9991C10.9998 13.2643 10.8945 13.5187 10.707 13.7062C10.5194 13.8938 10.2651 13.9991 9.99985 13.9991C9.73463 13.9991 9.48028 13.8938 9.29274 13.7062C9.10521 13.5187 8.99985 13.2643 8.99985 12.9991C8.99985 12.7339 9.10521 12.4796 9.29274 12.292C9.48028 12.1045 9.73463 11.9991 9.99985 11.9991C10.2651 11.9991 10.5194 12.1045 10.707 12.292C10.8945 12.4796 10.9998 12.7339 10.9998 12.9991ZM9.99985 4.99913C9.73463 4.99913 9.48028 5.10448 9.29274 5.29202C9.10521 5.47955 8.99985 5.73391 8.99985 5.99913V8.99913C8.99985 9.26434 9.10521 9.5187 9.29274 9.70623C9.48028 9.89377 9.73463 9.99913 9.99985 9.99913C10.2651 9.99913 10.5194 9.89377 10.707 9.70623C10.8945 9.5187 10.9998 9.26434 10.9998 8.99913V5.99913C10.9998 5.73391 10.8945 5.47955 10.707 5.29202C10.5194 5.10448 10.2651 4.99913 9.99985 4.99913Z"/>

</symbol>
<symbol id="expand-less" viewBox="0 0 24 24">
<path d="M12 8l-6 6 1.41 1.41L12 10.83l4.59 4.58L18 14z"/>

</symbol>
<symbol id="expand-more" viewBox="0 0 24 24">
<path d="M15.88 9.29L12 13.17 8.12 9.29a.9959.9959 0 00-1.41 0c-.39.39-.39 1.02 0 1.41l4.59 4.59c.39.39 1.02.39 1.41 0l4.59-4.59c.39-.39.39-1.02 0-1.41-.39-.38-1.03-.39-1.42 0z"/>

</symbol>
<symbol id="external-link" viewBox="0 0 20 20">
<path d="M10.9996 3C10.7344 3 10.48 3.10536 10.2925 3.29289C10.1049 3.48043 9.99959 3.73478 9.99959 4C9.99959 4.26522 10.1049 4.51957 10.2925 4.70711C10.48 4.89464 10.7344 5 10.9996 5H13.5856L7.29259 11.293C7.19708 11.3852 7.1209 11.4956 7.06849 11.6176C7.01608 11.7396 6.9885 11.8708 6.98734 12.0036C6.98619 12.1364 7.01149 12.2681 7.06177 12.391C7.11205 12.5139 7.18631 12.6255 7.2802 12.7194C7.37409 12.8133 7.48574 12.8875 7.60864 12.9378C7.73154 12.9881 7.86321 13.0134 7.99599 13.0123C8.12877 13.0111 8.25999 12.9835 8.382 12.9311C8.504 12.8787 8.61435 12.8025 8.70659 12.707L14.9996 6.414V9C14.9996 9.26522 15.1049 9.51957 15.2925 9.70711C15.48 9.89464 15.7344 10 15.9996 10C16.2648 10 16.5192 9.89464 16.7067 9.70711C16.8942 9.51957 16.9996 9.26522 16.9996 9V4C16.9996 3.73478 16.8942 3.48043 16.7067 3.29289C16.5192 3.10536 16.2648 3 15.9996 3H10.9996Z"/>
<path d="M5 5C4.46957 5 3.96086 5.21071 3.58579 5.58579C3.21071 5.96086 3 6.46957 3 7V15C3 15.5304 3.21071 16.0391 3.58579 16.4142C3.96086 16.7893 4.46957 17 5 17H13C13.5304 17 14.0391 16.7893 14.4142 16.4142C14.7893 16.0391 15 15.5304 15 15V12C15 11.7348 14.8946 11.4804 14.7071 11.2929C14.5196 11.1054 14.2652 11 14 11C13.7348 11 13.4804 11.1054 13.2929 11.2929C13.1054 11.4804 13 11.7348 13 12V15H5V7H8C8.26522 7 8.51957 6.89464 8.70711 6.70711C8.89464 6.51957 9 6.26522 9 6C9 5.73478 8.89464 5.48043 8.70711 5.29289C8.51957 5.10536 8.26522 5 8 5H5Z"/>

</symbol>
<symbol id="face" viewBox="0 0 24 24">
<path d="M9 11.75c-.69 0-1.25.56-1.25 1.25s.56 1.25 1.25 1.25 1.25-.56 1.25-1.25-.56-1.25-1.25-1.25zm6 0c-.69 0-1.25.56-1.25 1.25s.56 1.25 1.25 1.25 1.25-.56 1.25-1.25-.56-1.25-1.25-1.25zM12 2C6.48 2 2 6.48 2 12s4.48 10 10 10 10-4.48 10-10S17.52 2 12 2zm0 18c-4.41 0-8-3.59-8-8 0-.29.02-.58.05-.86 2.36-1.05 4.23-2.98 5.21-5.37C11.07 8.33 14.05 10 17.42 10c.78 0 1.53-.09 2.25-.26.21.71.33 1.47.33 2.26 0 4.41-3.59 8-8 8z"/>

</symbol>
<symbol id="favorite" viewBox="0 0 24 24">
<path d="M13.35 20.13c-.76.69-1.93.69-2.69-.01l-.11-.1C5.3 15.27 1.87 12.16 2 8.28c.06-1.7.93-3.33 2.34-4.29 2.64-1.8 5.9-.96 7.66 1.1 1.76-2.06 5.02-2.91 7.66-1.1 1.41.96 2.28 2.59 2.34 4.29.14 3.88-3.3 6.99-8.55 11.76l-.1.09z"/>

</symbol>
<symbol id="feedback" viewBox="0 0 24 24">
<path d="M20 2H4.01c-1.1 0-2 .9-2 2v18L6 18h14c1.1 0 2-.9 2-2V4c0-1.1-.9-2-2-2zm-7 12h-2v-2h2v2zm0-5c0 .55-.45 1-1 1s-1-.45-1-1V7c0-.55.45-1 1-1s1 .45 1 1v2z"/>

</symbol>
<symbol id="file-copy" viewBox="0 0 24 24">
<path d="M15 1H4c-1.1 0-2 .9-2 2v13c0 .55.45 1 1 1s1-.45 1-1V4c0-.55.45-1 1-1h10c.55 0 1-.45 1-1s-.45-1-1-1zm.59 4.59l4.83 4.83c.37.37.58.88.58 1.41V21c0 1.1-.9 2-2 2H7.99C6.89 23 6 22.1 6 21l.01-14c0-1.1.89-2 1.99-2h6.17c.53 0 1.04.21 1.42.59zM15 12h4.5L14 6.5V11c0 .55.45 1 1 1z"/>

</symbol>
<symbol id="filter-list" viewBox="0 0 24 24">
<path d="M11 18h2c.55 0 1-.45 1-1s-.45-1-1-1h-2c-.55 0-1 .45-1 1s.45 1 1 1zM3 7c0 .55.45 1 1 1h16c.55 0 1-.45 1-1s-.45-1-1-1H4c-.55 0-1 .45-1 1zm4 6h10c.55 0 1-.45 1-1s-.45-1-1-1H7c-.55 0-1 .45-1 1s.45 1 1 1z"/>

</symbol>
<symbol id="fire-circle" viewBox="0 0 20 20">
<circle cx="10" cy="9" r="8"/>
<path fill-rule="evenodd" clip-rule="evenodd" d="M10.8784 5.01675C11.017 5.05356 11.1331 5.14812 11.1973 5.2764C11.439 5.75996 11.6195 6.05344 11.801 6.2914C11.9848 6.53226 12.1792 6.72944 12.4749 7.02514C13.1582 7.70846 13.5 8.60506 13.5 9.50001C13.5 10.395 13.1582 11.2916 12.4749 11.9749C11.108 13.3417 8.89196 13.3417 7.52512 11.9749C6.84181 11.2916 6.5 10.395 6.5 9.50001C6.5 8.60506 6.8418 7.70846 7.52512 7.02514C7.66812 6.88214 7.88318 6.83936 8.07002 6.91675C8.25686 6.99414 8.37868 7.17646 8.37868 7.37869C8.37868 7.9386 8.41364 8.36522 8.5774 8.70551C8.66745 8.89263 8.80792 9.07557 9.05002 9.23881C9.10784 8.70843 9.21375 8.06224 9.35687 7.44888C9.46955 6.96597 9.60969 6.48386 9.77649 6.08183C9.85992 5.88074 9.95427 5.68927 10.0614 5.52395C10.1657 5.36304 10.2997 5.19929 10.4727 5.08398C10.592 5.00442 10.7398 4.97994 10.8784 5.01675ZM11.0607 11.5607C10.4749 12.1464 9.52512 12.1464 8.93934 11.5607C8.64644 11.2678 8.5 10.8839 8.5 10.5C8.5 10.5 8.93934 10.75 9.75002 10.75C9.75002 10.25 10 8.74999 10.375 8.49999C10.625 8.99999 10.7678 9.14644 11.0607 9.43934C11.3535 9.73223 11.5 10.1161 11.5 10.5C11.5 10.8839 11.3535 11.2678 11.0607 11.5607Z" fill="white"/>

</symbol>
<symbol id="flag" viewBox="0 0 24 24">
<path d="M14.4 6l-.24-1.2c-.09-.46-.5-.8-.98-.8H6c-.55 0-1 .45-1 1v15c0 .55.45 1 1 1s1-.45 1-1v-6h5.6l.24 1.2c.09.47.5.8.98.8H19c.55 0 1-.45 1-1V7c0-.55-.45-1-1-1h-4.6z"/>

</symbol>
<symbol id="folder" viewBox="0 0 24 24">
<path d="M10.59 4.59C10.21 4.21 9.7 4 9.17 4H4c-1.1 0-1.99.9-1.99 2L2 18c0 1.1.9 2 2 2h16c1.1 0 2-.9 2-2V8c0-1.1-.9-2-2-2h-8l-1.41-1.41z"/>

</symbol>
<symbol id="forum" viewBox="0 0 24 24">
<path d="M20 6h-1v8c0 .55-.45 1-1 1H6v1c0 1.1.9 2 2 2h10l4 4V8c0-1.1-.9-2-2-2zm-3 5V4c0-1.1-.9-2-2-2H4c-1.1 0-2 .9-2 2v13l4-4h9c1.1 0 2-.9 2-2z"/>

</symbol>
<symbol id="gesture" viewBox="0 0 24 24">
<path d="M3.72 6.04c.47.46 1.21.48 1.71.06.37-.32.69-.51.87-.43.5.2 0 1.03-.3 1.52-.25.42-2.86 3.89-2.86 6.31 0 1.28.48 2.34 1.34 2.98.75.56 1.74.73 2.64.46 1.07-.31 1.95-1.4 3.06-2.77 1.21-1.49 2.83-3.44 4.08-3.44 1.63 0 1.65 1.01 1.76 1.79-3.78.64-5.38 3.67-5.38 5.37 0 1.7 1.44 3.09 3.21 3.09 1.63 0 4.29-1.33 4.69-6.1h1.21c.69 0 1.25-.56 1.25-1.25s-.56-1.25-1.25-1.25h-1.22c-.15-1.65-1.09-4.2-4.03-4.2-2.25 0-4.18 1.91-4.94 2.84-.58.73-2.06 2.48-2.29 2.72-.25.3-.68.84-1.11.84-.45 0-.72-.83-.36-1.92.35-1.09 1.4-2.86 1.85-3.52.78-1.14 1.3-1.92 1.3-3.28C8.95 3.69 7.31 3 6.44 3c-1.09 0-2.04.63-2.7 1.22-.53.48-.53 1.32-.02 1.82zm10.16 12.51c-.31 0-.74-.26-.74-.72 0-.6.73-2.2 2.87-2.76-.3 2.69-1.43 3.48-2.13 3.48z"/>

</symbol>
<symbol id="hashtag" viewBox="0 0 20 20">
<path fill-rule="evenodd" clip-rule="evenodd" d="M7.32651 0.0267496C7.80276 0.145812 8.09231 0.628408 7.97325 1.10466L7.13828 4.44454H10.639L11.5818 0.673494C11.7009 0.197245 12.1834 -0.0923129 12.6597 0.0267496C13.1359 0.145812 13.4255 0.628408 13.3064 1.10466L12.4715 4.44454H15.1107C15.6016 4.44454 15.9996 4.8425 15.9996 5.3334C15.9996 5.82431 15.6016 6.22227 15.1107 6.22227H12.027L11.1382 9.77773H13.333C13.8239 9.77773 14.2218 10.1757 14.2218 10.6666C14.2218 11.1575 13.8239 11.5555 13.333 11.5555H10.6937L9.75098 15.3265C9.63192 15.8028 9.14932 16.0923 8.67307 15.9733C8.19682 15.8542 7.90727 15.3716 8.02633 14.8953L8.8613 11.5555H5.36055L4.41779 15.3265C4.29873 15.8028 3.81613 16.0923 3.33988 15.9733C2.86363 15.8542 2.57407 15.3716 2.69314 14.8953L3.52811 11.5555H0.888866C0.397959 11.5555 0 11.1575 0 10.6666C0 10.1757 0.397959 9.77773 0.888866 9.77773H3.97254L4.8614 6.22227H2.6666C2.17569 6.22227 1.77773 5.82431 1.77773 5.3334C1.77773 4.8425 2.17569 4.44454 2.6666 4.44454H5.30584L6.2486 0.673494C6.36766 0.197245 6.85026 -0.0923129 7.32651 0.0267496ZM6.69385 6.22227L5.80498 9.77773H9.30573L10.1946 6.22227H6.69385Z"/>

</symbol>
<symbol id="help" viewBox="0 0 24 24">
<path d="M12 2C6.48 2 2 6.48 2 12s4.48 10 10 10 10-4.48 10-10S17.52 2 12 2zm1 17h-2v-2h2v2zm2.07-7.75l-.9.92c-.5.51-.86.97-1.04 1.69-.08.32-.13.68-.13 1.14h-2v-.5c0-.46.08-.9.22-1.31.2-.58.53-1.1.95-1.52l1.24-1.26c.46-.44.68-1.1.55-1.8-.13-.72-.69-1.33-1.39-1.53-1.11-.31-2.14.32-2.47 1.27-.12.37-.43.65-.82.65h-.3C8.4 9 8 8.44 8.16 7.88c.43-1.47 1.68-2.59 3.23-2.83 1.52-.24 2.97.55 3.87 1.8 1.18 1.63.83 3.38-.19 4.4z"/>

</symbol>
<symbol id="home" viewBox="0 0 24 24">
<path d="M10 19v-5h4v5c0 .55.45 1 1 1h3c.55 0 1-.45 1-1v-7h1.7c.46 0 .68-.57.33-.87L12.67 3.6c-.38-.34-.96-.34-1.34 0l-8.36 7.53c-.34.3-.13.87.33.87H5v7c0 .55.45 1 1 1h3c.55 0 1-.45 1-1z"/>

</symbol>
<symbol id="info" viewBox="0 0 24 24">
<path d="M12 2C6.48 2 2 6.48 2 12s4.48 10 10 10 10-4.48 10-10S17.52 2 12 2zm0 15c-.55 0-1-.45-1-1v-4c0-.55.45-1 1-1s1 .45 1 1v4c0 .55-.45 1-1 1zm1-8h-2V7h2v2z"/>

</symbol>
<symbol id="information-circle" viewBox="0 0 20 20">
<path fill-rule="evenodd" clip-rule="evenodd" d="M18 10C18 12.1217 17.1571 14.1566 15.6569 15.6569C14.1566 17.1571 12.1217 18 10 18C7.87827 18 5.84344 17.1571 4.34315 15.6569C2.84285 14.1566 2 12.1217 2 10C2 7.87827 2.84285 5.84344 4.34315 4.34315C5.84344 2.84285 7.87827 2 10 2C12.1217 2 14.1566 2.84285 15.6569 4.34315C17.1571 5.84344 18 7.87827 18 10ZM11 6C11 6.26522 10.8946 6.51957 10.7071 6.70711C10.5196 6.89464 10.2652 7 10 7C9.73478 7 9.48043 6.89464 9.29289 6.70711C9.10536 6.51957 9 6.26522 9 6C9 5.73478 9.10536 5.48043 9.29289 5.29289C9.48043 5.10536 9.73478 5 10 5C10.2652 5 10.5196 5.10536 10.7071 5.29289C10.8946 5.48043 11 5.73478 11 6ZM9 9C8.73478 9 8.48043 9.10536 8.29289 9.29289C8.10536 9.48043 8 9.73478 8 10C8 10.2652 8.10536 10.5196 8.29289 10.7071C8.48043 10.8946 8.73478 11 9 11V14C9 14.2652 9.10536 14.5196 9.29289 14.7071C9.48043 14.8946 9.73478 15 10 15H11C11.2652 15 11.5196 14.8946 11.7071 14.7071C11.8946 14.5196 12 14.2652 12 14C12 13.7348 11.8946 13.4804 11.7071 13.2929C11.5196 13.1054 11.2652 13 11 13V10C11 9.73478 10.8946 9.48043 10.7071 9.29289C10.5196 9.10536 10.2652 9 10 9H9Z"/>

</symbol>
<symbol id="insert-drive-file" viewBox="0 0 24 24">
<path d="M6 2c-1.1 0-1.99.9-1.99 2L4 20c0 1.1.89 2 1.99 2H18c1.1 0 2-.9 2-2V8.83c0-.53-.21-1.04-.59-1.41l-4.83-4.83c-.37-.38-.88-.59-1.41-.59H6zm7 6V3.5L18.5 9H14c-.55 0-1-.45-1-1z"/>

</symbol>
<symbol id="library-books" viewBox="0 0 24 24">
<path d="M3 6c-.55 0-1 .45-1 1v13c0 1.1.9 2 2 2h13c.55 0 1-.45 1-1s-.45-1-1-1H5c-.55 0-1-.45-1-1V7c0-.55-.45-1-1-1zm17-4H8c-1.1 0-2 .9-2 2v12c0 1.1.9 2 2 2h12c1.1 0 2-.9 2-2V4c0-1.1-.9-2-2-2zm-2 9h-8c-.55 0-1-.45-1-1s.45-1 1-1h8c.55 0 1 .45 1 1s-.45 1-1 1zm-4 4h-4c-.55 0-1-.45-1-1s.45-1 1-1h4c.55 0 1 .45 1 1s-.45 1-1 1zm4-8h-8c-.55 0-1-.45-1-1s.45-1 1-1h8c.55 0 1 .45 1 1s-.45 1-1 1z"/>

</symbol>
<symbol id="link" viewBox="0 0 24 24">
<path d="M17 7h-3c-.55 0-1 .45-1 1s.45 1 1 1h3c1.65 0 3 1.35 3 3s-1.35 3-3 3h-3c-.55 0-1 .45-1 1s.45 1 1 1h3c2.76 0 5-2.24 5-5s-2.24-5-5-5zm-9 5c0 .55.45 1 1 1h6c.55 0 1-.45 1-1s-.45-1-1-1H9c-.55 0-1 .45-1 1zm2 3H7c-1.65 0-3-1.35-3-3s1.35-3 3-3h3c.55 0 1-.45 1-1s-.45-1-1-1H7c-2.76 0-5 2.24-5 5s2.24 5 5 5h3c.55 0 1-.45 1-1s-.45-1-1-1z"/>

</symbol>
<symbol id="local-library" viewBox="0 0 24 24">
<path d="M12 11.55c-1.82-1.7-4.12-2.89-6.68-3.35C4.11 7.99 3 8.95 3 10.18v6.24c0 1.68.72 2.56 1.71 2.69 2.5.32 4.77 1.35 6.63 2.87.35.29.92.32 1.27.04 1.87-1.53 4.16-2.58 6.68-2.9.94-.13 1.71-1.06 1.71-2.02v-6.92c0-1.23-1.11-2.19-2.32-1.98-2.56.46-4.86 1.65-6.68 3.35zM12 8c1.66 0 3-1.34 3-3s-1.34-3-3-3-3 1.34-3 3 1.34 3 3 3z"/>

</symbol>
<symbol id="lock-open" viewBox="0 0 24 24">
<path d="M12 13c-1.1 0-2 .9-2 2s.9 2 2 2 2-.9 2-2-.9-2-2-2zm6-5h-1V6c0-2.76-2.24-5-5-5-2.28 0-4.27 1.54-4.84 3.75-.14.54.18 1.08.72 1.22.53.14 1.08-.18 1.22-.72C9.44 3.93 10.63 3 12 3c1.65 0 3 1.35 3 3v2H6c-1.1 0-2 .9-2 2v10c0 1.1.9 2 2 2h12c1.1 0 2-.9 2-2V10c0-1.1-.9-2-2-2zm0 11c0 .55-.45 1-1 1H7c-.55 0-1-.45-1-1v-8c0-.55.45-1 1-1h10c.55 0 1 .45 1 1v8z"/>

</symbol>
<symbol id="lock" viewBox="0 0 24 24">
<path d="M18 8h-1V6c0-2.76-2.24-5-5-5S7 3.24 7 6v2H6c-1.1 0-2 .9-2 2v10c0 1.1.9 2 2 2h12c1.1 0 2-.9 2-2V10c0-1.1-.9-2-2-2zm-6 9c-1.1 0-2-.9-2-2s.9-2 2-2 2 .9 2 2-.9 2-2 2zM9 8V6c0-1.66 1.34-3 3-3s3 1.34 3 3v2H9z"/>

</symbol>
<symbol id="loop2" viewBox="0 0 32 32">
<title>loop2</title>
<path d="M27.802 5.197c-2.925-3.194-7.13-5.197-11.803-5.197-8.837 0-16 7.163-16 16h3c0-7.18 5.82-13 13-13 3.844 0 7.298 1.669 9.678 4.322l-4.678 4.678h11v-11l-4.198 4.197z"/>
<path d="M29 16c0 7.18-5.82 13-13 13-3.844 0-7.298-1.669-9.678-4.322l4.678-4.678h-11v11l4.197-4.197c2.925 3.194 7.13 5.197 11.803 5.197 8.837 0 16-7.163 16-16h-3z"/>

</symbol>
<symbol id="mail" viewBox="0 0 20 20">
<path d="M2.00293 5.884L9.99993 9.882L17.9969 5.884C17.9673 5.37444 17.744 4.89549 17.3728 4.54523C17.0015 4.19497 16.5103 3.99991 15.9999 4H3.99993C3.48951 3.99991 2.99838 4.19497 2.62711 4.54523C2.25584 4.89549 2.03253 5.37444 2.00293 5.884Z"/>
<path d="M18 8.11719L10 12.1172L2 8.11719V13.9992C2 14.5296 2.21071 15.0383 2.58579 15.4134C2.96086 15.7885 3.46957 15.9992 4 15.9992H16C16.5304 15.9992 17.0391 15.7885 17.4142 15.4134C17.7893 15.0383 18 14.5296 18 13.9992V8.11719Z"/>

</symbol>
<symbol id="map" viewBox="0 0 24 24">
<path d="M14.65 4.98l-5-1.75c-.42-.15-.88-.15-1.3-.01L4.36 4.56C3.55 4.84 3 5.6 3 6.46v11.85c0 1.41 1.41 2.37 2.72 1.86l2.93-1.14c.22-.09.47-.09.69-.01l5 1.75c.42.15.88.15 1.3.01l3.99-1.34c.81-.27 1.36-1.04 1.36-1.9V5.69c0-1.41-1.41-2.37-2.72-1.86l-2.93 1.14c-.22.08-.46.09-.69.01zM15 18.89l-6-2.11V5.11l6 2.11v11.67z"/>

</symbol>
<symbol id="menu-book" viewBox="0 0 24 24">
<path d="M17.5 4.5c-1.95 0-4.05.4-5.5 1.5-1.45-1.1-3.55-1.5-5.5-1.5-1.45 0-2.99.22-4.28.79C1.49 5.62 1 6.33 1 7.14v11.28c0 1.3 1.22 2.26 2.48 1.94.98-.25 2.02-.36 3.02-.36 1.56 0 3.22.26 4.56.92.6.3 1.28.3 1.87 0 1.34-.67 3-.92 4.56-.92 1 0 2.04.11 3.02.36 1.26.33 2.48-.63 2.48-1.94V7.14c0-.81-.49-1.52-1.22-1.85-1.28-.57-2.82-.79-4.27-.79zM21 17.23c0 .63-.58 1.09-1.2.98-.75-.14-1.53-.2-2.3-.2-1.7 0-4.15.65-5.5 1.5V8c1.35-.85 3.8-1.5 5.5-1.5.92 0 1.83.09 2.7.28.46.1.8.51.8.98v9.47z"/>
<path d="M13.98 11.01c-.32 0-.61-.2-.71-.52-.13-.39.09-.82.48-.94 1.54-.5 3.53-.66 5.36-.45.41.05.71.42.66.83-.05.41-.42.71-.83.66-1.62-.19-3.39-.04-4.73.39-.08.01-.16.03-.23.03zM13.98 13.67c-.32 0-.61-.2-.71-.52-.13-.39.09-.82.48-.94 1.53-.5 3.53-.66 5.36-.45.41.05.71.42.66.83-.05.41-.42.71-.83.66-1.62-.19-3.39-.04-4.73.39-.08.02-.16.03-.23.03zM13.98 16.33c-.32 0-.61-.2-.71-.52-.13-.39.09-.82.48-.94 1.53-.5 3.53-.66 5.36-.45.41.05.71.42.66.83-.05.41-.42.7-.83.66-1.62-.19-3.39-.04-4.73.39-.08.02-.16.03-.23.03z"/>

</symbol>
<symbol id="menu" viewBox="0 0 18 12">
<path d="M0 0H18V2H0V0ZM0 5H18V7H0V5ZM0 10H18V12H0V10Z"/>

</symbol>
<symbol id="mic" viewBox="0 0 24 24">
<path d="M12 14c1.66 0 3-1.34 3-3V5c0-1.66-1.34-3-3-3S9 3.34 9 5v6c0 1.66 1.34 3 3 3zm5.91-3c-.49 0-.9.36-.98.85C16.52 14.2 14.47 16 12 16s-4.52-1.8-4.93-4.15c-.08-.49-.49-.85-.98-.85-.61 0-1.09.54-1 1.14.49 3 2.89 5.35 5.91 5.78V20c0 .55.45 1 1 1s1-.45 1-1v-2.08c3.02-.43 5.42-2.78 5.91-5.78.1-.6-.39-1.14-1-1.14z"/>

</symbol>
<symbol id="minus" viewBox="0 0 20 20">
<path fill-rule="evenodd" clip-rule="evenodd" d="M5 10C5 9.73478 5.10536 9.48043 5.29289 9.29289C5.48043 9.10536 5.73478 9 6 9H14C14.2652 9 14.5196 9.10536 14.7071 9.29289C14.8946 9.48043 15 9.73478 15 10C15 10.2652 14.8946 10.5196 14.7071 10.7071C14.5196 10.8946 14.2652 11 14 11H6C5.73478 11 5.48043 10.8946 5.29289 10.7071C5.10536 10.5196 5 10.2652 5 10Z"/>

</symbol>
<symbol id="mood" viewBox="0 0 24 24">
<path d="M11.99 2C6.47 2 2 6.48 2 12s4.47 10 9.99 10C17.52 22 22 17.52 22 12S17.52 2 11.99 2zM12 20c-4.42 0-8-3.58-8-8s3.58-8 8-8 8 3.58 8 8-3.58 8-8 8zm3.5-9c.83 0 1.5-.67 1.5-1.5S16.33 8 15.5 8 14 8.67 14 9.5s.67 1.5 1.5 1.5zm-7 0c.83 0 1.5-.67 1.5-1.5S9.33 8 8.5 8 7 8.67 7 9.5 7.67 11 8.5 11zm3.5 6.5c2.03 0 3.8-1.11 4.75-2.75.19-.33-.05-.75-.44-.75H7.69c-.38 0-.63.42-.44.75.95 1.64 2.72 2.75 4.75 2.75z"/>

</symbol>
<symbol id="more-vert" viewBox="0 0 24 24">
<path d="M12 8c1.1 0 2-.9 2-2s-.9-2-2-2-2 .9-2 2 .9 2 2 2zm0 2c-1.1 0-2 .9-2 2s.9 2 2 2 2-.9 2-2-.9-2-2-2zm0 6c-1.1 0-2 .9-2 2s.9 2 2 2 2-.9 2-2-.9-2-2-2z"/>

</symbol>
<symbol id="notifications" viewBox="0 0 24 24">
<path d="M12 22c1.1 0 2-.9 2-2h-4c0 1.1.89 2 2 2zm6-6v-5c0-3.07-1.64-5.64-4.5-6.32V4c0-.83-.67-1.5-1.5-1.5s-1.5.67-1.5 1.5v.68C7.63 5.36 6 7.92 6 11v5l-1.29 1.29c-.63.63-.19 1.71.7 1.71h13.17c.89 0 1.34-1.08.71-1.71L18 16z"/>

</symbol>
<symbol id="ondemand-video" viewBox="0 0 24 24">
<path d="M21 3H3c-1.1 0-2 .9-2 2v12c0 1.1.9 2 2 2h5v1c0 .55.45 1 1 1h6c.55 0 1-.45 1-1v-1h5c1.1 0 1.99-.9 1.99-2L23 5c0-1.11-.9-2-2-2zm-1 14H4c-.55 0-1-.45-1-1V6c0-.55.45-1 1-1h16c.55 0 1 .45 1 1v10c0 .55-.45 1-1 1zm-5.52-5.13l-3.98 2.28c-.67.38-1.5-.11-1.5-.87V8.72c0-.77.83-1.25 1.5-.87l3.98 2.28c.67.39.67 1.35 0 1.74z"/>

</symbol>
<symbol id="open-in-new" viewBox="0 0 24 24">
<path d="M18 19H6c-.55 0-1-.45-1-1V6c0-.55.45-1 1-1h5c.55 0 1-.45 1-1s-.45-1-1-1H5c-1.11 0-2 .9-2 2v14c0 1.1.9 2 2 2h14c1.1 0 2-.9 2-2v-6c0-.55-.45-1-1-1s-1 .45-1 1v5c0 .55-.45 1-1 1zM14 4c0 .55.45 1 1 1h2.59l-9.13 9.13c-.39.39-.39 1.02 0 1.41.39.39 1.02.39 1.41 0L19 6.41V9c0 .55.45 1 1 1s1-.45 1-1V4c0-.55-.45-1-1-1h-5c-.55 0-1 .45-1 1z"/>

</symbol>
<symbol id="pencil-alt" viewBox="0 0 20 20">
<path d="M17.414 2.58557C17.0389 2.21063 16.5303 2 16 2C15.4697 2 14.9611 2.21063 14.586 2.58557L7 10.1716V12.9996H9.828L17.414 5.41357C17.7889 5.03852 17.9996 4.5299 17.9996 3.99957C17.9996 3.46924 17.7889 2.96063 17.414 2.58557Z"/>
<path fill-rule="evenodd" clip-rule="evenodd" d="M2 6C2 5.46957 2.21071 4.96086 2.58579 4.58579C2.96086 4.21071 3.46957 4 4 4H8C8.26522 4 8.51957 4.10536 8.70711 4.29289C8.89464 4.48043 9 4.73478 9 5C9 5.26522 8.89464 5.51957 8.70711 5.70711C8.51957 5.89464 8.26522 6 8 6H4V16H14V12C14 11.7348 14.1054 11.4804 14.2929 11.2929C14.4804 11.1054 14.7348 11 15 11C15.2652 11 15.5196 11.1054 15.7071 11.2929C15.8946 11.4804 16 11.7348 16 12V16C16 16.5304 15.7893 17.0391 15.4142 17.4142C15.0391 17.7893 14.5304 18 14 18H4C3.46957 18 2.96086 17.7893 2.58579 17.4142C2.21071 17.0391 2 16.5304 2 16V6Z"/>

</symbol>
<symbol id="pencil" viewBox="0 0 20 20">
<path d="M13.586 3.58519C13.7705 3.39417 13.9912 3.2418 14.2352 3.13698C14.4792 3.03216 14.7416 2.97699 15.0072 2.97468C15.2728 2.97238 15.5361 3.02298 15.7819 3.12354C16.0277 3.2241 16.251 3.37261 16.4388 3.5604C16.6266 3.74818 16.7751 3.97148 16.8756 4.21728C16.9762 4.46307 17.0268 4.72643 17.0245 4.99199C17.0222 5.25755 16.967 5.51999 16.8622 5.76399C16.7574 6.008 16.605 6.22869 16.414 6.41319L15.621 7.20619L12.793 4.37819L13.586 3.58519ZM11.379 5.79219L3 14.1712V16.9992H5.828L14.208 8.62019L11.378 5.79219H11.379Z"/>

</symbol>
<symbol id="people" viewBox="0 0 24 24">
<path d="M16 11c1.66 0 2.99-1.34 2.99-3S17.66 5 16 5s-3 1.34-3 3 1.34 3 3 3zm-8 0c1.66 0 2.99-1.34 2.99-3S9.66 5 8 5 5 6.34 5 8s1.34 3 3 3zm0 2c-2.33 0-7 1.17-7 3.5V18c0 .55.45 1 1 1h12c.55 0 1-.45 1-1v-1.5c0-2.33-4.67-3.5-7-3.5zm8 0c-.29 0-.62.02-.97.05.02.01.03.03.04.04 1.14.83 1.93 1.94 1.93 3.41V18c0 .35-.07.69-.18 1H22c.55 0 1-.45 1-1v-1.5c0-2.33-4.67-3.5-7-3.5z"/>

</symbol>
<symbol id="person-add" viewBox="0 0 24 24">
<path d="M15 12c2.21 0 4-1.79 4-4s-1.79-4-4-4-4 1.79-4 4 1.79 4 4 4zm-9-2V8c0-.55-.45-1-1-1s-1 .45-1 1v2H2c-.55 0-1 .45-1 1s.45 1 1 1h2v2c0 .55.45 1 1 1s1-.45 1-1v-2h2c.55 0 1-.45 1-1s-.45-1-1-1H6zm9 4c-2.67 0-8 1.34-8 4v1c0 .55.45 1 1 1h14c.55 0 1-.45 1-1v-1c0-2.66-5.33-4-8-4z"/>

</symbol>
<symbol id="play-arrow" viewBox="0 0 24 24">
<path d="M8 6.82v10.36c0 .79.87 1.27 1.54.84l8.14-5.18c.62-.39.62-1.29 0-1.69L9.54 5.98C8.87 5.55 8 6.03 8 6.82z"/>

</symbol>
<symbol id="plus" viewBox="0 0 20 20">
<path fill-rule="evenodd" clip-rule="evenodd" d="M10 5C10.2652 5 10.5196 5.10536 10.7071 5.29289C10.8946 5.48043 11 5.73478 11 6V9H14C14.2652 9 14.5196 9.10536 14.7071 9.29289C14.8946 9.48043 15 9.73478 15 10C15 10.2652 14.8946 10.5196 14.7071 10.7071C14.5196 10.8946 14.2652 11 14 11H11V14C11 14.2652 10.8946 14.5196 10.7071 14.7071C10.5196 14.8946 10.2652 15 10 15C9.73478 15 9.48043 14.8946 9.29289 14.7071C9.10536 14.5196 9 14.2652 9 14V11H6C5.73478 11 5.48043 10.8946 5.29289 10.7071C5.10536 10.5196 5 10.2652 5 10C5 9.73478 5.10536 9.48043 5.29289 9.29289C5.48043 9.10536 5.73478 9 6 9H9V6C9 5.73478 9.10536 5.48043 9.29289 5.29289C9.48043 5.10536 9.73478 5 10 5Z"/>

</symbol>
<symbol id="print" viewBox="0 0 24 24">
<path d="M19 8H5c-1.66 0-3 1.34-3 3v4c0 1.1.9 2 2 2h2v2c0 1.1.9 2 2 2h8c1.1 0 2-.9 2-2v-2h2c1.1 0 2-.9 2-2v-4c0-1.66-1.34-3-3-3zm-4 11H9c-.55 0-1-.45-1-1v-4h8v4c0 .55-.45 1-1 1zm4-7c-.55 0-1-.45-1-1s.45-1 1-1 1 .45 1 1-.45 1-1 1zm-2-9H7c-.55 0-1 .45-1 1v2c0 .55.45 1 1 1h10c.55 0 1-.45 1-1V4c0-.55-.45-1-1-1z"/>

</symbol>
<symbol id="question-answer" viewBox="0 0 24 24">
<path d="M20 6h-1v8c0 .55-.45 1-1 1H6v1c0 1.1.9 2 2 2h10l4 4V8c0-1.1-.9-2-2-2zm-3 5V4c0-1.1-.9-2-2-2H4c-1.1 0-2 .9-2 2v13l4-4h9c1.1 0 2-.9 2-2z"/>

</symbol>
<symbol id="question-mark-circle" viewBox="0 0 20 20">
<path fill-rule="evenodd" clip-rule="evenodd" d="M18 10C18 12.1217 17.1571 14.1566 15.6569 15.6569C14.1566 17.1571 12.1217 18 10 18C7.87827 18 5.84344 17.1571 4.34315 15.6569C2.84285 14.1566 2 12.1217 2 10C2 7.87827 2.84285 5.84344 4.34315 4.34315C5.84344 2.84285 7.87827 2 10 2C12.1217 2 14.1566 2.84285 15.6569 4.34315C17.1571 5.84344 18 7.87827 18 10ZM10 7C9.8243 6.99983 9.65165 7.04595 9.49945 7.13373C9.34724 7.22151 9.22085 7.34784 9.133 7.5C9.06957 7.61788 8.98311 7.72182 8.87876 7.80566C8.77441 7.8895 8.65429 7.95154 8.52552 7.9881C8.39675 8.02466 8.26194 8.03499 8.12911 8.01849C7.99627 8.00198 7.86809 7.95897 7.75218 7.89201C7.63628 7.82505 7.53499 7.7355 7.45433 7.62867C7.37367 7.52184 7.31529 7.3999 7.28263 7.27008C7.24997 7.14027 7.24371 7.00522 7.26421 6.87294C7.28472 6.74065 7.33157 6.61384 7.402 6.5C7.73222 5.92811 8.24191 5.48116 8.85203 5.22846C9.46214 4.97576 10.1386 4.93144 10.7765 5.10236C11.4143 5.27328 11.978 5.64989 12.38 6.1738C12.782 6.6977 13 7.33962 13 8C13.0002 8.62062 12.8079 9.22603 12.4498 9.73285C12.0916 10.2397 11.5851 10.623 11 10.83V11C11 11.2652 10.8946 11.5196 10.7071 11.7071C10.5196 11.8946 10.2652 12 10 12C9.73478 12 9.48043 11.8946 9.29289 11.7071C9.10536 11.5196 9 11.2652 9 11V10C9 9.73478 9.10536 9.48043 9.29289 9.29289C9.48043 9.10536 9.73478 9 10 9C10.2652 9 10.5196 8.89464 10.7071 8.70711C10.8946 8.51957 11 8.26522 11 8C11 7.73478 10.8946 7.48043 10.7071 7.29289C10.5196 7.10536 10.2652 7 10 7ZM10 15C10.2652 15 10.5196 14.8946 10.7071 14.7071C10.8946 14.5196 11 14.2652 11 14C11 13.7348 10.8946 13.4804 10.7071 13.2929C10.5196 13.1054 10.2652 13 10 13C9.73478 13 9.48043 13.1054 9.29289 13.2929C9.10536 13.4804 9 13.7348 9 14C9 14.2652 9.10536 14.5196 9.29289 14.7071C9.48043 14.8946 9.73478 15 10 15Z"/>

</symbol>
<symbol id="record-voice-over" viewBox="0 0 24 24">
<circle cx="9" cy="9" r="4"/>
<path d="M9 15c-2.67 0-8 1.34-8 4v1c0 .55.45 1 1 1h14c.55 0 1-.45 1-1v-1c0-2.66-5.33-4-8-4zm6.47-7.23c.32.79.32 1.67 0 2.46-.19.47-.11 1 .25 1.36l.03.03c.58.58 1.57.46 1.95-.27.76-1.45.76-3.15-.02-4.66-.38-.74-1.38-.88-1.97-.29l-.01.01c-.34.35-.42.89-.23 1.36zm3.71-4.88c-.4.4-.46 1.02-.13 1.48 1.97 2.74 1.96 6.41-.03 9.25-.32.45-.25 1.07.14 1.46l.03.03c.49.49 1.32.45 1.74-.1 2.75-3.54 2.76-8.37 0-12.02-.42-.55-1.26-.59-1.75-.1z"/>

</symbol>
<symbol id="refresh" viewBox="0 0 20 20">
<path fill-rule="evenodd" clip-rule="evenodd" d="M4 2C4.26522 2 4.51957 2.10536 4.70711 2.29289C4.89464 2.48043 5 2.73478 5 3V5.101C5.83204 4.25227 6.86643 3.62931 8.00574 3.29078C9.14506 2.95226 10.3518 2.90932 11.5123 3.16601C12.6728 3.42269 13.7488 3.97056 14.6391 4.758C15.5294 5.54544 16.2045 6.54654 16.601 7.667C16.6491 7.79176 16.6717 7.92489 16.6674 8.05854C16.6632 8.19218 16.6322 8.32361 16.5763 8.44506C16.5203 8.56651 16.4406 8.67551 16.3418 8.76561C16.243 8.85571 16.1272 8.92508 16.0011 8.96963C15.875 9.01417 15.7413 9.03298 15.6078 9.02494C15.4744 9.0169 15.3439 8.98217 15.224 8.92282C15.1042 8.86346 14.9975 8.78068 14.9103 8.67937C14.823 8.57806 14.7569 8.46029 14.716 8.333C14.4141 7.47982 13.8865 6.72451 13.1892 6.14758C12.4919 5.57064 11.6512 5.19369 10.7566 5.05688C9.86195 4.92008 8.94698 5.02855 8.10916 5.37074C7.27133 5.71293 6.54204 6.27602 5.999 7H9C9.26522 7 9.51957 7.10536 9.70711 7.29289C9.89464 7.48043 10 7.73478 10 8C10 8.26522 9.89464 8.51957 9.70711 8.70711C9.51957 8.89464 9.26522 9 9 9H4C3.73478 9 3.48043 8.89464 3.29289 8.70711C3.10536 8.51957 3 8.26522 3 8V3C3 2.73478 3.10536 2.48043 3.29289 2.29289C3.48043 2.10536 3.73478 2 4 2ZM4.008 11.057C4.13184 11.0133 4.26308 10.9943 4.39422 11.0013C4.52537 11.0083 4.65386 11.0411 4.77235 11.0977C4.89084 11.1544 4.99701 11.2338 5.0848 11.3315C5.17259 11.4291 5.24028 11.5432 5.284 11.667C5.58586 12.5202 6.11355 13.2755 6.81082 13.8524C7.50809 14.4294 8.34883 14.8063 9.24344 14.9431C10.138 15.0799 11.053 14.9714 11.8908 14.6293C12.7287 14.2871 13.458 13.724 14.001 13H11C10.7348 13 10.4804 12.8946 10.2929 12.7071C10.1054 12.5196 10 12.2652 10 12C10 11.7348 10.1054 11.4804 10.2929 11.2929C10.4804 11.1054 10.7348 11 11 11H16C16.2652 11 16.5196 11.1054 16.7071 11.2929C16.8946 11.4804 17 11.7348 17 12V17C17 17.2652 16.8946 17.5196 16.7071 17.7071C16.5196 17.8946 16.2652 18 16 18C15.7348 18 15.4804 17.8946 15.2929 17.7071C15.1054 17.5196 15 17.2652 15 17V14.899C14.168 15.7477 13.1336 16.3707 11.9943 16.7092C10.8549 17.0477 9.64821 17.0907 8.48772 16.834C7.32723 16.5773 6.25117 16.0294 5.36091 15.242C4.47065 14.4546 3.79548 13.4535 3.399 12.333C3.35526 12.2092 3.33634 12.0779 3.34333 11.9468C3.35031 11.8156 3.38306 11.6871 3.43971 11.5687C3.49635 11.4502 3.57578 11.344 3.67346 11.2562C3.77114 11.1684 3.88516 11.1007 4.009 11.057H4.008Z"/>

</symbol>
<symbol id="remove" viewBox="0 0 24 24">
<path d="M18 13H6c-.55 0-1-.45-1-1s.45-1 1-1h12c.55 0 1 .45 1 1s-.45 1-1 1z"/>

</symbol>
<symbol id="schedule" viewBox="0 0 24 24">
<path d="M11.99 2C6.47 2 2 6.48 2 12s4.47 10 9.99 10C17.52 22 22 17.52 22 12S17.52 2 11.99 2zM12 20c-4.42 0-8-3.58-8-8s3.58-8 8-8 8 3.58 8 8-3.58 8-8 8zm-.22-13h-.06c-.4 0-.72.32-.72.72v4.72c0 .35.18.68.49.86l4.15 2.49c.34.2.78.1.98-.24.21-.34.1-.79-.25-.99l-3.87-2.3V7.72c0-.4-.32-.72-.72-.72z"/>

</symbol>
<symbol id="school" viewBox="0 0 24 24">
<path d="M5 13.18v2.81c0 .73.4 1.41 1.04 1.76l5 2.73c.6.33 1.32.33 1.92 0l5-2.73c.64-.35 1.04-1.03 1.04-1.76v-2.81l-6.04 3.3c-.6.33-1.32.33-1.92 0L5 13.18zm6.04-9.66l-8.43 4.6c-.69.38-.69 1.38 0 1.76l8.43 4.6c.6.33 1.32.33 1.92 0L21 10.09V16c0 .55.45 1 1 1s1-.45 1-1V9.59c0-.37-.2-.7-.52-.88l-9.52-5.19a2.04 2.04 0 00-1.92 0z"/>

</symbol>
<symbol id="search" viewBox="0 0 24 24">
<path d="M15.5 14h-.79l-.28-.27c1.2-1.4 1.82-3.31 1.48-5.34-.47-2.78-2.79-5-5.59-5.34-4.23-.52-7.79 3.04-7.27 7.27.34 2.8 2.56 5.12 5.34 5.59 2.03.34 3.94-.28 5.34-1.48l.27.28v.79l4.25 4.25c.41.41 1.08.41 1.49 0 .41-.41.41-1.08 0-1.49L15.5 14zm-6 0C7.01 14 5 11.99 5 9.5S7.01 5 9.5 5 14 7.01 14 9.5 11.99 14 9.5 14z"/>

</symbol>
<symbol id="selector" viewBox="0 0 20 20">
<path fill-rule="evenodd" clip-rule="evenodd" d="M9.99979 3C10.265 3.00006 10.5193 3.10545 10.7068 3.293L13.7068 6.293C13.8889 6.4816 13.9897 6.7342 13.9875 6.9964C13.9852 7.2586 13.88 7.50941 13.6946 7.69482C13.5092 7.88023 13.2584 7.9854 12.9962 7.98767C12.734 7.98995 12.4814 7.88916 12.2928 7.707L9.99979 5.414L7.70679 7.707C7.51818 7.88916 7.26558 7.98995 7.00339 7.98767C6.74119 7.9854 6.49038 7.88023 6.30497 7.69482C6.11956 7.50941 6.01439 7.2586 6.01211 6.9964C6.00983 6.7342 6.11063 6.4816 6.29279 6.293L9.29279 3.293C9.48028 3.10545 9.73459 3.00006 9.99979 3ZM6.29279 12.293C6.48031 12.1055 6.73462 12.0002 6.99979 12.0002C7.26495 12.0002 7.51926 12.1055 7.70679 12.293L9.99979 14.586L12.2928 12.293C12.4814 12.1108 12.734 12.01 12.9962 12.0123C13.2584 12.0146 13.5092 12.1198 13.6946 12.3052C13.88 12.4906 13.9852 12.7414 13.9875 13.0036C13.9897 13.2658 13.8889 13.5184 13.7068 13.707L10.7068 16.707C10.5193 16.8945 10.265 16.9998 9.99979 16.9998C9.73462 16.9998 9.48031 16.8945 9.29279 16.707L6.29279 13.707C6.10532 13.5195 6 13.2652 6 13C6 12.7348 6.10532 12.4805 6.29279 12.293Z"/>

</symbol>
<symbol id="sentiment-dissatisfied" viewBox="0 0 24 24">
<circle cx="15.5" cy="9.5" r="1.5"/>
<circle cx="8.5" cy="9.5" r="1.5"/>
<path d="M11.99 2C6.47 2 2 6.48 2 12s4.47 10 9.99 10C17.52 22 22 17.52 22 12S17.52 2 11.99 2zM12 20c-4.42 0-8-3.58-8-8s3.58-8 8-8 8 3.58 8 8-3.58 8-8 8zm0-6c-1.9 0-3.63.97-4.65 2.58-.22.35-.11.81.24 1.03.35.22.81.11 1.03-.24.74-1.18 2-1.88 3.38-1.88s2.64.7 3.38 1.88c.14.23.39.35.64.35.14 0 .27-.04.4-.11.35-.22.46-.68.24-1.03C15.63 14.96 13.9 14 12 14z"/>

</symbol>
<symbol id="sentiment-satisfied" viewBox="0 0 24 24">
<circle cx="15.5" cy="9.5" r="1.5"/>
<circle cx="8.5" cy="9.5" r="1.5"/>
<path d="M11.99 2C6.47 2 2 6.48 2 12s4.47 10 9.99 10C17.52 22 22 17.52 22 12S17.52 2 11.99 2zM12 20c-4.42 0-8-3.58-8-8s3.58-8 8-8 8 3.58 8 8-3.58 8-8 8zm4.41-6.11c-.35-.22-.82-.11-1.03.24-.74 1.17-2 1.87-3.38 1.87s-2.64-.7-3.38-1.88c-.22-.35-.68-.46-1.03-.24-.35.22-.46.68-.24 1.03C8.37 16.54 10.1 17.5 12 17.5s3.63-.97 4.65-2.58c.22-.35.11-.81-.24-1.03z"/>

</symbol>
<symbol id="sentiment-very-satisfied" viewBox="0 0 24 24">
<path d="M8.88 9.94l.53.53c.29.29.77.29 1.06 0 .29-.29.29-.77 0-1.06l-.88-.88a.9959.9959 0 00-1.41 0l-.89.88c-.29.29-.29.77 0 1.06.29.29.77.29 1.06 0l.53-.53zM12 17.5c2.03 0 3.8-1.11 4.75-2.75.19-.33-.05-.75-.44-.75H7.69c-.38 0-.63.42-.44.75.95 1.64 2.72 2.75 4.75 2.75zm1.53-7.03c.29.29.77.29 1.06 0l.53-.53.53.53c.29.29.77.29 1.06 0 .29-.29.29-.77 0-1.06l-.88-.88a.9959.9959 0 00-1.41 0l-.88.88c-.3.29-.3.77-.01 1.06zM11.99 2C6.47 2 2 6.47 2 12s4.47 10 9.99 10S22 17.53 22 12 17.52 2 11.99 2zM12 20c-4.42 0-8-3.58-8-8s3.58-8 8-8 8 3.58 8 8-3.58 8-8 8z"/>

</symbol>
<symbol id="settings-voice" viewBox="0 0 24 24">
<path d="M7 24h2v-2H7v2zm5-11c1.66 0 2.99-1.34 2.99-3L15 4c0-1.66-1.34-3-3-3S9 2.34 9 4v6c0 1.66 1.34 3 3 3zm-1 11h2v-2h-2v2zm4 0h2v-2h-2v2zm3.08-14c-.42 0-.77.3-.83.71-.37 2.61-2.72 4.39-5.25 4.39s-4.88-1.77-5.25-4.39c-.06-.41-.42-.71-.83-.71-.52 0-.92.46-.85.97.46 2.96 2.96 5.3 5.93 5.75V19c0 .55.45 1 1 1s1-.45 1-1v-2.28c2.96-.44 5.47-2.79 5.93-5.75.07-.51-.33-.97-.85-.97z"/>

</symbol>
<symbol id="settings" viewBox="0 0 24 24">
<path d="M19.43 12.98c.04-.32.07-.64.07-.98s-.03-.66-.07-.98l2.11-1.65c.19-.15.24-.42.12-.64l-2-3.46c-.12-.22-.39-.3-.61-.22l-2.49 1c-.52-.4-1.08-.73-1.69-.98l-.38-2.65C14.46 2.18 14.25 2 14 2h-4c-.25 0-.46.18-.49.42l-.38 2.65c-.61.25-1.17.59-1.69.98l-2.49-1c-.23-.09-.49 0-.61.22l-2 3.46c-.13.22-.07.49.12.64l2.11 1.65c-.04.32-.07.65-.07.98s.03.66.07.98l-2.11 1.65c-.19.15-.24.42-.12.64l2 3.46c.12.22.39.3.61.22l2.49-1c.52.4 1.08.73 1.69.98l.38 2.65c.03.24.24.42.49.42h4c.25 0 .46-.18.49-.42l.38-2.65c.61-.25 1.17-.59 1.69-.98l2.49 1c.23.09.49 0 .61-.22l2-3.46c.12-.22.07-.49-.12-.64l-2.11-1.65zM12 15.5c-1.93 0-3.5-1.57-3.5-3.5s1.57-3.5 3.5-3.5 3.5 1.57 3.5 3.5-1.57 3.5-3.5 3.5z"/>

</symbol>
<symbol id="share-custom" viewBox="0 0 20 20">
<path d="M15.0004 8C15.6096 8.00002 16.2043 7.8146 16.7055 7.4684C17.2067 7.1222 17.5907 6.63162 17.8063 6.06191C18.0219 5.49219 18.059 4.87034 17.9126 4.27904C17.7662 3.68774 17.4433 3.15501 16.9868 2.7517C16.5302 2.34839 15.9618 2.09362 15.3569 2.02125C14.7521 1.94888 14.1395 2.06235 13.6008 2.34658C13.062 2.6308 12.6225 3.0723 12.3407 3.61238C12.059 4.15245 11.9483 4.7655 12.0234 5.37L7.08342 7.84C6.65965 7.43136 6.12501 7.15642 5.54611 7.04945C4.96721 6.94247 4.36962 7.00819 3.8278 7.2384C3.28598 7.46862 2.82387 7.85317 2.49903 8.34414C2.17418 8.83511 2.00098 9.4108 2.00098 9.9995C2.00098 10.5882 2.17418 11.1639 2.49903 11.6549C2.82387 12.1458 3.28598 12.5304 3.8278 12.7606C4.36962 12.9908 4.96721 13.0565 5.54611 12.9496C6.12501 12.8426 6.65965 12.5676 7.08342 12.159L12.0234 14.629C11.9359 15.3312 12.0995 16.0418 12.4852 16.6351C12.8709 17.2284 13.454 17.6663 14.1313 17.8713C14.8086 18.0763 15.5366 18.0353 16.1866 17.7555C16.8366 17.4757 17.3668 16.9751 17.6834 16.3422C18 15.7093 18.0827 14.9849 17.9169 14.2969C17.751 13.6089 17.3473 13.0017 16.7771 12.5826C16.2069 12.1635 15.5069 11.9595 14.8007 12.0066C14.0946 12.0537 13.4279 12.3489 12.9184 12.84L7.97842 10.37C8.00868 10.1243 8.00868 9.87574 7.97842 9.63L12.9184 7.16C13.4564 7.68 14.1904 8 15.0004 8Z"/>

</symbol>
<symbol id="spa" viewBox="0 0 24 24">
<path d="M15.49 9.63c-.16-2.42-1.03-4.79-2.64-6.76-.41-.5-1.16-.5-1.57 0-1.65 1.98-2.57 4.35-2.77 6.76 1.28.68 2.46 1.56 3.49 2.63 1.03-1.06 2.21-1.94 3.49-2.63zm-6.5 2.65c-.14-.1-.3-.19-.45-.29.15.11.31.19.45.29zm6.42-.25c-.13.09-.27.16-.4.26.13-.1.27-.17.4-.26zM12 15.45c-1.95-2.97-5.14-5.03-8.83-5.39-.64-.06-1.17.47-1.11 1.11.45 4.8 3.65 8.78 7.98 10.33.63.23 1.29.4 1.97.51.68-.12 1.33-.29 1.97-.51 4.33-1.55 7.53-5.52 7.98-10.33.06-.64-.48-1.17-1.11-1.11-3.71.36-6.9 2.42-8.85 5.39z"/>

</symbol>
<symbol id="spinner" viewBox="0 0 32 32">
<title>spinner8</title>
<path d="M16 32c-4.274 0-8.292-1.664-11.314-4.686s-4.686-7.040-4.686-11.314c0-3.026 0.849-5.973 2.456-8.522 1.563-2.478 3.771-4.48 6.386-5.791l1.344 2.682c-2.126 1.065-3.922 2.693-5.192 4.708-1.305 2.069-1.994 4.462-1.994 6.922 0 7.168 5.832 13 13 13s13-5.832 13-13c0-2.459-0.69-4.853-1.994-6.922-1.271-2.015-3.066-3.643-5.192-4.708l1.344-2.682c2.615 1.31 4.824 3.313 6.386 5.791 1.607 2.549 2.456 5.495 2.456 8.522 0 4.274-1.664 8.292-4.686 11.314s-7.040 4.686-11.314 4.686z"/>

</symbol>
<symbol id="star-circle" viewBox="0 0 24 24">
<path d="M11.99 2C6.47 2 2 6.48 2 12s4.47 10 9.99 10C17.52 22 22 17.52 22 12S17.52 2 11.99 2zm3.23 15.39L12 15.45l-3.22 1.94c-.38.23-.85-.11-.75-.54l.85-3.66-2.83-2.45c-.33-.29-.15-.84.29-.88l3.74-.32 1.46-3.45c.17-.41.75-.41.92 0l1.46 3.44 3.74.32c.44.04.62.59.28.88l-2.83 2.45.85 3.67c.1.43-.36.77-.74.54z"/>

</symbol>
<symbol id="star" viewBox="0 0 24 24">
<path d="M12 17.27l4.15 2.51c.76.46 1.69-.22 1.49-1.08l-1.1-4.72 3.67-3.18c.67-.58.31-1.68-.57-1.75l-4.83-.41-1.89-4.46c-.34-.81-1.5-.81-1.84 0L9.19 8.63l-4.83.41c-.88.07-1.24 1.17-.57 1.75l3.67 3.18-1.1 4.72c-.2.86.73 1.54 1.49 1.08l4.15-2.5z"/>

</symbol>
<symbol id="supervised-user-circle" viewBox="0 0 24 24">
<path d="M12 2C6.48 2 2 6.48 2 12s4.48 10 10 10 10-4.48 10-10S17.52 2 12 2zm3.61 6.34c1.07 0 1.93.86 1.93 1.93s-.86 1.93-1.93 1.93-1.93-.86-1.93-1.93c-.01-1.07.86-1.93 1.93-1.93zm-6-1.58c1.3 0 2.36 1.06 2.36 2.36s-1.06 2.36-2.36 2.36-2.36-1.06-2.36-2.36c0-1.31 1.05-2.36 2.36-2.36zm0 9.13v3.75c-2.4-.75-4.3-2.6-5.14-4.96 1.05-1.12 3.67-1.69 5.14-1.69.53 0 1.2.08 1.9.22-1.64.87-1.9 2.02-1.9 2.68zM12 20c-.27 0-.53-.01-.79-.04v-4.07c0-1.42 2.94-2.13 4.4-2.13 1.07 0 2.92.39 3.84 1.15C18.28 17.88 15.39 20 12 20z"/>

</symbol>
<symbol id="swap-vert" viewBox="0 0 24 24">
<path d="M16 17.01V11c0-.55-.45-1-1-1s-1 .45-1 1v6.01h-1.79c-.45 0-.67.54-.35.85l2.79 2.78c.2.19.51.19.71 0l2.79-2.78c.32-.31.09-.85-.35-.85H16zM8.65 3.35L5.86 6.14c-.32.31-.1.85.35.85H8V13c0 .55.45 1 1 1s1-.45 1-1V6.99h1.79c.45 0 .67-.54.35-.85L9.35 3.35c-.19-.19-.51-.19-.7 0z"/>

</symbol>
<symbol id="thumb-down" viewBox="0 0 24 24">
<path d="M10.88 21.94l5.53-5.54c.37-.37.58-.88.58-1.41V5c0-1.1-.9-2-2-2H6c-.8 0-1.52.48-1.83 1.21L.91 11.82C.06 13.8 1.51 16 3.66 16h5.65l-.95 4.58c-.1.5.05 1.01.41 1.37.59.58 1.53.58 2.11-.01zM21 3c-1.1 0-2 .9-2 2v8c0 1.1.9 2 2 2s2-.9 2-2V5c0-1.1-.9-2-2-2z"/>

</symbol>
<symbol id="thumb-up" viewBox="0 0 24 24">
<path d="M13.12 2.06L7.58 7.6c-.37.37-.58.88-.58 1.41V19c0 1.1.9 2 2 2h9c.8 0 1.52-.48 1.84-1.21l3.26-7.61C23.94 10.2 22.49 8 20.34 8h-5.65l.95-4.58c.1-.5-.05-1.01-.41-1.37-.59-.58-1.53-.58-2.11.01zM3 21c1.1 0 2-.9 2-2v-8c0-1.1-.9-2-2-2s-2 .9-2 2v8c0 1.1.9 2 2 2z"/>

</symbol>
<symbol id="timeline" viewBox="0 0 24 24">
<path d="M23 8c0 1.1-.9 2-2 2-.18 0-.35-.02-.51-.07l-3.56 3.55c.05.16.07.34.07.52 0 1.1-.9 2-2 2s-2-.9-2-2c0-.18.02-.36.07-.52l-2.55-2.55c-.16.05-.34.07-.52.07s-.36-.02-.52-.07l-4.55 4.56c.05.16.07.33.07.51 0 1.1-.9 2-2 2s-2-.9-2-2 .9-2 2-2c.18 0 .35.02.51.07l4.56-4.55C8.02 9.36 8 9.18 8 9c0-1.1.9-2 2-2s2 .9 2 2c0 .18-.02.36-.07.52l2.55 2.55c.16-.05.34-.07.52-.07s.36.02.52.07l3.55-3.56C19.02 8.35 19 8.18 19 8c0-1.1.9-2 2-2s2 .9 2 2zm0 0c0 1.1-.9 2-2 2-.18 0-.35-.02-.51-.07l-3.56 3.55c.05.16.07.34.07.52 0 1.1-.9 2-2 2s-2-.9-2-2c0-.18.02-.36.07-.52l-2.55-2.55c-.16.05-.34.07-.52.07s-.36-.02-.52-.07l-4.55 4.56c.05.16.07.33.07.51 0 1.1-.9 2-2 2s-2-.9-2-2 .9-2 2-2c.18 0 .35.02.51.07l4.56-4.55C8.02 9.36 8 9.18 8 9c0-1.1.9-2 2-2s2 .9 2 2c0 .18-.02.36-.07.52l2.55 2.55c.16-.05.34-.07.52-.07s.36.02.52.07l3.55-3.56C19.02 8.35 19 8.18 19 8c0-1.1.9-2 2-2s2 .9 2 2z"/>

</symbol>
<symbol id="timer-off" viewBox="0 0 24 24">
<path d="M10 3h4c.55 0 1-.45 1-1s-.45-1-1-1h-4c-.55 0-1 .45-1 1s.45 1 1 1zm2 5c-.51 0-.92.39-.98.89L13 10.86V9c0-.55-.45-1-1-1zm0-2c3.87 0 7 3.13 7 7 0 1.12-.27 2.18-.74 3.12l1.47 1.47C20.53 16.25 21 14.68 21 13c0-2.12-.74-4.07-1.97-5.61l.75-.75c.38-.38.39-1.01 0-1.4l-.01-.01c-.39-.39-1.01-.38-1.4 0l-.75.75C16.07 4.74 14.12 4 12 4c-1.66 0-3.22.48-4.57 1.29l1.45 1.45c.94-.47 2-.74 3.12-.74zm8.19 14.88L3.87 4.56a.9959.9959 0 00-1.41 0c-.39.39-.39 1.02 0 1.41l2.07 2.07C3.61 9.42 3.05 11.03 3 12.76 2.87 17.84 6.94 22 12 22c1.84 0 3.55-.55 4.98-1.5l1.79 1.79c.39.39 1.02.39 1.41 0 .4-.39.4-1.02.01-1.41zM12 20c-3.87 0-7-3.13-7-7 0-1.29.35-2.49.96-3.52l9.57 9.57c-1.04.6-2.24.95-3.53.95z"/>

</symbol>
<symbol id="timer" viewBox="0 0 24 24">
<path d="M14 1h-4c-.55 0-1 .45-1 1s.45 1 1 1h4c.55 0 1-.45 1-1s-.45-1-1-1zm-2 13c.55 0 1-.45 1-1V9c0-.55-.45-1-1-1s-1 .45-1 1v4c0 .55.45 1 1 1zm7.03-6.61l.75-.75c.38-.38.39-1.01 0-1.4l-.01-.01c-.39-.39-1.01-.38-1.4 0l-.75.75C16.07 4.74 14.12 4 12 4c-4.8 0-8.88 3.96-9 8.76C2.87 17.84 6.94 22 12 22c4.98 0 9-4.03 9-9 0-2.12-.74-4.07-1.97-5.61zM12 20c-3.87 0-7-3.13-7-7s3.13-7 7-7 7 3.13 7 7-3.13 7-7 7z"/>

</symbol>
<symbol id="trash" viewBox="0 0 20 20">
<path fill-rule="evenodd" clip-rule="evenodd" d="M9 2C8.81434 2.0001 8.63237 2.05188 8.47447 2.14955C8.31658 2.24722 8.18899 2.38692 8.106 2.553L7.382 4H4C3.73478 4 3.48043 4.10536 3.29289 4.29289C3.10536 4.48043 3 4.73478 3 5C3 5.26522 3.10536 5.51957 3.29289 5.70711C3.48043 5.89464 3.73478 6 4 6V16C4 16.5304 4.21071 17.0391 4.58579 17.4142C4.96086 17.7893 5.46957 18 6 18H14C14.5304 18 15.0391 17.7893 15.4142 17.4142C15.7893 17.0391 16 16.5304 16 16V6C16.2652 6 16.5196 5.89464 16.7071 5.70711C16.8946 5.51957 17 5.26522 17 5C17 4.73478 16.8946 4.48043 16.7071 4.29289C16.5196 4.10536 16.2652 4 16 4H12.618L11.894 2.553C11.811 2.38692 11.6834 2.24722 11.5255 2.14955C11.3676 2.05188 11.1857 2.0001 11 2H9ZM7 8C7 7.73478 7.10536 7.48043 7.29289 7.29289C7.48043 7.10536 7.73478 7 8 7C8.26522 7 8.51957 7.10536 8.70711 7.29289C8.89464 7.48043 9 7.73478 9 8V14C9 14.2652 8.89464 14.5196 8.70711 14.7071C8.51957 14.8946 8.26522 15 8 15C7.73478 15 7.48043 14.8946 7.29289 14.7071C7.10536 14.5196 7 14.2652 7 14V8ZM12 7C11.7348 7 11.4804 7.10536 11.2929 7.29289C11.1054 7.48043 11 7.73478 11 8V14C11 14.2652 11.1054 14.5196 11.2929 14.7071C11.4804 14.8946 11.7348 15 12 15C12.2652 15 12.5196 14.8946 12.7071 14.7071C12.8946 14.5196 13 14.2652 13 14V8C13 7.73478 12.8946 7.48043 12.7071 7.29289C12.5196 7.10536 12.2652 7 12 7Z"/>

</symbol>
<symbol id="trending-down" viewBox="0 0 20 20">
<path fill-rule="evenodd" clip-rule="evenodd" d="M12.0004 12.9994C11.7352 12.9994 11.4808 13.1048 11.2933 13.2923C11.1058 13.4799 11.0004 13.7342 11.0004 13.9994C11.0004 14.2646 11.1058 14.519 11.2933 14.7065C11.4808 14.8941 11.7352 14.9994 12.0004 14.9994H17.0004C17.2656 14.9994 17.52 14.8941 17.7075 14.7065C17.8951 14.519 18.0004 14.2646 18.0004 13.9994V8.99943C18.0004 8.73421 17.8951 8.47986 17.7075 8.29232C17.52 8.10479 17.2656 7.99943 17.0004 7.99943C16.7352 7.99943 16.4808 8.10479 16.2933 8.29232C16.1058 8.47986 16.0004 8.73421 16.0004 8.99943V11.5854L11.7074 7.29243C11.5199 7.10496 11.2656 6.99964 11.0004 6.99964C10.7352 6.99964 10.4809 7.10496 10.2934 7.29243L8.00041 9.58543L3.70741 5.29243C3.5188 5.11027 3.2662 5.00948 3.00401 5.01176C2.74181 5.01403 2.491 5.1192 2.30559 5.30461C2.12018 5.49002 2.01501 5.74083 2.01273 6.00303C2.01045 6.26523 2.11125 6.51783 2.29341 6.70643L7.29341 11.7064C7.48094 11.8939 7.73524 11.9992 8.00041 11.9992C8.26557 11.9992 8.51988 11.8939 8.70741 11.7064L11.0004 9.41343L14.5864 12.9994H12.0004Z"/>

</symbol>
<symbol id="trending-up" viewBox="0 0 24 24">
<path d="M16.85 6.85l1.44 1.44-4.88 4.88-3.29-3.29a.9959.9959 0 00-1.41 0l-6 6.01c-.39.39-.39 1.02 0 1.41.39.39 1.02.39 1.41 0L9.41 12l3.29 3.29c.39.39 1.02.39 1.41 0l5.59-5.58 1.44 1.44c.31.31.85.09.85-.35V6.5c.01-.28-.21-.5-.49-.5h-4.29c-.45 0-.67.54-.36.85z"/>

</symbol>
<symbol id="triangle-down" viewBox="0 0 12 16">
<title>triangle-down</title>
<path d="M0 6l5.996 5.996 5.996-5.996h-11.992z"/>

</symbol>
<symbol id="triangle-left" viewBox="0 0 6 16">
<title>triangle-left</title>
<path d="M0 7.998l5.996 5.996v-11.992l-5.996 5.996z"/>

</symbol>
<symbol id="triangle-right" viewBox="0 0 6 16">
<title>triangle-right</title>
<path d="M0.001 2.004l5.996 5.996-5.996 5.996v-11.992z"/>

</symbol>
<symbol id="triangle-up" viewBox="0 0 12 16">
<title>triangle-up</title>
<path d="M5.996 4l-5.996 5.996h11.992l-5.996-5.996z"/>

</symbol>
<symbol id="unfold-more" viewBox="0 0 24 24">
<path d="M12 5.83l2.46 2.46c.39.39 1.02.39 1.41 0 .39-.39.39-1.02 0-1.41L12.7 3.7a.9959.9959 0 00-1.41 0L8.12 6.88c-.39.39-.39 1.02 0 1.41.39.39 1.02.39 1.41 0L12 5.83zm0 12.34l-2.46-2.46a.9959.9959 0 00-1.41 0c-.39.39-.39 1.02 0 1.41l3.17 3.18c.39.39 1.02.39 1.41 0l3.17-3.17c.39-.39.39-1.02 0-1.41a.9959.9959 0 00-1.41 0L12 18.17z"/>

</symbol>
<symbol id="view-day" viewBox="0 0 24 24">
<path d="M3 21h17c.55 0 1-.45 1-1v-1c0-.55-.45-1-1-1H3c-.55 0-1 .45-1 1v1c0 .55.45 1 1 1zM20 8H3c-.55 0-1 .45-1 1v6c0 .55.45 1 1 1h17c.55 0 1-.45 1-1V9c0-.55-.45-1-1-1zM2 4v1c0 .55.45 1 1 1h17c.55 0 1-.45 1-1V4c0-.55-.45-1-1-1H3c-.55 0-1 .45-1 1z"/>

</symbol>
<symbol id="view-headline" viewBox="0 0 24 24">
<path d="M5 15h14c.55 0 1-.45 1-1s-.45-1-1-1H5c-.55 0-1 .45-1 1s.45 1 1 1zm0 4h14c.55 0 1-.45 1-1s-.45-1-1-1H5c-.55 0-1 .45-1 1s.45 1 1 1zm0-8h14c.55 0 1-.45 1-1s-.45-1-1-1H5c-.55 0-1 .45-1 1s.45 1 1 1zM4 6c0 .55.45 1 1 1h14c.55 0 1-.45 1-1s-.45-1-1-1H5c-.55 0-1 .45-1 1z"/>

</symbol>
<symbol id="view-module" viewBox="0 0 24 24">
<path d="M5 11h3c.55 0 1-.45 1-1V6c0-.55-.45-1-1-1H5c-.55 0-1 .45-1 1v4c0 .55.45 1 1 1zm0 7h3c.55 0 1-.45 1-1v-4c0-.55-.45-1-1-1H5c-.55 0-1 .45-1 1v4c0 .55.45 1 1 1zm6 0h3c.55 0 1-.45 1-1v-4c0-.55-.45-1-1-1h-3c-.55 0-1 .45-1 1v4c0 .55.45 1 1 1zm6 0h3c.55 0 1-.45 1-1v-4c0-.55-.45-1-1-1h-3c-.55 0-1 .45-1 1v4c0 .55.45 1 1 1zm-6-7h3c.55 0 1-.45 1-1V6c0-.55-.45-1-1-1h-3c-.55 0-1 .45-1 1v4c0 .55.45 1 1 1zm5-5v4c0 .55.45 1 1 1h3c.55 0 1-.45 1-1V6c0-.55-.45-1-1-1h-3c-.55 0-1 .45-1 1z"/>

</symbol>
<symbol id="warning" viewBox="0 0 24 24">
<path d="M4.47 21h15.06c1.54 0 2.5-1.67 1.73-3L13.73 4.99c-.77-1.33-2.69-1.33-3.46 0L2.74 18c-.77 1.33.19 3 1.73 3zM12 14c-.55 0-1-.45-1-1v-2c0-.55.45-1 1-1s1 .45 1 1v2c0 .55-.45 1-1 1zm1 4h-2v-2h2v2z"/>

</symbol>
<symbol id="webhook" viewBox="0 0 21 20">
<path d="M9.9954 4.00098L14.6596 13.3161C15.3713 12.9602 16.1952 12.9015 16.9502 13.1531C17.7051 13.4047 18.3292 13.9459 18.6851 14.6576C19.041 15.3693 19.0996 16.1932 18.8481 16.9482C18.5965 17.7031 18.0553 18.3272 17.3436 18.6831C16.9912 18.8593 16.6075 18.9644 16.2145 18.9924C15.8215 19.0203 15.4268 18.9706 15.053 18.846M12.9213 3.31152C12.766 2.65384 12.3932 2.06785 11.8633 1.64849C11.3333 1.22914 10.6774 1.00098 10.0016 1.00098C9.32582 1.00098 8.66984 1.22914 8.13992 1.64849C7.61001 2.06785 7.2372 2.65384 7.08189 3.31152C6.92659 3.96921 6.99788 4.66007 7.28423 5.27217C7.57058 5.88428 8.0552 6.38178 8.65959 6.68408L4 16.001M15.9982 16.2128L6.99485 16.2128C6.96691 16.6059 6.86183 16.9896 6.68559 17.3421C6.32967 18.0539 5.70555 18.5952 4.95053 18.8469C4.19551 19.0986 3.37144 19.04 2.65959 18.6841C1.94775 18.3282 1.40646 17.704 1.15478 16.949C0.903109 16.194 0.961673 15.3699 1.31759 14.6581" stroke="#000000" stroke-width="2" stroke-linecap="round" stroke-linejoin="round"/>

</symbol>
<symbol id="x-circle" viewBox="0 0 20 20">
<path fill-rule="evenodd" clip-rule="evenodd" d="M10 18C12.1217 18 14.1566 17.1571 15.6569 15.6569C17.1571 14.1566 18 12.1217 18 10C18 7.87827 17.1571 5.84344 15.6569 4.34315C14.1566 2.84285 12.1217 2 10 2C7.87827 2 5.84344 2.84285 4.34315 4.34315C2.84285 5.84344 2 7.87827 2 10C2 12.1217 2.84285 14.1566 4.34315 15.6569C5.84344 17.1571 7.87827 18 10 18ZM8.707 7.293C8.5184 7.11084 8.2658 7.01005 8.0036 7.01233C7.7414 7.0146 7.49059 7.11977 7.30518 7.30518C7.11977 7.49059 7.0146 7.7414 7.01233 8.0036C7.01005 8.2658 7.11084 8.5184 7.293 8.707L8.586 10L7.293 11.293C7.19749 11.3852 7.12131 11.4956 7.0689 11.6176C7.01649 11.7396 6.9889 11.8708 6.98775 12.0036C6.9866 12.1364 7.0119 12.2681 7.06218 12.391C7.11246 12.5139 7.18671 12.6255 7.2806 12.7194C7.3745 12.8133 7.48615 12.8875 7.60905 12.9378C7.73194 12.9881 7.86362 13.0134 7.9964 13.0123C8.12918 13.0111 8.2604 12.9835 8.3824 12.9311C8.50441 12.8787 8.61475 12.8025 8.707 12.707L10 11.414L11.293 12.707C11.4816 12.8892 11.7342 12.99 11.9964 12.9877C12.2586 12.9854 12.5094 12.8802 12.6948 12.6948C12.8802 12.5094 12.9854 12.2586 12.9877 11.9964C12.99 11.7342 12.8892 11.4816 12.707 11.293L11.414 10L12.707 8.707C12.8892 8.5184 12.99 8.2658 12.9877 8.0036C12.9854 7.7414 12.8802 7.49059 12.6948 7.30518C12.5094 7.11977 12.2586 7.0146 11.9964 7.01233C11.7342 7.01005 11.4816 7.11084 11.293 7.293L10 8.586L8.707 7.293Z"/>

</symbol>
<symbol id="x" viewBox="0 0 20 20">
<path fill-rule="evenodd" clip-rule="evenodd" d="M4.29279 4.29357C4.48031 4.1061 4.73462 4.00078 4.99979 4.00078C5.26495 4.00078 5.51926 4.1061 5.70679 4.29357L9.99979 8.58657L14.2928 4.29357C14.385 4.19806 14.4954 4.12188 14.6174 4.06947C14.7394 4.01706 14.8706 3.98947 15.0034 3.98832C15.1362 3.98717 15.2678 4.01247 15.3907 4.06275C15.5136 4.11303 15.6253 4.18728 15.7192 4.28117C15.8131 4.37507 15.8873 4.48672 15.9376 4.60962C15.9879 4.73251 16.0132 4.86419 16.012 4.99697C16.0109 5.12975 15.9833 5.26097 15.9309 5.38297C15.8785 5.50498 15.8023 5.61532 15.7068 5.70757L11.4138 10.0006L15.7068 14.2936C15.8889 14.4822 15.9897 14.7348 15.9875 14.997C15.9852 15.2592 15.88 15.51 15.6946 15.6954C15.5092 15.8808 15.2584 15.986 14.9962 15.9882C14.734 15.9905 14.4814 15.8897 14.2928 15.7076L9.99979 11.4146L5.70679 15.7076C5.51818 15.8897 5.26558 15.9905 5.00339 15.9882C4.74119 15.986 4.49038 15.8808 4.30497 15.6954C4.11956 15.51 4.01439 15.2592 4.01211 14.997C4.00983 14.7348 4.11063 14.4822 4.29279 14.2936L8.58579 10.0006L4.29279 5.70757C4.10532 5.52004 4 5.26573 4 5.00057C4 4.73541 4.10532 4.4811 4.29279 4.29357Z"/>

</symbol></svg>