<?xml version="1.0" encoding="utf-8"?>
<svg xmlns="http://www.w3.org/2000/svg">
<symbol id="account-circle" viewBox="0 0 24 24">
<path d="M12 2C6.48 2 2 6.48 2 12s4.48 10 10 10 10-4.48 10-10S17.52 2 12 2zm0 3c1.66 0 3 1.34 3 3s-1.34 3-3 3-3-1.34-3-3 1.34-3 3-3zm0 14.2c-2.5 0-4.71-1.28-6-3.22.03-1.99 4-3.08 6-3.08 1.99 0 5.97 1.09 6 3.08-1.29 1.94-3.5 3.22-6 3.22z"/>

</symbol>
<symbol id="add-alarm" viewBox="0 0 24 24">
<path d="M15 12h-2v-2c0-.55-.45-1-1-1s-1 .45-1 1v2H9c-.55 0-1 .45-1 1s.45 1 1 1h2v2c0 .55.45 1 1 1s1-.45 1-1v-2h2c.55 0 1-.45 1-1s-.45-1-1-1zm6.18-6.99L18.1 2.45c-.42-.35-1.05-.3-1.41.13-.35.42-.29 1.05.13 1.41l3.07 2.56c.42.35 1.05.3 1.41-.13.36-.42.3-1.05-.12-1.41zM4.1 6.55l3.07-2.56c.43-.36.49-.99.13-1.41-.35-.43-.98-.48-1.4-.13L2.82 5.01c-.42.36-.48.99-.12 1.41.35.43.98.48 1.4.13zM12 4c-4.97 0-9 4.03-9 9s4.03 9 9 9 9-4.03 9-9-4.03-9-9-9zm0 16c-3.86 0-7-3.14-7-7s3.14-7 7-7 7 3.14 7 7-3.14 7-7 7z"/>

</symbol>
<symbol id="add-circle" viewBox="0 0 24 24">
<path d="M12 2C6.48 2 2 6.48 2 12s4.48 10 10 10 10-4.48 10-10S17.52 2 12 2zm4 11h-3v3c0 .55-.45 1-1 1s-1-.45-1-1v-3H8c-.55 0-1-.45-1-1s.45-1 1-1h3V8c0-.55.45-1 1-1s1 .45 1 1v3h3c.55 0 1 .45 1 1s-.45 1-1 1z"/>

</symbol>
<symbol id="add-comment" viewBox="0 0 24 24">
<path d="M22 4c0-1.1-.9-2-2-2H4c-1.1 0-2 .9-2 2v12c0 1.1.9 2 2 2h14l4 4V4zm-6 7h-3v3c0 .55-.45 1-1 1s-1-.45-1-1v-3H8c-.55 0-1-.45-1-1s.45-1 1-1h3V6c0-.55.45-1 1-1s1 .45 1 1v3h3c.55 0 1 .45 1 1s-.45 1-1 1z"/>

</symbol>
<symbol id="add" viewBox="0 0 24 24">
<path d="M18 13h-5v5c0 .55-.45 1-1 1s-1-.45-1-1v-5H6c-.55 0-1-.45-1-1s.45-1 1-1h5V6c0-.55.45-1 1-1s1 .45 1 1v5h5c.55 0 1 .45 1 1s-.45 1-1 1z"/>

</symbol>
<symbol id="alarm" viewBox="0 0 24 24">
<path d="M15.87 15.25l-3.37-2V8.72c0-.4-.32-.72-.72-.72h-.06c-.4 0-.72.32-.72.72v4.72c0 .35.18.68.49.86l3.65 2.19c.34.2.78.1.98-.24.21-.35.1-.8-.25-1zm5.31-10.24L18.1 2.45c-.42-.35-1.05-.3-1.41.13-.35.42-.29 1.05.13 1.41l3.07 2.56c.42.35 1.05.3 1.41-.13.36-.42.3-1.05-.12-1.41zM4.1 6.55l3.07-2.56c.43-.36.49-.99.13-1.41-.35-.43-.98-.48-1.4-.13L2.82 5.01c-.42.36-.48.99-.12 1.41.35.43.98.48 1.4.13zM12 4c-4.97 0-9 4.03-9 9s4.03 9 9 9 9-4.03 9-9-4.03-9-9-9zm0 16c-3.86 0-7-3.14-7-7s3.14-7 7-7 7 3.14 7 7-3.14 7-7 7z"/>

</symbol>
<symbol id="arrow-back" viewBox="0 0 24 24">
<path d="M19 11H7.83l4.88-4.88c.39-.39.39-1.03 0-1.42a.9959.9959 0 00-1.41 0l-6.59 6.59c-.39.39-.39 1.02 0 1.41l6.59 6.59c.39.39 1.02.39 1.41 0 .39-.39.39-1.02 0-1.41L7.83 13H19c.55 0 1-.45 1-1s-.45-1-1-1z"/>

</symbol>
<symbol id="arrow-downward" viewBox="0 0 24 24">
<path d="M11 5v11.17l-4.88-4.88c-.39-.39-1.03-.39-1.42 0-.39.39-.39 1.02 0 1.41l6.59 6.59c.39.39 1.02.39 1.41 0l6.59-6.59c.39-.39.39-1.02 0-1.41a.9959.9959 0 00-1.41 0L13 16.17V5c0-.55-.45-1-1-1s-1 .45-1 1z"/>

</symbol>
<symbol id="arrow-forward" viewBox="0 0 24 24">
<path d="M5 13h11.17l-4.88 4.88c-.39.39-.39 1.03 0 1.42.39.39 1.02.39 1.41 0l6.59-6.59c.39-.39.39-1.02 0-1.41l-6.58-6.6a.9959.9959 0 00-1.41 0c-.39.39-.39 1.02 0 1.41L16.17 11H5c-.55 0-1 .45-1 1s.45 1 1 1z"/>

</symbol>
<symbol id="arrow-upward" viewBox="0 0 24 24">
<path d="M13 19V7.83l4.88 4.88c.39.39 1.03.39 1.42 0 .39-.39.39-1.02 0-1.41l-6.59-6.59a.9959.9959 0 00-1.41 0l-6.6 6.58c-.39.39-.39 1.02 0 1.41.39.39 1.02.39 1.41 0L11 7.83V19c0 .55.45 1 1 1s1-.45 1-1z"/>

</symbol>
<symbol id="assessment" viewBox="0 0 24 24">
<path d="M19 3H5c-1.1 0-2 .9-2 2v14c0 1.1.9 2 2 2h14c1.1 0 2-.9 2-2V5c0-1.1-.9-2-2-2zM8 17c-.55 0-1-.45-1-1v-5c0-.55.45-1 1-1s1 .45 1 1v5c0 .55-.45 1-1 1zm4 0c-.55 0-1-.45-1-1V8c0-.55.45-1 1-1s1 .45 1 1v8c0 .55-.45 1-1 1zm4 0c-.55 0-1-.45-1-1v-2c0-.55.45-1 1-1s1 .45 1 1v2c0 .55-.45 1-1 1z"/>

</symbol>
<symbol id="assignment-late" viewBox="0 0 24 24">
<path d="M19 3h-4.18C14.4 1.84 13.3 1 12 1s-2.4.84-2.82 2H5c-1.1 0-2 .9-2 2v14c0 1.1.9 2 2 2h14c1.1 0 2-.9 2-2V5c0-1.1-.9-2-2-2zm-6 15h-2v-2h2v2zm0-5c0 .55-.45 1-1 1s-1-.45-1-1V9c0-.55.45-1 1-1s1 .45 1 1v4zm-1-8c-.55 0-1-.45-1-1s.45-1 1-1 1 .45 1 1-.45 1-1 1z"/>

</symbol>
<symbol id="assignment-turned-in" viewBox="0 0 24 24">
<path d="M19 3h-4.18C14.4 1.84 13.3 1 12 1s-2.4.84-2.82 2H5c-1.1 0-2 .9-2 2v14c0 1.1.9 2 2 2h14c1.1 0 2-.9 2-2V5c0-1.1-.9-2-2-2zm-7 0c.55 0 1 .45 1 1s-.45 1-1 1-1-.45-1-1 .45-1 1-1zM9.29 16.29L6.7 13.7a.9959.9959 0 010-1.41c.39-.39 1.02-.39 1.41 0L10 14.17l5.88-5.88c.39-.39 1.02-.39 1.41 0 .39.39.39 1.02 0 1.41l-6.59 6.59c-.38.39-1.02.39-1.41 0z"/>

</symbol>
<symbol id="assignment" viewBox="0 0 24 24">
<path d="M19 3h-4.18C14.4 1.84 13.3 1 12 1s-2.4.84-2.82 2H5c-1.1 0-2 .9-2 2v14c0 1.1.9 2 2 2h14c1.1 0 2-.9 2-2V5c0-1.1-.9-2-2-2zm-7 0c.55 0 1 .45 1 1s-.45 1-1 1-1-.45-1-1 .45-1 1-1zm1 14H8c-.55 0-1-.45-1-1s.45-1 1-1h5c.55 0 1 .45 1 1s-.45 1-1 1zm3-4H8c-.55 0-1-.45-1-1s.45-1 1-1h8c.55 0 1 .45 1 1s-.45 1-1 1zm0-4H8c-.55 0-1-.45-1-1s.45-1 1-1h8c.55 0 1 .45 1 1s-.45 1-1 1z"/>

</symbol>
<symbol id="attachment" viewBox="0 0 24 24">
<path d="M17.75 16H7.17c-2.09 0-3.95-1.53-4.15-3.61C2.79 10.01 4.66 8 7 8h12.36c1.31 0 2.5.94 2.63 2.24.15 1.5-1.02 2.76-2.49 2.76H9c-.55 0-1-.45-1-1s.45-1 1-1h8.75c.41 0 .75-.34.75-.75s-.34-.75-.75-.75H9.14c-1.31 0-2.5.94-2.63 2.24-.15 1.5 1.02 2.76 2.49 2.76h10.33c2.09 0 3.95-1.53 4.15-3.61.23-2.39-1.64-4.39-3.98-4.39H7.23c-2.87 0-5.44 2.1-5.71 4.96-.3 3.29 2.26 6.04 5.48 6.04h10.75c.41 0 .75-.34.75-.75s-.34-.75-.75-.75z"/>

</symbol>
<symbol id="autorenew" viewBox="0 0 24 24">
<path d="M12 6v1.79c0 .45.54.67.85.35l2.79-2.79c.2-.2.2-.51 0-.71l-2.79-2.79c-.31-.31-.85-.09-.85.36V4c-4.42 0-8 3.58-8 8 0 1.04.2 2.04.57 2.95.27.67 1.13.85 1.64.34.27-.27.38-.68.23-1.04C6.15 13.56 6 12.79 6 12c0-3.31 2.69-6 6-6zm5.79 2.71c-.27.27-.38.69-.23 1.04.28.7.44 1.46.44 2.25 0 3.31-2.69 6-6 6v-1.79c0-.45-.54-.67-.85-.35l-2.79 2.79c-.2.2-.2.51 0 .71l2.79 2.79c.31.31.85.09.85-.35V20c4.42 0 8-3.58 8-8 0-1.04-.2-2.04-.57-2.95-.27-.67-1.13-.85-1.64-.34z"/>

</symbol>
<symbol id="book" viewBox="0 0 24 24">
<path d="M18 2H6c-1.1 0-2 .9-2 2v16c0 1.1.9 2 2 2h12c1.1 0 2-.9 2-2V4c0-1.1-.9-2-2-2zM6 4h5v8l-2.5-1.5L6 12V4z"/>

</symbol>
<symbol id="bookmark" viewBox="0 0 24 24">
<path d="M17 3H7c-1.1 0-2 .9-2 2v16l7-3 7 3V5c0-1.1-.9-2-2-2z"/>

</symbol>
<symbol id="campaign" viewBox="0 0 24 24">
<path d="M18,12L18,12c0,0.55,0.45,1,1,1h2c0.55,0,1-0.45,1-1v0c0-0.55-0.45-1-1-1h-2C18.45,11,18,11.45,18,12z"/>
<path d="M16.59,16.82c-0.33,0.44-0.24,1.05,0.2,1.37c0.53,0.39,1.09,0.81,1.62,1.21c0.44,0.33,1.06,0.24,1.38-0.2 c0-0.01,0.01-0.01,0.01-0.02c0.33-0.44,0.24-1.06-0.2-1.38c-0.53-0.4-1.09-0.82-1.61-1.21c-0.44-0.33-1.06-0.23-1.39,0.21 C16.6,16.81,16.59,16.82,16.59,16.82z"/>
<path d="M19.81,4.81c0-0.01-0.01-0.01-0.01-0.02c-0.33-0.44-0.95-0.53-1.38-0.2c-0.53,0.4-1.1,0.82-1.62,1.22 c-0.44,0.33-0.52,0.95-0.19,1.38c0,0.01,0.01,0.01,0.01,0.02c0.33,0.44,0.94,0.53,1.38,0.2c0.53-0.39,1.09-0.82,1.62-1.22 C20.05,5.87,20.13,5.25,19.81,4.81z"/>
<path d="M8,9H4c-1.1,0-2,0.9-2,2v2c0,1.1,0.9,2,2,2h1v3c0,0.55,0.45,1,1,1h0c0.55,0,1-0.45,1-1v-3h1l5,3V6L8,9z"/>
<path d="M15.5,12c0-1.33-0.58-2.53-1.5-3.35v6.69C14.92,14.53,15.5,13.33,15.5,12z"/>

</symbol>
<symbol id="cancel" viewBox="0 0 24 24">
<path d="M12 2C6.47 2 2 6.47 2 12s4.47 10 10 10 10-4.47 10-10S17.53 2 12 2zm4.3 14.3c-.39.39-1.02.39-1.41 0L12 13.41 9.11 16.3c-.39.39-1.02.39-1.41 0a.9959.9959 0 010-1.41L10.59 12 7.7 9.11a.9959.9959 0 010-1.41c.39-.39 1.02-.39 1.41 0L12 10.59l2.89-2.89c.39-.39 1.02-.39 1.41 0 .39.39.39 1.02 0 1.41L13.41 12l2.89 2.89c.38.38.38 1.02 0 1.41z"/>

</symbol>
<symbol id="category" viewBox="0 0 24 24">
<path d="M11.15 3.4L7.43 9.48c-.41.66.07 1.52.85 1.52h7.43c.78 0 1.26-.86.85-1.52L12.85 3.4c-.39-.64-1.31-.64-1.7 0z"/>
<circle cx="17.5" cy="17.5" r="4.5"/>
<path d="M4 21.5h6c.55 0 1-.45 1-1v-6c0-.55-.45-1-1-1H4c-.55 0-1 .45-1 1v6c0 .55.45 1 1 1z"/>

</symbol>
<symbol id="check-circle" viewBox="0 0 24 24">
<path d="M12 2C6.48 2 2 6.48 2 12s4.48 10 10 10 10-4.48 10-10S17.52 2 12 2zM9.29 16.29L5.7 12.7a.9959.9959 0 010-1.41c.39-.39 1.02-.39 1.41 0L10 14.17l6.88-6.88c.39-.39 1.02-.39 1.41 0 .39.39.39 1.02 0 1.41l-7.59 7.59c-.38.39-1.02.39-1.41 0z"/>

</symbol>
<symbol id="check" viewBox="0 0 24 24">
<path d="M9 16.17L5.53 12.7a.9959.9959 0 00-1.41 0c-.39.39-.39 1.02 0 1.41l4.18 4.18c.39.39 1.02.39 1.41 0L20.29 7.71c.39-.39.39-1.02 0-1.41a.9959.9959 0 00-1.41 0L9 16.17z"/>

</symbol>
<symbol id="chevron-left" viewBox="0 0 24 24">
<path d="M14.71 6.71a.9959.9959 0 00-1.41 0L8.71 11.3c-.39.39-.39 1.02 0 1.41l4.59 4.59c.39.39 1.02.39 1.41 0 .39-.39.39-1.02 0-1.41L10.83 12l3.88-3.88c.39-.39.38-1.03 0-1.41z"/>

</symbol>
<symbol id="chevron-right" viewBox="0 0 24 24">
<path d="M9.29 6.71c-.39.39-.39 1.02 0 1.41L13.17 12l-3.88 3.88c-.39.39-.39 1.02 0 1.41.39.39 1.02.39 1.41 0l4.59-4.59c.39-.39.39-1.02 0-1.41L10.7 6.7c-.38-.38-1.02-.38-1.41.01z"/>

</symbol>
<symbol id="circle" viewBox="0 0 24 24">
<circle cx="12" cy="12" r="8"/>

</symbol>
<symbol id="close" viewBox="0 0 24 24">
<path d="M18.3 5.71a.9959.9959 0 00-1.41 0L12 10.59 7.11 5.7a.9959.9959 0 00-1.41 0c-.39.39-.39 1.02 0 1.41L10.59 12 5.7 16.89c-.39.39-.39 1.02 0 1.41.39.39 1.02.39 1.41 0L12 13.41l4.89 4.89c.39.39 1.02.39 1.41 0 .39-.39.39-1.02 0-1.41L13.41 12l4.89-4.89c.38-.38.38-1.02 0-1.4z"/>

</symbol>
<symbol id="cloud-done" viewBox="0 0 24 24">
<path d="M19.35 10.04C18.67 6.59 15.64 4 12 4 9.11 4 6.6 5.64 5.35 8.04 2.34 8.36 0 10.91 0 14c0 3.31 2.69 6 6 6h13c2.76 0 5-2.24 5-5 0-2.64-2.05-4.78-4.65-4.96zm-8.64 6.25c-.39.39-1.02.39-1.41 0L7.2 14.2a.9959.9959 0 010-1.41c.39-.39 1.02-.39 1.41 0L10 14.18l4.48-4.48c.39-.39 1.02-.39 1.41 0 .39.39.39 1.02 0 1.41l-5.18 5.18z"/>

</symbol>
<symbol id="create-new-folder" viewBox="0 0 24 24">
<path d="M20 6h-8l-1.41-1.41C10.21 4.21 9.7 4 9.17 4H4c-1.11 0-1.99.89-1.99 2L2 18c0 1.11.89 2 2 2h16c1.1 0 2-.9 2-2V8c0-1.1-.9-2-2-2zm-2 8h-2v2c0 .55-.45 1-1 1s-1-.45-1-1v-2h-2c-.55 0-1-.45-1-1s.45-1 1-1h2v-2c0-.55.45-1 1-1s1 .45 1 1v2h2c.55 0 1 .45 1 1s-.45 1-1 1z"/>

</symbol>
<symbol id="create" viewBox="0 0 24 24">
<path d="M3 17.46v3.04c0 .28.22.5.5.5h3.04c.13 0 .26-.05.35-.15L17.81 9.94l-3.75-3.75L3.15 17.1c-.1.1-.15.22-.15.36zM20.71 7.04c.39-.39.39-1.02 0-1.41l-2.34-2.34a.9959.9959 0 00-1.41 0l-1.83 1.83 3.75 3.75 1.83-1.83z"/>

</symbol>
<symbol id="dangerous" viewBox="0 0 24 24">
<path d="M0,0h24v24H0V0z" fill="none"/>
<path d="M14.9,3H9.1C8.57,3,8.06,3.21,7.68,3.59l-4.1,4.1C3.21,8.06,3,8.57,3,9.1v5.8c0,0.53,0.21,1.04,0.59,1.41l4.1,4.1 C8.06,20.79,8.57,21,9.1,21h5.8c0.53,0,1.04-0.21,1.41-0.59l4.1-4.1C20.79,15.94,21,15.43,21,14.9V9.1c0-0.53-0.21-1.04-0.59-1.41 l-4.1-4.1C15.94,3.21,15.43,3,14.9,3z M15.54,15.54L15.54,15.54c-0.39,0.39-1.02,0.39-1.41,0L12,13.41l-2.12,2.12 c-0.39,0.39-1.02,0.39-1.41,0l0,0c-0.39-0.39-0.39-1.02,0-1.41L10.59,12L8.46,9.88c-0.39-0.39-0.39-1.02,0-1.41l0,0 c0.39-0.39,1.02-0.39,1.41,0L12,10.59l2.12-2.12c0.39-0.39,1.02-0.39,1.41,0l0,0c0.39,0.39,0.39,1.02,0,1.41L13.41,12l2.12,2.12 C15.93,14.51,15.93,15.15,15.54,15.54z"/>

</symbol>
<symbol id="delete" viewBox="0 0 24 24">
<path d="M6 19c0 1.1.9 2 2 2h8c1.1 0 2-.9 2-2V9c0-1.1-.9-2-2-2H8c-1.1 0-2 .9-2 2v10zM18 4h-2.5l-.71-.71c-.18-.18-.44-.29-.7-.29H9.91c-.26 0-.52.11-.7.29L8.5 4H6c-.55 0-1 .45-1 1s.45 1 1 1h12c.55 0 1-.45 1-1s-.45-1-1-1z"/>

</symbol>
<symbol id="description" viewBox="0 0 24 24">
<path d="M14.59 2.59c-.38-.38-.89-.59-1.42-.59H6c-1.1 0-2 .9-2 2v16c0 1.1.89 2 1.99 2H18c1.1 0 2-.9 2-2V8.83c0-.53-.21-1.04-.59-1.41l-4.82-4.83zM15 18H9c-.55 0-1-.45-1-1s.45-1 1-1h6c.55 0 1 .45 1 1s-.45 1-1 1zm0-4H9c-.55 0-1-.45-1-1s.45-1 1-1h6c.55 0 1 .45 1 1s-.45 1-1 1zm-2-6V3.5L18.5 9H14c-.55 0-1-.45-1-1z"/>

</symbol>
<symbol id="drag-indicator" viewBox="0 0 24 24">
<path d="M11 18c0 1.1-.9 2-2 2s-2-.9-2-2 .9-2 2-2 2 .9 2 2zm-2-8c-1.1 0-2 .9-2 2s.9 2 2 2 2-.9 2-2-.9-2-2-2zm0-6c-1.1 0-2 .9-2 2s.9 2 2 2 2-.9 2-2-.9-2-2-2zm6 4c1.1 0 2-.9 2-2s-.9-2-2-2-2 .9-2 2 .9 2 2 2zm0 2c-1.1 0-2 .9-2 2s.9 2 2 2 2-.9 2-2-.9-2-2-2zm0 6c-1.1 0-2 .9-2 2s.9 2 2 2 2-.9 2-2-.9-2-2-2z"/>

</symbol>
<symbol id="error" viewBox="0 0 24 24">
<path d="M12 2C6.48 2 2 6.48 2 12s4.48 10 10 10 10-4.48 10-10S17.52 2 12 2zm0 11c-.55 0-1-.45-1-1V8c0-.55.45-1 1-1s1 .45 1 1v4c0 .55-.45 1-1 1zm1 4h-2v-2h2v2z"/>

</symbol>
<symbol id="event-available" viewBox="0 0 24 24">
<path d="M16 10.53c-.29-.29-.77-.29-1.06 0l-4.35 4.35L9 13.29c-.29-.29-.77-.29-1.06 0-.29.29-.29.77 0 1.06l1.94 1.94c.39.39 1.02.39 1.41 0l4.7-4.7c.3-.29.3-.77.01-1.06zM19 3h-1V2c0-.55-.45-1-1-1s-1 .45-1 1v1H8V2c0-.55-.45-1-1-1s-1 .45-1 1v1H5c-1.11 0-1.99.9-1.99 2L3 19c0 1.1.89 2 2 2h14c1.1 0 2-.9 2-2V5c0-1.1-.9-2-2-2zm-1 16H6c-.55 0-1-.45-1-1V8h14v10c0 .55-.45 1-1 1z"/>

</symbol>
<symbol id="event-busy" viewBox="0 0 24 24">
<path d="M9.84 16.47l1.91-1.91 1.91 1.91c.29.29.77.29 1.06 0 .29-.29.29-.77 0-1.06l-1.91-1.91 1.91-1.91c.29-.29.29-.77 0-1.06-.29-.29-.77-.29-1.06 0l-1.91 1.91-1.91-1.91c-.29-.29-.77-.29-1.06 0-.29.29-.29.77 0 1.06l1.91 1.91-1.91 1.91c-.29.29-.29.77 0 1.06.29.29.77.29 1.06 0zM19 3h-1V2c0-.55-.45-1-1-1s-1 .45-1 1v1H8V2c0-.55-.45-1-1-1s-1 .45-1 1v1H5c-1.11 0-1.99.9-1.99 2L3 19c0 1.1.89 2 2 2h14c1.1 0 2-.9 2-2V5c0-1.1-.9-2-2-2zm-1 16H6c-.55 0-1-.45-1-1V8h14v10c0 .55-.45 1-1 1z"/>

</symbol>
<symbol id="event-note" viewBox="0 0 24 24">
<path d="M16 10H8c-.55 0-1 .45-1 1s.45 1 1 1h8c.55 0 1-.45 1-1s-.45-1-1-1zm3-7h-1V2c0-.55-.45-1-1-1s-1 .45-1 1v1H8V2c0-.55-.45-1-1-1s-1 .45-1 1v1H5c-1.11 0-2 .9-2 2v14c0 1.1.89 2 2 2h14c1.1 0 2-.9 2-2V5c0-1.1-.9-2-2-2zm-1 16H6c-.55 0-1-.45-1-1V8h14v10c0 .55-.45 1-1 1zm-5-5H8c-.55 0-1 .45-1 1s.45 1 1 1h5c.55 0 1-.45 1-1s-.45-1-1-1z"/>

</symbol>
<symbol id="event" viewBox="0 0 24 24">
<path d="M16 13h-3c-.55 0-1 .45-1 1v3c0 .55.45 1 1 1h3c.55 0 1-.45 1-1v-3c0-.55-.45-1-1-1zm0-10v1H8V3c0-.55-.45-1-1-1s-1 .45-1 1v1H5c-1.11 0-1.99.9-1.99 2L3 20c0 1.1.89 2 2 2h14c1.1 0 2-.9 2-2V6c0-1.1-.9-2-2-2h-1V3c0-.55-.45-1-1-1s-1 .45-1 1zm2 17H6c-.55 0-1-.45-1-1V9h14v10c0 .55-.45 1-1 1z"/>

</symbol>
<symbol id="expand-less" viewBox="0 0 24 24">
<path d="M12 8l-6 6 1.41 1.41L12 10.83l4.59 4.58L18 14z"/>

</symbol>
<symbol id="expand-more" viewBox="0 0 24 24">
<path d="M15.88 9.29L12 13.17 8.12 9.29a.9959.9959 0 00-1.41 0c-.39.39-.39 1.02 0 1.41l4.59 4.59c.39.39 1.02.39 1.41 0l4.59-4.59c.39-.39.39-1.02 0-1.41-.39-.38-1.03-.39-1.42 0z"/>

</symbol>
<symbol id="face" viewBox="0 0 24 24">
<path d="M9 11.75c-.69 0-1.25.56-1.25 1.25s.56 1.25 1.25 1.25 1.25-.56 1.25-1.25-.56-1.25-1.25-1.25zm6 0c-.69 0-1.25.56-1.25 1.25s.56 1.25 1.25 1.25 1.25-.56 1.25-1.25-.56-1.25-1.25-1.25zM12 2C6.48 2 2 6.48 2 12s4.48 10 10 10 10-4.48 10-10S17.52 2 12 2zm0 18c-4.41 0-8-3.59-8-8 0-.29.02-.58.05-.86 2.36-1.05 4.23-2.98 5.21-5.37C11.07 8.33 14.05 10 17.42 10c.78 0 1.53-.09 2.25-.26.21.71.33 1.47.33 2.26 0 4.41-3.59 8-8 8z"/>

</symbol>
<symbol id="favorite" viewBox="0 0 24 24">
<path d="M13.35 20.13c-.76.69-1.93.69-2.69-.01l-.11-.1C5.3 15.27 1.87 12.16 2 8.28c.06-1.7.93-3.33 2.34-4.29 2.64-1.8 5.9-.96 7.66 1.1 1.76-2.06 5.02-2.91 7.66-1.1 1.41.96 2.28 2.59 2.34 4.29.14 3.88-3.3 6.99-8.55 11.76l-.1.09z"/>

</symbol>
<symbol id="feedback" viewBox="0 0 24 24">
<path d="M20 2H4.01c-1.1 0-2 .9-2 2v18L6 18h14c1.1 0 2-.9 2-2V4c0-1.1-.9-2-2-2zm-7 12h-2v-2h2v2zm0-5c0 .55-.45 1-1 1s-1-.45-1-1V7c0-.55.45-1 1-1s1 .45 1 1v2z"/>

</symbol>
<symbol id="file-copy" viewBox="0 0 24 24">
<path d="M15 1H4c-1.1 0-2 .9-2 2v13c0 .55.45 1 1 1s1-.45 1-1V4c0-.55.45-1 1-1h10c.55 0 1-.45 1-1s-.45-1-1-1zm.59 4.59l4.83 4.83c.37.37.58.88.58 1.41V21c0 1.1-.9 2-2 2H7.99C6.89 23 6 22.1 6 21l.01-14c0-1.1.89-2 1.99-2h6.17c.53 0 1.04.21 1.42.59zM15 12h4.5L14 6.5V11c0 .55.45 1 1 1z"/>

</symbol>
<symbol id="filter-list" viewBox="0 0 24 24">
<path d="M11 18h2c.55 0 1-.45 1-1s-.45-1-1-1h-2c-.55 0-1 .45-1 1s.45 1 1 1zM3 7c0 .55.45 1 1 1h16c.55 0 1-.45 1-1s-.45-1-1-1H4c-.55 0-1 .45-1 1zm4 6h10c.55 0 1-.45 1-1s-.45-1-1-1H7c-.55 0-1 .45-1 1s.45 1 1 1z"/>

</symbol>
<symbol id="flag" viewBox="0 0 24 24">
<path d="M14.4 6l-.24-1.2c-.09-.46-.5-.8-.98-.8H6c-.55 0-1 .45-1 1v15c0 .55.45 1 1 1s1-.45 1-1v-6h5.6l.24 1.2c.09.47.5.8.98.8H19c.55 0 1-.45 1-1V7c0-.55-.45-1-1-1h-4.6z"/>

</symbol>
<symbol id="folder" viewBox="0 0 24 24">
<path d="M10.59 4.59C10.21 4.21 9.7 4 9.17 4H4c-1.1 0-1.99.9-1.99 2L2 18c0 1.1.9 2 2 2h16c1.1 0 2-.9 2-2V8c0-1.1-.9-2-2-2h-8l-1.41-1.41z"/>

</symbol>
<symbol id="forum" viewBox="0 0 24 24">
<path d="M20 6h-1v8c0 .55-.45 1-1 1H6v1c0 1.1.9 2 2 2h10l4 4V8c0-1.1-.9-2-2-2zm-3 5V4c0-1.1-.9-2-2-2H4c-1.1 0-2 .9-2 2v13l4-4h9c1.1 0 2-.9 2-2z"/>

</symbol>
<symbol id="gesture" viewBox="0 0 24 24">
<path d="M3.72 6.04c.47.46 1.21.48 1.71.06.37-.32.69-.51.87-.43.5.2 0 1.03-.3 1.52-.25.42-2.86 3.89-2.86 6.31 0 1.28.48 2.34 1.34 2.98.75.56 1.74.73 2.64.46 1.07-.31 1.95-1.4 3.06-2.77 1.21-1.49 2.83-3.44 4.08-3.44 1.63 0 1.65 1.01 1.76 1.79-3.78.64-5.38 3.67-5.38 5.37 0 1.7 1.44 3.09 3.21 3.09 1.63 0 4.29-1.33 4.69-6.1h1.21c.69 0 1.25-.56 1.25-1.25s-.56-1.25-1.25-1.25h-1.22c-.15-1.65-1.09-4.2-4.03-4.2-2.25 0-4.18 1.91-4.94 2.84-.58.73-2.06 2.48-2.29 2.72-.25.3-.68.84-1.11.84-.45 0-.72-.83-.36-1.92.35-1.09 1.4-2.86 1.85-3.52.78-1.14 1.3-1.92 1.3-3.28C8.95 3.69 7.31 3 6.44 3c-1.09 0-2.04.63-2.7 1.22-.53.48-.53 1.32-.02 1.82zm10.16 12.51c-.31 0-.74-.26-.74-.72 0-.6.73-2.2 2.87-2.76-.3 2.69-1.43 3.48-2.13 3.48z"/>

</symbol>
<symbol id="help" viewBox="0 0 24 24">
<path d="M12 2C6.48 2 2 6.48 2 12s4.48 10 10 10 10-4.48 10-10S17.52 2 12 2zm1 17h-2v-2h2v2zm2.07-7.75l-.9.92c-.5.51-.86.97-1.04 1.69-.08.32-.13.68-.13 1.14h-2v-.5c0-.46.08-.9.22-1.31.2-.58.53-1.1.95-1.52l1.24-1.26c.46-.44.68-1.1.55-1.8-.13-.72-.69-1.33-1.39-1.53-1.11-.31-2.14.32-2.47 1.27-.12.37-.43.65-.82.65h-.3C8.4 9 8 8.44 8.16 7.88c.43-1.47 1.68-2.59 3.23-2.83 1.52-.24 2.97.55 3.87 1.8 1.18 1.63.83 3.38-.19 4.4z"/>

</symbol>
<symbol id="home" viewBox="0 0 24 24">
<path d="M10 19v-5h4v5c0 .55.45 1 1 1h3c.55 0 1-.45 1-1v-7h1.7c.46 0 .68-.57.33-.87L12.67 3.6c-.38-.34-.96-.34-1.34 0l-8.36 7.53c-.34.3-.13.87.33.87H5v7c0 .55.45 1 1 1h3c.55 0 1-.45 1-1z"/>

</symbol>
<symbol id="info" viewBox="0 0 24 24">
<path d="M12 2C6.48 2 2 6.48 2 12s4.48 10 10 10 10-4.48 10-10S17.52 2 12 2zm0 15c-.55 0-1-.45-1-1v-4c0-.55.45-1 1-1s1 .45 1 1v4c0 .55-.45 1-1 1zm1-8h-2V7h2v2z"/>

</symbol>
<symbol id="insert-drive-file" viewBox="0 0 24 24">
<path d="M6 2c-1.1 0-1.99.9-1.99 2L4 20c0 1.1.89 2 1.99 2H18c1.1 0 2-.9 2-2V8.83c0-.53-.21-1.04-.59-1.41l-4.83-4.83c-.37-.38-.88-.59-1.41-.59H6zm7 6V3.5L18.5 9H14c-.55 0-1-.45-1-1z"/>

</symbol>
<symbol id="library-books" viewBox="0 0 24 24">
<path d="M3 6c-.55 0-1 .45-1 1v13c0 1.1.9 2 2 2h13c.55 0 1-.45 1-1s-.45-1-1-1H5c-.55 0-1-.45-1-1V7c0-.55-.45-1-1-1zm17-4H8c-1.1 0-2 .9-2 2v12c0 1.1.9 2 2 2h12c1.1 0 2-.9 2-2V4c0-1.1-.9-2-2-2zm-2 9h-8c-.55 0-1-.45-1-1s.45-1 1-1h8c.55 0 1 .45 1 1s-.45 1-1 1zm-4 4h-4c-.55 0-1-.45-1-1s.45-1 1-1h4c.55 0 1 .45 1 1s-.45 1-1 1zm4-8h-8c-.55 0-1-.45-1-1s.45-1 1-1h8c.55 0 1 .45 1 1s-.45 1-1 1z"/>

</symbol>
<symbol id="link" viewBox="0 0 24 24">
<path d="M17 7h-3c-.55 0-1 .45-1 1s.45 1 1 1h3c1.65 0 3 1.35 3 3s-1.35 3-3 3h-3c-.55 0-1 .45-1 1s.45 1 1 1h3c2.76 0 5-2.24 5-5s-2.24-5-5-5zm-9 5c0 .55.45 1 1 1h6c.55 0 1-.45 1-1s-.45-1-1-1H9c-.55 0-1 .45-1 1zm2 3H7c-1.65 0-3-1.35-3-3s1.35-3 3-3h3c.55 0 1-.45 1-1s-.45-1-1-1H7c-2.76 0-5 2.24-5 5s2.24 5 5 5h3c.55 0 1-.45 1-1s-.45-1-1-1z"/>

</symbol>
<symbol id="local-library" viewBox="0 0 24 24">
<path d="M12 11.55c-1.82-1.7-4.12-2.89-6.68-3.35C4.11 7.99 3 8.95 3 10.18v6.24c0 1.68.72 2.56 1.71 2.69 2.5.32 4.77 1.35 6.63 2.87.35.29.92.32 1.27.04 1.87-1.53 4.16-2.58 6.68-2.9.94-.13 1.71-1.06 1.71-2.02v-6.92c0-1.23-1.11-2.19-2.32-1.98-2.56.46-4.86 1.65-6.68 3.35zM12 8c1.66 0 3-1.34 3-3s-1.34-3-3-3-3 1.34-3 3 1.34 3 3 3z"/>

</symbol>
<symbol id="lock-open" viewBox="0 0 24 24">
<path d="M12 13c-1.1 0-2 .9-2 2s.9 2 2 2 2-.9 2-2-.9-2-2-2zm6-5h-1V6c0-2.76-2.24-5-5-5-2.28 0-4.27 1.54-4.84 3.75-.14.54.18 1.08.72 1.22.53.14 1.08-.18 1.22-.72C9.44 3.93 10.63 3 12 3c1.65 0 3 1.35 3 3v2H6c-1.1 0-2 .9-2 2v10c0 1.1.9 2 2 2h12c1.1 0 2-.9 2-2V10c0-1.1-.9-2-2-2zm0 11c0 .55-.45 1-1 1H7c-.55 0-1-.45-1-1v-8c0-.55.45-1 1-1h10c.55 0 1 .45 1 1v8z"/>

</symbol>
<symbol id="lock" viewBox="0 0 24 24">
<path d="M18 8h-1V6c0-2.76-2.24-5-5-5S7 3.24 7 6v2H6c-1.1 0-2 .9-2 2v10c0 1.1.9 2 2 2h12c1.1 0 2-.9 2-2V10c0-1.1-.9-2-2-2zm-6 9c-1.1 0-2-.9-2-2s.9-2 2-2 2 .9 2 2-.9 2-2 2zM9 8V6c0-1.66 1.34-3 3-3s3 1.34 3 3v2H9z"/>

</symbol>
<symbol id="map" viewBox="0 0 24 24">
<path d="M14.65 4.98l-5-1.75c-.42-.15-.88-.15-1.3-.01L4.36 4.56C3.55 4.84 3 5.6 3 6.46v11.85c0 1.41 1.41 2.37 2.72 1.86l2.93-1.14c.22-.09.47-.09.69-.01l5 1.75c.42.15.88.15 1.3.01l3.99-1.34c.81-.27 1.36-1.04 1.36-1.9V5.69c0-1.41-1.41-2.37-2.72-1.86l-2.93 1.14c-.22.08-.46.09-.69.01zM15 18.89l-6-2.11V5.11l6 2.11v11.67z"/>

</symbol>
<symbol id="menu-book" viewBox="0 0 24 24">
<path d="M17.5 4.5c-1.95 0-4.05.4-5.5 1.5-1.45-1.1-3.55-1.5-5.5-1.5-1.45 0-2.99.22-4.28.79C1.49 5.62 1 6.33 1 7.14v11.28c0 1.3 1.22 2.26 2.48 1.94.98-.25 2.02-.36 3.02-.36 1.56 0 3.22.26 4.56.92.6.3 1.28.3 1.87 0 1.34-.67 3-.92 4.56-.92 1 0 2.04.11 3.02.36 1.26.33 2.48-.63 2.48-1.94V7.14c0-.81-.49-1.52-1.22-1.85-1.28-.57-2.82-.79-4.27-.79zM21 17.23c0 .63-.58 1.09-1.2.98-.75-.14-1.53-.2-2.3-.2-1.7 0-4.15.65-5.5 1.5V8c1.35-.85 3.8-1.5 5.5-1.5.92 0 1.83.09 2.7.28.46.1.8.51.8.98v9.47z"/>
<path d="M13.98 11.01c-.32 0-.61-.2-.71-.52-.13-.39.09-.82.48-.94 1.54-.5 3.53-.66 5.36-.45.41.05.71.42.66.83-.05.41-.42.71-.83.66-1.62-.19-3.39-.04-4.73.39-.08.01-.16.03-.23.03zM13.98 13.67c-.32 0-.61-.2-.71-.52-.13-.39.09-.82.48-.94 1.53-.5 3.53-.66 5.36-.45.41.05.71.42.66.83-.05.41-.42.71-.83.66-1.62-.19-3.39-.04-4.73.39-.08.02-.16.03-.23.03zM13.98 16.33c-.32 0-.61-.2-.71-.52-.13-.39.09-.82.48-.94 1.53-.5 3.53-.66 5.36-.45.41.05.71.42.66.83-.05.41-.42.7-.83.66-1.62-.19-3.39-.04-4.73.39-.08.02-.16.03-.23.03z"/>

</symbol>
<symbol id="mic" viewBox="0 0 24 24">
<path d="M12 14c1.66 0 3-1.34 3-3V5c0-1.66-1.34-3-3-3S9 3.34 9 5v6c0 1.66 1.34 3 3 3zm5.91-3c-.49 0-.9.36-.98.85C16.52 14.2 14.47 16 12 16s-4.52-1.8-4.93-4.15c-.08-.49-.49-.85-.98-.85-.61 0-1.09.54-1 1.14.49 3 2.89 5.35 5.91 5.78V20c0 .55.45 1 1 1s1-.45 1-1v-2.08c3.02-.43 5.42-2.78 5.91-5.78.1-.6-.39-1.14-1-1.14z"/>

</symbol>
<symbol id="mood" viewBox="0 0 24 24">
<path d="M11.99 2C6.47 2 2 6.48 2 12s4.47 10 9.99 10C17.52 22 22 17.52 22 12S17.52 2 11.99 2zM12 20c-4.42 0-8-3.58-8-8s3.58-8 8-8 8 3.58 8 8-3.58 8-8 8zm3.5-9c.83 0 1.5-.67 1.5-1.5S16.33 8 15.5 8 14 8.67 14 9.5s.67 1.5 1.5 1.5zm-7 0c.83 0 1.5-.67 1.5-1.5S9.33 8 8.5 8 7 8.67 7 9.5 7.67 11 8.5 11zm3.5 6.5c2.03 0 3.8-1.11 4.75-2.75.19-.33-.05-.75-.44-.75H7.69c-.38 0-.63.42-.44.75.95 1.64 2.72 2.75 4.75 2.75z"/>

</symbol>
<symbol id="more-vert" viewBox="0 0 24 24">
<path d="M12 8c1.1 0 2-.9 2-2s-.9-2-2-2-2 .9-2 2 .9 2 2 2zm0 2c-1.1 0-2 .9-2 2s.9 2 2 2 2-.9 2-2-.9-2-2-2zm0 6c-1.1 0-2 .9-2 2s.9 2 2 2 2-.9 2-2-.9-2-2-2z"/>

</symbol>
<symbol id="notifications" viewBox="0 0 24 24">
<path d="M12 22c1.1 0 2-.9 2-2h-4c0 1.1.89 2 2 2zm6-6v-5c0-3.07-1.64-5.64-4.5-6.32V4c0-.83-.67-1.5-1.5-1.5s-1.5.67-1.5 1.5v.68C7.63 5.36 6 7.92 6 11v5l-1.29 1.29c-.63.63-.19 1.71.7 1.71h13.17c.89 0 1.34-1.08.71-1.71L18 16z"/>

</symbol>
<symbol id="ondemand-video" viewBox="0 0 24 24">
<path d="M21 3H3c-1.1 0-2 .9-2 2v12c0 1.1.9 2 2 2h5v1c0 .55.45 1 1 1h6c.55 0 1-.45 1-1v-1h5c1.1 0 1.99-.9 1.99-2L23 5c0-1.11-.9-2-2-2zm-1 14H4c-.55 0-1-.45-1-1V6c0-.55.45-1 1-1h16c.55 0 1 .45 1 1v10c0 .55-.45 1-1 1zm-5.52-5.13l-3.98 2.28c-.67.38-1.5-.11-1.5-.87V8.72c0-.77.83-1.25 1.5-.87l3.98 2.28c.67.39.67 1.35 0 1.74z"/>

</symbol>
<symbol id="open-in-new" viewBox="0 0 24 24">
<path d="M18 19H6c-.55 0-1-.45-1-1V6c0-.55.45-1 1-1h5c.55 0 1-.45 1-1s-.45-1-1-1H5c-1.11 0-2 .9-2 2v14c0 1.1.9 2 2 2h14c1.1 0 2-.9 2-2v-6c0-.55-.45-1-1-1s-1 .45-1 1v5c0 .55-.45 1-1 1zM14 4c0 .55.45 1 1 1h2.59l-9.13 9.13c-.39.39-.39 1.02 0 1.41.39.39 1.02.39 1.41 0L19 6.41V9c0 .55.45 1 1 1s1-.45 1-1V4c0-.55-.45-1-1-1h-5c-.55 0-1 .45-1 1z"/>

</symbol>
<symbol id="people" viewBox="0 0 24 24">
<path d="M16 11c1.66 0 2.99-1.34 2.99-3S17.66 5 16 5s-3 1.34-3 3 1.34 3 3 3zm-8 0c1.66 0 2.99-1.34 2.99-3S9.66 5 8 5 5 6.34 5 8s1.34 3 3 3zm0 2c-2.33 0-7 1.17-7 3.5V18c0 .55.45 1 1 1h12c.55 0 1-.45 1-1v-1.5c0-2.33-4.67-3.5-7-3.5zm8 0c-.29 0-.62.02-.97.05.02.01.03.03.04.04 1.14.83 1.93 1.94 1.93 3.41V18c0 .35-.07.69-.18 1H22c.55 0 1-.45 1-1v-1.5c0-2.33-4.67-3.5-7-3.5z"/>

</symbol>
<symbol id="person-add" viewBox="0 0 24 24">
<path d="M15 12c2.21 0 4-1.79 4-4s-1.79-4-4-4-4 1.79-4 4 1.79 4 4 4zm-9-2V8c0-.55-.45-1-1-1s-1 .45-1 1v2H2c-.55 0-1 .45-1 1s.45 1 1 1h2v2c0 .55.45 1 1 1s1-.45 1-1v-2h2c.55 0 1-.45 1-1s-.45-1-1-1H6zm9 4c-2.67 0-8 1.34-8 4v1c0 .55.45 1 1 1h14c.55 0 1-.45 1-1v-1c0-2.66-5.33-4-8-4z"/>

</symbol>
<symbol id="play-arrow" viewBox="0 0 24 24">
<path d="M8 6.82v10.36c0 .79.87 1.27 1.54.84l8.14-5.18c.62-.39.62-1.29 0-1.69L9.54 5.98C8.87 5.55 8 6.03 8 6.82z"/>

</symbol>
<symbol id="print" viewBox="0 0 24 24">
<path d="M19 8H5c-1.66 0-3 1.34-3 3v4c0 1.1.9 2 2 2h2v2c0 1.1.9 2 2 2h8c1.1 0 2-.9 2-2v-2h2c1.1 0 2-.9 2-2v-4c0-1.66-1.34-3-3-3zm-4 11H9c-.55 0-1-.45-1-1v-4h8v4c0 .55-.45 1-1 1zm4-7c-.55 0-1-.45-1-1s.45-1 1-1 1 .45 1 1-.45 1-1 1zm-2-9H7c-.55 0-1 .45-1 1v2c0 .55.45 1 1 1h10c.55 0 1-.45 1-1V4c0-.55-.45-1-1-1z"/>

</symbol>
<symbol id="question-answer" viewBox="0 0 24 24">
<path d="M20 6h-1v8c0 .55-.45 1-1 1H6v1c0 1.1.9 2 2 2h10l4 4V8c0-1.1-.9-2-2-2zm-3 5V4c0-1.1-.9-2-2-2H4c-1.1 0-2 .9-2 2v13l4-4h9c1.1 0 2-.9 2-2z"/>

</symbol>
<symbol id="record-voice-over" viewBox="0 0 24 24">
<circle cx="9" cy="9" r="4"/>
<path d="M9 15c-2.67 0-8 1.34-8 4v1c0 .55.45 1 1 1h14c.55 0 1-.45 1-1v-1c0-2.66-5.33-4-8-4zm6.47-7.23c.32.79.32 1.67 0 2.46-.19.47-.11 1 .25 1.36l.03.03c.58.58 1.57.46 1.95-.27.76-1.45.76-3.15-.02-4.66-.38-.74-1.38-.88-1.97-.29l-.01.01c-.34.35-.42.89-.23 1.36zm3.71-4.88c-.4.4-.46 1.02-.13 1.48 1.97 2.74 1.96 6.41-.03 9.25-.32.45-.25 1.07.14 1.46l.03.03c.49.49 1.32.45 1.74-.1 2.75-3.54 2.76-8.37 0-12.02-.42-.55-1.26-.59-1.75-.1z"/>

</symbol>
<symbol id="remove" viewBox="0 0 24 24">
<path d="M18 13H6c-.55 0-1-.45-1-1s.45-1 1-1h12c.55 0 1 .45 1 1s-.45 1-1 1z"/>

</symbol>
<symbol id="schedule" viewBox="0 0 24 24">
<path d="M11.99 2C6.47 2 2 6.48 2 12s4.47 10 9.99 10C17.52 22 22 17.52 22 12S17.52 2 11.99 2zM12 20c-4.42 0-8-3.58-8-8s3.58-8 8-8 8 3.58 8 8-3.58 8-8 8zm-.22-13h-.06c-.4 0-.72.32-.72.72v4.72c0 .35.18.68.49.86l4.15 2.49c.34.2.78.1.98-.24.21-.34.1-.79-.25-.99l-3.87-2.3V7.72c0-.4-.32-.72-.72-.72z"/>

</symbol>
<symbol id="school" viewBox="0 0 24 24">
<path d="M5 13.18v2.81c0 .73.4 1.41 1.04 1.76l5 2.73c.6.33 1.32.33 1.92 0l5-2.73c.64-.35 1.04-1.03 1.04-1.76v-2.81l-6.04 3.3c-.6.33-1.32.33-1.92 0L5 13.18zm6.04-9.66l-8.43 4.6c-.69.38-.69 1.38 0 1.76l8.43 4.6c.6.33 1.32.33 1.92 0L21 10.09V16c0 .55.45 1 1 1s1-.45 1-1V9.59c0-.37-.2-.7-.52-.88l-9.52-5.19a2.04 2.04 0 00-1.92 0z"/>

</symbol>
<symbol id="search" viewBox="0 0 24 24">
<path d="M15.5 14h-.79l-.28-.27c1.2-1.4 1.82-3.31 1.48-5.34-.47-2.78-2.79-5-5.59-5.34-4.23-.52-7.79 3.04-7.27 7.27.34 2.8 2.56 5.12 5.34 5.59 2.03.34 3.94-.28 5.34-1.48l.27.28v.79l4.25 4.25c.41.41 1.08.41 1.49 0 .41-.41.41-1.08 0-1.49L15.5 14zm-6 0C7.01 14 5 11.99 5 9.5S7.01 5 9.5 5 14 7.01 14 9.5 11.99 14 9.5 14z"/>

</symbol>
<symbol id="sentiment-dissatisfied" viewBox="0 0 24 24">
<circle cx="15.5" cy="9.5" r="1.5"/>
<circle cx="8.5" cy="9.5" r="1.5"/>
<path d="M11.99 2C6.47 2 2 6.48 2 12s4.47 10 9.99 10C17.52 22 22 17.52 22 12S17.52 2 11.99 2zM12 20c-4.42 0-8-3.58-8-8s3.58-8 8-8 8 3.58 8 8-3.58 8-8 8zm0-6c-1.9 0-3.63.97-4.65 2.58-.22.35-.11.81.24 1.03.35.22.81.11 1.03-.24.74-1.18 2-1.88 3.38-1.88s2.64.7 3.38 1.88c.14.23.39.35.64.35.14 0 .27-.04.4-.11.35-.22.46-.68.24-1.03C15.63 14.96 13.9 14 12 14z"/>

</symbol>
<symbol id="sentiment-satisfied" viewBox="0 0 24 24">
<circle cx="15.5" cy="9.5" r="1.5"/>
<circle cx="8.5" cy="9.5" r="1.5"/>
<path d="M11.99 2C6.47 2 2 6.48 2 12s4.47 10 9.99 10C17.52 22 22 17.52 22 12S17.52 2 11.99 2zM12 20c-4.42 0-8-3.58-8-8s3.58-8 8-8 8 3.58 8 8-3.58 8-8 8zm4.41-6.11c-.35-.22-.82-.11-1.03.24-.74 1.17-2 1.87-3.38 1.87s-2.64-.7-3.38-1.88c-.22-.35-.68-.46-1.03-.24-.35.22-.46.68-.24 1.03C8.37 16.54 10.1 17.5 12 17.5s3.63-.97 4.65-2.58c.22-.35.11-.81-.24-1.03z"/>

</symbol>
<symbol id="sentiment-very-satisfied" viewBox="0 0 24 24">
<path d="M8.88 9.94l.53.53c.29.29.77.29 1.06 0 .29-.29.29-.77 0-1.06l-.88-.88a.9959.9959 0 00-1.41 0l-.89.88c-.29.29-.29.77 0 1.06.29.29.77.29 1.06 0l.53-.53zM12 17.5c2.03 0 3.8-1.11 4.75-2.75.19-.33-.05-.75-.44-.75H7.69c-.38 0-.63.42-.44.75.95 1.64 2.72 2.75 4.75 2.75zm1.53-7.03c.29.29.77.29 1.06 0l.53-.53.53.53c.29.29.77.29 1.06 0 .29-.29.29-.77 0-1.06l-.88-.88a.9959.9959 0 00-1.41 0l-.88.88c-.3.29-.3.77-.01 1.06zM11.99 2C6.47 2 2 6.47 2 12s4.47 10 9.99 10S22 17.53 22 12 17.52 2 11.99 2zM12 20c-4.42 0-8-3.58-8-8s3.58-8 8-8 8 3.58 8 8-3.58 8-8 8z"/>

</symbol>
<symbol id="settings-voice" viewBox="0 0 24 24">
<path d="M7 24h2v-2H7v2zm5-11c1.66 0 2.99-1.34 2.99-3L15 4c0-1.66-1.34-3-3-3S9 2.34 9 4v6c0 1.66 1.34 3 3 3zm-1 11h2v-2h-2v2zm4 0h2v-2h-2v2zm3.08-14c-.42 0-.77.3-.83.71-.37 2.61-2.72 4.39-5.25 4.39s-4.88-1.77-5.25-4.39c-.06-.41-.42-.71-.83-.71-.52 0-.92.46-.85.97.46 2.96 2.96 5.3 5.93 5.75V19c0 .55.45 1 1 1s1-.45 1-1v-2.28c2.96-.44 5.47-2.79 5.93-5.75.07-.51-.33-.97-.85-.97z"/>

</symbol>
<symbol id="settings" viewBox="0 0 24 24">
<path d="M19.43 12.98c.04-.32.07-.64.07-.98s-.03-.66-.07-.98l2.11-1.65c.19-.15.24-.42.12-.64l-2-3.46c-.12-.22-.39-.3-.61-.22l-2.49 1c-.52-.4-1.08-.73-1.69-.98l-.38-2.65C14.46 2.18 14.25 2 14 2h-4c-.25 0-.46.18-.49.42l-.38 2.65c-.61.25-1.17.59-1.69.98l-2.49-1c-.23-.09-.49 0-.61.22l-2 3.46c-.13.22-.07.49.12.64l2.11 1.65c-.04.32-.07.65-.07.98s.03.66.07.98l-2.11 1.65c-.19.15-.24.42-.12.64l2 3.46c.12.22.39.3.61.22l2.49-1c.52.4 1.08.73 1.69.98l.38 2.65c.03.24.24.42.49.42h4c.25 0 .46-.18.49-.42l.38-2.65c.61-.25 1.17-.59 1.69-.98l2.49 1c.23.09.49 0 .61-.22l2-3.46c.12-.22.07-.49-.12-.64l-2.11-1.65zM12 15.5c-1.93 0-3.5-1.57-3.5-3.5s1.57-3.5 3.5-3.5 3.5 1.57 3.5 3.5-1.57 3.5-3.5 3.5z"/>

</symbol>
<symbol id="spa" viewBox="0 0 24 24">
<path d="M15.49 9.63c-.16-2.42-1.03-4.79-2.64-6.76-.41-.5-1.16-.5-1.57 0-1.65 1.98-2.57 4.35-2.77 6.76 1.28.68 2.46 1.56 3.49 2.63 1.03-1.06 2.21-1.94 3.49-2.63zm-6.5 2.65c-.14-.1-.3-.19-.45-.29.15.11.31.19.45.29zm6.42-.25c-.13.09-.27.16-.4.26.13-.1.27-.17.4-.26zM12 15.45c-1.95-2.97-5.14-5.03-8.83-5.39-.64-.06-1.17.47-1.11 1.11.45 4.8 3.65 8.78 7.98 10.33.63.23 1.29.4 1.97.51.68-.12 1.33-.29 1.97-.51 4.33-1.55 7.53-5.52 7.98-10.33.06-.64-.48-1.17-1.11-1.11-3.71.36-6.9 2.42-8.85 5.39z"/>

</symbol>
<symbol id="star-circle" viewBox="0 0 24 24">
<path d="M11.99 2C6.47 2 2 6.48 2 12s4.47 10 9.99 10C17.52 22 22 17.52 22 12S17.52 2 11.99 2zm3.23 15.39L12 15.45l-3.22 1.94c-.38.23-.85-.11-.75-.54l.85-3.66-2.83-2.45c-.33-.29-.15-.84.29-.88l3.74-.32 1.46-3.45c.17-.41.75-.41.92 0l1.46 3.44 3.74.32c.44.04.62.59.28.88l-2.83 2.45.85 3.67c.1.43-.36.77-.74.54z"/>

</symbol>
<symbol id="star" viewBox="0 0 24 24">
<path d="M12 17.27l4.15 2.51c.76.46 1.69-.22 1.49-1.08l-1.1-4.72 3.67-3.18c.67-.58.31-1.68-.57-1.75l-4.83-.41-1.89-4.46c-.34-.81-1.5-.81-1.84 0L9.19 8.63l-4.83.41c-.88.07-1.24 1.17-.57 1.75l3.67 3.18-1.1 4.72c-.2.86.73 1.54 1.49 1.08l4.15-2.5z"/>

</symbol>
<symbol id="supervised-user-circle" viewBox="0 0 24 24">
<path d="M12 2C6.48 2 2 6.48 2 12s4.48 10 10 10 10-4.48 10-10S17.52 2 12 2zm3.61 6.34c1.07 0 1.93.86 1.93 1.93s-.86 1.93-1.93 1.93-1.93-.86-1.93-1.93c-.01-1.07.86-1.93 1.93-1.93zm-6-1.58c1.3 0 2.36 1.06 2.36 2.36s-1.06 2.36-2.36 2.36-2.36-1.06-2.36-2.36c0-1.31 1.05-2.36 2.36-2.36zm0 9.13v3.75c-2.4-.75-4.3-2.6-5.14-4.96 1.05-1.12 3.67-1.69 5.14-1.69.53 0 1.2.08 1.9.22-1.64.87-1.9 2.02-1.9 2.68zM12 20c-.27 0-.53-.01-.79-.04v-4.07c0-1.42 2.94-2.13 4.4-2.13 1.07 0 2.92.39 3.84 1.15C18.28 17.88 15.39 20 12 20z"/>

</symbol>
<symbol id="swap-vert" viewBox="0 0 24 24">
<path d="M16 17.01V11c0-.55-.45-1-1-1s-1 .45-1 1v6.01h-1.79c-.45 0-.67.54-.35.85l2.79 2.78c.2.19.51.19.71 0l2.79-2.78c.32-.31.09-.85-.35-.85H16zM8.65 3.35L5.86 6.14c-.32.31-.1.85.35.85H8V13c0 .55.45 1 1 1s1-.45 1-1V6.99h1.79c.45 0 .67-.54.35-.85L9.35 3.35c-.19-.19-.51-.19-.7 0z"/>

</symbol>
<symbol id="thumb-down" viewBox="0 0 24 24">
<path d="M10.88 21.94l5.53-5.54c.37-.37.58-.88.58-1.41V5c0-1.1-.9-2-2-2H6c-.8 0-1.52.48-1.83 1.21L.91 11.82C.06 13.8 1.51 16 3.66 16h5.65l-.95 4.58c-.1.5.05 1.01.41 1.37.59.58 1.53.58 2.11-.01zM21 3c-1.1 0-2 .9-2 2v8c0 1.1.9 2 2 2s2-.9 2-2V5c0-1.1-.9-2-2-2z"/>

</symbol>
<symbol id="thumb-up" viewBox="0 0 24 24">
<path d="M13.12 2.06L7.58 7.6c-.37.37-.58.88-.58 1.41V19c0 1.1.9 2 2 2h9c.8 0 1.52-.48 1.84-1.21l3.26-7.61C23.94 10.2 22.49 8 20.34 8h-5.65l.95-4.58c.1-.5-.05-1.01-.41-1.37-.59-.58-1.53-.58-2.11.01zM3 21c1.1 0 2-.9 2-2v-8c0-1.1-.9-2-2-2s-2 .9-2 2v8c0 1.1.9 2 2 2z"/>

</symbol>
<symbol id="timeline" viewBox="0 0 24 24">
<path d="M23 8c0 1.1-.9 2-2 2-.18 0-.35-.02-.51-.07l-3.56 3.55c.05.16.07.34.07.52 0 1.1-.9 2-2 2s-2-.9-2-2c0-.18.02-.36.07-.52l-2.55-2.55c-.16.05-.34.07-.52.07s-.36-.02-.52-.07l-4.55 4.56c.05.16.07.33.07.51 0 1.1-.9 2-2 2s-2-.9-2-2 .9-2 2-2c.18 0 .35.02.51.07l4.56-4.55C8.02 9.36 8 9.18 8 9c0-1.1.9-2 2-2s2 .9 2 2c0 .18-.02.36-.07.52l2.55 2.55c.16-.05.34-.07.52-.07s.36.02.52.07l3.55-3.56C19.02 8.35 19 8.18 19 8c0-1.1.9-2 2-2s2 .9 2 2zm0 0c0 1.1-.9 2-2 2-.18 0-.35-.02-.51-.07l-3.56 3.55c.05.16.07.34.07.52 0 1.1-.9 2-2 2s-2-.9-2-2c0-.18.02-.36.07-.52l-2.55-2.55c-.16.05-.34.07-.52.07s-.36-.02-.52-.07l-4.55 4.56c.05.16.07.33.07.51 0 1.1-.9 2-2 2s-2-.9-2-2 .9-2 2-2c.18 0 .35.02.51.07l4.56-4.55C8.02 9.36 8 9.18 8 9c0-1.1.9-2 2-2s2 .9 2 2c0 .18-.02.36-.07.52l2.55 2.55c.16-.05.34-.07.52-.07s.36.02.52.07l3.55-3.56C19.02 8.35 19 8.18 19 8c0-1.1.9-2 2-2s2 .9 2 2z"/>

</symbol>
<symbol id="timer-off" viewBox="0 0 24 24">
<path d="M10 3h4c.55 0 1-.45 1-1s-.45-1-1-1h-4c-.55 0-1 .45-1 1s.45 1 1 1zm2 5c-.51 0-.92.39-.98.89L13 10.86V9c0-.55-.45-1-1-1zm0-2c3.87 0 7 3.13 7 7 0 1.12-.27 2.18-.74 3.12l1.47 1.47C20.53 16.25 21 14.68 21 13c0-2.12-.74-4.07-1.97-5.61l.75-.75c.38-.38.39-1.01 0-1.4l-.01-.01c-.39-.39-1.01-.38-1.4 0l-.75.75C16.07 4.74 14.12 4 12 4c-1.66 0-3.22.48-4.57 1.29l1.45 1.45c.94-.47 2-.74 3.12-.74zm8.19 14.88L3.87 4.56a.9959.9959 0 00-1.41 0c-.39.39-.39 1.02 0 1.41l2.07 2.07C3.61 9.42 3.05 11.03 3 12.76 2.87 17.84 6.94 22 12 22c1.84 0 3.55-.55 4.98-1.5l1.79 1.79c.39.39 1.02.39 1.41 0 .4-.39.4-1.02.01-1.41zM12 20c-3.87 0-7-3.13-7-7 0-1.29.35-2.49.96-3.52l9.57 9.57c-1.04.6-2.24.95-3.53.95z"/>

</symbol>
<symbol id="timer" viewBox="0 0 24 24">
<path d="M14 1h-4c-.55 0-1 .45-1 1s.45 1 1 1h4c.55 0 1-.45 1-1s-.45-1-1-1zm-2 13c.55 0 1-.45 1-1V9c0-.55-.45-1-1-1s-1 .45-1 1v4c0 .55.45 1 1 1zm7.03-6.61l.75-.75c.38-.38.39-1.01 0-1.4l-.01-.01c-.39-.39-1.01-.38-1.4 0l-.75.75C16.07 4.74 14.12 4 12 4c-4.8 0-8.88 3.96-9 8.76C2.87 17.84 6.94 22 12 22c4.98 0 9-4.03 9-9 0-2.12-.74-4.07-1.97-5.61zM12 20c-3.87 0-7-3.13-7-7s3.13-7 7-7 7 3.13 7 7-3.13 7-7 7z"/>

</symbol>
<symbol id="trending-up" viewBox="0 0 24 24">
<path d="M16.85 6.85l1.44 1.44-4.88 4.88-3.29-3.29a.9959.9959 0 00-1.41 0l-6 6.01c-.39.39-.39 1.02 0 1.41.39.39 1.02.39 1.41 0L9.41 12l3.29 3.29c.39.39 1.02.39 1.41 0l5.59-5.58 1.44 1.44c.31.31.85.09.85-.35V6.5c.01-.28-.21-.5-.49-.5h-4.29c-.45 0-.67.54-.36.85z"/>

</symbol>
<symbol id="unfold-more" viewBox="0 0 24 24">
<path d="M12 5.83l2.46 2.46c.39.39 1.02.39 1.41 0 .39-.39.39-1.02 0-1.41L12.7 3.7a.9959.9959 0 00-1.41 0L8.12 6.88c-.39.39-.39 1.02 0 1.41.39.39 1.02.39 1.41 0L12 5.83zm0 12.34l-2.46-2.46a.9959.9959 0 00-1.41 0c-.39.39-.39 1.02 0 1.41l3.17 3.18c.39.39 1.02.39 1.41 0l3.17-3.17c.39-.39.39-1.02 0-1.41a.9959.9959 0 00-1.41 0L12 18.17z"/>

</symbol>
<symbol id="view-day" viewBox="0 0 24 24">
<path d="M3 21h17c.55 0 1-.45 1-1v-1c0-.55-.45-1-1-1H3c-.55 0-1 .45-1 1v1c0 .55.45 1 1 1zM20 8H3c-.55 0-1 .45-1 1v6c0 .55.45 1 1 1h17c.55 0 1-.45 1-1V9c0-.55-.45-1-1-1zM2 4v1c0 .55.45 1 1 1h17c.55 0 1-.45 1-1V4c0-.55-.45-1-1-1H3c-.55 0-1 .45-1 1z"/>

</symbol>
<symbol id="view-headline" viewBox="0 0 24 24">
<path d="M5 15h14c.55 0 1-.45 1-1s-.45-1-1-1H5c-.55 0-1 .45-1 1s.45 1 1 1zm0 4h14c.55 0 1-.45 1-1s-.45-1-1-1H5c-.55 0-1 .45-1 1s.45 1 1 1zm0-8h14c.55 0 1-.45 1-1s-.45-1-1-1H5c-.55 0-1 .45-1 1s.45 1 1 1zM4 6c0 .55.45 1 1 1h14c.55 0 1-.45 1-1s-.45-1-1-1H5c-.55 0-1 .45-1 1z"/>

</symbol>
<symbol id="view-module" viewBox="0 0 24 24">
<path d="M5 11h3c.55 0 1-.45 1-1V6c0-.55-.45-1-1-1H5c-.55 0-1 .45-1 1v4c0 .55.45 1 1 1zm0 7h3c.55 0 1-.45 1-1v-4c0-.55-.45-1-1-1H5c-.55 0-1 .45-1 1v4c0 .55.45 1 1 1zm6 0h3c.55 0 1-.45 1-1v-4c0-.55-.45-1-1-1h-3c-.55 0-1 .45-1 1v4c0 .55.45 1 1 1zm6 0h3c.55 0 1-.45 1-1v-4c0-.55-.45-1-1-1h-3c-.55 0-1 .45-1 1v4c0 .55.45 1 1 1zm-6-7h3c.55 0 1-.45 1-1V6c0-.55-.45-1-1-1h-3c-.55 0-1 .45-1 1v4c0 .55.45 1 1 1zm5-5v4c0 .55.45 1 1 1h3c.55 0 1-.45 1-1V6c0-.55-.45-1-1-1h-3c-.55 0-1 .45-1 1z"/>

</symbol>
<symbol id="warning" viewBox="0 0 24 24">
<path d="M4.47 21h15.06c1.54 0 2.5-1.67 1.73-3L13.73 4.99c-.77-1.33-2.69-1.33-3.46 0L2.74 18c-.77 1.33.19 3 1.73 3zM12 14c-.55 0-1-.45-1-1v-2c0-.55.45-1 1-1s1 .45 1 1v2c0 .55-.45 1-1 1zm1 4h-2v-2h2v2z"/>

</symbol></svg>