<svg width="1372" height="57" viewBox="0 0 1372 57" fill="none" xmlns="http://www.w3.org/2000/svg">
<path fill-rule="evenodd" clip-rule="evenodd" d="M-4.64315e-08 57.0001H1371.64V26.4345C1371.4 26.3751 1371.17 26.2652 1370.94 26.0583C1370.86 25.9965 1370.77 25.9965 1370.7 25.9965C1370.62 25.9965 1370.56 25.9965 1370.52 25.9347C1370.31 25.8656 1370.09 25.8158 1369.88 25.7664C1369.34 25.6391 1368.81 25.5147 1368.33 25.0691C1367.91 24.6982 1367.4 24.6982 1366.98 25.0691C1366.39 25.6874 1365.8 25.5637 1365.21 24.9455C1364.71 24.4156 1364.2 24.4307 1363.69 24.4458C1363.61 24.4484 1363.53 24.4509 1363.44 24.4509L1363.36 24.4366C1362.72 24.3182 1362.15 24.2132 1361.5 24.4509H1361.34H1360.33C1359.82 24.4509 1359.4 24.4509 1358.89 24.2036C1358.39 23.9563 1357.88 23.8327 1357.46 24.2036C1357.29 24.3272 1357.12 24.3272 1356.96 24.2036C1356.82 24.1704 1356.68 24.1192 1356.53 24.0671L1356.53 24.0667C1356.14 23.9249 1355.72 23.7757 1355.35 23.9563C1355.18 24.0402 1354.97 24.0103 1354.78 23.9824C1354.68 23.9691 1354.59 23.9563 1354.51 23.9563C1354.49 23.9563 1354.47 23.9501 1354.44 23.9432C1354.36 23.9195 1354.24 23.8882 1354.18 24.0799C1353.87 24.4361 1353.61 24.4717 1353.33 24.5099C1353.23 24.5247 1353.11 24.5399 1353 24.5745C1352.49 24.7221 1352.02 24.6055 1351.54 24.4875C1351.22 24.4077 1350.89 24.3273 1350.55 24.3273C1350.38 24.3273 1350.22 24.2654 1350.05 24.2036C1349.88 24.1418 1349.71 24.0799 1349.54 24.0799C1349.5 24.0799 1349.46 24.0791 1349.42 24.0783C1348.94 24.0688 1348.41 24.0582 1347.94 25.1928C1347.77 25.5637 1347.6 25.6873 1347.44 25.3164C1347.35 25.0691 1347.18 24.9455 1347.02 25.0691C1346.93 25.0691 1346.76 25.0691 1346.68 25.1928V25.5637C1346.68 27.0475 1346.59 27.2947 1346.09 27.1711C1346.03 27.1711 1345.98 27.1573 1345.92 27.1436C1345.81 27.1161 1345.7 27.0886 1345.58 27.1711C1345.16 27.542 1344.82 27.4184 1344.4 27.1711C1344.24 27.0474 1344.07 26.9238 1343.9 27.0474C1343.56 27.2947 1343.22 27.2947 1342.89 27.0474C1342.8 26.9238 1342.63 27.0474 1342.47 27.1711C1342.21 27.6656 1342.04 27.542 1341.88 27.2947C1341.71 27.0474 1341.46 26.9238 1341.2 26.8002C1341.08 26.7383 1340.97 26.6764 1340.87 26.6145C1340.76 26.5528 1340.65 26.491 1340.53 26.4292H1339.85C1339.64 26.491 1339.45 26.5838 1339.26 26.6765C1339.08 26.7692 1338.89 26.862 1338.68 26.9238C1338.25 26.9238 1337.83 26.8001 1337.41 26.6765C1337.24 26.6256 1337.06 26.7214 1336.89 26.8173C1336.64 26.9542 1336.4 27.0911 1336.15 26.8002C1336.06 26.6765 1335.98 26.8001 1335.98 26.9238C1335.77 26.9238 1335.58 26.9547 1335.39 26.9856C1335.2 27.0165 1335.01 27.0474 1334.8 27.0474C1334.55 27.0474 1334.29 27.0474 1334.04 27.542C1333.87 27.7893 1333.7 27.7893 1333.54 27.7893C1333.03 27.7893 1332.53 27.7893 1332.02 27.9129C1331.77 27.9129 1331.51 28.1602 1331.26 28.4075C1331.09 28.5312 1330.9 28.6548 1330.71 28.7785C1330.52 28.9021 1330.34 29.0258 1330.17 29.1494C1330.06 29.1884 1329.95 29.2151 1329.85 29.2411C1329.63 29.2976 1329.41 29.351 1329.24 29.5203C1329.16 29.5827 1329.07 29.645 1328.99 29.7068C1328.24 30.2582 1327.55 30.7693 1326.8 30.8804C1326.71 30.8804 1326.63 31.0041 1326.54 31.1277C1326.21 31.6223 1325.95 31.746 1325.62 31.4987C1325.2 31.2514 1324.78 31.7459 1324.44 32.2405L1324.19 32.6115C1323.6 33.3533 1323.01 33.1061 1322.42 32.8588C1322.28 32.8176 1322.14 32.7489 1322 32.6802C1321.71 32.5428 1321.43 32.4054 1321.15 32.4878C1321.06 32.5573 1320.96 32.5097 1320.85 32.4547C1320.77 32.4117 1320.67 32.3642 1320.56 32.3642C1320.52 32.3642 1320.48 32.3333 1320.44 32.3024C1320.39 32.2714 1320.35 32.2405 1320.31 32.2405C1319.64 32.4878 1319.05 31.8696 1318.54 30.7568C1318.37 30.3859 1318.2 30.3859 1318.04 30.6332C1317.95 30.7568 1317.78 30.8804 1317.7 30.8804C1317.45 31.0041 1317.28 31.0041 1317.03 31.0041C1316.98 31.0041 1316.92 31.035 1316.86 31.0659C1316.79 31.0968 1316.73 31.1277 1316.69 31.1277C1316.25 30.6284 1315.81 30.7464 1315.38 30.8643C1315.06 30.9509 1314.73 31.0374 1314.41 30.8804C1314.37 30.8804 1314.33 30.9114 1314.29 30.9423C1314.25 30.9732 1314.2 31.0041 1314.16 31.0041C1313.49 31.746 1312.81 31.9932 1312.22 32.1169C1312 32.1169 1311.77 32.007 1311.55 31.8971C1311.44 31.8421 1311.32 31.7872 1311.21 31.746C1311.04 31.6841 1310.85 31.5605 1310.67 31.4368C1310.48 31.3132 1310.29 31.1896 1310.12 31.1277C1309.78 31.0041 1309.44 31.1277 1309.19 31.6223C1309.02 31.8696 1308.85 31.9932 1308.6 32.1169C1308.39 32.1787 1308.18 32.2715 1307.97 32.3642C1307.76 32.4569 1307.55 32.5496 1307.34 32.6115C1306.83 32.7351 1306.24 32.7351 1305.74 32.7351C1305.67 32.7351 1305.61 32.7277 1305.55 32.7201C1305.36 32.6968 1305.15 32.6721 1304.89 32.8588C1304.81 32.9824 1304.64 32.9824 1304.56 32.7351C1304.3 32.2405 1303.97 32.1169 1303.63 31.9932C1303.46 31.9932 1303.29 31.9932 1303.21 31.746C1303.04 31.4987 1302.87 31.375 1302.7 31.4987C1302.66 31.4987 1302.62 31.4678 1302.58 31.4369C1302.54 31.406 1302.49 31.375 1302.45 31.375C1302.38 31.375 1302.32 31.3355 1302.25 31.2959C1302.15 31.2365 1302.05 31.1772 1301.95 31.2514C1301.69 31.375 1301.44 31.2514 1301.27 30.5095C1301.1 29.7676 1300.85 29.3967 1300.6 29.3967C1300.43 29.3967 1300.18 29.273 1299.92 29.1494C1299.76 28.0366 1299.5 28.1602 1299.17 28.4075C1299.08 28.4075 1299.08 28.4075 1299 28.5312C1298.83 28.9021 1298.66 28.6548 1298.49 28.4075C1298.41 28.1602 1298.16 27.913 1298.07 28.1603C1297.86 28.5724 1297.65 28.5552 1297.44 28.538C1297.4 28.5346 1297.35 28.5312 1297.31 28.5312C1297.26 28.5466 1297.21 28.564 1297.15 28.5814C1296.79 28.7031 1296.42 28.8249 1296.05 28.2839C1295.99 28.1005 1295.88 28.1211 1295.76 28.144C1295.72 28.152 1295.67 28.1603 1295.63 28.1603H1295.29C1294.8 27.6812 1294.39 27.7821 1293.91 27.9013L1293.86 27.9129C1293.67 27.959 1293.49 27.8851 1293.32 27.8124C1293.03 27.6899 1292.74 27.5709 1292.43 28.0366C1292.34 28.1602 1292.26 28.1602 1292.26 28.0366C1292.06 27.7431 1291.91 27.7592 1291.73 27.7788C1291.71 27.7809 1291.69 27.783 1291.67 27.7848C1291.65 27.7874 1291.62 27.7893 1291.58 27.7893C1291.5 27.7893 1291.42 27.8031 1291.33 27.8168C1291.16 27.8443 1290.99 27.8717 1290.83 27.7893C1290.07 27.4184 1289.31 27.6657 1288.55 28.0366C1288.38 28.1602 1288.13 28.0366 1287.96 27.9129C1287.83 27.8635 1287.69 27.7744 1287.56 27.6854C1287.36 27.5519 1287.15 27.4184 1286.95 27.4184L1286.91 27.4109C1286.25 27.2901 1285.67 27.1835 1285.01 27.7893C1284.76 28.0366 1284.59 28.0366 1284.34 27.6657C1284.09 27.2947 1283.83 27.1711 1283.58 27.1711C1283.16 27.0474 1282.82 26.9238 1282.49 26.6765C1281.9 26.0583 1281.22 25.4401 1280.63 25.1928C1280.58 25.167 1280.53 25.1412 1280.48 25.1165C1280.31 25.0229 1280.16 24.9455 1279.96 24.9455C1279.83 24.8837 1279.69 24.8527 1279.54 24.8218C1279.39 24.7909 1279.24 24.76 1279.12 24.6982C1278.53 24.3273 1277.94 24.6982 1277.35 25.3164C1276.67 26.0583 1275.92 26.4292 1275.24 26.3056C1274.78 26.2297 1274.28 26.0143 1273.79 25.802C1273.48 25.6682 1273.18 25.5356 1272.88 25.44C1272.67 25.3782 1272.44 25.3473 1272.21 25.3164C1271.98 25.2855 1271.75 25.2546 1271.54 25.1928C1271.37 25.1928 1271.11 25.0691 1270.95 24.9455C1270.82 24.8837 1270.67 24.791 1270.52 24.6983C1270.38 24.6055 1270.23 24.5127 1270.1 24.4509C1269.88 24.3684 1269.65 24.2998 1269.43 24.2311C1268.98 24.0937 1268.53 23.9563 1268.08 23.709C1267.98 23.6585 1267.88 23.6029 1267.78 23.5484C1267.4 23.3361 1267.05 23.1413 1266.65 23.3381C1266.56 23.4617 1266.4 23.3381 1266.31 23.2144C1265.73 22.6498 1265.13 22.5686 1264.53 22.4879C1264.08 22.4273 1263.63 22.3669 1263.2 22.1016H1263.03H1261.93C1261.87 22.1016 1261.81 22.0939 1261.74 22.0861C1261.55 22.063 1261.36 22.0398 1261.17 22.2253C1260.67 22.7198 1260.25 22.4726 1259.83 21.8543C1259.49 21.4834 1259.24 21.3598 1258.9 21.3598C1258.73 21.3598 1258.56 21.3597 1258.48 21.2361C1258.22 20.8652 1257.89 20.6179 1257.55 20.7415C1257.47 20.7415 1257.3 20.6179 1257.21 20.4942C1256.88 20.1233 1256.54 19.9997 1256.2 20.1233C1256.03 20.1233 1255.95 20.1233 1255.78 19.9997C1255.36 19.7524 1254.94 19.7523 1254.52 19.876C1253.76 20.1233 1253.09 20.1233 1252.33 19.7524C1251.74 19.3814 1251.15 19.1341 1250.47 19.5051C1250.14 19.6287 1249.8 19.5051 1249.55 19.1341C1248.79 18.2686 1247.95 18.145 1247.11 18.0213C1246.18 17.8977 1245.17 17.6504 1244.24 17.4031C1244.11 17.4031 1243.99 17.3722 1243.86 17.3413C1243.74 17.3104 1243.61 17.2795 1243.48 17.2795C1242.63 17.2795 1241.84 17.3848 1241 17.4982L1240.79 17.5267C1240.44 17.5267 1240.13 17.6456 1239.83 17.7597C1239.7 17.8102 1239.57 17.8598 1239.44 17.8977C1239.36 17.8977 1239.27 17.8721 1239.17 17.8456C1238.98 17.7898 1238.77 17.73 1238.6 17.8977C1238.18 18.145 1237.75 17.8977 1237.42 17.6504C1237.16 17.5268 1236.91 17.4031 1236.66 17.4031H1234.3C1233.54 17.2794 1232.7 17.5268 1231.94 18.0213C1231.6 18.2686 1231.27 18.145 1230.93 17.7741C1230.43 17.2795 1229.92 17.1558 1229.41 17.4031H1229.08C1228.74 17.3413 1228.4 17.2485 1228.07 17.1558C1227.73 17.0631 1227.39 16.9703 1227.06 16.9085C1226.63 16.9085 1226.21 16.9394 1225.79 16.9703C1225.37 17.0013 1224.95 17.0322 1224.53 17.0322C1223.52 17.0322 1222.51 17.4031 1221.5 18.0213C1221.45 18.0213 1221.43 18.0522 1221.41 18.0832C1221.39 18.1141 1221.37 18.145 1221.33 18.145C1221.07 17.8668 1220.82 18.0059 1220.57 18.145C1220.48 18.1914 1220.4 18.2377 1220.32 18.2686C1219.98 18.3923 1219.64 18.5159 1219.39 18.2686C1219.01 17.9899 1218.6 18.0646 1218.2 18.1386C1217.89 18.1959 1217.58 18.2529 1217.28 18.145C1217.2 18.145 1217.2 18.145 1217.12 18.2686C1216.69 18.7632 1216.19 18.6395 1215.77 18.5159C1215.71 18.5 1215.66 18.4821 1215.61 18.4642C1215.24 18.343 1214.88 18.2245 1214.59 18.7632C1214.5 18.8869 1214.42 18.8868 1214.34 18.8868C1214.02 18.8868 1213.7 18.8347 1213.39 18.7825C1212.86 18.6956 1212.33 18.6087 1211.81 18.7632C1211.73 18.7824 1211.65 18.8046 1211.56 18.8274C1211.1 18.9517 1210.56 19.0958 1210.21 18.8868C1209.89 18.771 1209.61 18.619 1209.34 18.4722C1208.73 18.149 1208.18 17.8513 1207.43 18.0213C1207.15 18.0895 1206.87 18.2703 1206.58 18.4603C1206.34 18.6151 1206.09 18.7759 1205.83 18.8868C1205.66 19.0105 1205.49 19.1341 1205.32 19.0105C1204.93 18.7613 1204.49 18.8469 1204.07 18.9299C1203.86 18.9705 1203.66 19.0105 1203.47 19.0105C1203.35 19.0105 1203.23 19.0208 1203.12 19.031C1202.67 19.0703 1202.27 19.1058 1201.87 18.5159C1201.78 18.3923 1201.7 18.3923 1201.7 18.5159C1201.57 18.6436 1201.44 18.7383 1201.31 18.832C1200.94 19.1012 1200.58 19.3616 1200.27 20.3706C1200.1 20.8652 1199.93 20.9888 1199.68 20.9888C1199.42 20.9888 1199.17 21.0163 1198.92 21.0438C1198.41 21.0987 1197.91 21.1537 1197.4 20.9888C1196.9 20.8652 1196.48 21.3597 1196.05 22.1016C1195.72 22.7198 1195.3 22.9671 1194.96 22.3489C1194.88 22.2252 1194.79 22.1324 1194.71 22.0396C1194.62 21.9469 1194.54 21.8542 1194.45 21.7307C1194.12 21.2361 1193.78 21.3597 1193.44 21.7307C1193.39 21.7833 1193.34 21.8387 1193.28 21.8949C1192.81 22.3677 1192.29 22.9014 1191.76 22.3489C1191.7 22.2665 1191.65 22.294 1191.59 22.3214C1191.56 22.3352 1191.53 22.3489 1191.51 22.3489C1191.17 22.7198 1190.92 22.5962 1190.58 22.1016C1190.24 21.607 1189.82 21.4834 1189.48 21.8543C1189.32 21.978 1189.15 21.978 1188.98 21.8543C1188.73 21.7307 1188.47 21.7307 1188.22 22.1016C1188.05 22.4725 1187.88 22.4725 1187.63 22.2253C1187.38 21.978 1187.04 21.978 1186.79 21.978C1186.54 21.978 1186.28 21.978 1185.95 22.1016C1185.78 22.1016 1185.61 22.2252 1185.44 22.4725C1185.19 22.8435 1184.94 22.9671 1184.6 22.8435C1184.54 22.8261 1184.48 22.8088 1184.42 22.7911C1184.04 22.6827 1183.61 22.5615 1183.25 22.3489C1183 22.1663 1182.71 22.3209 1182.43 22.464C1182.34 22.5147 1182.24 22.5639 1182.16 22.5962C1181.9 22.7198 1181.73 22.7198 1181.48 22.5962C1181.06 22.2253 1180.72 22.4726 1180.3 22.9671C1180.05 23.2144 1179.88 23.3381 1179.63 22.8435C1179.54 22.7198 1179.46 22.5962 1179.38 22.7199C1179.16 22.7817 1178.98 22.9053 1178.79 23.0289C1178.6 23.1526 1178.41 23.2762 1178.2 23.3381C1178.03 23.3999 1177.86 23.4308 1177.69 23.4617C1177.52 23.4926 1177.35 23.5235 1177.18 23.5854C1177.02 23.5854 1176.93 23.5854 1176.76 23.709C1176.09 23.9563 1175.42 24.2036 1174.74 23.8326C1174.68 23.7459 1174.58 23.8417 1174.47 23.9493C1174.42 23.9951 1174.37 24.043 1174.32 24.0799C1174.28 24.1091 1174.24 24.1451 1174.19 24.1832C1174.04 24.3065 1173.86 24.4509 1173.73 24.4509C1172.99 24.7476 1172.25 24.7278 1171.51 24.7081C1171.32 24.7031 1171.14 24.6982 1170.95 24.6982C1170.53 24.6982 1170.11 25.0691 1169.69 25.44L1169.69 25.4418C1169.1 26.0594 1168.51 26.6772 1167.92 27.4184C1167.75 27.542 1167.67 27.9129 1167.58 28.2839C1167.33 29.273 1167.08 29.644 1166.65 29.3967H1166.4C1166.07 29.3967 1165.81 29.3967 1165.48 29.273C1165.31 29.2112 1165.14 29.1185 1164.97 29.0257C1164.8 28.933 1164.63 28.8403 1164.46 28.7784C1164.3 28.7784 1164.13 28.9021 1164.04 29.0258C1163.79 29.273 1163.54 29.273 1163.29 29.273C1162.02 28.9021 1160.76 28.5312 1159.49 28.6548C1158.57 28.6548 1157.64 28.4075 1156.8 28.0366C1156.12 27.6657 1155.37 27.4183 1154.69 27.542C1154.61 27.542 1154.44 27.4184 1154.36 27.2947C1154.33 27.2768 1154.31 27.2588 1154.28 27.2412C1153.98 27.0154 1153.74 26.836 1153.43 27.2947C1153.34 27.4184 1153.18 27.2947 1153.09 27.0474C1152.76 26.3056 1152.33 25.9346 1151.91 25.9346C1151.8 25.9346 1151.69 25.8247 1151.58 25.7148C1151.52 25.6598 1151.46 25.6049 1151.41 25.5637L1151.41 25.5631C1151.24 25.316 1151.07 25.0688 1150.99 24.6982C1150.65 23.9563 1150.23 23.5854 1149.72 23.5854C1149.64 23.5854 1149.55 23.5802 1149.47 23.5751C1149.16 23.5554 1148.88 23.5378 1148.54 23.8326C1148.46 23.9563 1148.29 23.709 1148.21 23.4617C1147.95 22.8435 1147.7 22.7198 1147.36 22.7198C1147.11 22.7198 1146.85 22.5755 1146.63 22.4522C1146.56 22.4142 1146.5 22.3781 1146.44 22.3489C1146.39 22.3158 1146.35 22.2827 1146.32 22.2519C1146.22 22.1679 1146.14 22.1016 1146.02 22.1016C1145.51 21.9779 1145 21.978 1144.5 21.978C1144.39 21.978 1144.27 22.0879 1144.16 22.1978C1144.11 22.2527 1144.05 22.3077 1143.99 22.3489C1143.83 22.4726 1143.74 22.4725 1143.57 22.4725C1142.73 21.8543 1141.89 21.4834 1141.05 21.607C1140.94 21.6292 1140.84 21.6474 1140.74 21.6653L1140.73 21.6655C1140.27 21.7468 1139.86 21.8199 1139.44 22.2252C1139.19 22.3489 1138.94 22.3489 1138.69 22.2252C1138.27 22.1016 1137.76 22.1016 1137.34 22.7198C1137.09 23.0908 1136.75 23.0908 1136.5 22.7198C1136.16 22.2253 1135.74 21.8543 1135.32 22.1016H1135.23C1134.86 21.7869 1134.48 21.8226 1134.11 21.8584C1133.89 21.8789 1133.68 21.8993 1133.46 21.8543C1133.13 21.8543 1132.87 21.607 1132.62 21.3597C1132.2 20.9888 1131.78 21.2361 1131.36 21.4834C1131.19 21.607 1131.02 21.7307 1130.94 21.607C1130.26 21.4834 1129.5 21.3597 1128.83 21.7306H1128.66C1128.33 21.607 1127.9 21.4834 1127.65 22.2252C1127.59 22.4169 1127.47 22.3857 1127.38 22.362C1127.36 22.3552 1127.33 22.3489 1127.31 22.3489C1127.06 22.3489 1126.81 22.2252 1126.56 22.1016C1126.3 21.9779 1126.13 21.978 1125.97 22.4725C1125.88 22.7198 1125.71 22.7198 1125.63 22.7198C1125.43 22.7198 1125.24 22.7057 1125.05 22.6917C1124.69 22.6645 1124.33 22.6381 1123.94 22.7198C1123.8 22.7198 1123.62 22.8907 1123.45 23.0567C1123.32 23.1731 1123.21 23.2871 1123.1 23.3381C1122.93 23.4617 1122.68 23.4617 1122.51 23.2144C1122.09 22.8435 1121.67 22.9671 1121.25 23.0908C1121 23.2144 1120.66 23.2144 1120.41 23.2144C1120.37 23.2144 1120.34 23.1964 1120.31 23.181C1120.27 23.156 1120.24 23.138 1120.24 23.2144C1119.92 23.9231 1119.59 23.7793 1119.29 23.6453C1119.12 23.5688 1118.96 23.4955 1118.81 23.5854C1118.75 23.6297 1118.67 23.6582 1118.6 23.6879C1118.47 23.7409 1118.32 23.7978 1118.22 23.9563C1117.73 24.6751 1117.16 24.8135 1116.66 24.9339L1116.62 24.9455C1116.49 24.9455 1116.41 24.8792 1116.31 24.7952C1116.28 24.7644 1116.24 24.7313 1116.19 24.6982V25.3164L1115.69 26.0583C1115.6 26.1819 1115.44 26.1819 1115.35 26.0583C1115.17 25.8993 1114.99 25.6722 1114.81 25.445L1114.81 25.4442C1114.57 25.1417 1114.33 24.8394 1114.09 24.6982C1113.59 24.386 1113.22 23.7236 1112.81 23.0057L1112.81 23.004C1112.73 22.8693 1112.65 22.7328 1112.57 22.5962C1112.15 21.7307 1111.65 20.9888 1111.14 20.8651C1110.89 20.7415 1110.63 20.3706 1110.47 19.7523L1110.47 19.7501C1110.3 19.2563 1110.13 18.7625 1110.04 18.2686C1109.79 17.5267 1109.46 16.7849 1109.03 16.9085C1108.44 16.2903 1107.94 15.9193 1107.35 16.9085C1107.31 16.9703 1107.29 17.0012 1107.26 17.0012C1107.26 17.0012 1107.25 16.9971 1107.24 16.9889C1107.23 16.9746 1107.21 16.9478 1107.18 16.9085C1106.87 16.4488 1106.48 16.7369 1106.16 16.9784C1106.13 16.9967 1106.11 17.0147 1106.09 17.0322C1105.75 17.2795 1105.41 17.1558 1105.07 16.7848C1104.91 16.6247 1104.71 16.5683 1104.52 16.5148C1104.42 16.4857 1104.32 16.4575 1104.23 16.4139C1104.18 16.3727 1104.12 16.3452 1104.06 16.3178C1103.95 16.2628 1103.84 16.2079 1103.73 16.043C1103.14 15.4248 1102.63 15.0539 1102.04 15.3011C1101.76 15.3836 1101.48 15.2462 1101.2 15.1088C1101.06 15.0401 1100.92 14.9714 1100.78 14.9302C1100.64 14.8635 1100.51 14.7789 1100.37 14.6933C1099.99 14.4612 1099.61 14.2216 1099.18 14.3119C1099.01 14.3944 1098.84 14.3669 1098.67 14.3394C1098.59 14.3257 1098.5 14.3119 1098.42 14.3119C1098.17 14.3119 1098 14.312 1097.75 14.5593C1097.58 14.6829 1097.41 14.8066 1097.16 14.5593C1097.1 14.5149 1097.02 14.4864 1096.95 14.4568C1096.82 14.4038 1096.67 14.3469 1096.57 14.1884C1096.34 14.0213 1096.07 14.0799 1095.82 14.1356C1095.7 14.1623 1095.58 14.1883 1095.47 14.1883C1095.05 14.1883 1094.54 14.1883 1094.12 14.0647C1093.7 13.941 1093.37 13.5701 1093.03 12.8282C1092.78 12.21 1092.35 11.4681 1091.93 11.9627C1091.85 12.0863 1091.76 11.9627 1091.76 11.9627C1091.55 11.5511 1091.29 11.5677 1091.01 11.5848C1090.95 11.5883 1090.89 11.5918 1090.84 11.5918C1090.63 11.5303 1090.44 11.4688 1090.25 11.4074L1090.25 11.4063L1090.24 11.4052C1090.06 11.3438 1089.87 11.2823 1089.66 11.2208C1088.73 10.8499 1087.81 10.7262 1086.88 10.6026H1086.71C1086.54 10.7882 1086.35 10.9738 1086.16 11.1594C1085.97 11.3448 1085.78 11.5301 1085.61 11.7154C1085.53 11.8391 1085.36 11.839 1085.28 11.839C1085.24 11.839 1085.17 11.8699 1085.11 11.9008C1085.05 11.9318 1084.98 11.9627 1084.94 11.9627C1084.86 11.9627 1084.79 11.9936 1084.73 12.0245C1084.67 12.0554 1084.6 12.0864 1084.52 12.0864C1084.46 12.0864 1084.41 12.0708 1084.36 12.0563C1084.28 12.0298 1084.21 12.0065 1084.1 12.0864L1084.1 12.0881C1083.59 12.5821 1083.09 13.0762 1082.58 13.6937C1082.46 13.7826 1082.34 13.9995 1082.25 14.1603C1082.21 14.223 1082.18 14.2772 1082.16 14.3119C1081.99 14.4356 1081.66 14.5593 1081.57 14.1883C1081.15 13.4465 1080.73 13.5701 1080.22 13.941C1079.66 14.4562 1079.1 14.5421 1078.54 14.628C1078.43 14.6451 1078.31 14.6623 1078.2 14.6829C1077.78 14.8066 1077.36 14.8066 1076.94 14.8066C1076.01 14.6829 1075.08 14.5592 1074.16 14.3119C1073.99 14.3119 1073.91 14.1883 1073.82 13.941C1073.74 14.1883 1073.65 14.4356 1073.48 14.5593C1073.15 14.8065 1072.81 14.8065 1072.64 14.5593C1072.56 14.4363 1072.47 14.1912 1072.39 13.9453L1072.39 13.941C1072.21 13.542 1071.98 13.6796 1071.75 13.8149C1071.56 13.9312 1071.37 14.0459 1071.21 13.8174C1071.18 13.774 1071.15 13.7002 1071.12 13.6174L1071.12 13.6166C1071.06 13.4633 1070.98 13.2793 1070.87 13.1992C1070.76 13.0343 1070.65 12.9794 1070.54 12.9244C1070.48 12.8969 1070.42 12.8695 1070.37 12.8282C1069.99 12.7046 1069.63 12.4264 1069.27 12.1482C1068.91 11.87 1068.56 11.5918 1068.18 11.4681C1068.01 11.4063 1067.84 11.4063 1067.67 11.4063C1067.5 11.4063 1067.33 11.4063 1067.17 11.3445C1067.08 11.3445 1066.91 11.2208 1066.83 11.0972C1066.71 11.011 1066.64 10.8649 1066.57 10.7424L1066.57 10.7398C1066.54 10.6875 1066.52 10.6395 1066.49 10.6026L1066.49 10.6023C1066.32 10.3551 1066.16 10.108 1066.07 9.86077C1065.99 9.98442 1065.9 10.108 1065.73 10.2317C1065.48 10.7263 1065.14 10.8499 1064.81 10.8499C1064.47 10.9736 1064.13 11.0972 1063.8 11.839C1063.71 12.0863 1063.46 12.0864 1063.29 12.0864L1062.62 12.0864H1061.61C1061.44 12.0864 1061.27 12.0863 1061.1 12.4573C1060.76 13.1991 1060.34 13.1992 1059.92 12.9519C1059.67 12.7046 1059.5 12.7046 1059.33 13.4465C1059.16 14.0647 1058.91 14.0647 1058.66 14.0647C1058.53 14.0647 1058.43 14.0956 1058.32 14.1265C1058.22 14.1574 1058.11 14.1883 1057.98 14.1883C1057.73 14.1883 1057.48 14.1883 1057.31 14.0647C1056.8 13.8174 1056.38 13.6938 1055.88 14.0647C1055.29 14.5593 1054.7 14.1883 1054.11 13.6937C1053.52 13.1991 1052.93 12.8282 1052.34 13.3228C1052.09 13.4465 1051.83 13.4465 1051.58 13.3228C1050.91 13.1992 1050.32 13.6938 1049.81 14.8066C1049.64 15.0539 1049.48 15.3011 1049.39 15.3011C1048.89 15.3011 1048.3 15.1775 1047.79 15.0538C1047.75 15.0538 1047.71 14.992 1047.66 14.9302C1047.62 14.8684 1047.58 14.8066 1047.54 14.8066C1047.37 14.6829 1047.2 14.5593 1047.03 14.5593C1046.7 14.6829 1046.36 14.8065 1045.94 14.9302C1045.52 15.1775 1045.09 15.5484 1044.67 16.043C1044.42 16.414 1044.17 17.1558 1044 17.774C1043.75 18.3923 1043.49 19.0105 1043.16 19.2578C1042.99 19.3814 1042.74 19.3814 1042.57 19.2578C1042.31 19.0105 1041.98 19.0105 1041.73 19.0105C1041.64 19.0105 1041.56 18.9963 1041.47 18.9815C1041.19 18.9346 1040.87 18.8815 1040.55 19.2578C1040.38 19.5051 1040.12 19.7523 1039.96 19.876C1039.79 20.1233 1039.54 20.3706 1039.37 20.3706C1039.03 20.3087 1038.69 20.1542 1038.36 19.9997C1038.02 19.8451 1037.68 19.6905 1037.34 19.6287C1036.92 19.5051 1036.5 19.7524 1036.08 19.9997C1035.83 20.1233 1035.58 20.2469 1035.24 20.1233C1034.82 19.876 1034.48 19.9996 1034.14 20.8651C1033.64 22.2252 1033.05 22.2252 1032.46 21.7306C1032.29 21.4834 1032.04 21.4834 1031.78 21.607C1031.45 21.7307 1031.03 21.8543 1030.69 21.3597C1030.65 21.2979 1030.58 21.267 1030.52 21.2361C1030.46 21.2052 1030.39 21.1743 1030.35 21.1124C1029.93 20.9888 1029.59 20.8651 1029.17 20.6178C1028.58 20.3706 1027.99 20.4942 1027.4 20.9888C1026.98 21.3597 1026.56 21.1124 1026.14 20.7415C1025.8 20.4942 1025.55 20.3706 1025.3 20.4942C1024.54 20.865 1023.7 21.2358 1022.86 21.6066L1022.86 21.607C1022.6 21.7307 1022.35 21.4834 1022.1 20.9888C1021.68 20.1233 1021.17 19.3814 1020.58 19.3814C1019.74 19.3814 1018.98 19.3814 1018.14 19.2578C1018.01 19.2578 1017.83 19.1134 1017.68 18.9902C1017.63 18.9521 1017.59 18.916 1017.55 18.8868L1017.43 18.7731C1016.98 18.3314 1016.59 17.9538 1016.2 17.1558C1015.78 16.2903 1015.36 15.9193 1014.94 15.7957C1014.85 15.7957 1014.77 15.672 1014.68 15.5484C1014.66 15.5192 1014.64 15.4832 1014.62 15.4451C1014.56 15.3219 1014.48 15.1775 1014.35 15.1775C1013.93 15.1775 1013.59 15.0539 1013.25 14.1883C1013.17 14.0647 1013 14.0647 1012.91 14.0647C1012.66 14.312 1012.41 14.1883 1012.07 13.941C1011.99 13.8174 1011.82 13.8174 1011.65 13.8174C1010.98 13.8174 1010.39 13.8174 1009.71 13.941H1009.29C1009.12 13.941 1008.96 13.941 1008.7 13.8174C1008.62 13.8174 1008.53 13.8025 1008.44 13.7882C1008.28 13.7614 1008.14 13.7366 1008.03 13.8174C1007.7 14.0107 1007.32 14.3553 1006.97 14.6737L1006.97 14.6749C1006.87 14.7633 1006.77 14.8496 1006.68 14.9302C1006.51 15.0538 1006.26 15.0538 1006.09 14.9302C1006 14.8738 1005.9 14.8045 1005.81 14.7371C1005.51 14.5088 1005.24 14.3011 1004.91 14.6829C1004.83 14.8066 1004.74 14.6829 1004.74 14.6829C1004.53 14.4768 1004.32 14.7 1004.11 14.9233C1004.07 14.9679 1004.03 15.0126 1003.99 15.0538C1003.82 15.3011 1003.65 15.4247 1003.4 15.5484C1003.15 15.6379 1002.92 15.7435 1002.69 15.8478C1002.28 16.0317 1001.89 16.2114 1001.46 16.2903C1001.12 16.3521 1000.78 16.5685 1000.45 16.7849C1000.11 17.0013 999.773 17.2176 999.436 17.2795H998.762C998.594 17.2795 998.425 17.2795 998.341 17.1558C998.235 17.1168 998.129 17.0901 998.025 17.0641C997.8 17.0076 997.588 16.9542 997.414 16.7848C997.078 16.5375 996.741 16.4139 996.404 16.6612C996.151 16.7849 995.877 16.9085 995.603 17.0321C995.33 17.1558 995.056 17.2794 994.803 17.4031H994.635C994.399 17.0569 994.163 17.1348 993.927 17.2127C993.826 17.2461 993.725 17.2795 993.624 17.2795C993.287 17.2795 992.865 17.0321 992.529 16.7848C992.486 16.7848 992.444 16.723 992.402 16.6612C992.36 16.5994 992.318 16.5376 992.276 16.5376C991.897 16.4758 991.518 16.4448 991.139 16.4139C990.759 16.383 990.38 16.3521 990.001 16.2903C989.917 16.2903 989.833 16.2903 989.749 16.4139C989.496 16.6612 989.243 16.6612 988.99 16.2903C988.822 16.043 988.569 16.043 988.401 16.2903C988.064 16.7848 987.643 16.5376 987.306 16.2903C987.113 16.2338 986.921 16.1259 986.721 16.0135C986.482 15.8796 986.232 15.7393 985.958 15.672C985.789 15.6102 985.6 15.6411 985.41 15.672C985.221 15.703 985.031 15.7339 984.863 15.672C984.728 15.672 984.593 15.9888 984.458 16.3054C984.424 16.3845 984.391 16.4635 984.357 16.5376C984.273 16.4139 984.189 16.2903 984.189 16.043C984.104 15.6721 983.936 15.6721 983.767 15.7957C983.722 15.8288 983.683 15.8619 983.647 15.8927C983.548 15.9767 983.47 16.043 983.346 16.043C983.009 16.043 982.672 16.1666 982.335 16.4139C981.998 16.7107 981.661 16.6909 981.324 16.6711C981.24 16.6662 981.156 16.6612 981.072 16.6612C980.913 16.6612 980.753 16.6337 980.586 16.6046C980.398 16.572 980.199 16.5376 979.977 16.5376H979.724C979.289 17.0691 978.917 16.8695 978.5 16.6459C978.432 16.6094 978.363 16.5723 978.292 16.5376C978.123 16.5376 978.039 16.5376 977.871 16.6612C977.534 17.0322 977.281 17.0322 976.944 16.6612C976.523 16.1667 976.102 15.7957 975.596 15.7957C975.259 15.7957 974.922 15.7648 974.585 15.7339C974.248 15.703 973.911 15.672 973.574 15.672C973.475 15.672 973.383 15.6936 973.294 15.7144C973.081 15.7641 972.885 15.8099 972.648 15.5484C972.563 15.5484 972.563 15.5484 972.479 15.672C971.944 16.2833 971.366 16.4629 970.776 16.6463C970.531 16.7226 970.284 16.7995 970.036 16.9085C969.871 16.9893 969.742 16.9645 969.602 16.9376C969.527 16.9234 969.45 16.9085 969.362 16.9085C969.334 16.9085 969.306 16.8948 969.278 16.881C969.222 16.8535 969.166 16.8261 969.11 16.9085C968.627 17.4143 968.145 17.1752 967.662 16.936L967.661 16.9354C967.554 16.8825 967.447 16.8296 967.34 16.7848C967.003 16.6612 966.667 16.6612 966.33 16.9085C966.119 17.0321 965.887 17.094 965.656 17.1558C965.424 17.2176 965.192 17.2794 964.982 17.4031C964.813 17.4649 964.645 17.5576 964.476 17.6504L964.476 17.6507C964.307 17.7433 964.139 17.8359 963.971 17.8977C963.55 18.145 963.044 18.3922 962.623 18.5159C962.339 18.5992 962.017 18.5702 961.708 18.5425C961.559 18.529 961.412 18.5159 961.275 18.5159C961.191 18.5159 961.107 18.3922 961.022 18.2686C960.601 17.5267 960.18 17.5267 959.674 17.5267C959.169 17.5267 958.748 17.5268 958.242 17.2795C957.99 17.1558 957.737 17.2794 957.484 17.4031C957.395 17.4292 957.303 17.4497 957.209 17.4706C956.857 17.5487 956.487 17.6311 956.221 18.0213C955.715 18.6395 955.21 18.7632 954.789 18.7632C954.367 18.7632 953.946 18.7632 953.525 18.5159C953.469 18.4953 953.413 18.4712 953.356 18.4472C953.076 18.327 952.795 18.2068 952.514 18.5159C952.192 18.8315 951.835 18.7947 951.487 18.7588C951.29 18.7385 951.096 18.7185 950.913 18.7632C950.745 18.825 950.598 18.8559 950.45 18.8868C950.303 18.9177 950.155 18.9486 949.987 19.0105C949.566 19.2577 949.229 19.2578 948.892 19.1341C948.555 18.8868 948.133 18.6395 947.797 19.0104C947.628 19.1341 947.459 19.0105 947.291 18.7632C946.87 18.145 946.533 17.8977 946.112 18.2686C946.027 18.3922 945.859 18.2686 945.69 18.1449C945.438 17.774 945.185 17.774 944.848 18.0213C944.764 18.145 944.595 18.0213 944.427 17.8977C944.151 17.4925 943.825 17.2718 943.503 17.0541C943.236 16.8733 942.971 16.6945 942.742 16.4139C942.489 16.1666 942.152 15.9193 941.9 15.7957C941.731 15.7339 941.542 15.7648 941.352 15.7957C941.163 15.8266 940.973 15.8575 940.805 15.7957C940.656 15.6871 940.508 15.5069 940.353 15.318C940.155 15.0768 939.946 14.8216 939.709 14.6829C939.414 14.4974 939.162 14.1883 938.909 13.8792C938.656 13.5701 938.404 13.261 938.109 13.0755C937.795 12.7991 937.341 13.0032 936.956 13.1763C936.824 13.2356 936.7 13.2913 936.592 13.3228C935.666 13.4464 934.739 13.1991 933.812 12.4573C933.307 11.9627 932.802 12.0863 932.212 12.4573C931.959 12.5809 931.706 12.7045 931.369 12.3336C930.78 11.5917 930.106 11.3445 929.432 11.9627C929.263 12.0863 929.095 12.0863 928.927 12.0863C928.719 12.0863 928.505 12.0788 928.29 12.0712C927.632 12.0479 926.949 12.0238 926.315 12.21C925.557 12.4573 924.883 12.0863 924.125 11.4681C923.872 11.2827 923.64 11.0972 923.409 10.9117C923.177 10.7262 922.945 10.5407 922.693 10.3553C922.608 10.2316 922.44 10.3553 922.356 10.4789C922.271 10.4789 922.208 10.5098 922.145 10.5408C922.082 10.5717 922.019 10.6026 921.935 10.6026C921.71 10.6026 921.485 10.5888 921.261 10.5751C920.811 10.5476 920.362 10.5202 919.913 10.6026L919.905 10.6038L919.904 10.6039C919.149 10.7271 918.393 10.8504 917.554 10.9736H917.385C916.959 10.5564 916.593 10.7549 916.185 10.9757C916.11 11.0167 916.032 11.0584 915.953 11.0971C915.616 11.2208 915.195 11.2208 914.858 11.2208C914.726 11.2208 914.581 11.1827 914.433 11.144C914.204 11.0839 913.968 11.022 913.763 11.0971C913.061 11.3032 912.359 11.08 911.657 10.8567C911.517 10.8121 911.376 10.7674 911.236 10.7262C911.148 10.7262 911.061 10.7114 910.977 10.6971C910.818 10.6702 910.672 10.6455 910.562 10.7262C910.458 10.7645 910.361 10.7909 910.268 10.8165C910.06 10.8736 909.868 10.9264 909.635 11.0971C909.046 11.4681 908.456 11.4681 907.782 11.2208C907.265 10.9364 906.748 10.8701 906.194 10.7988C906.025 10.7772 905.853 10.7551 905.676 10.7262L905.565 10.7029C905.022 10.588 904.544 10.4867 903.991 10.6026C903.771 10.6487 903.551 10.5744 903.336 10.5016C902.973 10.3793 902.623 10.261 902.306 10.7262H902.138H901.632C901.566 10.7402 901.501 10.7541 901.436 10.7678C900.928 10.8762 900.471 10.9736 899.948 10.9736C899.611 10.9735 899.189 10.9735 898.852 11.0971C898.094 11.3444 897.42 11.0972 896.746 10.8499C896.62 10.8499 896.494 10.819 896.367 10.7881C896.241 10.7571 896.115 10.7262 895.988 10.7262C895.23 10.9735 894.388 11.0971 893.714 10.3553C892.956 9.48975 892.113 9.36614 891.355 9.48979C891.11 9.48979 890.865 9.42438 890.62 9.35898C890.191 9.24453 889.762 9.13008 889.333 9.36613C889.291 9.36613 889.228 9.33521 889.165 9.3043C889.102 9.27339 889.038 9.24247 888.996 9.24247C888.07 8.74789 887.143 8.37699 886.216 8.37699C886.132 8.37699 885.964 8.377 885.879 8.50065C885.458 8.99523 884.953 8.9952 884.531 8.87156C884.391 8.83034 884.251 8.81661 884.11 8.80287C883.829 8.7754 883.549 8.74794 883.268 8.50065C883.212 8.41822 883.155 8.4457 883.099 8.47317C883.071 8.48691 883.043 8.50065 883.015 8.50065C881.92 8.50065 880.909 8.37696 879.814 8.00602C879.561 7.9442 879.308 7.97511 879.056 8.00602C878.803 8.03693 878.55 8.06784 878.298 8.00602L878.25 7.99598C877.68 7.87613 877.186 7.77215 876.613 8.25333C876.402 8.4388 876.192 8.31515 875.981 8.1915C875.77 8.06786 875.56 7.94421 875.349 8.12968C875.297 8.12968 875.277 8.08248 875.25 8.01723C875.233 7.9769 875.213 7.92966 875.181 7.88242C875.096 7.75878 875.012 7.75876 874.928 7.75876C874.731 7.79998 874.544 7.79998 874.36 7.79997C873.992 7.79997 873.636 7.79996 873.243 8.12968C873.184 8.21589 873.085 8.18188 873.001 8.15338C872.965 8.14101 872.932 8.12968 872.906 8.12968C872.569 7.88238 872.148 7.51148 871.811 7.14054C871.643 7.01689 871.39 7.01688 871.221 7.01688C871.053 7.01688 870.969 7.01686 870.8 6.76957C870.547 6.39863 870.379 6.39863 870.21 6.76957C870.042 7.26415 869.789 7.14052 869.621 6.89322C869.115 6.02771 868.526 5.90406 867.936 6.275H867.683C867.178 6.02771 866.757 6.02772 866.251 6.39866C865.998 6.64595 865.746 6.64594 865.493 6.275C865.325 6.02771 865.156 6.02769 864.988 6.02769C864.819 5.96586 864.63 5.93496 864.44 5.90406C864.25 5.87316 864.061 5.84225 863.892 5.78043C863.555 5.65679 863.303 5.65676 863.05 6.15134C862.797 6.76957 862.545 6.64594 862.292 6.275C862.039 5.78042 861.786 5.78039 861.449 6.02768C861.281 6.15133 861.112 6.15134 861.028 6.15134C860.901 6.11416 860.767 6.0658 860.63 6.01635C860.311 5.90135 859.975 5.78043 859.68 5.78043C859.396 5.82686 859.123 5.82098 858.853 5.81517C858.404 5.80551 857.964 5.79602 857.49 6.02768C857.431 6.11389 857.332 6.07989 857.248 6.05139C857.212 6.03902 857.179 6.02768 857.153 6.02768C856.9 6.02768 856.732 6.02773 856.479 5.90409C856.38 5.90409 856.282 5.86166 856.2 5.8265C856.142 5.80165 856.093 5.78043 856.058 5.78043C855.637 5.53314 855.131 5.5331 854.71 6.02768C854.373 6.27497 854.12 6.39864 853.783 6.275C853.724 6.275 853.664 6.25948 853.608 6.24494C853.506 6.21843 853.417 6.19515 853.362 6.275C852.604 6.52229 852.014 6.02772 851.34 5.16221C850.33 3.92575 849.319 3.43117 848.224 3.30753C848.106 3.30753 847.989 3.28089 847.863 3.25235C847.718 3.21938 847.562 3.18387 847.381 3.18387C847.24 3.18387 847.106 3.15508 846.975 3.12692C846.634 3.05398 846.314 2.98519 845.949 3.43119C845.781 3.67848 845.612 3.67844 845.528 3.67844C844.938 3.67844 844.348 3.67845 843.759 3.8021L843.338 3.8021C843.043 3.74027 842.769 3.64754 842.495 3.55481C842.221 3.46208 841.948 3.36935 841.653 3.30753C841.4 3.30753 841.147 3.30749 840.979 3.55478C840.626 3.9687 840.215 3.94963 839.843 3.9324C839.771 3.92904 839.7 3.92575 839.631 3.92575C839.462 3.92575 839.273 3.89484 839.083 3.86393C838.894 3.83301 838.704 3.8021 838.536 3.8021C838.367 3.8021 838.283 3.80208 838.115 3.67844C837.946 3.61662 837.757 3.52389 837.567 3.43116C837.377 3.33842 837.188 3.24569 837.019 3.18387C836.711 3.06022 836.402 2.95031 836.093 2.8404C835.475 2.6206 834.857 2.40079 834.24 2.07108C833.116 1.41161 831.993 1.53374 830.87 1.65585C830.729 1.67111 830.589 1.68637 830.449 1.70011C830.364 1.70011 830.28 1.82376 830.28 1.82376C830.07 1.88559 829.838 1.97832 829.606 2.07105C829.375 2.16378 829.143 2.25651 828.932 2.31833C828.595 2.31833 828.258 2.31836 827.921 1.94742C827.584 1.57648 827.163 1.45282 826.826 1.70011C826.489 1.82375 826.237 1.8238 825.9 1.57651C825.867 1.56054 825.836 1.54457 825.806 1.52913C825.602 1.42504 825.446 1.34518 825.226 1.45285C824.931 1.51468 824.636 1.60741 824.341 1.70014C824.046 1.79287 823.752 1.8856 823.457 1.94742C822.951 2.07107 822.446 1.82379 821.94 1.45285C821.688 1.20556 821.519 1.20556 821.266 1.45285C820.929 1.94743 820.592 1.70013 820.255 1.32919C820.003 0.958259 819.666 0.958235 819.413 1.08188C819.118 1.20553 818.802 1.26736 818.486 1.32919C818.171 1.39103 817.855 1.45286 817.56 1.57651C817.476 1.61772 817.391 1.6452 817.307 1.67267C817.139 1.72762 816.97 1.78256 816.802 1.94742C816.549 2.19471 816.296 2.31837 815.959 2.07108C815.875 2.00925 815.791 1.97834 815.706 1.94742C815.622 1.9165 815.538 1.88558 815.454 1.82376C815.117 1.76194 814.801 1.66921 814.485 1.57648L814.485 1.57634C814.169 1.48366 813.853 1.39099 813.516 1.32919C813.263 1.20555 813.011 1.20554 812.674 1.20554C812.505 1.14371 812.316 1.0819 812.126 1.02008C811.937 0.958265 811.747 0.896449 811.579 0.834626C811.495 0.834626 811.41 0.803712 811.326 0.772797C811.242 0.741883 811.157 0.710969 811.073 0.710969C810.959 0.73184 810.846 0.759757 810.732 0.787584L810.732 0.787707C810.174 0.924697 809.626 1.05927 809.136 0.340058C808.967 0.0927675 808.799 0.0927436 808.63 0.0927436C808.429 0.0927435 808.228 0.149035 808.018 0.207906L808.018 0.207959C807.788 0.272469 807.547 0.340058 807.282 0.340058C806.693 0.463654 806.103 0.463654 805.598 0.463654H805.598L804.924 0.463654V1.08188L801.975 1.08188C801.217 1.08188 800.375 1.20555 799.616 1.32919C798.943 1.45284 798.269 1.70013 797.595 1.94742C797.51 1.94742 797.342 1.94741 797.258 1.82376C796.668 1.08189 796.162 1.57649 795.657 2.07107C795.152 2.56566 794.73 2.8129 794.225 2.8129C793.93 2.8129 793.656 2.87472 793.383 2.93655C793.109 2.99838 792.835 3.06021 792.54 3.06021C792.515 3.06021 792.481 3.07154 792.445 3.08392C792.362 3.11241 792.262 3.14642 792.203 3.06021C791.95 2.68927 791.614 2.81291 791.277 2.93655C791.108 2.99838 790.919 3.12202 790.729 3.24567C790.539 3.36931 790.35 3.49296 790.181 3.55478C790.149 3.57069 790.118 3.58659 790.088 3.60198L790.087 3.60219L790.087 3.60225C789.884 3.70629 789.727 3.78608 789.507 3.67844C788.665 3.18385 787.738 3.18384 786.896 3.55478C786.728 3.67842 786.475 3.67842 786.306 3.55478C785.483 3.11515 784.659 3.4571 783.835 3.79904C783.732 3.84179 783.629 3.88453 783.526 3.92575C783.358 3.98757 783.168 4.0803 782.979 4.17303C782.789 4.26576 782.6 4.35849 782.431 4.42032C782.263 4.42032 782.01 4.4203 781.842 4.29666C781.718 4.25135 781.606 4.18943 781.497 4.12917L781.496 4.12904C781.308 4.02491 781.128 3.92575 780.915 3.92575C780.82 3.92575 780.726 4.00371 780.616 4.09397C780.531 4.16446 780.436 4.24244 780.325 4.29666C780.241 4.4203 780.157 4.54397 780.073 4.54397C779.931 4.61311 779.783 4.6919 779.633 4.77226L779.632 4.77267L779.631 4.7729C779.243 4.97979 778.836 5.19687 778.472 5.28586C778.303 5.28586 778.135 5.28583 777.966 5.03854C777.377 4.29667 776.787 4.04939 776.113 3.92575C775.945 3.92575 775.776 3.92576 775.608 4.04941C774.934 4.79128 774.26 4.66759 773.586 4.29666C772.912 4.04937 772.322 4.04937 771.648 4.29666C771.48 4.4203 771.227 4.29665 771.059 4.173C770.638 3.92571 770.216 3.80209 769.795 3.80209H767.605C767.268 3.80209 766.931 3.55481 766.678 3.30752C766.362 3.07587 766.047 3.16972 765.662 3.28416L765.583 3.30752C765.162 3.55481 764.656 3.55478 764.235 3.55478C764.067 3.55478 763.898 3.55479 763.73 3.67843L763.73 3.67856C763.477 3.92581 763.224 4.173 762.972 3.92575C762.887 3.8021 762.803 3.92576 762.803 4.0494C762.466 4.54399 762.129 4.54397 761.792 4.54397C761.64 4.58856 761.499 4.64922 761.362 4.70856C761.117 4.81379 760.882 4.91488 760.613 4.91488C760.36 4.91488 760.107 4.91493 759.855 4.79129C759.433 4.544 759.096 4.42035 758.675 4.79129C758.254 5.16222 757.833 5.16221 757.412 4.66763C757.327 4.54398 757.159 4.54397 757.075 4.54397C756.906 4.60579 756.738 4.69852 756.569 4.79126C756.401 4.88399 756.232 4.97672 756.064 5.03854C755.812 5.16183 755.539 5.28512 755.266 5.40841L755.263 5.40948L755.261 5.41055C754.988 5.53384 754.715 5.65713 754.463 5.78042C754.084 6.42957 753.705 6.24409 753.326 6.05863C753.2 5.99681 753.073 5.93499 752.947 5.90408C752.273 5.78043 751.599 5.65678 750.925 5.78042C750.609 5.78042 750.293 5.9891 749.977 6.19776C749.872 6.2673 749.767 6.33683 749.661 6.39865C749.493 6.52229 749.325 6.64595 749.156 6.5223C748.628 5.96882 748.1 6.10905 747.633 6.23321C747.578 6.24774 747.524 6.26204 747.471 6.27499C747.134 6.27499 746.797 6.39867 746.376 6.64596C746.208 6.76961 746.039 6.89324 745.871 7.14053C745.618 7.63511 745.281 7.75874 745.028 7.6351C744.86 7.51145 744.607 7.63512 744.438 7.88241C744.017 8.50064 743.512 8.74789 743.006 8.74789C742.164 8.87154 741.406 8.87155 740.563 8.87155C740.395 8.87155 740.226 8.74788 740.142 8.62423C739.553 8.12965 738.879 8.2533 738.289 8.62423C737.615 8.99517 736.941 9.36613 736.267 8.87155C735.608 8.3342 735.013 8.54413 734.37 8.77064L734.37 8.77099C734.273 8.80496 734.176 8.83931 734.077 8.87155C733.74 8.99519 733.487 8.9952 733.15 8.37698C733.122 8.33579 733.094 8.28087 733.066 8.22594C733.01 8.11599 732.954 8.00601 732.897 8.00601C732.729 8.07652 732.561 8.08672 732.395 8.0968C731.978 8.12206 731.574 8.14659 731.213 9.11886C731.044 9.61344 730.791 9.73704 730.623 9.24246C730.539 8.99517 730.37 9.11881 730.286 9.24246C729.781 9.98433 729.275 10.108 728.77 9.61343C728.685 9.61343 728.601 9.48977 728.601 9.48977C727.085 9.61342 725.568 9.11881 724.052 8.62423H723.631C723.21 8.62423 722.873 8.37699 722.536 7.88241C722.409 7.69694 722.262 7.57329 722.115 7.44964C721.967 7.32599 721.82 7.20234 721.693 7.01687C721.442 6.77082 721.211 6.55537 720.981 6.34008L720.977 6.33682L720.974 6.33356C720.743 6.11826 720.513 5.90281 720.261 5.65676C719.924 5.28583 719.587 5.16219 719.25 5.16219C718.745 5.28584 718.24 4.91487 717.734 4.173C717.566 3.92571 717.481 3.80209 717.313 3.80209C717.217 3.83028 717.125 3.85204 717.036 3.87324C716.734 3.94501 716.459 4.0103 716.133 4.29665C715.712 4.66759 715.291 4.54393 714.87 4.173C714.617 3.92571 714.364 3.80211 714.112 4.0494C714.027 4.17305 713.859 4.17305 713.69 4.0494C713.529 4.00185 713.354 3.91773 713.177 3.8322L713.176 3.83197C712.893 3.69514 712.602 3.55477 712.343 3.55477C711.837 3.55477 711.416 3.80206 710.911 4.173L710.854 4.19382C710.545 4.30901 710.302 4.39943 709.984 4.0494C709.9 3.92575 709.731 3.80209 709.647 3.80209C709.321 3.74219 708.994 3.71131 708.677 3.68133C708.34 3.64941 708.013 3.61853 707.709 3.55477C707.288 3.43113 706.867 3.18382 706.446 2.81289C706.109 2.5656 705.856 2.56561 705.519 2.93655C705.266 3.18384 705.014 3.18387 704.845 2.68929C704.761 2.442 704.593 2.31832 704.508 2.31832C703.919 2.07103 703.413 1.70013 702.908 0.834617C702.823 0.710971 702.655 0.710959 702.571 0.710959C702.515 0.752181 702.458 0.779657 702.402 0.807134C702.29 0.862076 702.178 0.917022 702.065 1.08187C701.682 1.75629 701.299 1.40886 700.916 1.06143C700.878 1.02668 700.84 0.991937 700.802 0.958213C700.765 0.958213 700.744 0.910694 700.725 0.867739V0.867691C700.701 0.812686 700.68 0.765198 700.633 0.834616C700.304 0.995717 700.01 0.737009 699.706 0.468728V0.468679L699.706 0.468414C699.543 0.324982 699.377 0.178861 699.201 0.092734C699.033 -0.0309113 698.864 -0.0309113 698.696 0.0927339C698.117 0.623733 697.476 0.607427 696.879 0.592256C696.781 0.589763 696.685 0.587302 696.59 0.587302C696.337 0.587302 696.084 0.556387 695.831 0.525473C695.579 0.494559 695.326 0.463644 695.073 0.463644C694.568 0.463644 694.062 0.587325 693.557 0.834616C693.136 0.958261 692.736 1.08191 692.335 1.20556C691.935 1.3292 691.535 1.45285 691.114 1.5765C691.088 1.5765 691.055 1.56516 691.019 1.55279C690.935 1.5243 690.836 1.49029 690.777 1.5765C690.524 1.5765 690.271 1.57646 690.019 1.82375C689.429 2.31833 688.924 2.31831 688.334 2.19466C688.306 2.19466 688.278 2.18092 688.25 2.16719C688.194 2.13971 688.137 2.11223 688.081 2.19466C687.744 2.31831 687.492 2.19467 687.155 1.70009C686.986 1.32916 686.733 1.32921 686.565 1.5765C686.396 1.82379 686.312 1.82379 686.144 1.5765C685.989 1.23483 685.833 1.31276 685.612 1.42382C685.593 1.43333 685.574 1.44308 685.554 1.45284C685.509 1.48595 685.47 1.51905 685.434 1.54978L685.433 1.54995C685.334 1.63391 685.256 1.70009 685.133 1.70009C684.796 1.63827 684.459 1.54554 684.122 1.45281C683.785 1.36008 683.448 1.26735 683.111 1.20553C683.007 1.16726 682.894 1.10532 682.779 1.04168C682.521 0.899675 682.249 0.749234 682.016 0.834615C681.814 0.834615 681.612 0.968068 681.409 1.10156L681.409 1.10167C681.275 1.1907 681.14 1.27972 681.005 1.32918C680.668 1.57647 680.331 1.82376 679.994 1.94741C679.91 1.94741 679.741 1.9474 679.657 1.82375C679.578 1.78508 679.501 1.74339 679.426 1.70246L679.425 1.70223C679.018 1.48148 678.651 1.28299 678.225 1.70009C678.141 1.82374 678.057 1.82374 677.972 1.70009C677.551 1.4528 677.13 1.57645 676.709 1.70009C676.683 1.70009 676.65 1.71143 676.614 1.7238C676.53 1.75229 676.43 1.7863 676.372 1.70009C675.903 1.35592 675.506 1.65046 675.048 1.99105V1.9911L675.046 1.99258C675.011 2.01857 674.975 2.04482 674.94 2.07106C674.603 2.31835 674.35 2.31831 674.013 2.19466C673.59 1.98755 673.166 1.86717 672.792 1.76089L672.792 1.76083L672.79 1.76007C672.718 1.73974 672.648 1.71992 672.581 1.70009C672.482 1.70009 672.383 1.65768 672.302 1.62255C672.244 1.5977 672.195 1.5765 672.16 1.5765V1.70009C671.991 1.57645 671.823 1.45284 671.57 1.45284C671.486 1.45284 671.401 1.45283 671.401 1.32918L671.149 1.32918C670.912 1.4283 670.69 1.40823 670.469 1.3884C670.14 1.35876 669.817 1.32966 669.464 1.70009C669.38 1.82374 669.211 1.94739 669.127 1.82375C668.668 1.53523 668.21 1.77033 667.751 2.00542C667.62 2.07257 667.489 2.13972 667.358 2.19466C667.189 2.31831 667.105 2.31832 666.937 2.31832C666.768 2.31832 666.684 2.31833 666.516 2.44197C666.154 2.97188 665.793 2.95673 665.432 2.94159C665.372 2.93907 665.312 2.93654 665.252 2.93654C664.862 2.93654 664.471 2.9693 664.093 3.0011C663.736 3.03108 663.389 3.0602 663.062 3.0602C662.893 3.0602 662.64 3.18388 662.472 3.43117C662.051 3.92575 661.714 3.92573 661.293 3.80208C660.956 3.67844 660.703 3.67842 660.366 3.67842H659.86C659.734 3.67842 659.629 3.70934 659.524 3.74025C659.418 3.77117 659.313 3.80208 659.187 3.80208C659.102 3.80208 659.018 3.92574 659.018 3.92574C658.498 3.86706 657.998 4.19823 657.507 4.52279C656.963 4.88216 656.432 5.23343 655.901 5.03853C655.648 4.91489 655.396 5.16215 655.143 5.40944C654.637 5.78038 654.132 6.0277 653.542 5.78041C653.121 5.65677 652.7 5.78041 652.363 6.39864C651.858 7.26415 651.352 7.38782 650.762 6.64595C650.678 6.52231 650.51 6.52229 650.425 6.52229C650.196 6.74648 650.037 6.66581 649.82 6.55665C649.798 6.5454 649.775 6.53385 649.752 6.52229C649.499 6.275 649.246 6.27497 648.993 6.76955C648.909 6.89319 648.825 7.01686 648.656 7.01686C648.437 7.12431 648.224 7.22138 648.015 7.31709C647.501 7.5518 647.005 7.77833 646.466 8.12966C646.045 8.37695 645.708 8.50059 645.371 8.12966C644.866 7.63507 644.36 7.75871 643.855 8.006C643.574 8.17087 643.293 8.22583 643.012 8.2808C642.872 8.30828 642.732 8.33576 642.591 8.37697L642.589 8.37782L642.588 8.37814C642 8.62504 641.411 8.87195 640.906 9.11885C640.654 9.2425 640.401 9.24245 640.064 9.24245C639.912 9.31664 639.761 9.35744 639.609 9.39825C639.255 9.49346 638.901 9.58868 638.547 10.108C638.295 10.6026 637.958 10.7262 637.705 10.6026C637.604 10.5284 637.503 10.5877 637.402 10.6471C637.334 10.6866 637.267 10.7262 637.2 10.7262H636.189H634.672C634.459 10.7262 634.279 10.6271 634.091 10.5229C633.982 10.4626 633.869 10.4006 633.746 10.3552C633.493 10.2316 633.325 10.2316 633.072 10.2316C632.667 10.2811 632.263 10.4097 631.859 10.5383C631.252 10.7312 630.646 10.9241 630.039 10.8499C629.831 10.8499 629.59 10.9921 629.356 11.1297C629.213 11.2144 629.072 11.2973 628.944 11.3444C628.523 11.5917 628.186 11.4681 627.765 10.9735C627.259 10.3553 626.669 10.4789 626.08 10.6026C625.659 10.7262 625.237 10.8498 624.9 11.0971C624.479 11.3443 624.058 11.7152 623.637 12.086L623.637 12.0863C623.384 12.3336 623.216 12.3336 622.963 12.3336C622.826 12.3336 622.693 12.3234 622.561 12.3133C622.046 12.2739 621.562 12.237 621.025 12.8282C620.436 13.4464 619.93 13.8174 619.34 14.1883C619.144 14.2707 618.947 14.3806 618.751 14.4905C618.358 14.7103 617.965 14.9301 617.571 14.9301C617.403 14.9301 617.234 15.1774 617.066 15.4247C616.645 15.9193 616.139 16.043 615.718 15.9193C615.365 15.7712 614.982 15.7562 614.604 15.7413C614.351 15.7314 614.101 15.7216 613.865 15.672C613.837 15.672 613.809 15.6858 613.781 15.6995C613.724 15.727 613.668 15.7544 613.612 15.672C613.087 15.1216 612.495 15.2572 611.956 15.3808C611.889 15.3961 611.823 15.4111 611.759 15.4247C611.506 15.4247 611.253 15.3938 611.001 15.3629C610.748 15.332 610.495 15.3011 610.242 15.3011C609.821 15.1775 609.4 15.3011 608.979 15.7957C608.81 16.043 608.558 16.1666 608.305 16.1666C607.884 16.1666 607.462 16.4139 607.041 16.9085C606.994 16.9779 606.92 17.0083 606.835 17.0436C606.768 17.0711 606.694 17.1016 606.62 17.1558C606.586 17.2059 606.538 17.2154 606.487 17.2254C606.413 17.2401 606.333 17.2559 606.283 17.403C605.946 18.0213 605.693 18.0213 605.357 17.8977C605.104 17.774 604.935 17.8976 604.683 18.1449C604.514 18.3922 604.346 18.3922 604.093 18.3922C603.981 18.3922 603.868 18.3785 603.756 18.3647C603.531 18.3373 603.307 18.3098 603.082 18.3922C602.577 18.3922 602.071 18.5158 601.65 18.6395C601.566 18.6395 601.481 18.7631 601.481 18.8868C600.976 19.7523 600.47 19.6287 599.965 19.2577C599.46 18.8868 598.954 18.6395 598.449 18.5159C597.943 18.3922 597.354 18.0213 596.932 16.7848C596.68 16.1666 595.416 15.0538 595.079 15.0538C594.574 15.0538 594.152 15.0538 593.647 15.1774C593.535 15.1774 593.422 15.2874 593.31 15.3973C593.254 15.4522 593.198 15.5071 593.141 15.5484C593.024 15.6346 592.948 15.7809 592.883 15.9035C592.856 15.9568 592.83 16.0055 592.805 16.043C592.404 16.827 591.95 16.5236 591.528 16.2408C591.417 16.1668 591.309 16.0943 591.204 16.043C590.699 15.672 590.193 15.672 589.603 16.2902C589.351 16.6612 589.014 16.9085 588.761 17.0321C588.508 17.1558 588.256 17.1557 588.003 16.9085C587.979 16.8969 587.956 16.8854 587.934 16.8742C587.718 16.765 587.558 16.6842 587.329 16.9085C587.076 17.2794 586.739 17.1558 586.486 16.5375C586.149 15.7957 585.728 15.672 585.307 15.7957C585.054 15.9193 584.886 15.9193 584.633 15.9193C584.549 15.9193 584.465 15.9193 584.38 16.043C584.044 16.6612 583.622 16.6612 583.285 16.6612C582.611 16.6612 581.937 17.1557 581.348 18.1449C580.842 19.0104 580.253 19.3814 579.747 19.2577C579.534 19.2577 579.354 19.1586 579.166 19.0544C579.056 18.9941 578.944 18.9321 578.82 18.8868C578.146 18.5159 577.473 18.8868 576.799 19.505C576.406 19.8348 576.012 20.2744 575.619 20.7141C575.423 20.9339 575.226 21.1537 575.03 21.3597C574.945 21.4833 574.777 21.4833 574.693 21.4833C574.566 21.4833 574.44 21.4524 574.314 21.4215C574.187 21.3906 574.061 21.3597 573.935 21.3597C573.766 21.3597 573.598 21.3597 573.429 21.607C573.092 22.1016 572.755 22.2252 572.418 22.2252C572.356 22.2404 572.293 22.2556 572.228 22.2711C571.769 22.3812 571.261 22.5029 570.818 22.7198C570.733 22.7198 570.565 22.8434 570.481 22.9671C569.891 23.709 569.301 23.9562 568.712 23.4616C568.459 23.338 568.29 23.4617 568.038 23.709C567.701 24.0799 567.279 24.4508 566.858 24.2035C566.767 24.1366 566.651 24.2146 566.524 24.3002C566.416 24.3728 566.3 24.4508 566.184 24.4508C565.595 24.5745 565.005 24.6981 564.415 24.6981H564.331C564.091 25.3158 563.807 25.3037 563.511 25.2911C563.393 25.2861 563.272 25.2809 563.152 25.3163C562.955 25.3805 562.752 25.4281 562.547 25.4762C561.962 25.6136 561.354 25.7562 560.793 26.3055C560.709 26.4291 560.54 26.5528 560.456 26.4291C560.026 26.2713 559.63 26.6174 559.246 26.9527C559.029 27.1426 558.816 27.3289 558.603 27.4183H556.834C556.801 27.4183 556.782 27.4003 556.765 27.3849C556.737 27.3599 556.717 27.3419 556.665 27.4183C556.244 27.6503 555.789 27.6405 555.343 27.6308C555.076 27.625 554.812 27.6193 554.559 27.6656C553.885 27.6656 553.127 27.9129 552.453 28.1602C552.249 28.2599 551.991 28.5206 551.766 28.7474L551.765 28.7479C551.711 28.8021 551.659 28.8544 551.611 28.902C551.526 28.902 551.442 29.1493 551.442 29.1493C551.243 29.0034 551.015 29.159 550.792 29.311C550.637 29.4165 550.485 29.5203 550.347 29.5203C550.305 29.5203 550.242 29.5512 550.179 29.5821C550.115 29.613 550.052 29.6439 550.01 29.6439H549.505C549.42 29.6439 549.336 29.613 549.252 29.5821C549.168 29.5512 549.083 29.5203 548.999 29.5203C548.814 29.5655 548.641 29.6438 548.474 29.7189C548.186 29.8491 547.918 29.9696 547.651 29.8912C547.209 29.819 546.766 29.9997 546.307 30.1871C545.979 30.3208 545.643 30.458 545.293 30.5094C545.124 30.5094 544.935 30.5404 544.745 30.5713C544.556 30.6022 544.366 30.6331 544.198 30.6331C543.743 30.6331 543.289 30.9137 542.809 31.2103C542.577 31.3539 542.339 31.5012 542.091 31.6222C541.923 31.7459 541.754 31.7459 541.67 31.7459C541.249 31.8695 540.828 32.1168 540.491 32.3641C540.154 32.6114 539.817 32.6114 539.48 32.2405C539.143 31.7459 538.806 31.7459 538.469 31.8695C537.964 32.1168 537.458 32.2405 536.953 32.2405C536.72 32.2405 536.528 32.0637 536.32 31.8728C536.227 31.7872 536.13 31.6988 536.026 31.6222C535.858 31.4986 535.773 31.2513 535.773 30.8804C535.605 31.1277 535.436 31.375 535.099 31.4986C535.067 31.4986 535.047 31.5166 535.03 31.5321C535.003 31.557 534.983 31.575 534.931 31.4986C534.847 31.375 534.762 31.1277 534.762 31.004C534.51 30.3858 534.173 30.6331 533.836 30.8804C533.499 31.004 533.162 31.004 532.993 30.0149C532.656 30.6331 532.235 31.2513 531.898 30.6331C531.814 30.3858 531.73 30.1385 531.561 29.8912C531.309 29.5203 531.056 29.6439 530.803 29.7676C530.129 30.0148 529.539 29.8912 528.95 29.273C528.905 29.2399 528.866 29.2068 528.829 29.1761C528.73 29.092 528.652 29.0257 528.529 29.0257C528.382 29.0973 528.264 29.2935 528.158 29.4698C528.081 29.5979 528.01 29.7155 527.939 29.7676C527.749 29.8371 527.587 29.5938 527.42 29.3456C527.291 29.1524 527.16 28.9562 527.012 28.902C526.844 28.902 526.696 29.0875 526.549 29.273C526.401 29.4585 526.254 29.6439 526.086 29.6439C525.816 29.6439 525.619 29.2231 525.417 28.7923C525.239 28.4142 525.058 28.0285 524.822 27.9129C524.633 27.8202 524.443 27.9361 524.253 28.052C524.19 28.0906 524.127 28.1293 524.064 28.1602C523.811 28.2838 523.558 28.1602 523.306 28.0365C523.053 27.9129 522.8 27.8202 522.548 27.7274C522.295 27.6347 522.042 27.542 521.789 27.4183C521.537 27.2947 521.305 27.2019 521.073 27.1092C520.842 27.0165 520.61 26.9237 520.357 26.8001C520.315 26.8001 520.273 26.831 520.231 26.8619C520.189 26.8928 520.147 26.9237 520.105 26.9237C520.02 26.9237 519.936 26.8001 519.852 26.6764L519.768 26.5528C519.715 26.527 519.666 26.5012 519.619 26.4765C519.441 26.3829 519.294 26.3055 519.094 26.3055C519.051 26.3055 519.03 26.3364 519.009 26.3673C518.988 26.3982 518.967 26.4291 518.925 26.4291C518.869 26.5116 518.813 26.4841 518.757 26.4566C518.729 26.4429 518.7 26.4291 518.672 26.4291C518.546 26.3673 518.399 26.3364 518.251 26.3055C518.104 26.2746 517.956 26.2437 517.83 26.1819C517.237 25.9446 516.61 26.0614 515.993 26.1764C515.645 26.2412 515.3 26.3055 514.966 26.3055H514.881C514.629 26.3673 514.355 26.3982 514.081 26.4291C513.807 26.4601 513.534 26.491 513.281 26.5528C513.281 26.5528 513.197 26.5528 513.197 26.4291C512.86 26.3055 512.439 26.1819 512.102 26.1819C511.933 26.1819 511.744 26.2437 511.554 26.3055C511.365 26.3673 511.175 26.4291 511.006 26.4291C510.248 26.4291 509.49 26.4291 508.816 26.3055C508.142 26.1818 507.468 26.1818 506.71 26.3055C505.615 26.5528 504.52 26.6764 503.425 26.8001C503.34 26.8001 503.256 26.8001 503.172 26.6764C502.747 26.053 502.263 25.8662 501.769 25.6757C501.676 25.6395 501.581 25.6031 501.487 25.5636C501.234 25.44 501.066 25.44 500.813 25.9346C500.645 26.3055 500.476 26.3055 500.308 26.1819C500.213 26.1509 500.118 26.1181 500.023 26.0853C499.36 25.8553 498.697 25.6254 498.033 26.0582C497.781 26.3055 497.444 26.1819 497.191 25.9346C496.601 25.1927 496.012 25.3163 495.422 25.6873C495.001 25.9345 494.579 26.1819 494.158 26.5528C494.126 26.5528 494.094 26.5708 494.066 26.5863C494.022 26.6112 493.99 26.6292 493.99 26.5528C493.653 26.3055 493.232 26.5528 492.895 27.0474C492.726 27.2947 492.558 27.4183 492.389 27.171C492.136 26.9237 491.884 27.0474 491.631 27.2947C491.561 27.3359 491.491 27.3805 491.42 27.4251C491.069 27.6484 490.718 27.8717 490.367 27.6656C489.862 27.4183 489.441 27.6656 489.02 27.9129C488.851 28.0365 488.683 28.0365 488.43 27.9129C488.275 27.8675 488.121 27.8056 487.971 27.7452C487.711 27.6411 487.464 27.5419 487.25 27.5419C486.914 27.497 486.577 27.5174 486.24 27.5378C485.65 27.5736 485.06 27.6094 484.471 27.2946C483.839 26.9237 483.207 26.9701 482.575 27.0165C482.364 27.0319 482.154 27.0474 481.943 27.0474C481.766 27.0474 481.589 27.0807 481.413 27.1141C481 27.192 480.587 27.2699 480.174 26.9237C480.006 26.8001 479.837 26.8001 479.669 26.9237C479.5 27.171 479.332 27.171 479.248 26.9237C478.574 26.1818 477.9 25.9346 477.226 26.6764C477.057 26.8001 476.889 26.8001 476.805 26.8001C476.594 26.8001 476.362 26.831 476.131 26.8619C475.899 26.8928 475.667 26.9237 475.457 26.9237C475.204 26.9237 475.035 26.9237 474.783 26.8001L474.782 26.7995C474.529 26.676 474.277 26.5526 473.94 26.4291C473.772 26.3879 473.594 26.3879 473.413 26.3879C473.051 26.3879 472.677 26.3879 472.34 26.0582C472.281 25.972 472.181 26.006 472.098 26.0345C472.062 26.0469 472.028 26.0582 472.003 26.0582C471.582 26.0582 471.16 26.0582 470.739 26.1819C470.655 26.1819 470.486 26.3055 470.402 26.4291C470.318 26.5528 470.234 26.6764 470.065 26.6764C469.644 26.9237 469.139 27.171 468.717 27.2946C468.597 27.3299 468.471 27.3952 468.341 27.4621C468.015 27.6299 467.671 27.8072 467.37 27.5419C467.116 27.3931 466.893 27.3786 466.664 27.3638C466.512 27.3539 466.358 27.3439 466.19 27.2946C466.106 27.2946 466.022 27.2947 466.022 27.4183C465.769 27.7892 465.516 27.6656 465.264 27.4183C464.927 27.0474 464.505 27.171 464.168 27.6656C463.579 28.5311 462.989 28.6548 462.315 28.6548C462.163 28.6176 462.004 28.6139 461.841 28.6102C461.463 28.6016 461.068 28.5926 460.715 28.1602H460.63H459.367C459.277 28.1602 459.184 28.1681 459.089 28.1761C458.653 28.213 458.181 28.253 457.766 27.5419C457.682 27.4183 457.598 27.4183 457.598 27.5419C457.176 28.0365 456.755 28.5311 456.334 29.1493C456.165 29.3966 456.081 29.3966 455.913 29.273C455.868 29.2399 455.829 29.2067 455.792 29.176C455.693 29.092 455.615 29.0257 455.492 29.0257C455.407 29.0257 455.302 29.0566 455.197 29.0875C455.091 29.1184 454.986 29.1493 454.902 29.1493C454.779 29.1493 454.7 29.2156 454.601 29.2996C454.565 29.3303 454.526 29.3635 454.481 29.3966C454.144 30.2622 453.722 30.3858 453.217 30.2621C452.765 30.1792 452.274 30.2076 451.797 30.2352C451.563 30.2488 451.333 30.2621 451.111 30.2621C450.605 30.2621 450.1 30.3858 449.679 30.5094C449.384 30.5712 449.068 30.6639 448.753 30.7566L448.752 30.7567C448.436 30.8495 448.12 30.9422 447.826 31.004C447.489 31.1277 447.152 31.1277 446.815 31.1277C446.646 31.1277 446.478 31.1277 446.309 31.2513C445.383 31.8695 444.456 32.3641 443.529 31.9932C443.431 31.9932 443.332 32.0356 443.25 32.0708C443.192 32.0956 443.143 32.1168 443.108 32.1168C443.024 32.1168 442.94 32.1443 442.855 32.1718C442.687 32.2267 442.518 32.2817 442.35 32.1168C441.76 31.6222 441.171 31.3749 440.581 31.8695C440.401 32.0456 440.221 32.0963 440.011 32.1556C439.926 32.1795 439.836 32.2049 439.739 32.2404C439.317 32.3641 438.98 32.4878 438.643 33.106C438.559 33.2296 438.391 33.3533 438.307 33.3533C437.97 33.4769 437.633 33.5696 437.296 33.6624C436.959 33.7551 436.622 33.8479 436.285 33.9715H436.032C435.818 33.8537 435.604 33.7608 435.392 33.6691C434.938 33.4721 434.497 33.2805 434.094 32.8587C433.842 32.6114 433.589 32.6114 433.336 32.6114H432.41C432.348 32.6294 432.288 32.6475 432.23 32.6652C431.888 32.7685 431.59 32.8587 431.23 32.8587C431.146 32.8587 431.083 32.8278 431.02 32.7969C430.956 32.766 430.893 32.735 430.809 32.735C430.767 32.735 430.725 32.7273 430.683 32.7196C430.556 32.6964 430.43 32.6732 430.303 32.8587C430.051 33.4769 429.798 33.2296 429.63 32.735C429.588 32.6732 429.545 32.6037 429.503 32.5342C429.377 32.3255 429.251 32.1168 429.124 32.1168C428.845 32.1168 428.566 32.2865 428.239 32.4853L428.238 32.4857C428.171 32.5268 428.101 32.5691 428.029 32.6114C427.861 32.735 427.692 32.8587 427.439 32.735L427.401 32.6977C427.154 32.4533 426.837 32.1412 426.597 32.6114C426.546 32.6856 426.496 32.6262 426.445 32.5669C426.411 32.5273 426.378 32.4878 426.344 32.4878C426.296 32.4597 426.247 32.4301 426.198 32.3999C425.809 32.1643 425.37 31.8976 424.996 32.1168C424.322 32.3641 423.648 32.6114 422.974 31.7459C422.932 31.6841 422.869 31.6841 422.806 31.684C422.743 31.684 422.68 31.684 422.638 31.6222C422.343 31.514 422.048 31.5715 421.753 31.629C421.374 31.7029 420.995 31.7768 420.616 31.4986H420.531H419.773C419.672 31.4986 419.571 31.459 419.47 31.4195C419.319 31.3601 419.167 31.3007 419.015 31.3749C418.658 31.5844 418.362 31.3502 418.075 31.1234C418.023 31.0825 417.971 31.0418 417.92 31.004C417.751 30.8804 417.499 30.8804 417.33 30.8804C417.12 30.8185 416.909 30.7876 416.699 30.7567C416.488 30.7258 416.277 30.6949 416.067 30.6331C415.94 30.6331 415.814 30.5713 415.688 30.5094C415.561 30.4476 415.435 30.3858 415.309 30.3858C415.196 30.3858 415.084 30.3995 414.972 30.4132C414.747 30.4407 414.522 30.4682 414.298 30.3858C414.196 30.3858 414.125 30.2951 414.047 30.1961C413.996 30.1316 413.943 30.0636 413.876 30.0149C413.708 29.6439 413.54 29.5203 413.287 29.7675C412.853 30.2977 412.482 30.1914 412.066 30.0723C411.997 30.0526 411.927 30.0325 411.855 30.0149C411.686 29.8912 411.518 29.7675 411.349 29.7675C410.97 29.7057 410.57 29.6439 410.17 29.5821C409.77 29.5203 409.37 29.4585 408.99 29.3966C408.654 29.3966 408.401 29.3966 408.064 29.273C407.222 29.1493 406.379 29.3966 405.537 29.7675C405.284 29.8912 405.115 29.8912 404.863 29.6439C404.61 29.273 404.273 29.3966 404.02 29.7675C403.852 29.8912 403.767 29.8912 403.599 29.8912C403.515 29.8912 403.409 29.8603 403.304 29.8294C403.199 29.7985 403.094 29.7675 403.009 29.7675C402.757 29.7675 402.504 29.8294 402.251 29.8912C401.998 29.953 401.746 30.0149 401.493 30.0149C401.364 29.9833 401.224 29.9033 401.078 29.8202C400.654 29.5781 400.185 29.3099 399.808 30.1385C399.64 30.5094 399.471 30.6331 399.219 30.6331C398.797 30.6331 398.292 30.6331 397.871 30.8804C397.618 30.9545 397.365 31.1622 397.113 31.3699C396.944 31.5084 396.776 31.6469 396.607 31.7459C396.504 31.7964 396.404 31.852 396.307 31.9064C395.926 32.1188 395.577 32.3136 395.175 32.1168C394.669 31.8695 394.164 31.8695 393.659 32.3641C392.985 32.9823 392.311 33.106 391.637 32.9823H391.216C390.71 33.2296 390.121 33.4769 389.615 33.6006C389.194 33.7242 388.773 33.8479 388.351 34.3424C387.93 34.837 387.425 35.0843 386.919 34.7133C386.582 34.4661 386.245 34.3424 385.993 34.5897C385.403 35.0843 384.729 35.5789 384.139 35.4552C384.139 35.4552 384.055 35.4552 384.055 35.5789C383.802 36.3208 383.55 36.1971 383.297 35.7025C383.213 35.5789 383.128 35.5789 383.128 35.5789C382.665 35.5789 382.223 35.548 381.781 35.5171C381.338 35.4861 380.896 35.4552 380.433 35.4552H380.349C380.001 35.3915 379.654 35.3606 379.294 35.3287C378.957 35.2987 378.61 35.2678 378.242 35.2079C378.242 35.2079 378.158 35.2079 378.158 35.0843C377.653 34.837 377.147 34.7134 376.558 34.5897C376.305 34.5279 376.073 34.497 375.842 34.4661C375.61 34.4352 375.378 34.4043 375.126 34.3424C374.999 34.3424 374.852 34.3733 374.704 34.4043C374.557 34.4352 374.41 34.4661 374.283 34.4661C373.862 34.5897 373.441 34.7134 373.02 34.5897C372.43 34.5897 371.756 34.4661 371.166 34.3424C370.492 34.2188 369.818 34.0951 369.06 33.8478C368.47 33.6005 367.965 33.6005 367.375 34.2188C367.291 34.3424 367.207 34.3424 367.207 34.3424L365.185 34.7133C364.906 34.7133 364.685 34.6285 364.425 34.5291C364.372 34.5085 364.316 34.4873 364.259 34.4661C364.174 34.4661 364.069 34.4043 363.964 34.3424C363.858 34.2806 363.753 34.2188 363.669 34.2188C363.377 34.2473 363.085 34.2956 362.794 34.3439C361.822 34.5049 360.85 34.6658 359.878 34.0951C359.12 34.0951 358.362 34.0951 357.519 34.7133C357.351 34.837 357.182 34.837 357.014 34.837C356.593 34.837 356.256 34.837 355.834 34.7133C355.708 34.7133 355.561 34.6515 355.413 34.5897C355.266 34.5279 355.118 34.4661 354.992 34.4661C354.913 34.437 354.838 34.4012 354.766 34.3665C354.532 34.2536 354.323 34.1532 354.065 34.3424C353.644 34.7134 353.223 34.837 352.717 34.3424C352.659 34.2562 352.559 34.2902 352.476 34.3187C352.439 34.3311 352.406 34.3424 352.381 34.3424C352.22 34.376 352.067 34.4187 351.915 34.4606C351.51 34.573 351.125 34.6798 350.696 34.5897C349.853 34.3424 348.927 34.0951 348.084 34.3424C347.895 34.4352 347.705 34.3193 347.516 34.2034C347.452 34.1647 347.389 34.1261 347.326 34.0951C347.2 34.0333 347.094 33.9715 346.989 33.9097C346.884 33.8479 346.778 33.786 346.652 33.7242C346.441 33.6624 346.231 33.6315 346.02 33.6005C345.81 33.5696 345.599 33.5387 345.389 33.4769C345.136 33.4769 344.967 33.7242 344.883 34.3424C344.883 34.4873 344.854 34.5897 344.83 34.6746C344.813 34.7346 344.799 34.7858 344.799 34.837C344.672 34.7134 344.567 34.5588 344.472 34.4197C344.378 34.2806 344.293 34.157 344.209 34.0951C344.072 34.0282 343.935 33.9975 343.785 33.9638C343.658 33.9352 343.521 33.9045 343.367 33.8478H342.777C342.021 33.0159 341.16 32.7282 340.296 32.4398C339.619 32.2138 338.941 31.9875 338.312 31.4986C338.06 31.2513 337.807 31.1276 337.554 31.1276H337.301C337.259 31.1276 337.196 31.0967 337.133 31.0658C337.07 31.0349 337.006 31.004 336.964 31.004C336.627 30.7567 336.375 30.7567 336.038 30.7567C336.003 30.7567 335.968 30.7355 335.927 30.7106C335.869 30.6755 335.799 30.6331 335.701 30.6331C335.279 30.6331 334.774 30.6331 334.353 30.5094C333.763 30.3858 333.174 30.2621 332.584 30.8804C332.528 30.9628 332.472 30.9353 332.415 30.9078C332.387 30.8941 332.359 30.8804 332.331 30.8804C331.898 30.3507 331.403 30.3656 330.9 30.3807C330.815 30.3832 330.731 30.3858 330.646 30.3858C330.523 30.3858 330.4 30.3195 330.243 30.2355C330.186 30.2047 330.124 30.1716 330.057 30.1385C329.635 29.6439 329.214 29.1493 328.709 29.1493C328.456 29.1493 328.203 29.1493 327.866 29.0257C326.434 28.5311 325.002 28.5311 323.57 28.5311C323.471 28.5311 323.373 28.5735 323.291 28.6087C323.233 28.6335 323.184 28.6547 323.149 28.6547C322.306 29.0257 321.464 29.0257 320.706 28.4074C320.369 28.1601 320.032 28.1601 319.695 28.4074C319.527 28.5311 319.358 28.5311 319.274 28.5311C318.989 28.5907 318.705 28.6216 318.43 28.6514C318.135 28.6835 317.851 28.7143 317.589 28.7784H317.168C317.041 28.7165 316.894 28.5929 316.747 28.4693C316.599 28.3456 316.452 28.222 316.325 28.1602C315.879 28.0783 315.47 28.1048 315.049 28.1321C314.834 28.146 314.616 28.1602 314.388 28.1602H313.04C312.661 28.1602 312.282 28.1293 311.903 28.0983C311.524 28.0674 311.144 28.0365 310.765 28.0365C310.597 28.0365 310.45 28.0674 310.302 28.0983C310.155 28.1293 310.007 28.1602 309.839 28.1602C309.165 28.1602 308.407 28.0365 307.733 27.9129C307.564 27.9129 307.396 27.9129 307.227 27.7892C306.848 27.6038 306.49 27.3874 306.132 27.171C305.774 26.9546 305.416 26.7382 305.037 26.5528C304.868 26.4291 304.616 26.4291 304.447 26.4291H303.858H303.521C303.268 26.4291 303.1 26.4291 302.847 26.3055C302.665 26.2609 302.482 26.2002 302.304 26.1409C301.988 26.0357 301.684 25.9346 301.415 25.9346C301.282 25.9346 301.137 25.9726 300.989 26.0114C300.76 26.0715 300.524 26.1333 300.319 26.0582C300.067 25.9964 299.835 25.9036 299.603 25.8109C299.372 25.7182 299.14 25.6254 298.887 25.5636C298.635 25.5636 298.382 25.5636 298.129 25.6872C298.027 25.7247 297.933 25.8073 297.842 25.8874C297.632 26.0718 297.438 26.2421 297.203 25.8109C297.146 25.7285 297.09 25.7559 297.034 25.7834C297.006 25.7972 296.978 25.8109 296.95 25.8109H296.192C296.107 25.8109 295.939 25.8109 295.855 25.9346C295.518 26.5528 295.181 26.4291 294.844 26.3055C294.723 26.2165 294.601 26.2555 294.512 26.2844C294.477 26.2957 294.446 26.3055 294.423 26.3055C294.314 26.3231 294.206 26.3433 294.098 26.3635C293.448 26.4846 292.798 26.6057 292.148 26.1818C291.98 26.0582 291.811 26.0582 291.727 26.0582C291.221 25.9345 290.695 25.8109 290.168 25.6873L290.167 25.6869C289.641 25.5633 289.115 25.4398 288.61 25.3163C288.441 25.3163 288.273 25.3163 288.189 25.44C287.852 25.6872 287.599 25.5636 287.262 25.1927C286.925 24.8217 286.672 24.8218 286.335 25.069C285.998 25.3163 285.662 25.44 285.24 25.1927C285.212 25.1927 285.184 25.1789 285.156 25.1652C285.1 25.1377 285.044 25.1102 284.988 25.1927C284.651 25.2545 284.314 25.2854 283.977 25.3163C283.64 25.3472 283.303 25.3781 282.966 25.44C282.882 25.44 282.713 25.4399 282.629 25.3163C282.292 24.8217 281.955 24.8217 281.702 24.9454C281.112 25.069 280.523 24.8217 279.933 24.2035C279.587 23.7804 279.202 23.5889 278.804 23.3913C278.621 23.3002 278.434 23.2078 278.248 23.0907C277.827 22.8434 277.49 22.967 277.069 23.2143C276.954 23.2988 276.799 23.2678 276.659 23.2398C276.594 23.2267 276.533 23.2143 276.479 23.2143C276.142 23.1525 275.826 23.0289 275.511 22.9052C275.195 22.7816 274.879 22.6579 274.542 22.5961C274.331 22.5343 274.142 22.5343 273.952 22.5343C273.763 22.5343 273.573 22.5343 273.362 22.4725H272.52C272.282 22.5161 272.044 22.5752 271.81 22.6334C271.38 22.74 270.964 22.8434 270.582 22.8434C270.133 22.8434 269.684 22.7335 269.234 22.6236C269.01 22.5686 268.785 22.5137 268.561 22.4725C268.32 22.4018 268.079 22.311 267.838 22.2201C267.237 21.993 266.635 21.7659 266.033 21.8543H265.528V22.1015H265.444H265.359V21.8543C265.307 21.9307 265.255 21.9599 265.183 22.0002C265.139 22.0251 265.087 22.0543 265.022 22.1015C264.854 22.2252 264.601 22.3488 264.433 22.2252C264.413 22.2203 264.393 22.2153 264.373 22.2101C264.338 22.2011 264.303 22.1918 264.268 22.1824C263.802 22.0585 263.283 21.9205 262.832 22.4725H262.748L262.747 22.4723C262.242 22.3487 261.737 22.2251 261.232 21.9779C260.473 21.607 259.715 21.8542 258.957 22.2252C258.704 22.3488 258.431 22.4415 258.157 22.5343C257.883 22.627 257.609 22.7197 257.357 22.8434C257.188 22.8434 257.02 22.7198 256.851 22.5961C256.806 22.563 256.767 22.5298 256.731 22.4991C256.631 22.4151 256.553 22.3488 256.43 22.3488C255.84 22.1015 255.25 21.8542 254.661 21.7306C254.439 21.6494 254.254 21.6748 254.058 21.7019C253.955 21.716 253.85 21.7306 253.734 21.7306C253.229 21.7306 252.723 21.9779 252.218 22.2252C252.067 22.3137 251.905 22.323 251.741 22.3325C251.446 22.3495 251.14 22.3671 250.87 22.8434H250.786C250.605 22.8055 250.416 22.8141 250.224 22.8228C249.79 22.8426 249.341 22.8631 248.932 22.3488C248.848 22.2252 248.764 22.2252 248.764 22.3488C248.259 22.4725 247.837 22.2252 247.332 21.8543L247.332 21.8542C246.826 21.4833 246.321 21.1124 245.816 22.2252C245.731 22.3488 245.563 22.3488 245.479 22.2252C245.415 22.1943 245.352 22.1556 245.289 22.117C245.1 22.0011 244.91 21.8852 244.72 21.9779C244.299 22.1015 243.962 21.8543 243.625 21.4833C243.541 21.3597 243.373 21.3597 243.288 21.3597C242.867 21.4833 242.446 21.7306 242.025 21.9779C241.772 22.1015 241.519 22.2252 241.266 22.2252C241.061 22.3005 240.864 22.3644 240.669 22.4272C240.226 22.5707 239.798 22.7091 239.329 22.9671C239.034 23.0853 238.747 23.2539 238.463 23.4206C237.857 23.7768 237.264 24.1247 236.633 23.9562C236.51 23.9562 236.386 24.0225 236.23 24.1066C236.173 24.1373 236.111 24.1704 236.043 24.2035C235.959 24.2653 235.875 24.2962 235.791 24.3271C235.707 24.3581 235.622 24.389 235.538 24.4508C235.159 24.5744 234.801 24.729 234.443 24.8836C234.085 25.0381 233.727 25.1927 233.348 25.3163C233.011 25.4399 232.674 25.5636 232.253 25.6872H232.252C231.579 25.6872 230.989 25.6872 230.315 25.5636H230.062C229.22 25.069 228.378 24.8218 227.535 25.069C227.451 25.069 227.282 25.069 227.198 24.8217C226.777 23.8326 226.272 24.0799 225.766 24.3272C225.343 24.5047 224.963 24.8098 224.595 25.1051L224.595 25.1052C224.45 25.221 224.308 25.3354 224.166 25.44H223.913C223.744 25.3163 223.576 25.44 223.407 25.8109C223.239 26.3055 222.986 26.4291 222.733 26.0582C222.565 25.6872 222.312 25.8109 222.144 26.1818L222.143 26.1821C221.975 26.4292 221.891 26.5528 221.723 26.5528C221.217 26.5528 220.712 26.6764 220.122 27.171C219.886 27.4016 219.651 27.5516 219.423 27.6961C219.163 27.8615 218.915 28.0198 218.69 28.2838C218.566 28.3878 218.442 28.4809 218.319 28.5733C217.856 28.9206 217.404 29.2597 217.005 30.1385C216.939 30.3315 216.873 30.3739 216.768 30.442C216.738 30.4611 216.705 30.4823 216.668 30.5094C216.484 30.6443 216.3 30.8068 216.117 30.9692L216.116 30.9693C215.626 31.4026 215.136 31.8358 214.646 31.7459C214.604 31.7459 214.583 31.7768 214.562 31.8077C214.541 31.8386 214.52 31.8695 214.478 31.8695C214.267 31.9313 214.078 32.024 213.888 32.1168C213.699 32.2095 213.509 32.3023 213.298 32.3641C213.214 32.3641 213.046 32.4877 212.961 32.6114C212.709 33.1059 212.456 33.106 212.203 32.8587C212.035 32.735 211.866 32.735 211.782 32.735C211.529 32.735 211.277 32.735 211.024 32.6114C210.969 32.5844 210.909 32.5456 210.848 32.5053L210.848 32.5052C210.628 32.361 210.379 32.1979 210.182 32.4877C210.182 32.4877 210.097 32.4877 210.013 32.3641C209.887 32.2404 209.781 32.1168 209.676 31.9931C209.571 31.8695 209.465 31.7458 209.339 31.6222C209.171 31.4986 209.002 31.4986 208.75 31.4986H208.75C208.707 31.4986 208.665 31.5295 208.623 31.5604C208.581 31.5913 208.539 31.6222 208.497 31.6222C207.486 31.6222 206.475 31.4986 205.548 30.5094C205.211 30.1385 204.874 30.0148 204.537 30.1385C204.285 30.2621 204.116 30.2621 203.864 30.2621C203.175 30.2621 202.556 30.1601 201.88 30.0487L201.673 30.0148H200.747C200.452 30.0148 200.178 29.9839 199.904 29.953C199.63 29.9221 199.357 29.8912 199.062 29.8912C198.978 29.8912 198.809 30.0148 198.725 30.1385C198.472 30.8803 198.219 30.7567 197.967 30.6331C197.63 30.5094 197.208 30.3858 196.871 30.6331C196.568 30.9676 196.195 31.101 195.878 31.2146C195.843 31.227 195.809 31.2392 195.776 31.2513C195.244 30.5816 194.643 30.718 194.097 30.8418C194.059 30.8504 194.021 30.859 193.984 30.8673C193.963 30.8717 193.943 30.8761 193.923 30.8803C193.249 31.004 192.575 31.004 191.901 31.004C190.89 30.8804 189.879 30.5094 188.868 29.8912C188.782 29.8594 188.673 29.7866 188.553 29.7066C188.207 29.4758 187.771 29.1848 187.521 29.6439C187.437 29.5203 187.352 29.5202 187.268 29.5202C187.24 29.5202 187.212 29.5065 187.184 29.4928C187.128 29.4653 187.071 29.4378 187.015 29.5202C186.931 29.5202 186.847 29.5203 186.762 29.6439C186.678 29.5203 186.594 29.5202 186.51 29.5202C186.383 29.4584 186.257 29.4584 186.12 29.4584C185.983 29.4584 185.836 29.4584 185.667 29.3966C185.583 29.3966 185.415 29.273 185.33 29.0257C185.129 28.4337 184.873 28.4715 184.607 28.511C184.54 28.521 184.472 28.5311 184.404 28.5311H183.898C183.519 28.4074 183.161 28.222 182.803 28.0365C182.445 27.851 182.087 27.6656 181.708 27.5419C181.483 27.4595 181.259 27.4045 181.034 27.3496C180.585 27.2397 180.136 27.1298 179.686 26.8001C179.262 26.411 178.805 26.1199 178.356 25.8342C178.092 25.666 177.83 25.4996 177.58 25.3163C177.328 25.1308 177.096 24.9454 176.864 24.7599C176.632 24.5744 176.401 24.389 176.148 24.2035C175.558 23.7089 174.884 23.5853 174.211 23.5853C173.958 23.5853 173.621 23.4616 173.368 23.338C173.284 23.2968 173.2 23.2418 173.115 23.1869C172.947 23.077 172.778 22.967 172.61 22.967C172.405 22.967 172.214 22.8451 172.025 22.7248C171.749 22.5484 171.478 22.3756 171.178 22.5961C171.094 22.5961 171.009 22.5961 171.009 22.4724L170.955 22.4194C170.462 21.9354 169.893 21.3772 169.325 21.8543C169.24 21.9779 169.072 21.8542 168.988 21.7306C168.393 21.5366 167.85 21.6469 167.278 21.7632C167.121 21.7951 166.961 21.8276 166.797 21.8543C166.597 21.8543 166.45 21.7768 166.272 21.6832L166.272 21.6832C166.225 21.6585 166.176 21.6327 166.123 21.6069C166.071 21.5812 166.022 21.5554 165.975 21.5307L165.975 21.5306C165.797 21.437 165.65 21.3597 165.45 21.3597C165.281 21.3597 165.028 21.3596 164.944 20.8651C164.815 20.4872 164.637 20.398 164.486 20.3219C164.439 20.2983 164.394 20.276 164.354 20.2468C164.186 20.185 164.038 20.0923 163.891 19.9995C163.744 19.9068 163.596 19.8141 163.428 19.7523C163.343 19.711 163.259 19.6286 163.175 19.5462C163.007 19.3813 162.838 19.2165 162.67 19.3813C162.08 19.7523 161.574 19.505 161.069 19.2577H160.901C160.816 19.1959 160.732 19.165 160.648 19.134C160.564 19.1031 160.479 19.0722 160.395 19.0104L158.12 17.8976C157.966 17.8328 157.806 17.785 157.643 17.7363C157.183 17.5994 156.702 17.4559 156.267 16.9084C156.109 16.6762 155.918 16.5409 155.735 16.4114L155.735 16.4114C155.625 16.3341 155.519 16.259 155.425 16.1665C155.156 15.9414 154.888 15.87 154.627 15.8007C154.316 15.7178 154.015 15.6379 153.74 15.3011C153.458 15.0054 153.157 15.0208 152.855 15.0362C152.525 15.0531 152.195 15.0699 151.887 14.6828H151.718C151.55 14.6828 151.465 14.6828 151.297 14.5592C151.173 14.5138 151.061 14.4519 150.952 14.3916C150.763 14.2874 150.584 14.1883 150.37 14.1883C149.991 14.1264 149.612 14.0955 149.233 14.0646C148.854 14.0337 148.475 14.0028 148.096 13.941C148.012 13.941 147.843 13.8173 147.759 13.6936C147.422 13.1991 147.001 13.0754 146.664 13.1991C145.929 13.3789 145.193 13.0356 144.458 12.6922C144.183 12.5635 143.907 12.4347 143.631 12.3335C143.499 12.3335 143.367 12.1051 143.275 11.947C143.25 11.9036 143.228 11.8656 143.21 11.839C143.134 11.7652 143.067 11.6914 143.002 11.621L143.001 11.6207C142.849 11.455 142.713 11.3075 142.536 11.2207C142.207 11.0829 141.879 10.9835 141.535 10.8796C141.263 10.7972 140.981 10.712 140.683 10.6025C140.346 10.4789 139.924 10.3552 139.588 10.4789C138.829 10.6025 138.155 10.4789 137.397 10.1079C137.144 9.9843 136.808 9.86069 136.555 9.86069C136.134 9.86069 135.712 9.86065 135.375 9.48972C135.207 9.36607 135.038 9.36607 134.954 9.48972C134.73 9.65458 134.505 9.59963 134.28 9.54467C134.168 9.5172 134.056 9.48972 133.943 9.48972C133.879 9.47614 133.813 9.46257 133.746 9.44883C133.207 9.33744 132.615 9.21529 132.09 8.99515C131.416 8.74786 130.742 8.62419 130.068 8.74784C129.816 8.87148 129.731 8.74787 129.647 8.50058H129.394C129.235 8.50058 129.076 8.44545 128.908 8.38725C128.72 8.32218 128.522 8.25327 128.299 8.25327C128.096 8.25327 127.888 8.22938 127.678 8.20523C126.932 8.11949 126.158 8.03044 125.435 8.99515C125.351 9.1188 125.182 9.2424 125.098 9.2424C124.593 9.36605 124.003 9.61336 123.497 10.1079C123.076 10.4789 122.655 10.4788 122.234 10.3552C122.047 10.2866 121.834 10.3701 121.61 10.4581C121.43 10.5289 121.242 10.6025 121.054 10.6025C120.844 10.6643 120.633 10.6643 120.423 10.6643C120.212 10.6643 120.001 10.6643 119.791 10.7262C119.285 10.7262 118.696 10.7262 118.19 10.8498L116.674 11.2207H115.916C115.495 11.0971 115.073 10.9735 114.652 10.9735L114.578 10.9515C114.191 10.8365 113.869 10.7409 113.473 10.9735C113.389 11.0971 113.22 10.9735 113.052 10.8498C112.546 10.4789 112.041 10.6025 111.535 10.9735C110.945 11.3444 110.272 11.5917 109.598 11.7154C109.092 11.7772 108.587 11.7772 108.081 11.7772C107.576 11.7771 107.07 11.7771 106.565 11.839C106.286 11.839 106.007 11.9238 105.68 12.0232C105.612 12.0438 105.542 12.065 105.47 12.0863C104.627 12.3336 103.785 12.4572 102.858 12.5808C102.269 12.7045 101.679 12.7045 101.089 12.7045C100.681 12.7445 100.264 12.7973 99.8437 12.8506C98.9635 12.9621 98.0696 13.0754 97.2142 13.0754C97.0908 13.0754 96.9601 13.0435 96.8264 13.0109C96.504 12.9323 96.1642 12.8495 95.8665 13.1991L95.8664 13.1992C95.6137 13.4464 95.361 13.6937 95.0241 13.9409C94.6029 14.3119 94.1816 14.3119 93.7605 14.3119H93.7604C93.4234 14.2294 93.0864 14.2569 92.7495 14.2844C92.581 14.2981 92.4125 14.3119 92.244 14.3119C91.6545 14.3119 91.0649 14.4355 90.4754 14.5591L90.475 14.5592C90.3907 14.5592 90.3064 14.5592 90.2222 14.6828C89.801 15.3011 89.3797 15.3011 88.9585 15.3011C88.2003 15.3011 87.5265 15.4247 86.7683 15.7956C86.3471 15.9193 86.0102 15.7956 85.589 15.5483C85.0835 15.1774 84.4939 15.1774 83.9884 15.5483C83.483 15.9192 82.9775 16.1666 82.4721 15.3011C82.4096 15.1176 82.3007 15.1383 82.1799 15.1612C82.1378 15.1691 82.0943 15.1774 82.0508 15.1774C81.8823 15.1774 81.6297 15.301 81.4612 15.4247C81.3676 15.4521 81.274 15.4918 81.1804 15.5315C80.8528 15.6704 80.5251 15.8093 80.1975 15.4247C80.0763 15.3357 79.9551 15.3747 79.8653 15.4036C79.8302 15.4149 79.7999 15.4247 79.7763 15.4247C79.5235 15.5483 79.1866 15.672 78.9338 15.672C78.8496 15.672 78.7654 15.672 78.7654 15.7956C78.5908 16.3082 78.376 16.2895 78.1488 16.2698C78.0472 16.261 77.943 16.252 77.8389 16.2902C77.4646 16.3687 77.1243 16.5467 76.7748 16.7296L76.7747 16.7297C76.5736 16.8349 76.3695 16.9417 76.1541 17.0321C75.9013 17.1557 75.7327 17.1557 75.48 17.1557H74.8904C74.4692 17.403 74.0479 17.2794 73.6267 17.0321C73.5425 16.9084 73.374 16.9084 73.2898 16.9084C72.7001 17.0321 72.0262 16.7848 71.4365 16.5375C71.1838 16.4139 70.9311 16.7848 70.6784 17.1557C70.3414 17.6503 70.3414 17.6503 70.0886 16.9084C70.0044 16.6611 69.8358 16.4138 69.6674 16.4138C69.3725 16.4138 69.0777 16.4448 68.7828 16.4757C68.488 16.5066 68.1932 16.5375 67.8983 16.5375C67.8661 16.5375 67.834 16.5555 67.8065 16.571C67.762 16.5959 67.7299 16.6139 67.7299 16.5375C67.0554 16.3395 66.435 16.9341 65.782 17.5598C65.6194 17.7156 65.4548 17.8733 65.2869 18.0212C64.8657 18.3922 64.3603 18.5158 63.8549 18.6394L63.8549 18.6394C63.6527 18.6889 63.4505 18.6988 63.2483 18.7087C62.9451 18.7235 62.6418 18.7384 62.3385 18.8867L62.3382 18.8869L62.3382 18.8869C61.5801 19.2578 60.822 19.6287 60.064 20.1232C59.6428 20.3705 59.3057 20.4941 58.9688 20.3705C58.3791 20.1232 57.7894 19.9996 57.1997 19.9996C57.0593 19.9996 56.9189 19.9721 56.7785 19.9446C56.4977 19.8897 56.217 19.8347 55.9362 19.9996C55.902 20.0497 55.8541 20.0592 55.8035 20.0692C55.7292 20.0839 55.6492 20.0997 55.5991 20.2468C55.3838 20.7735 55.2296 20.7618 55.0324 20.7467C54.9982 20.7441 54.9626 20.7414 54.9252 20.7414C54.4197 20.7414 53.9143 20.6178 53.4088 20.3705C52.9876 20.2468 52.6507 20.2468 52.2295 20.3705C51.6398 20.3705 51.1344 20.1232 50.6289 19.3813C50.4604 19.134 50.2919 19.0104 50.1234 19.0104C50.0547 19.0104 49.9838 19.0071 49.9113 19.0037C49.5396 18.9865 49.1281 18.9674 48.7756 19.3813C48.6914 19.505 48.5228 19.505 48.4386 19.505C48.403 19.5154 48.368 19.5259 48.3335 19.5362C47.9598 19.6477 47.6448 19.7418 47.2592 19.6286C46.8578 19.4977 46.4564 19.6787 46.0551 19.8597C45.6983 20.0205 45.3415 20.1814 44.9847 20.1232C44.886 20.1232 44.7874 20.0808 44.7056 20.0456C44.6478 20.0208 44.5985 19.9996 44.5636 19.9996C44.4086 19.9617 44.2457 19.9121 44.0797 19.8616C43.7044 19.7475 43.3135 19.6286 42.963 19.6286C42.626 19.6286 42.2891 19.6286 42.0364 19.2577C41.6994 18.8867 41.3623 18.8867 41.1096 19.0104C40.9411 19.134 40.857 19.134 40.6885 19.134C40.4077 18.9692 40.1269 19.0241 39.8461 19.0791C39.7057 19.1066 39.5653 19.134 39.4249 19.134C39.088 19.2577 38.7509 19.2577 38.4139 19.2577C38.077 19.2577 37.74 19.2268 37.403 19.1959C37.066 19.1649 36.7291 19.134 36.3921 19.134H36.3079C35.4992 18.5945 34.7548 18.8083 33.9626 19.0358L33.9624 19.0359C33.8468 19.0691 33.7303 19.1026 33.6123 19.134C33.5281 19.134 33.3595 19.134 33.2753 19.3813C32.9877 19.9088 32.7616 19.8962 32.492 19.8811H32.492C32.4457 19.8785 32.3981 19.8759 32.3486 19.8759C32.0117 19.8759 31.6746 19.9995 31.3377 20.1232C31.2253 20.1232 31.113 20.1369 31.0007 20.1507C30.7761 20.1781 30.5514 20.2056 30.3268 20.1232C29.9056 19.9995 29.5687 19.9996 29.1475 20.4941C28.979 20.6178 28.8947 20.6178 28.7263 20.6178H28.7262C28.2208 20.4941 27.7153 20.3705 27.2098 20.7414C27.0298 20.9175 26.8499 20.9682 26.6394 21.0275C26.5544 21.0514 26.4644 21.0768 26.3674 21.1124H26.3674C26.3351 21.1124 26.3151 21.1124 26.2981 21.1194C26.2708 21.1306 26.2509 21.1598 26.199 21.2359L26.199 21.236C25.7778 21.8542 25.3565 21.8542 24.8511 21.8542C24.6826 21.8542 24.5141 21.9641 24.3456 22.074L24.3456 22.0741C24.2614 22.129 24.1771 22.1839 24.0929 22.2252C23.2505 22.5961 22.4923 22.8434 21.6499 23.0907C21.4814 23.0907 21.313 23.2143 21.2288 23.338C20.6391 23.8326 20.0493 23.7089 19.4596 23.5853L17.4379 23.2143C17.3358 23.2143 17.2647 23.305 17.187 23.404C17.1364 23.4685 17.0831 23.5365 17.0166 23.5853C16.646 22.2798 16.1451 22.4101 15.6284 22.5445C15.5579 22.5628 15.487 22.5812 15.4161 22.5961C15.161 22.6897 14.8575 22.9252 14.5789 23.1414L14.5788 23.1414C14.4895 23.2107 14.4028 23.278 14.321 23.338C14.2516 23.372 14.1757 23.4153 14.097 23.4603C13.8894 23.5789 13.6619 23.7089 13.4786 23.7089C13.1417 23.7089 12.889 23.8326 12.6362 24.3271C12.4678 24.6981 12.2992 24.8217 12.1307 24.6981C11.7095 24.5744 11.2042 24.9453 10.783 25.3163C10.7504 25.3322 10.7191 25.3482 10.689 25.3636C10.4853 25.4677 10.329 25.5476 10.1089 25.4399C9.68768 25.1926 9.26655 25.069 8.84534 24.9454C8.59262 24.9454 8.33987 25.069 8.17139 25.1926C7.41322 25.8109 6.65502 25.6872 5.89685 25.5636C5.66424 25.5636 5.47183 25.3868 5.26412 25.196L5.2641 25.196C5.17093 25.1104 5.07468 25.0219 4.97034 24.9454C4.54913 24.4508 4.12789 24.4508 3.62244 24.4508C3.41965 24.5004 3.20329 24.5102 2.98426 24.5201C2.65737 24.5349 2.32451 24.55 2.02185 24.6981C1.57257 24.9454 1.12325 24.8629 0.673941 24.7805C0.449291 24.7393 0.224643 24.6981 2.78427e-06 24.6981L-4.64315e-08 57.0001Z" fill="#F3F2F7"/>
</svg>
