<svg width="200" height="88" viewBox="0 0 200 88" fill="none" xmlns="http://www.w3.org/2000/svg">
<g clip-path="url(#clip0)">
<path d="M194.26 29.8209C197.398 29.8281 199.733 27.6119 199.74 24.5907C199.747 21.5696 197.51 19.6107 194.551 19.6045C191.503 19.5973 189.078 21.8135 189.071 24.8347C189.065 27.7652 191.213 29.8137 194.26 29.8209Z" fill="#574EFF"/>
<path d="M182.358 60.9768C179.758 60.9706 177.337 61.3216 171.42 61.3082C167.476 61.3 166.225 59.6088 166.23 57.299C166.234 55.611 166.863 54.4571 167.942 53.5719C170.449 54.5549 173.227 55.0942 176.275 55.1004C187.122 55.1241 193.587 49.8962 193.606 41.6349C193.614 37.9921 192.097 34.7014 189.144 32.2969C189.144 32.2969 188.161 31.4065 186.728 30.6037C183.952 29.0875 180.459 28.191 176.334 28.1817C166.294 28.1601 159.2 34.0076 159.183 41.3817C159.173 45.8242 161.227 49.293 164.448 51.61C161.397 53.3804 159.149 56.3068 159.141 59.6829C159.126 66.6123 164.678 69.023 171.67 69.0384C174.09 69.0436 177.945 68.7862 180.456 68.7914C185.565 68.8027 187.803 70.1398 187.796 73.5159C187.788 76.536 184.823 79.9059 177.204 79.8895C171.646 79.8771 169.143 76.8509 167.265 74.9817C165.834 73.4686 164.671 72.3106 162.61 72.3065C160.549 72.3024 159.021 73.8978 159.016 75.941C159.01 78.0727 160.71 79.8534 163.397 81.0145C166.71 82.5317 171.818 83.6094 177.016 83.6207C189.656 83.6485 196.212 78.0655 196.229 70.6925C196.244 64.3838 191.322 60.9974 182.358 60.9768ZM175.609 32.089C180.809 32.1003 184.473 36.9947 184.458 43.3024C184.448 47.8334 182.109 51.5596 177.089 51.5482C172.069 51.5369 168.495 46.3769 168.509 40.2463C168.52 35.7163 170.68 32.0787 175.609 32.089Z" fill="#574EFF"/>
<path d="M114.095 68.1118L124.672 68.1355C127.092 68.1407 128.259 67.6105 128.262 66.0995C128.267 63.8782 123.875 63.7805 123.882 60.6709L123.913 46.5445C123.928 39.9703 127.346 34.7362 133.441 34.7496C138.731 34.7609 141.233 38.1422 141.217 44.9831L141.182 60.6194C141.174 63.729 136.783 63.8083 136.778 66.0295C136.774 67.5395 138.028 68.0758 140.358 68.0809L150.936 68.1046C153.356 68.1098 154.522 67.5797 154.526 66.0697C154.531 63.8484 150.138 63.7506 150.145 60.641L150.184 43.4947C150.207 33.4557 145.646 28.2042 136.592 28.1846C130.317 28.1712 126.277 31.2715 123.847 35.5309L123.577 35.5298L123.586 31.9766C123.501 29.4002 122.876 28.2433 120.187 28.2381C117.229 28.232 110.141 31.0595 110.137 32.9246C110.134 34.4346 111.388 34.8824 113.805 36.309C114.521 36.6662 114.967 37.5555 114.875 38.8875L114.826 60.6534C114.819 63.763 110.427 63.8422 110.422 66.0625C110.421 67.5714 111.675 68.1067 114.095 68.1118Z" fill="#574EFF"/>
<path d="M84.752 69.1073C96.7595 69.1341 105.65 60.2747 105.678 48.0238C105.705 35.8614 96.9415 28.2074 85.8294 28.1827C74.1808 28.1569 64.9313 36.9257 64.9043 49.1766C64.9667 60.8079 72.9235 69.0816 84.752 69.1073Z" fill="#27D0A2"/>
<path d="M46.6503 67.9636L57.2278 67.9873C59.5583 67.9924 60.8146 67.4624 60.8177 65.9513C60.8229 63.73 56.4301 63.6323 56.4374 60.5227L56.5414 13.8812C56.4571 11.3934 55.7427 10.0594 53.2333 10.0542C50.8133 10.0491 42.74 12.1633 42.7358 14.296C42.7327 15.806 43.8081 15.8091 45.9556 17.4128C47.1193 18.3042 47.5654 19.282 47.5613 21.1472L47.4729 60.5042C47.4656 63.6137 43.0728 63.693 43.0686 65.9132C43.0655 67.4222 44.2303 67.9575 46.6503 67.9636Z" fill="#574EFF"/>
<path d="M34.2631 59.5852L34.2995 43.4157C34.2319 33.3767 30.2103 27.9481 19.0058 27.9234C8.60714 27.9008 1.87129 33.4828 1.86193 37.9253C1.85673 40.4132 3.55603 41.8377 5.61828 41.8429C7.76997 41.848 9.02833 40.4286 10.0194 38.0323C11.9111 34.1271 14.6057 31.5569 18.6397 31.5662C23.2114 31.5765 24.8181 34.511 24.8108 37.7987C24.8025 41.4414 23.3642 43.3035 16.6357 45.7769C6.94528 49.397 0.394535 52.3151 0.378935 59.2445C0.366456 64.6639 4.39112 69.0261 11.3828 69.0416C18.1062 69.056 22.2348 66.6669 25.3839 61.6099L25.6532 61.6109L25.6511 62.7658C25.6439 66.2305 28.5058 69.0796 32.8082 69.0889C36.2141 69.0961 38.5488 67.5912 38.5529 65.8146C38.6476 62.7936 34.2516 64.5599 34.2631 59.5852ZM25.4067 51.2148C25.3891 59.122 20.5397 62.9315 15.5198 62.9202C11.8446 62.912 9.51815 60.8636 9.52543 57.6655C9.53271 54.4674 11.5991 52.3399 17.7006 49.9539L25.4161 46.9503L25.4067 51.2148Z" fill="#574EFF"/>
<path d="M89.2608 85.174C87.7825 85.174 86.7825 84.6957 86.4782 83.7392C86.2173 82.9131 87.2173 82.2609 87.5216 82.0435C89.5216 80.6957 95.0434 78.7827 98.6086 79.2175C99.6521 77.9131 100.174 76.3479 99.739 74.6088C99.4782 73.6088 98.826 73.087 97.9564 72.8261C97.0869 73.6957 96.1738 74.4348 95.4347 75.0001C92.6086 77.1305 89.4347 78.6957 87.5216 78.9131C85.7825 79.1305 85.3912 78.2175 85.2608 77.7827C84.6955 75.4783 89.7825 72.6522 93.5216 71.6957C95.0434 71.3044 96.4347 71.2174 97.5216 71.3479C98.6086 70.1305 99.2173 69.0435 99.2173 68.2174C99.2173 67.8261 99.0869 67.6522 98.9129 67.5653C98.4782 67.3044 96.826 66.9566 91.2608 69.4348C88.0869 70.8261 85.1738 72.4783 85.1738 72.4783C84.8695 72.6522 84.4782 72.5653 84.3042 72.2174C84.1303 71.9131 84.2173 71.5218 84.5651 71.3479C86.5651 70.3044 96.6521 64.7827 99.6086 66.5218C100.043 66.7827 100.565 67.2609 100.565 68.2609C100.565 69.4348 99.8695 70.6522 98.9564 71.7827C99.9999 72.2609 100.739 73.087 101.043 74.3044C101.522 76.1305 101.13 77.9131 99.9999 79.6088C100.304 79.7392 100.609 79.9131 100.826 80.087C101.609 80.7392 102.348 82.0435 101.348 84.6088C101.217 84.9566 100.826 85.087 100.522 84.9566C100.174 84.8261 100.043 84.4348 100.174 84.1305C101.217 81.5653 100.043 81.0435 99.6086 80.8696C99.4782 80.8261 99.3042 80.7392 99.1738 80.6957C99.0434 80.8696 98.8695 81.0001 98.6955 81.174C97.0434 82.7392 94.5651 84.087 92.1303 84.7827C90.9999 85.0435 90.0869 85.174 89.2608 85.174ZM87.826 83.5218C88.1303 83.9131 89.4782 84.1305 91.739 83.5218C93.5651 83.0001 95.7825 81.9566 97.4782 80.4783C97.4782 80.4783 97.4782 80.4783 97.4347 80.4783C93.8695 80.4783 88.6086 82.5218 87.826 83.5218ZM96.3042 72.6522C95.3912 72.6522 94.4782 72.8696 93.8695 73.0001C89.6086 74.0435 86.3477 76.6522 86.5651 77.4783C86.6086 77.6957 87.3042 77.6088 87.3912 77.6088C89.0869 77.3914 92.0869 75.9131 94.6955 73.9566C95.2608 73.5653 95.7825 73.087 96.3042 72.6522Z" fill="#212866"/>
<path d="M88.4348 68.6958C88.087 68.6958 87.7827 68.435 87.7827 68.0436C87.6088 61.348 85.6522 54.5654 83.6088 49.7828C82.2609 49.7828 81.0001 49.5219 80.0001 49.0436C77.9566 48.0871 77.087 46.3045 77.5653 44.0871C78.0001 42.2176 78.9566 42.0436 79.4783 42.0871C80.8696 42.261 82.7392 44.7828 84.3914 48.4784C85.6088 48.3915 86.9131 48.1306 88.174 47.6523C88.3044 43.1306 90.0435 40.6958 91.9131 39.8697C93.1305 39.3045 94.3914 39.5219 95.087 40.3915C95.9566 41.4784 95.6522 43.1306 94.3479 44.8697C93.174 46.3915 91.4783 47.6523 89.4783 48.5219C89.4783 49.5219 89.6088 50.6523 89.8262 51.9567C92.2175 66.5219 92.2609 66.8697 92.2609 66.8697C92.2609 66.9567 92.2609 67.0436 92.2609 67.0871C92.2175 67.3915 91.9131 67.6089 91.6088 67.6089C91.3044 67.6089 91.0435 67.3915 90.9566 67.0436L88.5653 52.1741C88.3914 51.0436 88.2609 50.0002 88.2175 49.0436C87.9131 49.1306 87.6522 49.2176 87.3479 49.3045C86.5653 49.5219 85.7392 49.6523 84.9566 49.7393C87.1305 54.9132 88.9131 61.8697 89.0435 68.0002C89.087 68.3915 88.7827 68.6958 88.4348 68.6958ZM79.3044 43.3915C79.1305 43.3915 78.9131 43.7828 78.7827 44.3915C78.4348 46.0002 79.0001 47.1741 80.5218 47.8697C81.2175 48.1741 82.087 48.3915 83.0001 48.4349C81.5218 45.4349 80.1305 43.4784 79.3044 43.3915ZM93.3044 40.8697C93.0435 40.8697 92.7827 40.9132 92.4783 41.0436C92.1305 41.1741 89.8262 42.3915 89.5218 47.0871C91.0001 46.348 92.3479 45.348 93.3044 44.0871C94.3914 42.6523 94.3914 41.6089 94.087 41.1741C93.9131 41.0002 93.6088 40.8697 93.3044 40.8697Z" fill="#212866"/>
</g>
<defs>
<clipPath id="clip0">
<rect width="200" height="87.8261" fill="white"/>
</clipPath>
</defs>
</svg>
