<svg width="380" height="263" viewBox="0 0 380 263" fill="none" xmlns="http://www.w3.org/2000/svg">
<path d="M271.673 164.11C271.283 164.408 270.9 164.701 270.51 164.999C270.024 165.368 269.651 165.865 269.431 166.434C269.307 166.782 269.178 167.122 269.08 167.473C268.744 168.659 268.055 169.712 267.104 170.491C266.269 171.198 265.504 171.983 264.819 172.836C264.129 173.686 263.315 174.435 262.585 175.246C262.139 175.661 261.762 176.144 261.467 176.676C260.976 177.66 260.254 178.509 259.361 179.149C258.985 179.457 258.67 179.831 258.429 180.253C257.946 181.105 257.3 181.853 256.528 182.454C255.871 183.002 255.374 183.716 255.086 184.523C254.957 184.864 254.864 185.222 254.73 185.555C254.294 186.693 253.794 187.805 253.233 188.886C252.642 189.807 251.971 190.674 251.228 191.477C250.676 192.126 250.27 192.888 250.038 193.71C249.704 194.89 249.096 195.974 248.264 196.872C247.952 197.244 247.694 197.658 247.498 198.102C247.276 198.536 247.093 198.988 246.95 199.453C246.731 200.155 246.355 200.798 245.852 201.333C245.348 201.867 244.729 202.28 244.042 202.54C242.825 203.09 241.617 203.668 240.378 204.19C238.674 204.895 237.152 205.976 235.925 207.353C235.319 208.058 234.566 208.736 233.93 209.476C233.109 210.379 232.19 211.187 231.188 211.883C230.331 212.565 229.34 213.059 228.279 213.336C227.096 213.634 225.966 214.11 224.927 214.748C223.571 215.566 222.028 216.02 220.678 216.845C220.349 217.013 219.979 217.084 219.61 217.052C219.123 217.009 218.634 217.068 218.171 217.223C217.709 217.379 217.284 217.628 216.923 217.956C216.542 218.271 216.057 218.433 215.563 218.409C214.833 218.346 214.1 218.355 213.374 218.437C212.887 218.521 212.452 218.788 212.157 219.182C211.878 219.581 211.645 220.01 211.463 220.461C211.28 220.912 210.969 221.298 210.569 221.573C210.169 221.848 209.697 222 209.211 222.01C207.758 222.178 206.315 222.421 204.888 222.737C204.293 222.858 203.685 222.886 203.083 222.967C202.728 222.959 202.375 223.001 202.032 223.091C200.534 223.753 198.914 223.611 197.36 223.855C196.873 223.909 196.379 223.844 195.921 223.666C195.348 223.472 194.781 223.238 194.201 223.049C192.602 222.439 190.894 222.176 189.19 222.277C188.454 222.312 187.718 222.188 187.033 221.912C185.737 221.54 184.512 220.951 183.411 220.17C183.12 219.972 182.794 219.831 182.451 219.754C182.221 219.691 181.979 219.697 181.753 219.769C181.524 219.848 181.31 219.961 181.117 220.106C180.506 220.52 179.776 220.723 179.038 220.683C177.451 220.673 175.87 220.476 174.328 220.095C173.266 219.806 172.166 219.691 171.069 219.756C170.461 219.762 169.853 219.723 169.25 219.639C168.892 219.561 168.529 219.512 168.164 219.491C166.45 219.514 164.74 219.295 163.085 218.84C162.125 218.661 161.198 218.333 160.338 217.868C159.8 217.575 159.234 217.337 158.649 217.157C157.139 216.67 155.631 216.196 154.126 215.736C153.42 215.517 152.664 215.531 151.968 215.774C151.28 216.013 150.587 216.244 149.878 216.44C149.41 216.553 148.919 216.529 148.463 216.372C147.526 216.078 146.654 215.609 145.893 214.988C144.588 214.072 143.392 213.01 142.328 211.822C141.706 211.068 140.964 210.422 140.133 209.91C138.802 209.027 137.602 207.961 136.567 206.744C135.747 205.838 134.819 205.036 133.804 204.358C132.345 203.251 130.812 202.247 129.216 201.352C128.459 200.934 127.871 200.265 127.552 199.46C127.241 198.8 127.016 198.086 126.692 197.436C126.353 196.786 125.97 196.16 125.546 195.563C125.053 194.853 124.374 194.293 123.586 193.943C123.137 193.745 122.683 193.586 122.234 193.388C121.783 193.192 121.382 192.897 121.059 192.526C120.579 191.972 120.12 191.402 119.656 190.825C118.804 189.776 117.724 188.937 116.498 188.372C115.727 188.007 114.962 187.636 114.174 187.295C112.939 186.738 111.906 185.81 111.218 184.641C110.744 183.927 110.373 183.149 110.116 182.331C109.955 181.741 109.764 181.162 109.544 180.594C109.429 180.241 109.215 179.93 108.927 179.696C108.636 179.481 108.349 179.24 108.075 179.001C107.507 178.529 107.087 177.902 106.867 177.197C106.794 176.966 106.74 176.731 106.666 176.5C106.384 175.438 106.043 174.392 105.646 173.367C105.105 172.26 104.501 171.185 103.837 170.147C103.511 169.631 103.139 169.145 102.727 168.695C102.255 168.133 101.833 167.532 101.466 166.897C100.889 166.099 100.561 165.148 100.524 164.165C100.544 163.55 100.368 162.943 100.023 162.431C99.5639 161.702 99.2972 160.868 99.2474 160.009C99.1076 158.793 98.9935 157.58 98.9194 156.359C98.8962 155.752 98.9215 155.144 98.9951 154.541C99.0332 154.051 99.1481 153.572 99.2301 153.095C99.4149 152 99.3396 150.875 99.0102 149.812C98.9004 149.458 98.8034 149.107 98.6864 148.759C98.5417 148.292 98.4976 147.8 98.5568 147.316C98.6258 146.343 98.7149 145.366 98.7511 144.394C98.7403 142.559 98.9495 140.73 99.3741 138.947C99.5093 138.351 99.4947 137.729 99.3315 137.139C99.1126 135.808 98.614 134.538 97.8687 133.413C97.2347 132.505 96.798 131.474 96.5872 130.388C96.2969 129.079 95.9866 127.775 95.6819 126.477C95.3397 125.168 95.3252 123.796 95.6397 122.482C96.0414 121.072 96.1467 119.593 95.949 118.138C95.8617 117.404 95.9748 116.662 96.2762 115.989L96.8256 114.626C97.0522 114.06 97.394 113.548 97.8292 113.122L98.3631 112.622C98.9288 112.157 99.3933 111.581 99.7281 110.93C100.063 110.278 100.261 109.564 100.31 108.832C100.407 107.607 100.859 106.438 101.61 105.468C102.559 104.202 103.389 102.851 104.09 101.432C104.291 100.991 104.641 100.654 104.9 100.214C105.224 99.7012 105.494 99.1556 105.705 98.586C106.002 97.5275 106.528 96.5482 107.245 95.717C107.592 95.2207 107.872 94.6814 108.08 94.1124C108.241 93.6533 108.456 93.215 108.719 92.8066C109.731 91.5769 110.346 90.0678 110.484 88.4777C110.518 88.1179 110.687 87.7699 110.741 87.4064C110.982 85.7132 111.569 84.0894 112.466 82.636C113.096 81.5888 113.476 80.4086 113.574 79.1878C113.672 78.0869 114.046 77.0297 114.66 76.1139C114.901 75.6901 115.071 75.2297 115.164 74.7506C115.274 74.2768 115.359 73.7974 115.417 73.3143C115.506 72.643 115.726 71.9965 116.065 71.4116C116.404 70.8267 116.855 70.315 117.393 69.9056C118.354 69.1707 119.323 68.4303 120.284 67.6953C121.175 67.0548 122.019 66.3518 122.81 65.5916C123.271 65.1919 123.657 64.7134 123.951 64.1782C124.64 62.7425 125.653 61.5199 126.415 60.1201C127.387 58.2692 128.929 56.7834 130.814 55.8825C131.593 55.5333 132.309 55.0565 132.931 54.4715C134.16 53.2784 135.741 52.53 136.937 51.2934C137.121 51.1347 137.339 51.0197 137.573 50.9568C138.042 50.8057 138.507 50.6802 138.983 50.5692C139.581 50.4352 140.1 50.0709 140.43 49.5553C140.605 49.3046 140.829 49.093 141.09 48.9335C141.35 48.7741 141.641 48.6702 141.943 48.6285C142.54 48.5404 143.148 48.4668 143.739 48.3258C143.978 48.2711 144.202 48.1659 144.396 48.0172C144.591 47.8685 144.751 47.6799 144.867 47.4638C145.086 47.0316 145.226 46.556 145.409 46.1057C145.564 45.6476 145.745 45.1985 145.95 44.7605C146.108 44.4259 146.389 44.1658 146.734 44.0341C148.546 43.4082 150.392 42.6763 152.282 42.1978C153.231 41.9728 154.128 41.5716 154.928 41.0149C155.381 40.7085 155.9 40.5127 156.443 40.443C156.987 40.3733 157.539 40.4317 158.057 40.6135C158.534 40.7435 159.004 40.879 159.502 41.0051C160.206 41.2371 160.967 41.2163 161.655 40.9463C162.683 40.5587 163.779 40.3823 164.878 40.4275C165.613 40.4366 166.34 40.2747 167.002 39.9546C168.5 39.4344 169.927 38.7299 171.25 37.8572C171.859 37.4445 172.591 37.2503 173.326 37.3062L173.696 37.3109C173.818 37.3189 173.94 37.3333 174.061 37.3541C175.986 37.732 177.972 37.6356 179.847 37.073C180.688 36.8658 181.577 36.9658 182.353 37.3549L182.699 37.4931C182.809 37.5471 182.921 37.5883 183.029 37.6551C184.853 38.6571 186.826 39.356 188.872 39.7245C189.843 39.8536 190.747 40.2988 191.444 40.9916C192.055 41.6007 192.798 42.0604 193.616 42.3345C194.408 42.6374 195.184 43.0227 195.968 43.3439C196.196 43.4331 196.44 43.4754 196.684 43.4684C196.929 43.4614 197.169 43.4051 197.391 43.303C197.504 43.2603 197.611 43.2051 197.712 43.1384C198.212 42.7872 198.784 42.5509 199.386 42.4461C199.989 42.3413 200.608 42.3706 201.199 42.5319C202.771 42.7608 204.315 43.1539 205.806 43.7046C206.604 44.0223 207.449 44.201 208.306 44.233C209.406 44.2804 210.496 44.4635 211.552 44.7781C211.783 44.8492 212.019 44.9073 212.257 44.9521C213.331 45.1436 214.476 44.9477 215.498 45.4316C216.51 45.8865 217.564 46.2369 218.646 46.4775C219.118 46.6055 219.56 46.8272 219.946 47.1292C220.943 47.8385 222.029 48.4128 223.175 48.8371C224.305 49.2965 225.459 49.7265 226.553 50.2592C227.206 50.5945 227.921 50.7934 228.652 50.8435C229.384 50.8937 230.117 50.7941 230.807 50.551C231.16 50.4538 231.517 50.3764 231.878 50.319C232.733 50.1654 233.615 50.3482 234.341 50.8294C235.724 51.6173 236.951 52.6533 237.96 53.8853C238.482 54.5679 239.064 55.1936 239.585 55.8762C240.289 56.8919 241.154 57.7856 242.146 58.5215C242.531 58.8249 242.881 59.1716 243.188 59.5547C243.517 59.9152 243.825 60.2939 244.112 60.689C246.425 63.7043 249.193 66.3402 252.317 68.5006C252.384 68.5878 252.528 68.6269 252.624 68.692C253.543 69.321 254.207 70.2589 254.495 71.3347C254.712 72.1581 254.93 72.9816 255.216 73.7754C255.462 74.6002 255.87 75.3681 256.416 76.034C256.819 76.5045 257.271 76.9303 257.765 77.3042C258.167 77.5768 258.594 77.8133 259.038 78.0108C259.935 78.4206 260.682 79.1001 261.176 79.9544C261.471 80.489 261.806 81.0032 262.128 81.5284C262.519 82.1504 263.009 82.7049 263.578 83.1702C264.504 83.9689 265.531 84.6423 266.632 85.1732C267.284 85.5066 267.898 85.9086 268.465 86.3724C269.808 87.4615 270.718 88.9965 271.027 90.6968C271.165 91.2818 271.234 91.8964 271.281 92.5276C271.314 93.0772 271.481 93.6109 271.767 94.0821C272.053 94.5533 272.45 94.9475 272.923 95.2303C273.184 95.3952 273.402 95.619 273.561 95.8837C273.719 96.1483 273.813 96.4463 273.836 96.7535L274.392 100.747C274.457 101.232 274.594 101.705 274.8 102.149C275.182 103.008 275.593 103.936 276.005 104.819C276.187 105.274 276.436 105.701 276.743 106.084C277.569 107.147 278.19 108.355 278.572 109.645C278.757 110.098 278.818 110.592 278.749 111.075C278.687 111.435 278.648 111.8 278.632 112.165C278.597 112.521 278.641 112.88 278.76 113.217C279.286 114.331 279.482 115.57 279.326 116.789C279.298 117.156 279.256 117.522 279.255 117.879C279.27 119.597 278.938 121.298 278.281 122.882C278.142 123.224 278.028 123.576 277.941 123.935C277.737 124.64 277.675 125.38 277.76 126.11C277.823 126.718 277.947 127.314 277.998 127.919C278.039 128.282 278.013 128.65 277.921 129.002C277.518 130.288 277.28 131.609 276.998 132.918C276.666 134.598 276.139 136.232 275.429 137.788C275.185 138.35 275.1 138.968 275.182 139.576C275.221 140.917 275.555 142.233 276.159 143.432C276.672 144.409 276.97 145.483 277.034 146.583C277.178 148.165 277.275 149.759 277.406 151.339C277.45 152.072 277.353 152.805 277.122 153.5C276.993 153.972 276.828 154.432 276.63 154.878C275.977 156.194 275.627 157.641 275.606 159.112C275.569 159.725 275.368 160.316 275.024 160.823C274.827 161.135 274.619 161.432 274.446 161.76C274.024 162.505 273.447 163.15 272.755 163.652L271.887 164.315L271.673 164.11Z" fill="#F5FF8F"/>
<path d="M40.8788 198.398C45.2117 194.342 49.1301 190.536 51.5663 185.74C52.9406 183.039 54.684 180.481 56.3195 177.883C56.7511 177.198 57.3076 176.532 57.9493 175.985C61.6405 172.816 63.9518 168.892 66.0756 164.875C66.6776 163.736 67.4215 162.829 68.4721 161.932C70.3007 160.37 71.8567 158.556 73.3729 156.747C77.8762 151.384 81.4482 145.464 86.9169 140.673C89.5859 138.331 91.5337 135.369 93.8223 132.697C96.8491 129.158 99.9327 125.658 102.908 122.089C104.521 120.157 105.964 118.121 107.48 116.125C108.581 114.681 109.541 113.133 110.796 111.797C114.851 107.484 118.968 103.206 123.159 98.9913C125.118 97.0196 127.435 95.319 129.372 93.3326C132.268 90.3603 134.903 87.1957 137.782 84.2087C139.321 82.6116 141.127 81.2166 142.83 79.7379C143.773 78.9196 144.909 78.2296 145.681 77.3078C148.015 74.508 151.627 73.1476 154.705 71.2153C156.414 70.1408 158.731 70.3724 160.798 70.7027C161.389 70.7963 162.099 71.3977 162.326 71.9054C162.769 72.906 162.996 74.0003 163.138 75.0749C163.212 75.6023 163.075 76.2727 162.74 76.7064C161.025 78.9196 159.06 80.9948 157.476 83.2721C155.222 86.5155 152.359 89.3054 149.6 92.1989C147.39 94.5156 145.647 97.1626 143.54 99.5582C142.336 100.928 140.797 102.067 139.457 103.349C138.282 104.473 137.197 105.66 136.027 106.789C134.358 108.401 132.631 109.969 130.95 111.576C128.435 113.986 125.981 116.441 123.437 118.826C121.626 120.522 119.763 122.173 117.838 123.77C113.897 127.043 110.791 130.883 107.673 134.738C105.237 137.75 102.499 140.574 100.12 143.615C98.3483 145.883 96.7809 148.249 94.6855 150.344C92.7831 152.246 91.3009 154.459 89.5632 156.485C87.922 158.398 85.9912 160.143 84.5374 162.154C82.3852 165.141 79.046 167.182 76.7291 170.011C76.394 170.42 76.0249 170.819 75.741 171.258C72.3678 176.488 69.0173 181.728 64.6503 186.406C61.2657 190.028 59.4712 194.342 57.8982 198.684C56.8135 201.676 54.8827 203.939 52.1001 205.792C51.112 206.448 50.0955 207.108 49.2721 207.907C47.1425 209.977 44.3883 211.125 41.5205 212.165C40.2939 212.609 39.2319 212.486 38.2382 211.811C37.1251 211.051 35.7622 210.401 35.041 209.415C33.661 207.522 31.611 206.275 29.7995 204.826C24.575 200.641 20.702 195.648 17.5162 190.181C14.4724 184.951 11.3377 179.766 8.19161 174.58C7.77705 173.895 7.12399 173.299 6.52204 172.712C4.19373 170.455 3.65992 167.788 4.59125 165.003C5.95416 160.931 11.4683 159.344 15.4775 161.774C16.1079 162.159 16.5224 162.893 16.8745 163.529C18.368 166.196 19.6287 168.976 21.304 171.554C23.0587 174.255 25.2507 176.744 27.1475 179.381C31.1567 184.966 35.0978 190.59 39.0786 196.185C39.5897 196.9 40.203 197.555 40.8902 198.388L40.8788 198.398Z" fill="#39E497" stroke="#39E497" stroke-width="7" stroke-miterlimit="10"/>
<path d="M361.428 146.498C365.282 146.403 369.463 149.385 373.019 147.897C374.398 146.92 375.581 144.766 375.126 142.637C374.671 140.503 366.802 137.016 364.212 138.745L364.237 136.361C364.237 136.361 379.833 137.497 377.908 144.739C374.16 154.968 361.426 146.501 360.585 148.709L361.426 146.501L361.428 146.498Z" fill="black"/>
<path d="M151.169 98.3139C145.387 97.4347 132.53 93.0739 134.322 103.482C137.658 108.286 144.679 108.475 149.735 110.691C150.01 110.78 150.077 110.703 150.128 110.457L151.169 98.3139Z" fill="black"/>
<path d="M148.496 106.446C148.703 110.421 150.802 114.001 154.093 116.239C164.309 123.189 179.212 122.55 190.836 126.164C191.562 126.316 245.083 134.083 251.965 135.041C276.412 138.449 324.487 150.618 350.31 152.71C355.19 153.107 359.47 151.278 363.273 148.295C371.03 140.253 367.039 134.747 357.584 131.503C339.861 123.765 298.362 118.181 279.726 113.501C260.789 110.387 204.723 96.384 190.938 94.2647C177.361 92.1758 147.503 87.4547 148.492 106.452L148.496 106.446Z" fill="#FFA359" stroke="#FFA359" stroke-width="5" stroke-miterlimit="10"/>
<path d="M169.922 126.093L169.907 126.091C169.318 125.975 168.781 125.619 168.514 125.041C168.212 124.396 168.213 123.812 168.121 122.516C167.427 112.816 169.156 100.388 171.382 90.4342C171.472 90.0358 171.599 89.5703 171.939 89.3886C177.887 86.1912 175.143 100.899 174.416 104.432C174.386 104.573 174.371 104.699 174.367 104.846C174.284 109.061 174.106 120.76 171.952 125.015C171.553 125.803 170.729 126.258 169.92 126.091L169.922 126.093Z" fill="black"/>
<path d="M315.139 154.828C324.808 156.801 337.06 152.248 337.06 152.248C339.01 152.615 347.007 153.13 346.246 154.959C344.914 158.161 341.131 163.414 329.242 163.57C315.713 163.749 301.812 159.234 290.361 152.251C286.447 149.865 283.64 147.315 280.623 144.756C279.499 143.803 278.865 142.189 280.179 141.538L281.752 141.613C282.36 141.848 295.261 150.774 315.142 154.83L315.139 154.828Z" fill="black"/>
<g clip-path="url(#clip0_2230_27605)">
<path d="M96.7166 258.837C93.7974 257.524 116.676 255.152 116.676 255.152C119.092 254.583 121.608 254.148 124.255 253.945C126.449 253.772 128.7 253.747 130.914 253.638C132.504 253.558 134.085 253.44 135.675 253.356C137.626 253.255 139.578 253.153 141.539 253.081C145.379 252.947 149.211 252.817 153.052 252.712C156.333 252.623 159.614 252.601 162.894 252.478C165 252.396 167.076 252.174 169.181 252.033C169.705 251.996 170.248 252.031 170.781 252.016C171.658 251.988 172.525 251.947 173.401 251.91C174.251 251.874 175.109 251.833 175.959 251.805C180.179 251.674 184.39 251.53 188.606 251.734C190.659 251.835 192.885 251.984 194.808 251.721C196.658 251.469 198.316 251.731 200.051 251.662C201.65 251.599 203.29 251.878 204.918 251.942C206.782 252.015 208.662 251.982 210.525 252.051C212.307 252.117 214.072 252.259 215.854 252.346C218.55 252.472 221.254 252.598 223.959 252.69C228.689 252.858 233.42 253.012 238.159 253.146C241.053 253.227 243.973 253.206 246.858 253.317C249.979 253.437 253.082 253.634 256.177 253.844C258.322 253.985 260.369 254.315 262.611 254.328C264.221 254.337 265.808 254.718 267.375 254.977C267.901 255.064 268.265 255.284 267.709 255.583C267.583 255.652 267.63 255.804 267.659 255.914C267.773 256.344 267.905 256.77 268.028 257.201C268.037 257.235 268.047 257.298 268.011 257.307C266.776 257.56 266.534 258.402 264.916 258.44C263.768 258.467 262.621 258.541 261.483 258.628C260.354 258.71 259.234 258.814 258.115 258.943C256.715 259.101 255.344 259.343 253.935 259.459C251.921 259.62 249.889 259.731 247.864 259.791C245.46 259.861 243.047 259.866 240.633 259.877C239.006 259.885 237.378 259.838 235.75 259.834C234.774 259.83 233.798 259.851 232.831 259.885C230.924 259.947 229.008 260.036 227.101 260.09C225.538 260.136 223.974 260.122 222.41 260.185C219.51 260.299 216.619 260.476 213.709 260.581C211.016 260.68 208.314 260.744 205.621 260.792C202.873 260.84 200.125 260.872 197.376 260.882C194.565 260.893 191.753 260.853 188.941 260.869C187.603 260.877 186.267 261.001 184.929 261.009C183.22 261.019 181.511 260.944 179.802 260.94C175.652 260.931 171.503 260.98 167.362 260.932C164.468 260.898 161.582 260.74 158.688 260.659C157.458 260.624 156.211 260.67 154.981 260.64C153.335 260.597 151.697 260.509 150.051 260.466C149.518 260.452 148.968 260.552 148.434 260.534C145.54 260.44 142.654 260.317 139.76 260.223C138.792 260.193 137.807 260.257 136.849 260.227C135.582 260.188 134.324 260.082 133.049 260.035C131.358 259.972 129.666 259.918 127.966 259.897C125.109 259.858 122.243 259.861 119.386 259.814C117.459 259.784 115.55 259.647 113.624 259.639C110.415 259.625 107.206 259.671 103.997 259.7C102.776 259.716 101.547 259.77 100.327 259.764C100.327 259.764 99.6266 260.146 96.7075 258.833L96.7166 258.837Z" fill="black" stroke="black" stroke-width="0.5" stroke-miterlimit="10"/>
</g>
<defs>
<clipPath id="clip0_2230_27605">
<rect width="172.041" height="9.66729" fill="white" transform="translate(96.1573 252.657) rotate(-0.742692)"/>
</clipPath>
</defs>
</svg>
