<svg width="250" height="255" viewBox="0 0 250 255" fill="none" xmlns="http://www.w3.org/2000/svg">
<path d="M245.08 125.64C244.93 123.23 244.21 120.86 243.83 118.45C243.45 116.06 242.93 113.65 242.94 111.25C242.94 109.01 243.19 106.85 242.68 104.56C241.2 98.0301 239.25 91.7101 235.9 85.8901C234.48 83.4301 233.06 80.9501 231.38 78.6701C228.05 74.1401 224.55 69.7401 221.11 65.2901C219.06 62.6401 217.21 59.8001 214.89 57.4201C211.56 54.0201 207.83 51.0101 204.36 47.7301C199.6 43.2201 194.56 39.0801 189.05 35.5201C186 33.5501 182.94 31.5601 179.79 29.7401C177.57 28.4601 175.13 27.5601 172.88 26.3201C169.4 24.4001 165.73 23.0001 161.91 21.9401C158.78 21.0601 155.7 20.0601 152.58 19.1701C149.27 18.2201 145.99 17.1601 142.62 16.4601C139 15.7001 135.3 15.3001 131.63 14.7501V14.8101C131.27 14.7601 130.91 14.6501 130.56 14.6601C126.16 14.7801 121.73 14.6601 117.36 15.0901C111.41 15.7001 105.47 16.3801 99.68 18.1101C94.59 19.6401 89.49 21.0501 84.69 23.3601C81.05 25.1201 77.34 26.7601 73.75 28.6101C70.55 30.2601 67.37 31.9801 64.35 33.9101C60.84 36.1501 57.46 38.5801 54.12 41.0601C51.85 42.7501 49.65 44.5701 47.56 46.4801C43.88 49.8701 40.5 53.6101 36.63 56.7501C33.48 59.3101 30.54 61.9801 28.21 65.2501C26.36 67.8401 24.87 70.6701 23.1 73.3201C20 77.9601 17.12 82.7101 14.94 87.8601C13.5 91.2601 12.01 94.6301 10.65 98.0601C8.69001 102.99 6.57001 107.88 4.97001 112.93C3.04001 119.02 2.38001 125.42 2.05001 131.77C1.82001 136.19 2.29001 140.64 2.55001 145.08C2.93001 151.67 3.69001 158.22 5.75001 164.51C7.20001 168.94 9.04001 173.24 10.77 177.57C11.7 179.89 12.7 182.19 13.79 184.44C15.11 187.17 16.47 189.89 17.97 192.53C20.31 196.65 22.69 200.75 25.22 204.77C26.53 206.86 28.14 208.77 29.69 210.71C32.04 213.65 34.45 216.55 36.85 219.45C37.26 219.95 37.75 220.4 38.25 220.8C40.49 222.57 42.73 224.35 45.01 226.07C49.33 229.32 53.53 232.75 58.05 235.69C62.19 238.38 66.69 240.54 71.04 242.92C74.75 244.95 78.63 246.48 82.82 247.3C85.79 247.88 88.7 248.8 91.62 249.62C93.62 250.18 95.56 250.99 97.59 251.4C100.71 252.03 103.86 252.56 107.03 252.88C110.99 253.27 114.98 253.48 118.95 253.62C121.36 253.7 123.83 253.15 126.18 253.52C130.58 254.2 134.85 253.34 139.13 252.91C142.51 252.57 145.81 251.44 149.14 250.64C152.18 249.9 155.2 249.11 158.24 248.37C160.81 247.75 163.45 247.32 165.95 246.51C168.52 245.67 170.91 244.39 173.57 243.69C175.99 243.06 178.31 241.99 180.62 241C182.85 240.05 185.15 239.17 187.19 237.89C190.53 235.79 193.71 233.42 196.91 231.1C198.38 230.03 199.73 228.79 201.2 227.71C206.26 224.01 210.69 219.6 214.64 214.82C219.21 209.29 223.36 203.39 227.41 197.46C229.55 194.32 231.18 190.81 232.87 187.39C234.14 184.81 235.15 182.09 236.29 179.45C238.81 173.63 240.5 167.54 241.79 161.35C242.31 158.83 242.59 156.25 242.95 153.69C243.56 149.42 244.22 145.16 244.71 140.89C244.95 138.8 244.88 136.67 244.94 134.56C245.02 131.59 245.28 128.61 245.1 125.66L245.08 125.64Z" fill="black"/>
<path d="M134.19 1.56998C137.86 2.12998 141.55 2.51998 145.18 3.27998C148.54 3.97998 151.83 5.03998 155.14 5.98998C158.26 6.88998 161.35 7.88998 164.47 8.75998C168.29 9.82998 171.95 11.23 175.44 13.14C177.69 14.38 180.13 15.28 182.35 16.56C185.5 18.37 188.55 20.36 191.61 22.34C197.12 25.9 202.16 30.04 206.92 34.55C210.38 37.83 214.12 40.83 217.45 44.24C219.78 46.62 221.62 49.46 223.67 52.11C227.11 56.56 230.61 60.97 233.94 65.5C235.62 67.78 237.04 70.26 238.46 72.72C241.81 78.55 243.76 84.87 245.24 91.39C245.76 93.68 245.51 95.83 245.5 98.08C245.5 100.48 246.01 102.89 246.39 105.28C246.77 107.68 247.49 110.06 247.64 112.47C247.82 115.42 247.57 118.41 247.48 121.37C247.42 123.48 247.49 125.61 247.25 127.7C246.76 131.98 246.1 136.24 245.49 140.5C245.13 143.06 244.85 145.63 244.33 148.16C243.04 154.35 241.35 160.43 238.83 166.26C237.68 168.9 236.68 171.62 235.41 174.2C233.72 177.62 232.09 181.13 229.95 184.27C225.9 190.2 221.75 196.1 217.18 201.63C213.23 206.41 208.8 210.82 203.74 214.52C202.27 215.6 200.92 216.84 199.45 217.91C196.25 220.22 193.07 222.59 189.73 224.7C187.69 225.98 185.39 226.86 183.16 227.81C180.85 228.79 178.53 229.86 176.11 230.5C173.46 231.2 171.06 232.48 168.49 233.32C165.98 234.14 163.35 234.56 160.78 235.18C157.74 235.92 154.72 236.71 151.68 237.45C148.35 238.26 145.05 239.38 141.67 239.72C137.39 240.15 133.12 241.01 128.72 240.33C126.37 239.96 123.9 240.51 121.49 240.43C117.51 240.29 113.53 240.09 109.57 239.69C106.41 239.38 103.25 238.85 100.13 238.22C98.1 237.81 96.16 237 94.16 236.44C91.24 235.62 88.33 234.7 85.36 234.12C81.17 233.3 77.29 231.77 73.58 229.74C69.23 227.36 64.74 225.21 60.6 222.51C56.08 219.57 51.88 216.14 47.56 212.89C45.28 211.17 43.04 209.4 40.8 207.62C40.29 207.22 39.81 206.77 39.4 206.27C37 203.37 34.59 200.47 32.24 197.53C30.69 195.59 29.08 193.68 27.77 191.59C25.25 187.58 22.86 183.48 20.52 179.35C19.03 176.71 17.66 173.99 16.34 171.26C15.25 169.01 14.25 166.71 13.32 164.39C11.59 160.06 9.75 155.76 8.3 151.33C6.24 145.04 5.48 138.48 5.1 131.9C4.84 127.47 4.37 123.01 4.6 118.59C4.93 112.24 5.59 105.84 7.52 99.75C9.12 94.7 11.23 89.81 13.2 84.88C14.56 81.46 16.06 78.08 17.49 74.68C19.67 69.53 22.55 64.78 25.65 60.14C27.42 57.49 28.92 54.66 30.76 52.07C33.09 48.8 36.03 46.12 39.18 43.57C43.05 40.43 46.43 36.69 50.11 33.3C52.2 31.38 54.39 29.56 56.67 27.88C60.01 25.4 63.39 22.97 66.9 20.73C69.93 18.8 73.11 17.08 76.3 15.43C79.89 13.58 83.6 11.94 87.24 10.18C92.04 7.86998 97.14 6.44998 102.23 4.92998C108.03 3.18998 113.97 2.50998 119.91 1.90998C124.28 1.46998 128.71 1.58998 133.11 1.47998C133.46 1.47998 133.81 1.56998 134.17 1.62998V1.56998H134.19Z" fill="#68BDFA"/>
<path d="M38.82 65.08L39.26 63.33C39.88 63.33 39.66 63.83 39.71 64.33C54.07 42.32 77.16 25.87 102.71 19.3C108.02 17.71 113.51 17.61 118.99 18.13C120.25 18.25 121.41 18.56 122.45 17.29C122.3 19.13 133.75 18.01 136.1 18.8C158.2 20.38 178.44 30.95 195.19 44.99C223.11 65.6 232.63 104.81 228.72 137.82C224.77 174.62 195.58 202.66 163.34 217.63C134.01 228.86 100.37 226.33 72.83 211.24C55.96 201.76 39.84 187.84 31.46 170.15C28.03 162.73 22.31 156.06 21.52 147.66C20.67 140.03 20.33 132.34 19.44 124.71C20.47 120.26 21.61 115.93 22.19 111.31C22.63 100.94 26.59 91.37 29.56 81.56C31.78 75.73 37.11 70.89 38.77 65.05L38.8 65.09L38.82 65.08Z" fill="white"/>
<path d="M117.43 114.58C117.74 113.8 118.02 113.01 118.37 112.24C118.6 111.73 118.89 111.23 119.2 110.78C119.72 110 120.27 109.25 120.83 108.53C122.27 106.67 123.4 104.48 124.64 102.4C125.82 100.43 127.1 98.5599 128.34 96.6599C128.96 95.7199 129.63 94.8799 130.15 93.7799C130.63 92.7699 131.32 91.8599 131.91 90.9099C132.68 89.6699 133.45 88.4399 134.21 87.1899C135.31 85.3699 136.33 83.4499 137.49 81.7399C138.67 79.9999 139.49 77.9899 140.65 76.2699C141.3 75.3199 141.96 74.3999 142.62 73.4599C142.72 73.3199 142.82 73.1699 142.9 73.0099C143.71 71.3399 144.64 69.8399 145.7 68.4299C146.17 67.8099 146.53 66.9799 146.96 66.2799C147.99 64.5999 148.97 62.8199 150.08 61.2799C151.68 59.0699 152.84 56.4899 154.33 54.2099C154.9 53.3499 155.45 52.4699 156 51.5899C156.14 51.3699 156.31 51.1199 156.39 50.8799C156.86 49.4799 157.75 48.5199 158.5 47.4399C159.1 46.5799 159.7 45.7299 160.31 44.8899C160.76 44.2699 161.23 43.6799 161.7 43.0999C162.06 42.6599 162.46 42.7699 162.4 43.3399C162.34 43.8699 162.49 43.9399 162.82 43.8499C163.35 43.6999 163.49 43.9699 163.25 44.7899C162.99 45.6899 162.7 46.5899 162.37 47.4899C161.79 49.0499 161.42 50.6199 160.66 52.1899C160.19 53.1699 159.98 54.2799 159.62 55.3299C158.49 58.6699 157.34 62.0099 156.2 65.3599C155.79 66.5599 155.4 67.7599 154.93 68.9499C154.33 70.4599 153.65 71.9499 153.04 73.4499C152.81 74.0299 152.7 74.6399 152.49 75.2399C152.13 76.2299 151.73 77.2099 151.35 78.1899C151.03 79.0099 150.7 79.8299 150.4 80.6599C149.76 82.4599 149.15 84.2799 148.5 86.0799C147.94 87.6299 147.33 89.1699 146.78 90.7099C146.5 91.4799 146.34 92.2699 146.09 93.0499C145.6 94.5899 145.11 96.1399 144.57 97.6699C143.91 99.5399 143.18 101.41 142.48 103.27C142.44 103.38 142.37 103.51 142.37 103.61C142.33 105.03 141.49 106.45 141 107.87C140.59 109.04 140.16 110.21 139.73 111.38C139.21 112.78 138.7 114.17 138.17 115.57C137.43 117.52 136.67 119.47 135.94 121.42C135.85 121.66 135.88 121.98 135.94 122.16C136.1 122.65 135.89 123.2 135.42 123.48C135.3 123.55 135.15 123.66 135.06 123.81C134.87 124.12 134.67 124.69 134.53 124.75C133.99 124.97 133.41 125.22 132.98 125.12C131.69 124.84 130.46 124.39 129.19 124.05C128.5 123.87 127.74 123.85 127.07 123.62C126.38 123.38 125.76 122.98 125.11 122.65C125.07 122.63 125.04 122.58 124.99 122.57C123.44 122.34 122.36 121.12 120.89 120.72C120.47 120.61 120.03 120.55 119.65 120.37C119.32 120.21 119.09 119.85 118.75 119.7C117.98 119.37 117.16 119.14 116.38 118.85C116.08 118.74 115.78 118.6 115.54 118.38C115.35 118.2 115.23 117.97 115.64 117.34C115.92 116.91 116.07 116.28 116.25 115.74C116.38 115.35 116.43 114.89 116.61 114.61C116.73 114.43 117.05 114.54 117.27 114.51L117.44 114.59H117.43V114.58Z" fill="black"/>
<path d="M129.79 136.47C129.65 136.9 129.54 137.35 129.37 137.76C129.25 138.04 129.07 138.3 128.86 138.52C128.5 138.9 128.13 139.27 127.72 139.61C126.68 140.49 126.03 141.65 125.25 142.71C124.5 143.72 123.64 144.64 122.81 145.58C122.4 146.05 121.91 146.44 121.63 147.03C121.37 147.57 120.88 148 120.5 148.49C120 149.12 119.5 149.74 119.02 150.38C118.32 151.31 117.72 152.32 116.93 153.16C116.13 154.02 115.76 155.13 114.96 155.98C114.52 156.45 114.05 156.89 113.61 157.35C113.54 157.42 113.47 157.49 113.43 157.58C112.99 158.47 112.38 159.23 111.63 159.9C111.29 160.2 111.12 160.65 110.84 161.01C110.18 161.86 109.59 162.79 108.81 163.54C107.69 164.61 107.1 166.01 106.1 167.15C105.72 167.58 105.36 168.02 105 168.46C104.91 168.57 104.8 168.7 104.77 168.83C104.61 169.63 103.93 170.04 103.41 170.58C103 171 102.58 171.42 102.15 171.82C101.83 172.12 101.49 172.39 101.15 172.66C100.88 172.87 100.46 172.7 100.39 172.35C100.33 172.02 100.16 171.94 99.86 171.93C99.36 171.91 99.16 171.71 99.22 171.23C99.29 170.71 99.37 170.19 99.51 169.69C99.74 168.81 99.78 167.89 100.19 167.05C100.45 166.52 100.41 165.86 100.54 165.26C100.94 163.36 101.34 161.46 101.76 159.57C101.91 158.89 102.04 158.2 102.25 157.54C102.52 156.7 102.87 155.9 103.15 155.06C103.26 154.74 103.22 154.37 103.31 154.03C103.45 153.48 103.64 152.93 103.81 152.39C103.95 151.93 104.1 151.48 104.21 151.01C104.46 149.99 104.67 148.96 104.92 147.94C105.14 147.07 105.42 146.21 105.63 145.34C105.73 144.9 105.73 144.44 105.81 143.99C105.96 143.11 106.11 142.22 106.32 141.35C106.58 140.3 106.89 139.26 107.18 138.21C107.2 138.15 107.24 138.08 107.22 138.02C106.95 137.12 107.47 136.39 107.65 135.58C107.8 134.92 107.98 134.26 108.15 133.6C108.36 132.82 108.57 132.03 108.79 131.25C109.1 130.16 109.44 129.08 109.73 127.98C109.77 127.85 109.66 127.63 109.56 127.5C109.29 127.15 109.38 126.84 109.79 126.77C109.89 126.75 110.02 126.72 110.08 126.64C110.21 126.49 110.28 126.16 110.41 126.15C110.9 126.12 111.43 126.1 111.89 126.25C113.25 126.71 114.58 127.28 115.93 127.77C116.66 128.04 117.43 128.22 118.15 128.51C118.9 128.81 119.6 129.21 120.33 129.57C120.38 129.59 120.42 129.63 120.47 129.65C122.07 130.14 123.43 131.16 124.99 131.74C125.43 131.9 125.89 132.04 126.31 132.24C126.68 132.41 126.99 132.7 127.36 132.87C128.2 133.25 129.07 133.58 129.93 133.94C130.26 134.08 130.59 134.24 130.88 134.43C131.11 134.58 131.28 134.76 131.01 135.07C130.82 135.29 130.81 135.65 130.75 135.96C130.7 136.18 130.76 136.47 130.63 136.61C130.55 136.7 130.21 136.56 129.98 136.52L129.79 136.43V136.47ZM111.35 128.35C109.74 135.02 108.08 141.54 106.61 148.11C105.14 154.64 103.86 161.21 102.48 167.84C102.64 167.76 102.75 167.75 102.81 167.68C103.54 166.8 104.27 165.92 104.98 165.03C105.82 163.97 106.62 162.88 107.47 161.82C107.87 161.32 108.38 160.91 108.77 160.41C109.49 159.48 110.14 158.5 110.86 157.57C111.37 156.91 111.95 156.31 112.48 155.66C113.08 154.93 113.65 154.18 114.24 153.44C114.87 152.66 115.53 151.89 116.17 151.11C116.89 150.23 117.6 149.35 118.31 148.46C118.76 147.9 119.19 147.33 119.63 146.76C120.5 145.64 121.36 144.51 122.22 143.39C122.63 142.86 123.06 142.34 123.43 141.78C123.69 141.39 123.89 141 124.46 140.99C124.13 140.34 124.71 140.65 124.84 140.52C125.04 140.05 125.29 139.61 125.58 139.2C125.88 138.78 126.28 138.42 126.53 137.97C126.75 137.57 126.99 137.25 127.43 137.06C127.97 136.82 128.34 136.42 128.56 135.86C126.65 134.96 124.79 133.98 122.86 133.19C120.93 132.4 119.03 131.52 117.09 130.75C115.16 129.99 113.26 129.16 111.33 128.35H111.35Z" fill="black"/>
<path d="M111.14 112.59L111.21 112.31C111.31 112.31 111.28 112.39 111.28 112.47C113.61 108.89 117.37 106.22 121.52 105.15C122.38 104.89 123.28 104.88 124.17 104.96C124.38 104.98 124.56 105.03 124.73 104.82C124.71 105.12 126.57 104.94 126.95 105.07C130.54 105.33 133.83 107.04 136.56 109.33C141.1 112.68 140.6 121.04 139.96 126.4C139.32 132.38 136.62 134.95 131.38 137.39C126.61 139.22 121.14 138.81 116.67 136.35C113.93 134.81 111.31 132.54 109.94 129.67C109.38 128.46 108.45 127.38 108.32 126.01C108.18 124.77 108.13 123.52 107.98 122.28C108.15 121.56 108.33 120.85 108.43 120.1C108.5 118.41 109.14 116.86 109.63 115.26C109.99 114.31 110.86 113.52 111.13 112.57L111.14 112.59Z" fill="#FFA359"/>
<path d="M126.44 56.5401C126.5 56.2601 126.6 55.9501 126.73 55.6801C127.47 54.2501 128.11 52.7701 128.81 51.3301C129.54 49.7501 130.34 48.1901 131.14 46.6601C131.71 45.6701 132.19 44.6301 132.72 43.6401C132.96 43.2101 133.16 42.7701 133.38 42.3801C133.99 41.4001 134.52 40.4101 135.06 39.4201C135.94 37.8401 136.81 36.2901 137.79 34.7601C138.48 33.7301 139.25 32.7101 140.1 31.7801C140.53 31.3201 141.52 31.4901 141.79 32.0201C141.87 32.1801 141.92 32.4501 141.92 32.6301C141.9 33.1001 141.86 33.4601 141.8 33.9301C141.68 34.7101 141.56 35.4601 141.4 36.2401C141.31 36.7001 141.25 37.1701 141.21 37.6701C141.16 38.2501 141.04 38.8501 140.96 39.4201C140.84 40.2001 140.74 41.0301 140.73 41.7601C140.73 42.0901 140.7 42.4501 140.62 42.8001C140.48 43.4701 140.31 44.1001 140.18 44.7301C139.93 45.7501 139.8 46.7501 139.74 47.7701C139.65 49.2601 139.51 50.6701 139.22 52.2201C139.18 52.4001 139.22 52.5901 139.3 52.7201C139.36 52.8001 139.53 52.8401 139.6 52.7101C140.59 50.4501 141.21 49.2201 142.14 47.5701C142.54 46.8801 142.87 46.1801 143.17 45.4601C143.68 44.2401 144.25 43.0701 144.87 41.8801C145.22 41.2601 145.5 40.6101 145.81 39.9801C146.65 38.2401 147.52 36.5501 148.39 34.8101C148.52 34.5401 148.64 34.3101 148.84 34.0601C149.04 33.8101 149.37 33.6201 149.62 33.6701C150.36 33.8601 150.63 34.2801 150.78 35.0101C150.83 35.2801 150.76 35.6301 150.58 36.0001C150.27 36.6001 149.97 37.1601 149.81 37.5701C149.59 38.1101 149.41 38.5901 149.1 39.2201C148.98 39.4501 148.82 39.6801 148.7 39.9101C148.53 40.2101 148.4 40.4701 148.26 40.8101C147.93 41.7001 147.45 42.4101 147.03 43.3901C146.74 44.1001 146.41 44.7701 146.01 45.5001C145.72 46.0301 145.49 46.5701 145.3 47.1501C145.12 47.6601 144.82 48.2301 144.53 48.7501C144.05 49.6401 143.57 50.5401 143.09 51.4301C142.7 52.2301 142.29 53.1801 142.03 53.8901C141.74 54.7501 141.21 55.9201 140.75 56.6801C140.36 57.3301 139.98 58.2801 139.53 59.0401C139.42 59.2401 139.27 59.4301 139.12 59.6201C138.73 60.0901 137.97 60.0101 137.53 59.6201C137.19 59.3301 137 58.9601 136.91 58.5301C136.74 57.9101 136.71 56.9801 136.83 56.2301C137.02 54.6101 137.09 53.0101 137.31 51.4001C137.49 50.3301 137.64 49.2601 137.75 48.1801C137.86 47.1401 137.98 46.1701 138.12 45.1701C138.18 44.7001 138.25 44.3501 138.34 43.9301C138.78 41.7801 139.03 40.4001 139.29 38.6101C139.41 37.8601 139.57 37.0801 139.68 36.3401C139.72 36.1601 139.6 36.0301 139.49 36.0101C139.31 35.9701 139.19 36.0601 139.07 36.2501C138.61 37.0701 138.1 37.9301 137.62 38.6301C137.51 38.7901 137.38 39.0601 137.3 39.3001C136.84 40.4601 136.3 41.4801 135.57 42.6601C135.07 43.4801 134.63 44.3401 134.27 45.2201C134.12 45.5901 133.98 45.9001 133.87 46.0901C133.23 47.0301 132.7 47.9801 132.2 48.9801C132 49.4201 131.73 49.8401 131.53 50.2401C131.16 50.9401 130.8 51.6301 130.51 52.3501C130.05 53.5101 129.41 54.6301 128.78 55.7101C128.49 56.2401 128.23 56.7701 127.94 57.2701C127.78 57.5301 127.41 57.6801 127.17 57.6301C126.67 57.5301 126.34 57.0201 126.44 56.5201V56.5401Z" fill="#383838"/>
<path d="M98.99 206.05C98.76 205.85 98.58 205.62 98.41 205.36C98.01 204.71 97.66 203.99 97.41 203.17C97.32 202.85 97.34 202.39 97.36 202.09C97.4 201.72 97.47 201.35 97.51 200.98C97.6 199.97 97.75 199.08 97.91 198.28C98.06 197.55 98.26 196.79 98.57 196.02C98.73 195.63 99.11 195.45 99.37 195.65C99.8 195.97 99.97 196.42 99.94 196.95C99.88 197.62 99.73 198.32 99.54 199.08C99.33 199.91 99.41 200.81 99.32 201.63C99.2 202.97 99.3 203.57 99.9 204.76C100.07 205.06 100.44 205.29 100.82 205.29C101.21 205.26 101.54 205.14 101.84 204.97C102.59 204.48 102.94 204.09 103.14 203.68C103.34 203.07 103.51 202.42 103.64 201.8C103.98 200.15 104.16 198.55 104.35 196.69C104.42 196.17 104.57 195.63 104.64 195.11C104.9 193.68 105.08 192.42 105.31 190.94C105.34 190.79 105.38 190.61 105.38 190.42C105.38 189.12 105.78 188.14 105.89 186.64C106.01 185.52 106.22 184.31 106.59 183.28C106.79 182.67 107.02 182.11 107.28 181.59C107.48 181.17 107.77 180.89 108.2 180.68C109.18 180.19 110.22 179.95 111.03 180.12C111.69 180.26 112.27 180.57 112.82 181.1C113.2 181.48 113.6 181.76 113.64 182.3C113.75 183.08 114.14 183.93 114.16 184.62C114.17 185.31 114.13 186.06 114.09 186.82C114.02 187.68 113.95 188.58 113.65 189.47C113.55 189.79 113.12 190.01 112.79 190.13C112.33 190.3 111.82 190.2 111.67 190.01C111.52 189.82 111.48 189.47 111.48 189.09C111.48 188.71 111.48 188.02 111.59 187.25C111.7 186.7 111.74 186.18 111.85 185.63C111.97 184.86 111.96 183.98 111.89 183.23C111.87 182.96 111.81 182.68 111.69 182.35C111.55 181.94 111.22 181.68 110.86 181.72C110.15 181.84 109.61 182.22 109.25 182.84C109.01 183.25 108.8 183.7 108.74 184.18C108.63 184.88 108.54 185.51 108.44 186.18C108.39 186.4 108.34 186.66 108.37 186.89C108.46 187.4 108.4 187.85 108.3 188.33C108.24 188.62 108.17 188.95 108.18 189.26C108.18 190.21 107.94 191.16 107.82 192.12C107.8 192.42 107.76 192.76 107.74 193.06C107.7 194.19 107.53 195.57 107.23 196.84C107.16 197.17 107.09 197.53 107.2 197.9C107.39 198.63 107.38 199.23 107.2 200.26C106.94 201.88 106.62 203.61 106.15 205C105.96 205.53 105.5 205.74 105.09 206.27C104.78 206.66 103.61 207.33 102.71 207.61C101.93 207.87 101.23 207.73 100.6 207.29C100.03 206.91 99.5 206.53 98.98 206.08L98.99 206.05Z" fill="#383838"/>
<path d="M194 149.3C193.95 149.18 193.96 148.95 194.03 148.78C194.11 148.57 194.36 148.28 194.63 148.07C194.95 147.83 195.16 147.53 195.34 147.19C196 145.85 196.76 144.52 197.61 143.19C198.35 141.98 198.93 140.66 199.52 139.68C199.75 139.31 199.89 139 200.13 138.59C201.27 136.55 202.59 134.4 204.05 132.15C204.57 131.31 205.02 130.42 205.5 129.57C206.27 128.25 207.13 126.68 207.81 125.57C208.04 125.2 208.34 124.85 208.56 124.51C208.67 124.34 208.94 124.32 209.19 124.41C209.51 124.51 209.71 124.82 210.22 124.96C210.87 125.13 211.43 125.17 212.04 125.34C213.41 125.7 214.28 125.92 215.08 126.08C215.45 126.16 215.69 126.24 215.89 126.4C216.35 126.76 216.42 127.16 216.14 127.78C216.07 127.95 215.89 128.07 215.68 128.14C215.47 128.21 215.21 128.23 214.98 128.19C214.47 128.09 213.9 128.08 213.13 127.92C212.54 127.8 211.63 127.65 211.11 127.58C210.48 127.49 210.12 127.22 209.54 127.1C209.43 127.08 209.27 127.12 209.17 127.22C208.83 127.57 208.55 128 208.39 128.43C208.08 129.2 207.5 130.33 206.8 131.55C205.85 133.21 204.83 134.82 203.88 136.48C203.64 136.92 203.62 137.19 203.87 137.27C204.33 137.44 205.05 137.63 205.68 137.72C206.27 137.8 206.92 137.98 207.45 138.16C207.77 138.26 208.01 138.39 208.22 138.66C208.4 138.89 208.37 139.41 208.13 139.63C207.81 139.9 207.37 139.97 206.72 139.83C206.46 139.78 206.06 139.73 205.75 139.71C204.82 139.63 203.71 139.48 202.66 139.38C202.32 139.35 202.01 139.55 201.88 139.83C201.38 140.94 200.64 141.96 200.14 143.11C200 143.42 199.82 143.76 199.6 144.06C199.01 144.89 198.44 145.79 197.98 146.76C197.77 147.21 197.44 147.56 197.19 148C197.07 148.2 197.14 148.41 197.33 148.45C197.62 148.51 198.15 148.7 198.52 148.77C199.21 148.91 199.99 149 200.65 149.14C201.12 149.24 201.62 149.42 202.08 149.59C202.61 149.78 203.22 150.13 203.4 150.58C203.45 150.7 203.4 150.96 203.3 151.05C202.97 151.36 202.53 151.46 202.08 151.44C201.18 151.37 200.25 151.25 199.34 151.07C197.95 150.78 196.55 150.57 195.14 150.39C194.62 150.32 194.21 149.89 193.99 149.32L194 149.3Z" fill="#383838"/>
<path d="M32.35 122.46C32.27 121.95 32.3 121.42 32.51 120.94C32.83 120.1 33.1 119.2 33.53 118.38C34.16 117.18 34.69 115.93 35.32 114.69C35.71 113.94 36.07 113.1 36.44 112.42C36.75 111.84 37.02 111.25 37.33 110.71C38.05 109.27 38.75 107.89 39.45 106.52C39.58 106.28 39.69 106.08 39.83 105.8C40.85 103.62 42.14 101.46 43.35 99.28C43.53 98.97 43.82 98.85 44.15 98.92C44.7 99.03 45.05 99.52 44.88 99.98C44.8 100.19 44.72 100.4 44.61 100.57C44.16 101.27 43.78 101.99 43.39 102.78C43.13 103.3 42.87 103.81 42.68 104.38C42.43 105.05 42.17 105.72 41.81 106.36C41.49 106.98 41.24 107.65 40.85 108.25C40.41 108.92 40.11 109.62 39.77 110.34C39.16 111.62 38.55 112.93 37.87 114.2C37.5 114.88 37.11 116.02 36.71 116.88C36.39 117.53 36.17 118.21 35.88 118.87C35.35 119.94 34.92 120.95 34.28 122.03C34.17 122.2 34.13 122.38 34.14 122.53C34.14 122.72 34.2 122.81 34.31 122.83C34.57 122.88 34.73 122.84 34.82 122.74C35.18 122.47 35.51 122.16 35.78 121.76C36.9 120.21 38.09 118.67 39.23 117.05C39.83 116.19 40.37 115.39 40.97 114.53C42.72 111.97 44.51 109.38 46.16 106.73C46.33 106.46 46.56 106.09 46.73 105.82C47.68 104.35 48.5 103.31 49.4 102.09C49.72 101.66 49.99 101.45 50.36 101.49C50.77 101.54 51.01 101.66 51.21 101.82C51.4 101.97 51.56 102.16 51.56 102.35C51.56 102.58 51.48 102.75 51.35 102.99C50.58 104.31 50.03 105.68 49.44 107.07C48.77 108.64 48.08 110.32 47.41 111.92C47.06 112.72 46.78 113.5 46.5 114.31C46.26 114.94 46.03 115.66 45.73 116.35C45.61 116.55 45.52 116.8 45.47 117.06C45.32 117.79 45.08 118.42 44.81 119.13C44.37 120.36 44.1 121.68 43.94 122.97C43.88 123.45 43.91 124.03 44.04 124.51C44.08 124.67 44.32 124.8 44.48 124.75C44.6 124.7 44.73 124.65 44.82 124.59C45.17 124.36 45.51 124.01 45.78 123.61C46.3 122.96 46.74 122.29 47.23 121.56C47.89 120.59 48.35 119.82 48.88 118.9C49.65 117.58 50.49 116.27 51.16 114.86C51.29 114.58 51.38 114.34 51.5 114.13C52.81 112.01 53.89 109.77 55.02 107.57C55.4 106.85 55.82 106.07 56.14 105.3C56.44 104.57 56.85 103.89 57.11 103.19C57.29 102.7 57.54 102.22 57.79 101.74C58.01 101.41 58.42 101.07 58.86 101.16C59.26 101.24 59.52 101.45 59.76 101.8C59.87 101.97 59.93 102.25 59.89 102.47C59.76 103.09 59.56 103.73 59.3 104.21C58.69 105.33 58.04 106.79 57.45 108.57C57.25 109.17 56.93 109.79 56.7 110.35C56.62 110.56 56.5 110.76 56.4 110.9C56.02 111.47 55.72 112.16 55.51 112.8C55.37 113.3 55.14 113.67 54.91 114.04C54.66 114.52 54.45 114.97 54.23 115.49C53.96 116.04 53.62 116.58 53.28 117.15C52.81 117.96 52.42 118.76 52.02 119.58C51.71 120.16 51.43 120.78 51.06 121.28C50.9 121.51 50.73 121.74 50.65 121.95C50.36 122.61 49.91 123.32 49.33 124.1C49.13 124.36 48.86 124.72 48.64 125.06C48.26 125.63 47.74 126.09 47.13 126.49C46.78 126.72 46.45 126.84 46.06 126.88C45.59 126.93 45.09 126.98 44.6 126.96C44.41 126.96 44.16 126.87 43.96 126.75C43.41 126.45 43.07 126.07 42.7 125.5C42.59 125.33 42.48 125.08 42.43 124.8C42.16 123.72 42.1 122.53 42.28 121.32C42.33 120.88 42.47 120.41 42.57 119.9C42.77 118.95 43.12 117.78 43.45 116.93C43.55 116.65 43.64 116.36 43.71 116.04C43.75 115.86 43.73 115.74 43.63 115.72C43.52 115.7 43.34 115.81 43.06 116.29C42.43 117.3 41.78 118.42 41.19 119.47C41.09 119.6 41.02 119.74 40.87 119.9C40.23 120.6 39.66 121.55 39.02 122.44C38.53 123.14 37.98 123.78 37.37 124.38C37.09 124.63 36.66 124.84 36.39 124.9C36.03 124.98 35.66 125.09 35.31 125.13C35 125.18 34.55 125.13 34.2 124.98C33.05 124.48 32.65 124.01 32.4 122.48L32.35 122.46Z" fill="#383838"/>
<path d="M63 162.9C65.23 164.16 59 168.6 50.78 172.91C49.57 173.55 48.56 171.78 49.73 171.07C55.49 167.61 56.86 167.33 62.02 163.02C62.29 162.79 62.69 162.72 63 162.89V162.9Z" fill="#C0C4C8"/>
<path d="M202.83 71.25C205.06 72.51 198.83 76.95 190.61 81.26C189.4 81.9 188.39 80.13 189.56 79.42C195.32 75.96 196.69 75.68 201.85 71.37C202.12 71.14 202.52 71.07 202.83 71.24V71.25Z" fill="#C0C4C8"/>
<path d="M167.25 185.3C168.51 183.08 172.96 189.3 177.3 197.5C177.94 198.71 176.17 199.71 175.46 198.54C171.99 192.79 171.71 191.43 167.37 186.27C167.14 186 167.07 185.61 167.24 185.3H167.25Z" fill="#C0C4C8"/>
<path d="M75.2 45.73C76.46 43.51 80.91 49.73 85.25 57.93C85.89 59.14 84.12 60.14 83.41 58.97C79.94 53.22 79.66 51.86 75.32 46.7C75.09 46.43 75.02 46.04 75.19 45.73H75.2Z" fill="#C0C4C8"/>
</svg>
