<svg width="92%" viewBox="0 0 505 365" fill="none" xmlns="http://www.w3.org/2000/svg">
<path d="M32.2398 289.07C32.7798 289.83 33.2798 290.41 33.5998 291.07C34.7898 293.51 34.6598 293.72 32.1898 294.95C31.3698 295.36 30.6498 295.96 29.9198 296.5C25.9398 299.49 21.9498 302.5 17.9798 305.5C17.8498 305.59 17.7598 305.71 17.6298 305.79C16.2998 306.61 15.5298 306.37 14.9998 304.89C14.6698 303.99 14.6398 303.06 13.4398 302.59C12.4398 302.19 12.3998 300.95 13.2698 300.08C13.9598 299.39 14.8098 298.81 15.6698 298.33C19.8398 296.04 24.0498 293.8 28.2298 291.52C29.4998 290.82 30.7198 290.03 32.2598 289.09H32.2498L32.2398 289.07Z" fill="black"/>
<path d="M62.7198 331.41C58.4198 335.39 54.8598 339.78 51.6698 344.48C51.2798 345.05 50.9298 345.64 50.5398 346.21C49.3998 347.83 48.2198 347.99 46.6798 346.75C45.9098 346.14 45.1598 345.53 44.2498 344.8C44.0098 343.83 44.4898 342.91 45.2398 342.08C48.5298 338.46 51.8598 334.86 55.1498 331.24C55.7698 330.56 56.3398 329.83 56.8598 329.08C58.5698 326.61 61.2798 327.41 62.2098 329.79C62.4298 330.35 62.5798 330.93 62.7098 331.4L62.7198 331.41Z" fill="black"/>
<path d="M1.6499 261.11C3.6399 260.53 5.5099 260.07 7.3099 259.44C11.0099 258.15 14.6799 256.79 18.3799 255.47C18.9299 255.27 19.6099 254.95 20.0699 255.12C21.1199 255.51 22.1099 256.12 23.0399 256.78C23.2599 256.93 23.2799 257.73 23.0999 258.01C22.1899 259.32 21.3499 260.73 19.7199 261.34C15.3299 262.97 10.9499 264.6 6.5699 266.25C5.9199 266.49 5.2999 266.79 4.6699 267.07C3.1399 267.74 2.5699 267.5 2.2799 265.87C2.0099 264.39 1.8999 262.88 1.6699 261.11H1.6499Z" fill="black"/>
<path d="M2.02 213.84C8.34 212.64 14.43 213.54 20.82 214.27C20.44 215.51 20.26 216.67 19.72 217.6C19.13 218.61 18.35 219.54 16.79 219.38C15.68 219.27 14.5 219.6 13.38 219.84C10.53 220.44 7.72 219.84 4.91 219.5C3.72 219.36 2.99 218.76 2.84 217.45C2.72 216.34 2.35 215.26 2 213.87L2.02 213.85V213.84Z" fill="black"/>
<path d="M129.88 346.85C114.79 344.04 103.87 348.12 88.7899 346.89C82.3699 345.02 86.4799 253.71 84.6399 232.6C83.7499 -41.0596 78.1399 23.1004 129.63 14.6204C195.36 16.5904 377.97 23.4404 439.63 14.6204C443.03 14.9704 498.13 8.32036 498.4 24.8904C500.23 60.1404 500.27 93.1204 500.53 127.14C500.53 180.65 502.02 236.44 501.45 286.2C501.08 305.14 502.64 325.92 500.15 341.8C499.12 348.35 483.28 342.38 482.63 347.56C420.43 347.21 196.22 347.15 129.89 346.85H129.88Z" fill="#E0E0F9"/>
<path d="M377.23 180.19C377.02 176.77 375.99 173.39 375.45 169.98C374.92 166.58 374.18 163.15 374.19 159.74C374.2 156.55 374.55 153.48 373.82 150.23C371.72 140.96 368.95 131.97 364.18 123.69C362.17 120.2 360.15 116.67 357.76 113.43C353.03 106.99 348.06 100.73 343.17 94.4102C340.26 90.6502 337.63 86.6102 334.33 83.2202C329.6 78.3802 324.29 74.1102 319.37 69.4502C312.61 63.0402 305.44 57.1602 297.61 52.1002C293.27 49.2902 288.93 46.4702 284.45 43.8902C281.29 42.0702 277.82 40.7902 274.63 39.0302C269.68 36.3102 264.47 34.3202 259.04 32.8002C254.6 31.5602 250.21 30.1302 245.78 28.8602C241.08 27.5102 236.41 26.0102 231.63 25.0002C226.48 23.9202 221.23 23.3502 216.02 22.5602L216 22.6402C215.5 22.5702 215 22.4202 214.5 22.4302C208.24 22.5902 201.95 22.4202 195.74 23.0502C187.29 23.9102 178.84 24.8802 170.61 27.3502C163.38 29.5202 156.13 31.5302 149.31 34.8102C144.13 37.3102 138.87 39.6402 133.76 42.2702C129.21 44.6102 124.7 47.0602 120.4 49.8002C115.42 52.9802 110.61 56.4402 105.86 59.9602C102.63 62.3602 99.51 64.9402 96.54 67.6702C91.31 72.4802 86.51 77.8002 81 82.2602C76.52 85.8902 72.34 89.6902 69.03 94.3502C66.41 98.0302 64.28 102.06 61.76 105.82C57.35 112.42 53.26 119.17 50.16 126.49C48.12 131.32 46 136.11 44.06 140.98C41.27 147.99 38.26 154.93 35.99 162.11C33.25 170.77 32.31 179.86 31.84 188.89C31.52 195.17 32.19 201.5 32.55 207.8C33.09 217.16 34.17 226.48 37.09 235.42C39.15 241.71 41.77 247.82 44.23 253.98C45.55 257.28 46.97 260.55 48.52 263.75C50.4 267.63 52.33 271.49 54.46 275.24C57.78 281.1 61.17 286.93 64.76 292.63C66.63 295.6 68.91 298.32 71.11 301.07C74.45 305.25 77.88 309.37 81.29 313.49C81.88 314.19 82.57 314.84 83.29 315.41C86.47 317.93 89.65 320.45 92.89 322.9C99.02 327.52 105 332.39 111.42 336.57C117.31 340.4 123.69 343.46 129.87 346.84C135.15 349.72 140.66 351.9 146.62 353.06C150.84 353.88 154.97 355.19 159.12 356.35C161.96 357.15 164.72 358.3 167.6 358.88C172.03 359.78 176.51 360.53 181.01 360.98C186.64 361.54 192.3 361.83 197.96 362.03C201.39 362.15 204.9 361.37 208.23 361.89C214.48 362.86 220.55 361.64 226.63 361.02C231.43 360.53 236.12 358.93 240.85 357.79C245.17 356.74 249.46 355.62 253.78 354.56C257.43 353.67 261.18 353.07 264.74 351.91C268.39 350.72 271.79 348.9 275.56 347.9C279 347 282.29 345.48 285.58 344.08C288.75 342.73 292.02 341.48 294.92 339.66C299.67 336.67 304.18 333.3 308.73 330.01C310.83 328.49 312.74 326.72 314.83 325.19C322.01 319.93 328.32 313.66 333.93 306.87C340.43 299.01 346.33 290.63 352.08 282.2C355.12 277.74 357.43 272.75 359.84 267.89C361.65 264.22 363.08 260.36 364.71 256.6C368.29 248.32 370.7 239.68 372.53 230.88C373.28 227.29 373.66 223.63 374.18 220C375.04 213.94 375.98 207.88 376.68 201.8C377.02 198.83 376.93 195.81 377 192.81C377.12 188.59 377.48 184.35 377.22 180.16L377.23 180.19Z" fill="black"/>
<path d="M398.83 107.57C397.76 106.41 400.19 105.03 400.78 103.66C400.99 103.18 401.61 102.78 402.13 102.53C404.12 101.54 406.14 100.64 408.13 99.6803C411.03 98.3003 415.34 99.3603 417.25 101.94C418.56 103.7 418.14 104.65 416.03 105.15C412.39 106 408.82 107.09 405.16 107.86C403.35 108.24 401.92 108.13 399.7 108.27L398.83 107.56V107.57Z" fill="black"/>
<path d="M370.4 57.6695C371.51 56.9395 372.54 56.1595 373.67 55.5595C378.75 52.7995 383.83 50.0595 388.95 47.3795C390.18 46.7395 391.89 45.7395 392.81 46.8995C393.61 47.9095 393.63 49.5995 393.62 51.0195C393.62 51.5695 392.67 52.2995 391.99 52.7195C388.61 54.8095 385.16 56.7695 381.8 58.8995C380.32 59.8495 379.07 61.1395 377.66 62.1895C377.21 62.5195 376.22 62.9095 376.03 62.7295C374.24 61.1695 371.29 60.7695 370.39 57.6695H370.4Z" fill="black"/>
<path d="M345.51 30.47C343.67 28.75 343.23 26.85 344.44 24.72C345.84 22.25 347.21 19.78 349.74 18.18C352.79 16.25 355.44 13.81 357.52 10.76C358.03 10.01 358.93 9.04004 359.68 9.04004C361.14 9.04004 362.68 9.48004 364.07 10.04C364.51 10.21 364.89 11.46 364.74 12.05C364.5 13.07 363.97 14.17 363.26 14.91C359.4 18.92 355.48 22.85 351.52 26.75C349.82 28.43 347.93 29.9 345.49 30.47V30.45L345.51 30.47Z" fill="black"/>
<path d="M399.93 142.31C400.89 142.31 402.59 142.49 404.4 142.5C406.39 142.52 408.37 142.58 410.37 142.66C415.74 142.86 421.1 143.02 426.43 142.16C428.24 141.87 429.07 142.63 428.77 144.4C428.62 145.36 428.39 146.37 427.91 147.19C427.63 147.67 426.81 147.95 426.2 148.05C423.4 148.43 420.57 148.77 417.75 149.03C416.46 149.14 415.15 149.13 413.85 149.05C409.26 148.75 404.64 149.34 400.08 148.35C399.55 148.24 399 148.19 398.51 147.99C397.32 147.5 397.11 146.41 397.79 145.26C398.12 144.69 398.28 144.01 398.45 143.37C398.38 142.1 399.93 142.32 399.93 142.32V142.31Z" fill="black"/>
<path d="M219.64 3.87004C224.85 4.66004 230.11 5.23004 235.26 6.31004C240.04 7.31004 244.71 8.82004 249.41 10.17C253.84 11.45 258.23 12.87 262.67 14.11C268.1 15.62 273.31 17.61 278.26 20.34C281.46 22.1 284.92 23.38 288.08 25.2C292.56 27.78 296.9 30.6 301.24 33.41C309.07 38.47 316.24 44.35 323 50.76C327.92 55.42 333.23 59.69 337.96 64.53C341.26 67.91 343.89 71.95 346.8 75.72C351.69 82.04 356.66 88.3 361.39 94.74C363.77 97.99 365.8 101.51 367.81 105.01C372.57 113.29 375.35 122.27 377.45 131.55C378.19 134.8 377.83 137.87 377.82 141.06C377.81 144.47 378.55 147.9 379.08 151.3C379.62 154.71 380.65 158.09 380.86 161.51C381.12 165.71 380.75 169.95 380.64 174.16C380.56 177.16 380.66 180.18 380.32 183.15C379.62 189.23 378.69 195.28 377.82 201.35C377.3 204.98 376.92 208.64 376.17 212.23C374.34 221.03 371.93 229.67 368.35 237.95C366.72 241.71 365.3 245.57 363.48 249.24C361.08 254.1 358.77 259.08 355.72 263.55C349.97 271.98 344.07 280.36 337.57 288.22C331.96 295.01 325.65 301.28 318.47 306.54C316.38 308.07 314.47 309.84 312.37 311.36C307.82 314.65 303.31 318.02 298.56 321C295.67 322.82 292.39 324.07 289.22 325.42C285.93 326.82 282.64 328.34 279.2 329.24C275.43 330.23 272.02 332.06 268.38 333.25C264.82 334.41 261.07 335.01 257.42 335.9C253.11 336.95 248.81 338.08 244.49 339.13C239.76 340.28 235.07 341.87 230.27 342.36C224.19 342.98 218.12 344.2 211.87 343.23C208.53 342.71 205.02 343.49 201.6 343.37C195.95 343.17 190.28 342.88 184.65 342.32C180.15 341.88 175.67 341.12 171.24 340.22C168.36 339.63 165.6 338.48 162.76 337.68C158.61 336.52 154.48 335.21 150.26 334.39C144.3 333.23 138.79 331.05 133.51 328.17C127.33 324.79 120.94 321.73 115.06 317.9C108.64 313.72 102.66 308.85 96.5302 304.23C93.2902 301.79 90.1102 299.27 86.9302 296.74C86.2102 296.17 85.5202 295.53 84.9302 294.82C81.5102 290.7 78.0902 286.58 74.7502 282.4C72.5502 279.65 70.2602 276.93 68.4002 273.96C64.8202 268.26 61.4302 262.43 58.1002 256.57C55.9802 252.82 54.0402 248.96 52.1602 245.08C50.6102 241.88 49.2002 238.61 47.8702 235.31C45.4102 229.15 42.7902 223.04 40.7302 216.75C37.8002 207.81 36.7302 198.49 36.1902 189.13C35.8302 182.83 35.1602 176.5 35.4802 170.22C35.9502 161.19 36.8902 152.1 39.6302 143.44C41.9002 136.26 44.9102 129.32 47.7002 122.31C49.6402 117.44 51.7602 112.65 53.8002 107.82C56.9002 100.5 60.9902 93.75 65.4002 87.15C67.9202 83.39 70.0402 79.36 72.6702 75.68C75.9802 71.03 80.1702 67.23 84.6402 63.6C90.1402 59.14 94.9402 53.82 100.18 49.01C103.15 46.29 106.27 43.7 109.5 41.3C114.25 37.78 119.05 34.32 124.04 31.14C128.34 28.4 132.86 25.95 137.41 23.61C142.52 20.98 147.78 18.65 152.96 16.15C159.78 12.86 167.03 10.85 174.27 8.69004C182.51 6.22004 190.95 5.25004 199.4 4.39004C205.61 3.76004 211.9 3.94004 218.16 3.77004C218.66 3.76004 219.16 3.90004 219.66 3.98004L219.68 3.90004L219.64 3.87004Z" fill="#68BDFA"/>
<path d="M84.1098 94.1202L84.7298 91.6302C85.6098 91.6302 85.2898 92.3402 85.3798 93.0502C105.79 61.7702 138.6 38.3902 174.92 29.0602C182.46 26.8002 190.27 26.6602 198.06 27.3902C199.85 27.5602 201.49 28.0002 202.97 26.2002C202.75 28.8102 219.03 27.2202 222.37 28.3402C253.78 30.5902 282.55 45.6002 306.35 65.5602C346.03 94.8402 359.56 150.58 354.01 197.48C348.4 249.78 306.92 289.63 261.09 310.9C219.41 326.87 171.59 323.27 132.46 301.82C108.48 288.35 85.5698 268.56 73.6598 243.43C68.7898 232.89 60.6598 223.41 59.5398 211.47C58.3298 200.62 57.8398 189.7 56.5898 178.85C58.0498 172.53 59.6798 166.37 60.4998 159.8C61.1298 145.06 66.7598 131.47 70.9698 117.51C74.1198 109.22 81.6998 102.34 84.0598 94.0402L84.0998 94.1002H84.1098V94.1202Z" fill="white"/>
<path d="M195.83 164.48C196.27 163.37 196.67 162.25 197.16 161.16C197.48 160.44 197.91 159.72 198.34 159.08C199.08 157.98 199.86 156.9 200.65 155.88C202.7 153.23 204.3 150.12 206.07 147.16C207.74 144.36 209.56 141.71 211.33 139C212.21 137.66 213.16 136.48 213.9 134.91C214.58 133.48 215.56 132.19 216.4 130.83C217.49 129.07 218.59 127.32 219.66 125.54C221.22 122.96 222.67 120.22 224.33 117.79C226.01 115.32 227.17 112.46 228.82 110.02C229.74 108.67 230.68 107.37 231.62 106.03C231.76 105.83 231.91 105.62 232.02 105.39C233.17 103.02 234.5 100.88 236.01 98.8796C236.67 97.9996 237.18 96.8196 237.8 95.8196C239.26 93.4296 240.65 90.8996 242.24 88.7096C244.51 85.5696 246.17 81.8996 248.29 78.6596C249.09 77.4296 249.88 76.1896 250.66 74.9396C250.86 74.6196 251.1 74.2696 251.21 73.9296C251.87 71.9296 253.14 70.5796 254.21 69.0396C255.06 67.8096 255.92 66.5996 256.79 65.4196C257.43 64.5396 258.1 63.6996 258.77 62.8796C259.28 62.2496 259.85 62.4196 259.76 63.2296C259.68 63.9896 259.89 64.0896 260.36 63.9596C261.12 63.7496 261.31 64.1296 260.97 65.2896C260.6 66.5596 260.19 67.8496 259.72 69.1196C258.9 71.3396 258.37 73.5596 257.29 75.7996C256.62 77.1996 256.32 78.7696 255.81 80.2596C254.2 85.0096 252.58 89.7596 250.95 94.5096C250.36 96.2196 249.81 97.9296 249.14 99.6096C248.29 101.75 247.32 103.87 246.46 106.01C246.13 106.84 245.98 107.71 245.68 108.55C245.17 109.95 244.59 111.35 244.05 112.74C243.59 113.91 243.12 115.08 242.71 116.25C241.8 118.82 240.93 121.39 240.01 123.95C239.22 126.15 238.34 128.34 237.56 130.54C237.17 131.64 236.93 132.75 236.58 133.86C235.88 136.05 235.19 138.25 234.41 140.43C233.47 143.09 232.43 145.74 231.43 148.39C231.37 148.55 231.27 148.74 231.27 148.87C231.21 150.88 230.02 152.91 229.32 154.92C228.74 156.58 228.13 158.24 227.51 159.91C226.78 161.9 226.04 163.88 225.29 165.86C224.24 168.63 223.16 171.4 222.12 174.18C221.99 174.52 222.04 174.97 222.12 175.24C222.35 175.94 222.05 176.72 221.38 177.11C221.21 177.21 221 177.37 220.87 177.57C220.59 178.01 220.31 178.82 220.12 178.9C219.36 179.21 218.53 179.56 217.91 179.43C216.07 179.04 214.33 178.39 212.53 177.91C211.55 177.65 210.47 177.62 209.52 177.3C208.54 176.96 207.66 176.39 206.74 175.92C206.68 175.89 206.64 175.81 206.57 175.81C204.37 175.48 202.83 173.76 200.74 173.19C200.15 173.03 199.52 172.95 198.98 172.69C198.51 172.47 198.18 171.95 197.7 171.74C196.61 171.28 195.45 170.95 194.34 170.53C193.91 170.37 193.49 170.17 193.15 169.85C192.87 169.6 192.72 169.26 193.29 168.38C193.69 167.76 193.9 166.88 194.16 166.11C194.35 165.56 194.41 164.9 194.68 164.5C194.85 164.25 195.3 164.39 195.62 164.36L195.86 164.48H195.84H195.83Z" fill="black"/>
<path d="M213.39 195.59C213.19 196.21 213.04 196.84 212.79 197.43C212.63 197.82 212.36 198.19 212.07 198.51C211.56 199.06 211.03 199.58 210.45 200.06C208.98 201.3 208.05 202.96 206.94 204.47C205.88 205.9 204.65 207.21 203.47 208.55C202.89 209.22 202.19 209.77 201.79 210.61C201.42 211.38 200.73 211.99 200.18 212.68C199.47 213.57 198.76 214.45 198.07 215.36C197.08 216.68 196.22 218.11 195.1 219.31C193.96 220.53 193.44 222.11 192.31 223.31C191.69 223.97 191.02 224.61 190.39 225.26C190.29 225.36 190.2 225.46 190.14 225.58C189.51 226.85 188.65 227.93 187.58 228.88C187.1 229.3 186.85 229.94 186.46 230.45C185.52 231.66 184.68 232.98 183.57 234.04C181.99 235.56 181.13 237.55 179.72 239.17C179.18 239.78 178.68 240.41 178.16 241.04C178.03 241.2 177.87 241.37 177.83 241.57C177.6 242.71 176.64 243.3 175.9 244.06C175.32 244.66 174.72 245.25 174.11 245.82C173.66 246.24 173.18 246.64 172.68 247.02C172.3 247.31 171.7 247.08 171.61 246.58C171.53 246.11 171.29 246 170.85 245.98C170.14 245.95 169.86 245.66 169.94 244.99C170.03 244.25 170.16 243.52 170.35 242.8C170.68 241.55 170.73 240.24 171.31 239.04C171.68 238.29 171.63 237.34 171.81 236.5C172.38 233.8 172.95 231.11 173.54 228.41C173.75 227.44 173.94 226.47 174.23 225.53C174.61 224.34 175.11 223.2 175.5 222.01C175.65 221.55 175.61 221.03 175.72 220.55C175.92 219.76 176.19 218.99 176.43 218.21C176.63 217.56 176.84 216.91 177 216.26C177.35 214.81 177.65 213.35 178.01 211.9C178.32 210.66 178.72 209.45 179.01 208.21C179.16 207.59 179.15 206.93 179.26 206.3C179.48 205.05 179.68 203.79 179.98 202.55C180.34 201.05 180.8 199.58 181.21 198.09C181.23 198 181.29 197.9 181.27 197.82C180.88 196.54 181.63 195.5 181.89 194.36C182.1 193.42 182.35 192.48 182.6 191.55C182.89 190.43 183.2 189.32 183.51 188.21C183.95 186.66 184.43 185.12 184.85 183.56C184.9 183.37 184.76 183.07 184.61 182.88C184.22 182.38 184.35 181.94 184.94 181.84C185.09 181.81 185.27 181.76 185.35 181.66C185.53 181.44 185.64 180.98 185.81 180.97C186.51 180.93 187.26 180.9 187.91 181.11C189.84 181.77 191.73 182.57 193.65 183.28C194.69 183.67 195.78 183.92 196.81 184.34C197.87 184.77 198.87 185.33 199.91 185.84C199.98 185.87 200.04 185.93 200.11 185.95C202.39 186.64 204.32 188.1 206.54 188.92C207.17 189.15 207.82 189.34 208.42 189.63C208.94 189.88 209.39 190.29 209.91 190.52C211.11 191.06 212.34 191.52 213.56 192.04C214.02 192.24 214.49 192.46 214.91 192.74C215.24 192.96 215.48 193.21 215.1 193.65C214.83 193.96 214.82 194.48 214.73 194.91C214.67 195.22 214.75 195.64 214.56 195.83C214.44 195.95 213.96 195.76 213.64 195.71L213.37 195.58V195.6L213.39 195.59ZM187.17 184.04C184.88 193.52 182.53 202.78 180.43 212.12C178.34 221.39 176.52 230.73 174.56 240.16C174.79 240.05 174.95 240.03 175.02 239.94C176.06 238.69 177.1 237.44 178.11 236.18C179.3 234.67 180.44 233.12 181.65 231.62C182.22 230.92 182.95 230.33 183.5 229.62C184.53 228.3 185.45 226.9 186.47 225.58C187.19 224.65 188.02 223.78 188.77 222.87C189.62 221.83 190.43 220.76 191.28 219.72C192.18 218.61 193.11 217.52 194.02 216.41C195.04 215.16 196.06 213.9 197.06 212.64C197.7 211.84 198.31 211.03 198.94 210.22C200.17 208.62 201.4 207.02 202.62 205.43C203.2 204.67 203.81 203.94 204.33 203.15C204.69 202.6 204.99 202.04 205.8 202.03C205.33 201.1 206.15 201.54 206.34 201.36C206.63 200.69 206.98 200.06 207.39 199.48C207.82 198.88 208.39 198.37 208.74 197.73C209.05 197.16 209.4 196.71 210.03 196.43C210.8 196.09 211.32 195.52 211.64 194.73C208.92 193.44 206.28 192.05 203.54 190.94C200.79 189.82 198.1 188.56 195.34 187.48C192.6 186.4 189.9 185.21 187.16 184.06L187.17 184.04Z" fill="black"/>
<path d="M186.88 161.65L186.98 161.25C187.12 161.25 187.07 161.37 187.08 161.48C190.4 156.39 195.73 152.6 201.63 151.08C202.86 150.71 204.13 150.69 205.39 150.81C205.68 150.84 205.95 150.91 206.19 150.62C206.16 151.05 208.8 150.79 209.34 150.97C214.45 151.34 219.12 153.77 222.99 157.02C229.44 161.78 228.73 173.66 227.83 181.28C226.92 189.78 223.09 193.43 215.63 196.89C208.85 199.49 201.08 198.9 194.72 195.42C190.82 193.23 187.1 190.01 185.16 185.93C184.37 184.22 183.05 182.68 182.86 180.73C182.66 178.97 182.58 177.19 182.38 175.43C182.62 174.4 182.88 173.4 183.02 172.34C183.12 169.94 184.03 167.74 184.72 165.47C185.23 164.12 186.47 163 186.85 161.65H186.88Z" fill="#FFA359"/>
<path d="M208.62 81.9899C208.7 81.5899 208.85 81.1499 209.03 80.7699C210.08 78.7399 210.99 76.6299 211.98 74.5899C213.02 72.3499 214.16 70.1299 215.29 67.9599C216.11 66.5599 216.78 65.0799 217.54 63.6699C217.87 63.0599 218.16 62.4399 218.48 61.8799C219.34 60.4899 220.1 59.0799 220.87 57.6699C222.12 55.4199 223.36 53.2199 224.75 51.0499C225.74 49.5799 226.82 48.1299 228.04 46.8199C228.65 46.1599 230.06 46.3999 230.44 47.1599C230.55 47.3899 230.63 47.7699 230.62 48.0299C230.59 48.6999 230.53 49.2099 230.45 49.8699C230.27 50.9799 230.1 52.0499 229.87 53.1499C229.74 53.7999 229.65 54.4699 229.61 55.1799C229.54 55.9999 229.37 56.8499 229.25 57.6699C229.07 58.7799 228.93 59.9599 228.93 60.9999C228.93 61.4699 228.88 61.9799 228.78 62.4799C228.58 63.4299 228.35 64.3199 228.16 65.2299C227.81 66.6699 227.62 68.0999 227.53 69.5499C227.41 71.6699 227.21 73.6699 226.8 75.8799C226.75 76.1299 226.8 76.3999 226.92 76.5799C227 76.6999 227.25 76.7499 227.34 76.5599C228.74 73.3499 229.62 71.5999 230.94 69.2599C231.51 68.2799 231.98 67.2799 232.4 66.2699C233.12 64.5399 233.94 62.8799 234.82 61.1799C235.32 60.2899 235.72 59.3799 236.16 58.4799C237.35 56.0099 238.59 53.5999 239.83 51.1299C240.01 50.7499 240.19 50.4199 240.47 50.0599C240.75 49.6999 241.23 49.4299 241.58 49.5099C242.63 49.7799 243.02 50.3799 243.23 51.4199C243.31 51.7999 243.2 52.2999 242.94 52.8199C242.5 53.6699 242.07 54.4699 241.85 55.0499C241.53 55.8199 241.29 56.4999 240.84 57.3999C240.66 57.7299 240.44 58.0499 240.27 58.3799C240.03 58.7999 239.84 59.1799 239.64 59.6599C239.17 60.9199 238.49 61.9299 237.89 63.3199C237.47 64.3299 237.01 65.2799 236.43 66.3099C236.01 67.0599 235.7 67.8299 235.42 68.6599C235.16 69.3899 234.74 70.1899 234.32 70.9399C233.64 72.2099 232.96 73.4799 232.28 74.7499C231.73 75.8899 231.14 77.2299 230.77 78.2499C230.36 79.4699 229.6 81.1399 228.96 82.2099C228.4 83.1399 227.86 84.4899 227.22 85.5599C227.06 85.8399 226.84 86.1099 226.63 86.3799C226.07 87.0499 225 86.9299 224.37 86.3799C223.88 85.9599 223.62 85.4399 223.49 84.8399C223.25 83.9599 223.21 82.6399 223.38 81.5799C223.64 79.2799 223.75 77.0099 224.06 74.7199C224.32 73.1999 224.53 71.6799 224.69 70.1499C224.84 68.6699 225.02 67.2899 225.21 65.8699C225.29 65.2099 225.4 64.7099 225.52 64.0999C226.15 61.0399 226.51 59.0799 226.87 56.5399C227.04 55.4799 227.27 54.3699 227.43 53.3099C227.48 53.0599 227.31 52.8699 227.16 52.8399C226.91 52.7899 226.73 52.9099 226.56 53.1899C225.9 54.3599 225.18 55.5699 224.5 56.5799C224.35 56.8099 224.16 57.1899 224.04 57.5299C223.38 59.1699 222.61 60.6299 221.59 62.2999C220.88 63.4599 220.26 64.6899 219.74 65.9399C219.52 66.4699 219.33 66.8999 219.17 67.1799C218.27 68.5099 217.51 69.8699 216.8 71.2899C216.51 71.9099 216.13 72.5099 215.85 73.0799C215.33 74.0699 214.81 75.0599 214.39 76.0699C213.73 77.7099 212.83 79.2999 211.94 80.8399C211.52 81.5899 211.16 82.3499 210.75 83.0499C210.52 83.4199 210 83.6299 209.65 83.5599C208.95 83.4099 208.47 82.6899 208.61 81.9899H208.62Z" fill="#383838"/>
<path d="M169.62 294.47C169.3 294.18 169.04 293.86 168.79 293.49C168.22 292.56 167.73 291.54 167.37 290.38C167.25 289.92 167.27 289.28 167.31 288.85C167.37 288.32 167.47 287.8 167.53 287.27C167.66 285.84 167.87 284.58 168.1 283.44C168.31 282.4 168.59 281.32 169.04 280.22C169.26 279.67 169.81 279.4 170.18 279.7C170.79 280.15 171.04 280.8 170.99 281.55C170.9 282.51 170.7 283.5 170.42 284.57C170.12 285.75 170.24 287.02 170.11 288.19C169.93 290.1 170.09 290.95 170.93 292.64C171.17 293.07 171.7 293.4 172.24 293.4C172.79 293.35 173.26 293.18 173.69 292.94C174.76 292.24 175.25 291.69 175.54 291.1C175.83 290.24 176.07 289.31 176.25 288.43C176.73 286.09 176.98 283.82 177.26 281.16C177.36 280.42 177.57 279.65 177.67 278.92C178.04 276.88 178.3 275.09 178.62 272.99C178.66 272.78 178.72 272.53 178.72 272.25C178.72 270.41 179.28 269.01 179.45 266.88C179.62 265.29 179.92 263.57 180.44 262.1C180.73 261.24 181.06 260.44 181.42 259.7C181.7 259.11 182.11 258.71 182.72 258.4C184.11 257.71 185.59 257.37 186.74 257.6C187.68 257.79 188.51 258.24 189.28 258.99C189.82 259.53 190.39 259.92 190.45 260.69C190.6 261.81 191.17 263.01 191.18 263.99C191.2 264.97 191.14 266.04 191.08 267.11C190.99 268.33 190.89 269.62 190.46 270.88C190.31 271.34 189.7 271.65 189.23 271.82C188.58 272.06 187.85 271.91 187.63 271.65C187.41 271.39 187.35 270.89 187.35 270.35C187.35 269.81 187.34 268.83 187.51 267.73C187.67 266.95 187.72 266.2 187.88 265.42C188.05 264.32 188.04 263.07 187.93 262.02C187.9 261.64 187.82 261.24 187.65 260.77C187.45 260.18 186.98 259.82 186.48 259.88C185.47 260.05 184.7 260.59 184.2 261.47C183.86 262.05 183.57 262.69 183.48 263.38C183.33 264.38 183.2 265.27 183.05 266.22C182.99 266.53 182.91 266.9 182.95 267.23C183.07 267.96 182.99 268.59 182.85 269.27C182.76 269.69 182.67 270.16 182.68 270.59C182.68 271.94 182.34 273.28 182.17 274.66C182.14 275.08 182.09 275.57 182.05 275.99C181.99 277.6 181.75 279.56 181.32 281.36C181.22 281.83 181.12 282.35 181.28 282.87C181.55 283.9 181.54 284.76 181.29 286.23C180.92 288.54 180.47 290.99 179.79 292.96C179.53 293.72 178.87 294.01 178.28 294.76C177.84 295.32 176.17 296.27 174.9 296.66C173.79 297.03 172.8 296.82 171.9 296.2C171.09 295.65 170.33 295.12 169.6 294.48L169.62 294.47Z" fill="#383838"/>
<path d="M304.63 213.81C304.56 213.63 304.57 213.31 304.68 213.07C304.8 212.77 305.15 212.36 305.54 212.06C305.99 211.72 306.29 211.3 306.55 210.81C307.48 208.9 308.57 207.02 309.78 205.12C310.84 203.4 311.66 201.52 312.49 200.13C312.81 199.6 313.02 199.16 313.35 198.58C314.98 195.68 316.85 192.62 318.92 189.43C319.65 188.24 320.3 186.97 320.97 185.76C322.06 183.88 323.28 181.66 324.25 180.08C324.57 179.55 325 179.05 325.32 178.58C325.48 178.34 325.86 178.31 326.22 178.44C326.68 178.59 326.97 179.03 327.68 179.23C328.6 179.47 329.4 179.53 330.27 179.77C332.22 180.28 333.45 180.59 334.59 180.82C335.11 180.93 335.46 181.05 335.74 181.27C336.39 181.78 336.49 182.34 336.09 183.23C335.99 183.48 335.74 183.64 335.44 183.74C335.15 183.84 334.77 183.87 334.45 183.81C333.73 183.66 332.91 183.65 331.83 183.43C331 183.26 329.69 183.04 328.96 182.94C328.07 182.81 327.55 182.43 326.72 182.26C326.57 182.23 326.33 182.29 326.2 182.42C325.72 182.91 325.32 183.53 325.09 184.13C324.65 185.22 323.83 186.83 322.82 188.57C321.46 190.93 320.02 193.22 318.67 195.58C318.33 196.21 318.3 196.58 318.65 196.71C319.3 196.95 320.33 197.22 321.22 197.35C322.06 197.47 322.98 197.71 323.74 197.98C324.2 198.13 324.54 198.31 324.84 198.69C325.1 199.01 325.05 199.76 324.72 200.07C324.26 200.46 323.65 200.55 322.71 200.35C322.34 200.27 321.76 200.21 321.34 200.17C320.01 200.06 318.44 199.84 316.95 199.7C316.47 199.66 316.03 199.94 315.84 200.34C315.13 201.92 314.08 203.37 313.36 205C313.16 205.45 312.9 205.93 312.59 206.35C311.75 207.52 310.95 208.81 310.28 210.19C309.99 210.83 309.51 211.32 309.16 211.95C308.99 212.24 309.09 212.53 309.36 212.58C309.78 212.67 310.53 212.93 311.05 213.04C312.04 213.24 313.15 213.37 314.08 213.56C314.75 213.7 315.46 213.95 316.11 214.19C316.87 214.45 317.73 214.96 317.98 215.6C318.05 215.78 317.98 216.14 317.84 216.27C317.37 216.71 316.75 216.85 316.1 216.83C314.83 216.73 313.5 216.57 312.21 216.3C310.24 215.89 308.25 215.59 306.25 215.34C305.52 215.24 304.93 214.63 304.62 213.82L304.63 213.81Z" fill="#383838"/>
<path d="M74.9098 175.67C74.7898 174.95 74.8298 174.2 75.1398 173.51C75.5998 172.31 75.9798 171.04 76.5898 169.87C77.4798 168.17 78.2298 166.38 79.1298 164.63C79.6798 163.56 80.1898 162.37 80.7198 161.4C81.1598 160.57 81.5498 159.74 81.9798 158.96C82.9998 156.91 83.9998 154.96 84.9898 153C85.1698 152.66 85.3298 152.37 85.5298 151.98C86.9798 148.88 88.8098 145.81 90.5298 142.72C90.7798 142.29 91.1998 142.1 91.6598 142.2C92.4398 142.36 92.9398 143.06 92.6998 143.71C92.5798 144.01 92.4698 144.31 92.3098 144.55C91.6698 145.55 91.1398 146.57 90.5798 147.69C90.2098 148.43 89.8398 149.16 89.5698 149.96C89.2098 150.91 88.8498 151.86 88.3398 152.78C87.8898 153.66 87.5298 154.61 86.9798 155.46C86.3498 156.41 85.9298 157.4 85.4498 158.43C84.5898 160.25 83.7098 162.11 82.7498 163.91C82.2198 164.88 81.6798 166.49 81.0998 167.72C80.6398 168.65 80.3298 169.61 79.9198 170.55C79.1698 172.07 78.5498 173.5 77.6398 175.04C77.4798 175.28 77.4298 175.54 77.4398 175.75C77.4398 176.02 77.5198 176.14 77.6798 176.18C78.0398 176.25 78.2698 176.19 78.4098 176.06C78.9198 175.68 79.3898 175.24 79.7798 174.67C81.3698 172.46 83.0598 170.28 84.6798 167.97C85.5298 166.74 86.2998 165.61 87.1498 164.39C89.6298 160.75 92.1698 157.07 94.5198 153.3C94.7598 152.92 95.0898 152.39 95.3298 152.01C96.6798 149.92 97.8498 148.44 99.1298 146.7C99.5798 146.09 99.9598 145.79 100.49 145.85C101.07 145.92 101.41 146.09 101.69 146.31C101.97 146.53 102.19 146.79 102.18 147.06C102.17 147.38 102.06 147.63 101.88 147.97C100.79 149.85 100.01 151.79 99.1698 153.77C98.2198 156 97.2398 158.38 96.2798 160.67C95.7798 161.81 95.3798 162.91 94.9798 164.07C94.6298 164.97 94.3198 165.98 93.8898 166.97C93.7198 167.26 93.5998 167.61 93.5198 167.97C93.3098 169.01 92.9598 169.9 92.5898 170.91C91.9598 172.66 91.5698 174.53 91.3498 176.37C91.2598 177.05 91.3098 177.87 91.4898 178.56C91.5498 178.79 91.8898 178.97 92.1198 178.9C92.2998 178.83 92.4798 178.76 92.5998 178.67C93.0998 178.34 93.5798 177.85 93.9698 177.28C94.6998 176.35 95.3298 175.4 96.0298 174.37C96.9598 173 97.6198 171.9 98.3798 170.59C99.4698 168.71 100.67 166.85 101.62 164.84C101.81 164.45 101.93 164.1 102.1 163.81C103.96 160.8 105.49 157.61 107.11 154.49C107.65 153.47 108.25 152.35 108.7 151.26C109.13 150.22 109.71 149.26 110.08 148.25C110.33 147.55 110.69 146.87 111.05 146.19C111.36 145.72 111.95 145.24 112.57 145.37C113.14 145.49 113.51 145.78 113.84 146.28C114 146.53 114.09 146.92 114.02 147.24C113.84 148.12 113.54 149.03 113.18 149.71C112.31 151.31 111.39 153.38 110.55 155.9C110.26 156.76 109.81 157.63 109.49 158.43C109.37 158.73 109.21 159.02 109.06 159.21C108.51 160.02 108.09 161.01 107.8 161.91C107.6 162.62 107.28 163.15 106.95 163.68C106.6 164.36 106.3 165 105.98 165.74C105.6 166.53 105.12 167.29 104.62 168.1C103.95 169.25 103.39 170.38 102.82 171.56C102.38 172.39 101.98 173.27 101.45 173.97C101.22 174.3 100.99 174.63 100.87 174.93C100.46 175.87 99.8198 176.87 98.9898 177.99C98.6998 178.36 98.3198 178.88 98.0098 179.35C97.4598 180.15 96.7298 180.81 95.8598 181.38C95.3598 181.71 94.8898 181.88 94.3398 181.93C93.6798 182.01 92.9598 182.08 92.2598 182.04C91.9898 182.04 91.6398 181.91 91.3498 181.74C90.5698 181.31 90.0898 180.78 89.5498 179.97C89.3898 179.72 89.2398 179.37 89.1598 178.97C88.7798 177.43 88.6898 175.74 88.9398 174.02C89.0198 173.39 89.2098 172.73 89.3598 172C89.6398 170.65 90.1398 168.98 90.6098 167.79C90.7498 167.39 90.8798 166.98 90.9798 166.52C91.0298 166.26 91.0098 166.09 90.8598 166.06C90.7098 166.03 90.4498 166.19 90.0498 166.86C89.1598 168.29 88.2398 169.88 87.3898 171.38C87.2398 171.56 87.1498 171.76 86.9398 171.99C86.0298 172.99 85.2098 174.33 84.2998 175.59C83.6098 176.58 82.8198 177.5 81.9498 178.34C81.5498 178.69 80.9498 179 80.5598 179.08C80.0498 179.19 79.5298 179.35 79.0298 179.41C78.5798 179.48 77.9498 179.41 77.4498 179.19C75.8198 178.47 75.2498 177.82 74.8898 175.64L74.9098 175.67Z" fill="#383838"/>
<path d="M118.46 233.15C121.62 234.95 112.77 241.24 101.09 247.38C99.3702 248.28 97.9402 245.77 99.6002 244.77C107.78 239.85 109.73 239.46 117.07 233.33C117.46 233.01 118.02 232.9 118.46 233.15Z" fill="#C0C4C8"/>
<path d="M317.19 102.89C320.35 104.69 311.5 110.98 299.82 117.12C298.1 118.02 296.67 115.51 298.33 114.51C306.51 109.59 308.46 109.2 315.8 103.07C316.19 102.75 316.75 102.64 317.19 102.89Z" fill="#C0C4C8"/>
<path d="M266.62 264.98C268.42 261.83 274.74 270.66 280.91 282.32C281.82 284.04 279.3 285.47 278.29 283.8C273.35 275.63 272.96 273.69 266.8 266.36C266.48 265.97 266.37 265.42 266.62 264.98Z" fill="#C0C4C8"/>
<path d="M135.8 66.6097C137.6 63.4497 143.92 72.2897 150.08 83.9497C150.99 85.6697 148.47 87.0997 147.46 85.4397C142.52 77.2697 142.13 75.3297 135.97 67.9997C135.65 67.6097 135.54 67.0597 135.79 66.6197L135.8 66.6097Z" fill="#C0C4C8"/>
</svg>
