<svg width="92%" viewBox="0 0 510 365" fill="none" xmlns="http://www.w3.org/2000/svg">
<path d="M59.9295 343.298C42.5112 340.522 29.9064 344.553 12.4997 343.338C5.08912 341.49 9.83325 251.265 7.70936 230.406C6.68204 -40.0009 0.206471 23.3965 59.6409 15.0173C135.512 16.9639 346.298 23.7325 417.471 15.0173C421.396 15.3631 484.997 8.79218 485.309 25.1652C487.421 59.9963 487.467 92.5843 487.767 126.2C487.767 179.074 489.487 234.201 488.829 283.369C488.402 302.084 490.203 322.617 487.329 338.308C486.14 344.781 467.856 338.882 467.106 344C395.309 343.654 136.505 343.595 59.941 343.298H59.9295Z" fill="#E0E0F9"/>
<path d="M71.5904 289.07C72.1304 289.83 72.6304 290.41 72.9504 291.07C74.1404 293.51 74.0104 293.72 71.5404 294.95C70.7204 295.36 70.0004 295.96 69.2704 296.5C65.2904 299.49 61.3004 302.5 57.3304 305.5C57.2004 305.59 57.1104 305.71 56.9804 305.79C55.6504 306.61 54.8804 306.37 54.3504 304.89C54.0204 303.99 53.9904 303.06 52.7904 302.59C51.7904 302.19 51.7504 300.95 52.6204 300.08C53.3104 299.39 54.1604 298.81 55.0204 298.33C59.1904 296.04 63.4004 293.8 67.5804 291.52C68.8504 290.82 70.0704 290.03 71.6104 289.09H71.6004L71.5904 289.07Z" fill="black"/>
<path d="M102.069 331.41C97.7694 335.39 94.2094 339.78 91.0194 344.48C90.6294 345.05 90.2794 345.64 89.8894 346.21C88.7494 347.83 87.5694 347.99 86.0294 346.75C85.2594 346.14 84.5094 345.53 83.5994 344.8C83.3594 343.83 83.8394 342.91 84.5894 342.08C87.8794 338.46 91.2094 334.86 94.4994 331.24C95.1194 330.56 95.6894 329.83 96.2094 329.08C97.9194 326.61 100.629 327.41 101.559 329.79C101.779 330.35 101.929 330.93 102.059 331.4L102.069 331.41Z" fill="black"/>
<path d="M41 261.11C42.99 260.53 44.86 260.07 46.66 259.44C50.36 258.15 54.03 256.79 57.73 255.47C58.28 255.27 58.96 254.95 59.42 255.12C60.47 255.51 61.46 256.12 62.39 256.78C62.61 256.93 62.63 257.73 62.45 258.01C61.54 259.32 60.7 260.73 59.07 261.34C54.68 262.97 50.3 264.6 45.92 266.25C45.27 266.49 44.65 266.79 44.02 267.07C42.49 267.74 41.92 267.5 41.63 265.87C41.36 264.39 41.25 262.88 41.02 261.11H41Z" fill="black"/>
<path d="M41.3696 213.84C47.6896 212.64 53.7796 213.54 60.1696 214.27C59.7896 215.51 59.6096 216.67 59.0696 217.6C58.4796 218.61 57.6996 219.54 56.1396 219.38C55.0296 219.27 53.8496 219.6 52.7296 219.84C49.8796 220.44 47.0696 219.84 44.2596 219.5C43.0696 219.36 42.3396 218.76 42.1896 217.45C42.0696 216.34 41.6996 215.26 41.3496 213.87L41.3696 213.85V213.84Z" fill="black"/>
<path d="M416.58 180.19C416.37 176.77 415.34 173.39 414.8 169.98C414.27 166.58 413.53 163.15 413.54 159.74C413.55 156.55 413.9 153.48 413.17 150.23C411.07 140.96 408.3 131.97 403.53 123.69C401.52 120.2 399.5 116.67 397.11 113.43C392.38 106.99 387.41 100.73 382.52 94.4102C379.61 90.6502 376.98 86.6102 373.68 83.2202C368.95 78.3802 363.64 74.1102 358.72 69.4502C351.96 63.0402 344.79 57.1602 336.96 52.1002C332.62 49.2902 328.28 46.4702 323.8 43.8902C320.64 42.0702 317.17 40.7902 313.98 39.0302C309.03 36.3102 303.82 34.3202 298.39 32.8002C293.95 31.5602 289.56 30.1302 285.13 28.8602C280.43 27.5102 275.76 26.0102 270.98 25.0002C265.83 23.9202 260.58 23.3502 255.37 22.5602L255.35 22.6402C254.85 22.5702 254.35 22.4202 253.85 22.4302C247.59 22.5902 241.3 22.4202 235.09 23.0502C226.64 23.9102 218.19 24.8802 209.96 27.3502C202.73 29.5202 195.48 31.5302 188.66 34.8102C183.48 37.3102 178.22 39.6402 173.11 42.2702C168.56 44.6102 164.05 47.0602 159.75 49.8002C154.77 52.9802 149.96 56.4402 145.21 59.9602C141.98 62.3602 138.86 64.9402 135.89 67.6702C130.66 72.4802 125.86 77.8002 120.35 82.2602C115.87 85.8902 111.69 89.6902 108.38 94.3502C105.76 98.0302 103.63 102.06 101.11 105.82C96.6997 112.42 92.6097 119.17 89.5097 126.49C87.4697 131.32 85.3497 136.11 83.4097 140.98C80.6197 147.99 77.6097 154.93 75.3397 162.11C72.5997 170.77 71.6597 179.86 71.1897 188.89C70.8697 195.17 71.5397 201.5 71.8997 207.8C72.4397 217.16 73.5197 226.48 76.4397 235.42C78.4997 241.71 81.1197 247.82 83.5797 253.98C84.8997 257.28 86.3197 260.55 87.8697 263.75C89.7497 267.63 91.6797 271.49 93.8097 275.24C97.1297 281.1 100.52 286.93 104.11 292.63C105.98 295.6 108.26 298.32 110.46 301.07C113.8 305.25 117.23 309.37 120.64 313.49C121.23 314.19 121.92 314.84 122.64 315.41C125.82 317.93 129 320.45 132.24 322.9C138.37 327.52 144.35 332.39 150.77 336.57C156.66 340.4 163.04 343.46 169.22 346.84C174.5 349.72 180.01 351.9 185.97 353.06C190.19 353.88 194.32 355.19 198.47 356.35C201.31 357.15 204.07 358.3 206.95 358.88C211.38 359.78 215.86 360.53 220.36 360.98C225.99 361.54 231.65 361.83 237.31 362.03C240.74 362.15 244.25 361.37 247.58 361.89C253.83 362.86 259.9 361.64 265.98 361.02C270.78 360.53 275.47 358.93 280.2 357.79C284.52 356.74 288.81 355.62 293.13 354.56C296.78 353.67 300.53 353.07 304.09 351.91C307.74 350.72 311.14 348.9 314.91 347.9C318.35 347 321.64 345.48 324.93 344.08C328.1 342.73 331.37 341.48 334.27 339.66C339.02 336.67 343.53 333.3 348.08 330.01C350.18 328.49 352.09 326.72 354.18 325.19C361.36 319.93 367.67 313.66 373.28 306.87C379.78 299.01 385.68 290.63 391.43 282.2C394.47 277.74 396.78 272.75 399.19 267.89C401 264.22 402.43 260.36 404.06 256.6C407.64 248.32 410.05 239.68 411.88 230.88C412.63 227.29 413.01 223.63 413.53 220C414.39 213.94 415.33 207.88 416.03 201.8C416.37 198.83 416.28 195.81 416.35 192.81C416.47 188.59 416.83 184.35 416.57 180.16L416.58 180.19Z" fill="black"/>
<path d="M438.18 107.57C437.11 106.41 439.54 105.03 440.13 103.66C440.34 103.18 440.96 102.78 441.48 102.53C443.47 101.54 445.49 100.64 447.48 99.6803C450.38 98.3003 454.69 99.3603 456.6 101.94C457.91 103.7 457.49 104.65 455.38 105.15C451.74 106 448.17 107.09 444.51 107.86C442.7 108.24 441.27 108.13 439.05 108.27L438.18 107.56V107.57Z" fill="black"/>
<path d="M409.75 57.67C410.86 56.94 411.89 56.16 413.02 55.56C418.1 52.8 423.18 50.06 428.3 47.38C429.53 46.74 431.24 45.74 432.16 46.9C432.96 47.91 432.98 49.6 432.97 51.02C432.97 51.57 432.02 52.3 431.34 52.72C427.96 54.81 424.51 56.77 421.15 58.9C419.67 59.85 418.42 61.14 417.01 62.19C416.56 62.52 415.57 62.91 415.38 62.73C413.59 61.17 410.64 60.77 409.74 57.67H409.75Z" fill="black"/>
<path d="M384.86 30.47C383.02 28.75 382.58 26.85 383.79 24.72C385.19 22.25 386.56 19.78 389.09 18.18C392.14 16.25 394.79 13.81 396.87 10.76C397.38 10.01 398.28 9.04004 399.03 9.04004C400.49 9.04004 402.03 9.48004 403.42 10.04C403.86 10.21 404.24 11.46 404.09 12.05C403.85 13.07 403.32 14.17 402.61 14.91C398.75 18.92 394.83 22.85 390.87 26.75C389.17 28.43 387.28 29.9 384.84 30.47V30.45L384.86 30.47Z" fill="black"/>
<path d="M439.281 142.31C440.241 142.31 441.941 142.49 443.751 142.5C445.741 142.52 447.721 142.58 449.721 142.66C455.091 142.86 460.451 143.02 465.781 142.16C467.591 141.87 468.421 142.63 468.121 144.4C467.971 145.36 467.741 146.37 467.261 147.19C466.981 147.67 466.161 147.95 465.551 148.05C462.751 148.43 459.921 148.77 457.101 149.03C455.811 149.14 454.501 149.13 453.201 149.05C448.611 148.75 443.991 149.34 439.431 148.35C438.901 148.24 438.351 148.19 437.861 147.99C436.671 147.5 436.461 146.41 437.141 145.26C437.471 144.69 437.631 144.01 437.801 143.37C437.731 142.1 439.281 142.32 439.281 142.32V142.31Z" fill="black"/>
<path d="M258.99 3.87004C264.2 4.66004 269.46 5.23004 274.61 6.31004C279.39 7.31004 284.06 8.82004 288.76 10.17C293.19 11.45 297.58 12.87 302.02 14.11C307.45 15.62 312.66 17.61 317.61 20.34C320.81 22.1 324.27 23.38 327.43 25.2C331.91 27.78 336.25 30.6 340.59 33.41C348.42 38.47 355.59 44.35 362.35 50.76C367.27 55.42 372.58 59.69 377.31 64.53C380.61 67.91 383.24 71.95 386.15 75.72C391.04 82.04 396.01 88.3 400.74 94.74C403.12 97.99 405.15 101.51 407.16 105.01C411.92 113.29 414.7 122.27 416.8 131.55C417.54 134.8 417.18 137.87 417.17 141.06C417.16 144.47 417.9 147.9 418.43 151.3C418.97 154.71 420 158.09 420.21 161.51C420.47 165.71 420.1 169.95 419.99 174.16C419.91 177.16 420.01 180.18 419.67 183.15C418.97 189.23 418.04 195.28 417.17 201.35C416.65 204.98 416.27 208.64 415.52 212.23C413.69 221.03 411.28 229.67 407.7 237.95C406.07 241.71 404.65 245.57 402.83 249.24C400.43 254.1 398.12 259.08 395.07 263.55C389.32 271.98 383.42 280.36 376.92 288.22C371.31 295.01 365 301.28 357.82 306.54C355.73 308.07 353.82 309.84 351.72 311.36C347.17 314.65 342.66 318.02 337.91 321C335.02 322.82 331.74 324.07 328.57 325.42C325.28 326.82 321.99 328.34 318.55 329.24C314.78 330.23 311.37 332.06 307.73 333.25C304.17 334.41 300.42 335.01 296.77 335.9C292.46 336.95 288.16 338.08 283.84 339.13C279.11 340.28 274.42 341.87 269.62 342.36C263.54 342.98 257.47 344.2 251.22 343.23C247.88 342.71 244.37 343.49 240.95 343.37C235.3 343.17 229.63 342.88 224 342.32C219.5 341.88 215.02 341.12 210.59 340.22C207.71 339.63 204.95 338.48 202.11 337.68C197.96 336.52 193.83 335.21 189.61 334.39C183.65 333.23 178.14 331.05 172.86 328.17C166.68 324.79 160.29 321.73 154.41 317.9C147.99 313.72 142.01 308.85 135.88 304.23C132.64 301.79 129.46 299.27 126.28 296.74C125.56 296.17 124.87 295.53 124.28 294.82C120.86 290.7 117.44 286.58 114.1 282.4C111.9 279.65 109.61 276.93 107.75 273.96C104.17 268.26 100.78 262.43 97.4503 256.57C95.3303 252.82 93.3903 248.96 91.5103 245.08C89.9603 241.88 88.5503 238.61 87.2203 235.31C84.7603 229.15 82.1403 223.04 80.0803 216.75C77.1503 207.81 76.0803 198.49 75.5403 189.13C75.1803 182.83 74.5103 176.5 74.8303 170.22C75.3003 161.19 76.2403 152.1 78.9803 143.44C81.2503 136.26 84.2603 129.32 87.0503 122.31C88.9903 117.44 91.1103 112.65 93.1503 107.82C96.2503 100.5 100.34 93.75 104.75 87.15C107.27 83.39 109.39 79.36 112.02 75.68C115.33 71.03 119.52 67.23 123.99 63.6C129.49 59.14 134.29 53.82 139.53 49.01C142.5 46.29 145.62 43.7 148.85 41.3C153.6 37.78 158.4 34.32 163.39 31.14C167.69 28.4 172.21 25.95 176.76 23.61C181.87 20.98 187.13 18.65 192.31 16.15C199.13 12.86 206.38 10.85 213.62 8.69004C221.86 6.22004 230.3 5.25004 238.75 4.39004C244.96 3.76004 251.25 3.94004 257.51 3.77004C258.01 3.76004 258.51 3.90004 259.01 3.98004L259.03 3.90004L258.99 3.87004Z" fill="#68BDFA"/>
<path d="M123.459 94.1202L124.079 91.6302C124.959 91.6302 124.639 92.3402 124.729 93.0502C145.139 61.7702 177.949 38.3902 214.269 29.0602C221.809 26.8002 229.619 26.6602 237.409 27.3902C239.199 27.5602 240.839 28.0002 242.319 26.2002C242.099 28.8102 258.379 27.2202 261.719 28.3402C293.129 30.5902 321.899 45.6002 345.699 65.5602C385.379 94.8402 398.909 150.58 393.359 197.48C387.749 249.78 346.269 289.63 300.439 310.9C258.759 326.87 210.939 323.27 171.809 301.82C147.829 288.35 124.919 268.56 113.009 243.43C108.139 232.89 100.009 223.41 98.8895 211.47C97.6795 200.62 97.1895 189.7 95.9395 178.85C97.3995 172.53 99.0295 166.37 99.8495 159.8C100.479 145.06 106.109 131.47 110.319 117.51C113.469 109.22 121.049 102.34 123.409 94.0402L123.449 94.1002H123.459V94.1202Z" fill="white"/>
<path d="M235.181 164.48C235.621 163.37 236.021 162.25 236.511 161.16C236.831 160.44 237.261 159.72 237.691 159.08C238.431 157.98 239.211 156.9 240.001 155.88C242.051 153.23 243.651 150.12 245.421 147.16C247.091 144.36 248.911 141.71 250.681 139C251.561 137.66 252.511 136.48 253.251 134.91C253.931 133.48 254.911 132.19 255.751 130.83C256.841 129.07 257.941 127.32 259.011 125.54C260.571 122.96 262.021 120.22 263.681 117.79C265.361 115.32 266.521 112.46 268.171 110.02C269.091 108.67 270.031 107.37 270.971 106.03C271.111 105.83 271.261 105.62 271.371 105.39C272.521 103.02 273.851 100.88 275.361 98.88C276.021 98 276.531 96.82 277.151 95.82C278.611 93.43 280.001 90.9 281.591 88.71C283.861 85.57 285.521 81.9 287.641 78.66C288.441 77.43 289.231 76.19 290.011 74.94C290.211 74.62 290.451 74.27 290.561 73.93C291.221 71.93 292.491 70.58 293.561 69.04C294.411 67.81 295.271 66.6 296.141 65.42C296.781 64.54 297.451 63.7 298.121 62.88C298.631 62.25 299.201 62.42 299.111 63.23C299.031 63.99 299.241 64.09 299.711 63.96C300.471 63.75 300.661 64.13 300.321 65.29C299.951 66.56 299.541 67.85 299.071 69.12C298.251 71.34 297.721 73.5601 296.641 75.8C295.971 77.2 295.671 78.77 295.161 80.26C293.551 85.01 291.931 89.76 290.301 94.51C289.711 96.22 289.161 97.93 288.491 99.61C287.641 101.75 286.671 103.87 285.811 106.01C285.481 106.84 285.331 107.71 285.031 108.55C284.521 109.95 283.941 111.35 283.401 112.74C282.941 113.91 282.471 115.08 282.061 116.25C281.151 118.82 280.281 121.39 279.361 123.95C278.571 126.15 277.691 128.34 276.911 130.54C276.521 131.64 276.281 132.75 275.931 133.86C275.231 136.05 274.541 138.25 273.761 140.43C272.821 143.09 271.781 145.74 270.781 148.39C270.721 148.55 270.621 148.74 270.621 148.87C270.561 150.88 269.371 152.91 268.671 154.92C268.091 156.58 267.481 158.24 266.861 159.91C266.131 161.9 265.391 163.88 264.641 165.86C263.591 168.63 262.511 171.4 261.471 174.18C261.341 174.52 261.391 174.97 261.471 175.24C261.701 175.94 261.401 176.72 260.731 177.11C260.561 177.21 260.351 177.37 260.221 177.57C259.941 178.01 259.661 178.82 259.471 178.9C258.711 179.21 257.881 179.56 257.261 179.43C255.421 179.04 253.681 178.39 251.881 177.91C250.901 177.65 249.821 177.62 248.871 177.3C247.891 176.96 247.011 176.39 246.091 175.92C246.031 175.89 245.991 175.81 245.921 175.81C243.721 175.48 242.181 173.76 240.091 173.19C239.501 173.03 238.871 172.95 238.331 172.69C237.861 172.47 237.531 171.95 237.051 171.74C235.961 171.28 234.801 170.95 233.691 170.53C233.261 170.37 232.841 170.17 232.501 169.85C232.221 169.6 232.071 169.26 232.641 168.38C233.041 167.76 233.251 166.88 233.511 166.11C233.701 165.56 233.761 164.9 234.031 164.5C234.201 164.25 234.651 164.39 234.971 164.36L235.211 164.48H235.191H235.181Z" fill="black"/>
<path d="M252.741 195.59C252.541 196.21 252.391 196.84 252.141 197.43C251.981 197.82 251.711 198.19 251.421 198.51C250.911 199.06 250.381 199.58 249.801 200.06C248.331 201.3 247.401 202.96 246.291 204.47C245.231 205.9 244.001 207.21 242.821 208.55C242.241 209.22 241.541 209.77 241.141 210.61C240.771 211.38 240.081 211.99 239.531 212.68C238.821 213.57 238.111 214.45 237.421 215.36C236.431 216.68 235.571 218.11 234.451 219.31C233.311 220.53 232.791 222.11 231.661 223.31C231.041 223.97 230.371 224.61 229.741 225.26C229.641 225.36 229.551 225.46 229.491 225.58C228.861 226.85 228.001 227.93 226.931 228.88C226.451 229.3 226.201 229.94 225.811 230.45C224.871 231.66 224.031 232.98 222.921 234.04C221.341 235.56 220.481 237.55 219.071 239.17C218.531 239.78 218.031 240.41 217.511 241.04C217.381 241.2 217.221 241.37 217.181 241.57C216.951 242.71 215.991 243.3 215.251 244.06C214.671 244.66 214.071 245.25 213.461 245.82C213.011 246.24 212.531 246.64 212.031 247.02C211.651 247.31 211.051 247.08 210.961 246.58C210.881 246.11 210.641 246 210.201 245.98C209.491 245.95 209.211 245.66 209.291 244.99C209.381 244.25 209.511 243.52 209.701 242.8C210.031 241.55 210.081 240.24 210.661 239.04C211.031 238.29 210.981 237.34 211.161 236.5C211.731 233.8 212.301 231.11 212.891 228.41C213.101 227.44 213.291 226.47 213.581 225.53C213.961 224.34 214.461 223.2 214.851 222.01C215.001 221.55 214.961 221.03 215.071 220.55C215.271 219.76 215.541 218.99 215.781 218.21C215.981 217.56 216.191 216.91 216.351 216.26C216.701 214.81 217.001 213.35 217.361 211.9C217.671 210.66 218.071 209.45 218.361 208.21C218.511 207.59 218.501 206.93 218.611 206.3C218.831 205.05 219.031 203.79 219.331 202.55C219.691 201.05 220.151 199.58 220.561 198.09C220.581 198 220.641 197.9 220.621 197.82C220.231 196.54 220.981 195.5 221.241 194.36C221.451 193.42 221.701 192.48 221.951 191.55C222.241 190.43 222.551 189.32 222.861 188.21C223.301 186.66 223.781 185.12 224.201 183.56C224.251 183.37 224.111 183.07 223.961 182.88C223.571 182.38 223.701 181.94 224.291 181.84C224.441 181.81 224.621 181.76 224.701 181.66C224.881 181.44 224.991 180.98 225.161 180.97C225.861 180.93 226.611 180.9 227.261 181.11C229.191 181.77 231.081 182.57 233.001 183.28C234.041 183.67 235.131 183.92 236.161 184.34C237.221 184.77 238.221 185.33 239.261 185.84C239.331 185.87 239.391 185.93 239.461 185.95C241.741 186.64 243.671 188.1 245.891 188.92C246.521 189.15 247.171 189.34 247.771 189.63C248.291 189.88 248.741 190.29 249.261 190.52C250.461 191.06 251.691 191.52 252.911 192.04C253.371 192.24 253.841 192.46 254.261 192.74C254.591 192.96 254.831 193.21 254.451 193.65C254.181 193.96 254.171 194.48 254.081 194.91C254.021 195.22 254.101 195.64 253.911 195.83C253.791 195.95 253.311 195.76 252.991 195.71L252.721 195.58V195.6L252.741 195.59ZM226.521 184.04C224.231 193.52 221.881 202.78 219.781 212.12C217.691 221.39 215.871 230.73 213.911 240.16C214.141 240.05 214.301 240.03 214.371 239.94C215.411 238.69 216.451 237.44 217.461 236.18C218.651 234.67 219.791 233.12 221.001 231.62C221.571 230.92 222.301 230.33 222.851 229.62C223.881 228.3 224.801 226.9 225.821 225.58C226.541 224.65 227.371 223.78 228.121 222.87C228.971 221.83 229.781 220.76 230.631 219.72C231.531 218.61 232.461 217.52 233.371 216.41C234.391 215.16 235.411 213.9 236.411 212.64C237.051 211.84 237.661 211.03 238.291 210.22C239.521 208.62 240.751 207.02 241.971 205.43C242.551 204.67 243.161 203.94 243.681 203.15C244.041 202.6 244.341 202.04 245.151 202.03C244.681 201.1 245.501 201.54 245.691 201.36C245.981 200.69 246.331 200.06 246.741 199.48C247.171 198.88 247.741 198.37 248.091 197.73C248.401 197.16 248.751 196.71 249.381 196.43C250.151 196.09 250.671 195.52 250.991 194.73C248.271 193.44 245.631 192.05 242.891 190.94C240.141 189.82 237.451 188.56 234.691 187.48C231.951 186.4 229.251 185.21 226.511 184.06L226.521 184.04Z" fill="black"/>
<path d="M226.23 161.65L226.33 161.25C226.47 161.25 226.42 161.37 226.43 161.48C229.75 156.39 235.08 152.6 240.98 151.08C242.21 150.71 243.48 150.69 244.74 150.81C245.03 150.84 245.3 150.91 245.54 150.62C245.51 151.05 248.15 150.79 248.69 150.97C253.8 151.34 258.47 153.77 262.34 157.02C268.79 161.78 268.08 173.66 267.18 181.28C266.27 189.78 262.44 193.43 254.98 196.89C248.2 199.49 240.43 198.9 234.07 195.42C230.17 193.23 226.45 190.01 224.51 185.93C223.72 184.22 222.4 182.68 222.21 180.73C222.01 178.97 221.93 177.19 221.73 175.43C221.97 174.4 222.23 173.4 222.37 172.34C222.47 169.94 223.38 167.74 224.07 165.47C224.58 164.12 225.82 163 226.2 161.65H226.23Z" fill="#FFA359"/>
<path d="M247.97 81.9899C248.05 81.5899 248.2 81.1499 248.38 80.7699C249.43 78.7399 250.34 76.6299 251.33 74.5899C252.37 72.3499 253.51 70.1299 254.64 67.9599C255.46 66.5599 256.13 65.0799 256.89 63.6699C257.22 63.0599 257.51 62.4399 257.83 61.8799C258.69 60.4899 259.45 59.0799 260.22 57.6699C261.47 55.4199 262.71 53.2199 264.1 51.0499C265.09 49.5799 266.17 48.1299 267.39 46.8199C268 46.1599 269.41 46.3999 269.79 47.1599C269.9 47.3899 269.98 47.7699 269.97 48.0299C269.94 48.6999 269.88 49.2099 269.8 49.8699C269.62 50.9799 269.45 52.0499 269.22 53.1499C269.09 53.7999 269 54.4699 268.96 55.1799C268.89 55.9999 268.72 56.8499 268.6 57.6699C268.42 58.7799 268.28 59.9599 268.28 60.9999C268.28 61.4699 268.23 61.9799 268.13 62.4799C267.93 63.4299 267.7 64.3199 267.51 65.2299C267.16 66.6699 266.97 68.0999 266.88 69.5499C266.76 71.6699 266.56 73.6699 266.15 75.8799C266.1 76.1299 266.15 76.3999 266.27 76.5799C266.35 76.6999 266.6 76.7499 266.69 76.5599C268.09 73.3499 268.97 71.5999 270.29 69.2599C270.86 68.2799 271.33 67.2799 271.75 66.2699C272.47 64.5399 273.29 62.8799 274.17 61.1799C274.67 60.2899 275.07 59.3799 275.51 58.4799C276.7 56.0099 277.94 53.5999 279.18 51.1299C279.36 50.7499 279.54 50.4199 279.82 50.0599C280.1 49.6999 280.58 49.4299 280.93 49.5099C281.98 49.7799 282.37 50.3799 282.58 51.4199C282.66 51.7999 282.55 52.2999 282.29 52.8199C281.85 53.6699 281.42 54.4699 281.2 55.0499C280.88 55.8199 280.64 56.4999 280.19 57.3999C280.01 57.7299 279.79 58.0499 279.62 58.3799C279.38 58.7999 279.19 59.1799 278.99 59.6599C278.52 60.9199 277.84 61.9299 277.24 63.3199C276.82 64.3299 276.36 65.2799 275.78 66.3099C275.36 67.0599 275.05 67.8299 274.77 68.6599C274.51 69.3899 274.09 70.1899 273.67 70.9399C272.99 72.2099 272.31 73.4799 271.63 74.7499C271.08 75.8899 270.49 77.2299 270.12 78.2499C269.71 79.4699 268.95 81.1399 268.31 82.2099C267.75 83.1399 267.21 84.4899 266.57 85.5599C266.41 85.8399 266.19 86.1099 265.98 86.3799C265.42 87.0499 264.35 86.9299 263.72 86.3799C263.23 85.9599 262.97 85.4399 262.84 84.8399C262.6 83.9599 262.56 82.6399 262.73 81.5799C262.99 79.2799 263.1 77.0099 263.41 74.7199C263.67 73.1999 263.88 71.6799 264.04 70.1499C264.19 68.6699 264.37 67.2899 264.56 65.8699C264.64 65.2099 264.75 64.7099 264.87 64.0999C265.5 61.0399 265.86 59.0799 266.22 56.5399C266.39 55.4799 266.62 54.3699 266.78 53.3099C266.83 53.0599 266.66 52.8699 266.51 52.8399C266.26 52.7899 266.08 52.9099 265.91 53.1899C265.25 54.3599 264.53 55.5699 263.85 56.5799C263.7 56.8099 263.51 57.1899 263.39 57.5299C262.73 59.1699 261.96 60.6299 260.94 62.2999C260.23 63.4599 259.61 64.6899 259.09 65.9399C258.87 66.4699 258.68 66.8999 258.52 67.1799C257.62 68.5099 256.86 69.8699 256.15 71.2899C255.86 71.9099 255.48 72.5099 255.2 73.0799C254.68 74.0699 254.16 75.0599 253.74 76.0699C253.08 77.7099 252.18 79.2999 251.29 80.8399C250.87 81.5899 250.51 82.3499 250.1 83.0499C249.87 83.4199 249.35 83.6299 249 83.5599C248.3 83.4099 247.82 82.6899 247.96 81.9899H247.97Z" fill="#383838"/>
<path d="M208.97 294.47C208.65 294.18 208.39 293.86 208.14 293.49C207.57 292.56 207.08 291.54 206.72 290.38C206.6 289.92 206.62 289.28 206.66 288.85C206.72 288.32 206.82 287.8 206.88 287.27C207.01 285.84 207.22 284.58 207.45 283.44C207.66 282.4 207.94 281.32 208.39 280.22C208.61 279.67 209.16 279.4 209.53 279.7C210.14 280.15 210.39 280.8 210.34 281.55C210.25 282.51 210.05 283.5 209.77 284.57C209.47 285.75 209.59 287.02 209.46 288.19C209.28 290.1 209.44 290.95 210.28 292.64C210.52 293.07 211.05 293.4 211.59 293.4C212.14 293.35 212.61 293.18 213.04 292.94C214.11 292.24 214.6 291.69 214.89 291.1C215.18 290.24 215.42 289.31 215.6 288.43C216.08 286.09 216.33 283.82 216.61 281.16C216.71 280.42 216.92 279.65 217.02 278.92C217.39 276.88 217.65 275.09 217.97 272.99C218.01 272.78 218.07 272.53 218.07 272.25C218.07 270.41 218.63 269.01 218.8 266.88C218.97 265.29 219.27 263.57 219.79 262.1C220.08 261.24 220.41 260.44 220.77 259.7C221.05 259.11 221.46 258.71 222.07 258.4C223.46 257.71 224.94 257.37 226.09 257.6C227.03 257.79 227.86 258.24 228.63 258.99C229.17 259.53 229.74 259.92 229.8 260.69C229.95 261.81 230.52 263.01 230.53 263.99C230.55 264.97 230.49 266.04 230.43 267.11C230.34 268.33 230.24 269.62 229.81 270.88C229.66 271.34 229.05 271.65 228.58 271.82C227.93 272.06 227.2 271.91 226.98 271.65C226.76 271.39 226.7 270.89 226.7 270.35C226.7 269.81 226.69 268.83 226.86 267.73C227.02 266.95 227.07 266.2 227.23 265.42C227.4 264.32 227.39 263.07 227.28 262.02C227.25 261.64 227.17 261.24 227 260.77C226.8 260.18 226.33 259.82 225.83 259.88C224.82 260.05 224.05 260.59 223.55 261.47C223.21 262.05 222.92 262.69 222.83 263.38C222.68 264.38 222.55 265.27 222.4 266.22C222.34 266.53 222.26 266.9 222.3 267.23C222.42 267.96 222.34 268.59 222.2 269.27C222.11 269.69 222.02 270.16 222.03 270.59C222.03 271.94 221.69 273.28 221.52 274.66C221.49 275.08 221.44 275.57 221.4 275.99C221.34 277.6 221.1 279.56 220.67 281.36C220.57 281.83 220.47 282.35 220.63 282.87C220.9 283.9 220.89 284.76 220.64 286.23C220.27 288.54 219.82 290.99 219.14 292.96C218.88 293.72 218.22 294.01 217.63 294.76C217.19 295.32 215.52 296.27 214.25 296.66C213.14 297.03 212.15 296.82 211.25 296.2C210.44 295.65 209.68 295.12 208.95 294.48L208.97 294.47Z" fill="#383838"/>
<path d="M343.98 213.81C343.91 213.63 343.92 213.31 344.03 213.07C344.15 212.77 344.5 212.36 344.89 212.06C345.34 211.72 345.64 211.3 345.9 210.81C346.83 208.9 347.92 207.02 349.13 205.12C350.19 203.4 351.01 201.52 351.84 200.13C352.16 199.6 352.37 199.16 352.7 198.58C354.33 195.68 356.2 192.62 358.27 189.43C359 188.24 359.65 186.97 360.32 185.76C361.41 183.88 362.63 181.66 363.6 180.08C363.92 179.55 364.35 179.05 364.67 178.58C364.83 178.34 365.21 178.31 365.57 178.44C366.03 178.59 366.32 179.03 367.03 179.23C367.95 179.47 368.75 179.53 369.62 179.77C371.57 180.28 372.8 180.59 373.94 180.82C374.46 180.93 374.81 181.05 375.09 181.27C375.74 181.78 375.84 182.34 375.44 183.23C375.34 183.48 375.09 183.64 374.79 183.74C374.5 183.84 374.12 183.87 373.8 183.81C373.08 183.66 372.26 183.65 371.18 183.43C370.35 183.26 369.04 183.04 368.31 182.94C367.42 182.81 366.9 182.43 366.07 182.26C365.92 182.23 365.68 182.29 365.55 182.42C365.07 182.91 364.67 183.53 364.44 184.13C364 185.22 363.18 186.83 362.17 188.57C360.81 190.93 359.37 193.22 358.02 195.58C357.68 196.21 357.65 196.58 358 196.71C358.65 196.95 359.68 197.22 360.57 197.35C361.41 197.47 362.33 197.71 363.09 197.98C363.55 198.13 363.89 198.31 364.19 198.69C364.45 199.01 364.4 199.76 364.07 200.07C363.61 200.46 363 200.55 362.06 200.35C361.69 200.27 361.11 200.21 360.69 200.17C359.36 200.06 357.79 199.84 356.3 199.7C355.82 199.66 355.38 199.94 355.19 200.34C354.48 201.92 353.43 203.37 352.71 205C352.51 205.45 352.25 205.93 351.94 206.35C351.1 207.52 350.3 208.81 349.63 210.19C349.34 210.83 348.86 211.32 348.51 211.95C348.34 212.24 348.44 212.53 348.71 212.58C349.13 212.67 349.88 212.93 350.4 213.04C351.39 213.24 352.5 213.37 353.43 213.56C354.1 213.7 354.81 213.95 355.46 214.19C356.22 214.45 357.08 214.96 357.33 215.6C357.4 215.78 357.33 216.14 357.19 216.27C356.72 216.71 356.1 216.85 355.45 216.83C354.18 216.73 352.85 216.57 351.56 216.3C349.59 215.89 347.6 215.59 345.6 215.34C344.87 215.24 344.28 214.63 343.97 213.82L343.98 213.81Z" fill="#383838"/>
<path d="M114.26 175.67C114.14 174.95 114.18 174.2 114.49 173.51C114.95 172.31 115.33 171.04 115.94 169.87C116.83 168.17 117.58 166.38 118.48 164.63C119.03 163.56 119.54 162.37 120.07 161.4C120.51 160.57 120.9 159.74 121.33 158.96C122.35 156.91 123.35 154.96 124.34 153C124.52 152.66 124.68 152.37 124.88 151.98C126.33 148.88 128.16 145.81 129.88 142.72C130.13 142.29 130.55 142.1 131.01 142.2C131.79 142.36 132.29 143.06 132.05 143.71C131.93 144.01 131.82 144.31 131.66 144.55C131.02 145.55 130.49 146.57 129.93 147.69C129.56 148.43 129.19 149.16 128.92 149.96C128.56 150.91 128.2 151.86 127.69 152.78C127.24 153.66 126.88 154.61 126.33 155.46C125.7 156.41 125.28 157.4 124.8 158.43C123.94 160.25 123.06 162.11 122.1 163.91C121.57 164.88 121.03 166.49 120.45 167.72C119.99 168.65 119.68 169.61 119.27 170.55C118.52 172.07 117.9 173.5 116.99 175.04C116.83 175.28 116.78 175.54 116.79 175.75C116.79 176.02 116.87 176.14 117.03 176.18C117.39 176.25 117.62 176.19 117.76 176.06C118.27 175.68 118.74 175.24 119.13 174.67C120.72 172.46 122.41 170.28 124.03 167.97C124.88 166.74 125.65 165.61 126.5 164.39C128.98 160.75 131.52 157.07 133.87 153.3C134.11 152.92 134.44 152.39 134.68 152.01C136.03 149.92 137.2 148.44 138.48 146.7C138.93 146.09 139.31 145.79 139.84 145.85C140.42 145.92 140.76 146.09 141.04 146.31C141.32 146.53 141.54 146.79 141.53 147.06C141.52 147.38 141.41 147.63 141.23 147.97C140.14 149.85 139.36 151.79 138.52 153.77C137.57 156 136.59 158.38 135.63 160.67C135.13 161.81 134.73 162.91 134.33 164.07C133.98 164.97 133.67 165.98 133.24 166.97C133.07 167.26 132.95 167.61 132.87 167.97C132.66 169.01 132.31 169.9 131.94 170.91C131.31 172.66 130.92 174.53 130.7 176.37C130.61 177.05 130.66 177.87 130.84 178.56C130.9 178.79 131.24 178.97 131.47 178.9C131.65 178.83 131.83 178.76 131.95 178.67C132.45 178.34 132.93 177.85 133.32 177.28C134.05 176.35 134.68 175.4 135.38 174.37C136.31 173 136.97 171.9 137.73 170.59C138.82 168.71 140.02 166.85 140.97 164.84C141.16 164.45 141.28 164.1 141.45 163.81C143.31 160.8 144.84 157.61 146.46 154.49C147 153.47 147.6 152.35 148.05 151.26C148.48 150.22 149.06 149.26 149.43 148.25C149.68 147.55 150.04 146.87 150.4 146.19C150.71 145.72 151.3 145.24 151.92 145.37C152.49 145.49 152.86 145.78 153.19 146.28C153.35 146.53 153.44 146.92 153.37 147.24C153.19 148.12 152.89 149.03 152.53 149.71C151.66 151.31 150.74 153.38 149.9 155.9C149.61 156.76 149.16 157.63 148.84 158.43C148.72 158.73 148.56 159.02 148.41 159.21C147.86 160.02 147.44 161.01 147.15 161.91C146.95 162.62 146.63 163.15 146.3 163.68C145.95 164.36 145.65 165 145.33 165.74C144.95 166.53 144.47 167.29 143.97 168.1C143.3 169.25 142.74 170.38 142.17 171.56C141.73 172.39 141.33 173.27 140.8 173.97C140.57 174.3 140.34 174.63 140.22 174.93C139.81 175.87 139.17 176.87 138.34 177.99C138.05 178.36 137.67 178.88 137.36 179.35C136.81 180.15 136.08 180.81 135.21 181.38C134.71 181.71 134.24 181.88 133.69 181.93C133.03 182.01 132.31 182.08 131.61 182.04C131.34 182.04 130.99 181.91 130.7 181.74C129.92 181.31 129.44 180.78 128.9 179.97C128.74 179.72 128.59 179.37 128.51 178.97C128.13 177.43 128.04 175.74 128.29 174.02C128.37 173.39 128.56 172.73 128.71 172C128.99 170.65 129.49 168.98 129.96 167.79C130.1 167.39 130.23 166.98 130.33 166.52C130.38 166.26 130.36 166.09 130.21 166.06C130.06 166.03 129.8 166.19 129.4 166.86C128.51 168.29 127.59 169.88 126.74 171.38C126.59 171.56 126.5 171.76 126.29 171.99C125.38 172.99 124.56 174.33 123.65 175.59C122.96 176.58 122.17 177.5 121.3 178.34C120.9 178.69 120.3 179 119.91 179.08C119.4 179.19 118.88 179.35 118.38 179.41C117.93 179.48 117.3 179.41 116.8 179.19C115.17 178.47 114.6 177.82 114.24 175.64L114.26 175.67Z" fill="#383838"/>
<path d="M157.81 233.15C160.97 234.95 152.12 241.24 140.44 247.38C138.72 248.28 137.29 245.77 138.95 244.77C147.13 239.85 149.08 239.46 156.42 233.33C156.81 233.01 157.37 232.9 157.81 233.15Z" fill="#C0C4C8"/>
<path d="M356.54 102.89C359.7 104.69 350.85 110.98 339.17 117.12C337.45 118.02 336.02 115.51 337.68 114.51C345.86 109.59 347.81 109.2 355.15 103.07C355.54 102.75 356.1 102.64 356.54 102.89Z" fill="#C0C4C8"/>
<path d="M305.97 264.98C307.77 261.83 314.09 270.66 320.26 282.32C321.17 284.04 318.65 285.47 317.64 283.8C312.7 275.63 312.31 273.69 306.15 266.36C305.83 265.97 305.72 265.42 305.97 264.98Z" fill="#C0C4C8"/>
<path d="M175.15 66.6097C176.95 63.4497 183.27 72.2897 189.43 83.9497C190.34 85.6697 187.82 87.0997 186.81 85.4397C181.87 77.2697 181.48 75.3297 175.32 67.9997C175 67.6097 174.89 67.0597 175.14 66.6197L175.15 66.6097Z" fill="#C0C4C8"/>
</svg>
