<svg width="255" height="179" viewBox="0 0 255 179" fill="none" xmlns="http://www.w3.org/2000/svg">
<path d="M190.063 61.3149C188.7 61.2415 187.352 61.1535 186.003 61.1095C184.611 61.0654 183.219 61.0801 181.827 61.0654C181.636 61.0654 181.431 61.0654 181.24 61.0508C180.845 61.0068 180.669 60.8454 180.669 60.5959C180.669 60.3905 180.669 60.1704 180.64 59.965C180.596 59.7009 180.815 59.5395 181.153 59.3928C181.622 59.6276 182.12 59.5836 182.691 59.5689C184.626 59.4955 186.531 59.2461 188.509 59.4368C188.993 59.4808 189.491 59.6129 189.946 59.7596C190.341 59.877 190.605 60.1117 190.664 60.3905C190.708 60.5666 190.781 60.728 190.473 60.8454C190.297 60.9187 190.239 61.1095 190.063 61.3149ZM182.691 60.6693L182.662 60.5666L182.164 60.6106L182.193 60.7133L182.677 60.6693H182.691Z" fill="#6B65E2"/>
<path d="M167.538 60.3171C167.787 60.0237 167.89 59.6422 168.476 59.5395C168.886 59.4661 169.341 59.4661 169.78 59.4661C170.894 59.4661 172.008 59.4955 173.136 59.4661C173.635 59.4661 174.103 59.3341 174.602 59.2607C175.144 59.1874 175.686 59.0993 176.228 59.0406C176.448 59.026 176.683 59.07 176.932 59.0993C176.932 59.7302 176.375 60.141 175.95 60.5812C175.877 60.6546 175.672 60.7133 175.525 60.7133C174.91 60.7133 174.309 60.6546 173.708 60.6399C173.151 60.6399 172.609 60.5959 172.052 60.6399C171.275 60.6839 170.498 60.7573 169.722 60.816C169.604 60.816 169.472 60.816 169.385 60.816C168.447 61.1094 168.022 60.6839 167.538 60.3024V60.3171Z" fill="#6B65E2"/>
<path d="M197.405 59.8329C197.698 59.7302 197.889 59.5982 198.094 59.5835C199.941 59.5248 201.802 59.4808 203.648 59.4221C204.073 59.4075 204.322 59.5395 204.484 59.7889C204.997 60.6106 204.777 60.8453 203.428 60.8747C201.802 60.9187 200.175 60.9627 198.548 61.0214C198.138 61.0361 197.728 61.0947 197.317 61.1241C196.57 61.1681 196.306 60.992 196.423 60.5519C196.497 60.2731 196.599 60.009 196.702 59.7449C196.702 59.7156 196.775 59.7009 196.848 59.6275L197.391 59.8329H197.405ZM197.625 60.6546C197.522 60.6106 197.464 60.5665 197.405 60.5665C197.347 60.5665 197.288 60.5959 197.229 60.6252L197.376 60.772L197.64 60.6546H197.625Z" fill="#6B65E2"/>
<path d="M208.382 59.8036C208.865 59.833 209.29 59.8476 209.715 59.8623C210.14 59.8623 210.551 59.8036 211.02 59.8623C212.808 60.0824 214.625 60.3612 216.442 60.2585C216.735 60.2438 217.058 60.2731 217.365 60.3025C217.732 60.3172 217.922 60.4492 217.996 60.6693C218.098 61.0067 217.717 61.2415 217.629 61.5349C217.629 61.579 217.336 61.5936 217.175 61.579C215.475 61.4176 213.79 61.2122 212.09 61.0654C211.21 60.9921 210.302 60.9774 209.422 60.9627C208.646 60.9627 208.572 60.9481 208.426 60.4492C208.397 60.3612 208.367 60.2731 208.367 60.1851C208.367 60.0824 208.367 59.9797 208.397 59.7743L208.382 59.8036Z" fill="#6B65E2"/>
<path d="M145.995 105.757C146.244 105.903 146.347 106.241 146.317 106.666C146.259 107.708 146.229 108.75 146.288 109.777C146.332 110.554 146.259 111.391 146.361 112.154C146.376 112.286 146.068 112.726 145.922 112.741C145.511 112.785 145.365 112.711 144.954 112.77C144.5 112.843 144.339 112.726 144.339 112.198C144.339 110.378 144.368 108.559 144.427 106.74C144.427 106.3 143.972 105.551 144.676 105.243C145.379 104.935 145.614 105.537 145.995 105.757Z" fill="#6B65E2"/>
<path d="M222.26 62.1805C222.158 61.711 222.07 61.2708 221.967 60.772C222.583 60.8453 223.154 60.8894 223.726 60.9774C225.045 61.1681 226.349 61.1388 227.653 61.0801C228.196 61.0507 228.738 60.9774 229.295 60.9774C230.028 60.9774 230.291 61.1681 230.145 61.6376C230.116 61.7403 230.116 61.843 230.086 61.9457C229.984 62.2685 229.559 62.4593 229.031 62.4299C227.434 62.3419 225.851 62.2539 224.268 62.1805C223.711 62.1512 223.154 62.2098 222.612 62.2098C222.51 62.2098 222.407 62.1952 222.29 62.1805H222.26Z" fill="#6B65E2"/>
<path d="M146.596 150.785C146.566 151.46 146.508 152.121 146.493 152.795C146.493 153.03 146.596 153.265 146.669 153.485C146.816 153.852 146.801 154.219 146.552 154.483C146.288 154.791 145.98 154.63 145.76 154.38C145.291 153.867 145.086 153.148 145.013 152.399C144.925 151.636 144.91 150.859 144.866 150.081C144.808 149.157 144.749 148.247 144.705 147.323C144.661 146.545 145.028 146.193 145.643 146.398C146.156 146.574 146.405 147.044 146.522 147.631C146.728 148.658 146.757 149.714 146.596 150.785Z" fill="#6B65E2"/>
<path d="M144.163 122.248C144.31 120.473 144.441 118.712 144.588 116.951C144.632 116.482 144.676 115.998 144.735 115.528C144.778 115.103 144.969 114.941 145.291 115.029C145.804 115.176 146.171 115.807 146.156 116.497C146.156 118.037 146.156 119.578 146.156 121.133C146.156 121.529 146.112 121.925 146.039 122.307C145.966 122.718 145.731 122.879 145.423 122.762C145.042 122.63 144.676 122.468 144.178 122.263L144.163 122.248Z" fill="#6B65E2"/>
<path d="M145.819 142.29C145.775 143.185 145.716 143.288 145.306 143.332C144.661 143.391 144.324 143.127 144.28 142.481C144.222 141.028 144.178 139.576 144.09 138.123C144.075 137.713 143.928 137.316 143.928 136.906C143.928 136.495 143.958 136.084 144.06 135.688C144.134 135.38 144.544 135.248 144.837 135.38C145.409 135.658 145.731 136.231 145.746 136.979C145.804 138.798 145.79 140.618 145.804 142.276L145.819 142.29Z" fill="#6B65E2"/>
<path d="M145.453 128.675C145.467 129.291 145.497 129.892 145.511 130.509C145.541 131.125 145.57 131.726 145.409 132.343C145.291 132.739 145.101 132.915 144.793 132.856C144.515 132.812 144.309 132.651 144.309 132.211C144.295 130.288 144.266 128.381 144.236 126.459C144.236 126.312 144.192 126.166 144.236 126.048C144.324 125.784 144.412 125.417 144.588 125.3C144.866 125.124 144.969 125.52 145.145 125.725C145.716 126.444 145.511 127.398 145.57 128.264C145.57 128.396 145.541 128.542 145.526 128.689H145.467L145.453 128.675Z" fill="#6B65E2"/>
<path d="M145.702 158.034C146.479 157.667 146.889 157.96 147.123 158.943C147.153 159.046 147.167 159.149 147.182 159.251C147.241 161.335 147.504 163.389 147.358 165.516C147.343 165.766 147.329 166.059 147.241 166.25C147.167 166.441 147.006 166.631 146.874 166.661C146.596 166.719 145.98 165.722 146.01 165.267C146.171 163.183 145.848 161.188 145.746 159.163C145.731 158.811 145.731 158.459 145.716 158.048L145.702 158.034Z" fill="#6B65E2"/>
<path d="M182.691 60.6692L182.208 60.7133L182.178 60.6105L182.677 60.5665L182.706 60.6692H182.691Z" fill="#6B65E2"/>
<path d="M197.625 60.6399L197.361 60.7573L197.215 60.6106C197.215 60.6106 197.332 60.5519 197.391 60.5519C197.464 60.5519 197.522 60.5959 197.61 60.6399H197.625Z" fill="#6B65E2"/>
<path d="M238.938 62.5179C238 62.4446 237.047 62.4006 236.109 62.2832C235.846 62.2538 235.611 62.0191 235.391 61.8577C235.347 61.8283 235.362 61.755 235.362 61.6963C235.157 60.6986 235.245 60.5665 236.725 60.7426C237.604 60.8453 238.484 60.9774 239.363 61.0801C240.081 61.1681 240.799 61.2561 241.517 61.3442C241.942 61.3882 242.382 61.4469 242.528 61.7696C242.69 62.1218 242.47 62.4006 242.147 62.6206C242.059 62.6793 241.854 62.694 241.693 62.694C240.77 62.65 239.847 62.5913 238.938 62.5473V62.5033V62.5179Z" fill="#6B65E2"/>
<path d="M198.475 86.4776L193.375 83.4258L169.56 73.5808L130.651 60.2878L82.2448 49.3278L78.9914 52.761L74.1405 71.9522L76.2655 75.4882L98.8198 86.3455L181.358 115.118L186.194 115.587L190.532 113.372L196.819 98.5087L199.047 90.7912L199.398 87.0498" fill="white"/>
<path d="M2.37415 46.0264C2.37415 46.0264 14.7724 79.0974 20.9276 84.8489C27.0828 90.5857 37.9716 89.6467 45.6509 85.1863C63.2371 74.9452 81.4535 49.2983 82.2302 49.3423C85.1172 49.5037 87.9164 52.7903 87.9164 52.7903C87.9164 52.7903 90.3491 57.2213 95.581 64.0145C100.828 70.8077 111.072 78.7159 114.442 80.0511C117.813 81.3863 124.51 84.0419 128.702 84.4381C132.893 84.8342 138.228 82.6481 139.591 80.682C140.968 78.7159 137.495 73.8888 137.495 73.8888L131.472 69.091C122.634 59.7889 123.514 54.9031 123.514 54.9031C123.514 49.7091 131.208 50.384 135.062 50.5601C140.016 50.7802 149.527 61.7843 148.003 64.4986L147.739 66.0539C147.739 66.0539 158.686 69.1497 160.709 69.81C162.731 70.4555 163.053 68.4748 163.053 68.4748C162.98 66.4794 163.977 65.0708 161.91 52.893C163.625 51.0736 164.299 48.4767 164.519 46.0558C168.227 43.1067 171.304 38.2942 169.472 33.335C175.452 34.949 182.193 30.9288 183.366 24.4437C183.644 22.8738 182.589 21.6854 181.695 20.5556C175.613 14.8922 167.641 12.4713 159.829 10.2264C153.879 8.49511 148.178 5.88347 142.053 4.79773C123.47 1.15904 104.403 0.85093 85.8793 5.01782C77.2181 6.61708 68.4836 10.6519 60.394 14.0852C59.8664 14.3053 59.4267 14.6868 59.1483 15.1856" fill="#EDEEEF"/>
<path d="M155.975 68.1667C156.547 66.6408 156.869 65.1296 157.792 63.7651C158.628 62.1365 161.778 60.1704 162.54 61.6083L162.599 58.8793C162.145 60.0677 157.763 58.1457 155.169 66.0393C154.905 66.4354 155.11 67.4771 154.7 67.6972L155.99 68.1814L155.975 68.1667Z" fill="#5B5B5B"/>
<path d="M174.338 16.3888C171.334 21.8028 175.012 26.4979 181.812 28.1118L182.589 26.7913C179.218 25.3828 173.796 22.4044 175.891 17.6799L174.353 16.3888H174.338Z" fill="#5B5B5B"/>
<path d="M117.681 81.8705C121.667 74.8132 132.248 76.5299 137.084 82.252L138.667 81.0782C136.63 77.8063 132.556 76.075 128.731 75.3855C119.308 73.6982 117.461 79.7284 116.406 80.5941L117.696 81.8705H117.681Z" fill="#5B5B5B"/>
<path d="M190.268 102.866C191.44 106.079 196.438 88.4729 195.222 88.2235C193.199 92.7132 192.54 98.2299 190.268 102.866Z" fill="#5B5B5B"/>
<path d="M77.5406 73.8008C76.969 74.0796 78.0828 74.7251 80.2518 75.5908C89.7483 79.3615 153.997 102.925 154.099 101.913C150.025 100.475 89.5871 77.6449 80.2518 74.7251C79.0207 74.3437 78.0828 74.0209 77.5259 73.8008H77.5406Z" fill="#5B5B5B"/>
<path d="M183.981 111.684C185.725 111.743 187.322 111.053 187.953 109.278C188.202 108.897 188.773 108.515 188.348 108.06C186.575 107.723 186.384 111.112 184.377 110.775C182.984 110.496 182.34 111.538 183.996 111.67L183.981 111.684Z" fill="#5B5B5B"/>
<path d="M66.7543 10.2265C66.7543 10.2265 22.3785 27.2462 1.86123 44.0898C1.14312 44.6767 1.43623 45.8651 2.3595 46.0412C3.26812 46.2172 4.38192 46.2466 5.20261 45.5277C15.4466 36.4309 53.6673 18.5016 68.0586 12.1192C82.45 5.73684 66.7543 10.2412 66.7543 10.2412V10.2265Z" fill="#5B5B5B"/>
<path d="M251.746 62.4886C250.442 62.4006 248.625 62.2392 247.35 62.6647C247.013 62.7821 246.646 62.8994 246.339 62.5326C246.06 62.2099 245.972 62.0044 246.178 61.6376C246.28 61.4616 246.368 61.3002 246.5 61.0948C246.661 61.0948 246.822 61.0508 246.984 61.0801C248.552 61.4029 250.09 61.2855 251.629 60.9334C252.113 60.816 252.582 60.7426 253.021 61.1388C253.476 61.5349 253.622 62.0191 253.593 62.562C253.564 63.0902 253.461 63.6037 253.359 64.1319C253.256 64.6601 253.095 65.1736 253.007 65.6872C252.934 66.054 252.333 66.1567 252.186 65.8779C251.922 65.3937 251.834 64.8802 251.893 64.3373C251.937 63.8972 252.04 62.9435 251.761 62.4886H251.746Z" fill="#6B65E2"/>
<path d="M252.743 88.649C252.787 89.2065 252.86 91.6861 252.787 92.229C252.611 93.4761 252.509 94.7379 252.509 95.9997C252.509 96.2198 252.509 96.4546 252.479 96.6747C252.421 97.3056 252.216 97.511 251.747 97.4523C251.366 97.4083 251.278 97.2029 251.278 96.5426C251.278 95.1488 251.278 93.7549 251.278 92.3464C251.278 91.9209 251.366 91.5101 251.38 91.0846C251.38 90.8058 251.6 89.2212 251.6 88.6637C251.6 88.6197 251.776 88.5023 251.834 88.5316C251.937 88.5756 252.714 88.4583 252.728 88.6343L252.743 88.649Z" fill="#6B65E2"/>
<path d="M251.615 115.836C252.567 115.338 252.684 115.426 252.758 116.79C252.816 118.184 252.963 119.548 253.021 120.942C253.036 121.515 252.919 122.101 252.802 122.674C252.699 123.172 252.113 123.217 251.82 122.806C251.483 122.336 251.409 121.691 251.409 121.045C251.409 120.311 251.497 119.592 251.527 118.859C251.556 118.125 251.527 117.465 251.556 116.775C251.556 116.467 251.6 116.174 251.615 115.851V115.836Z" fill="#6B65E2"/>
<path d="M252.919 75.4001C252.919 75.4881 252.919 75.5908 252.919 75.6495C252.67 76.3098 252.201 76.0457 251.834 76.075C251.571 76.1044 251.395 75.8109 251.395 75.4294C251.395 74.9012 251.424 74.3584 251.468 73.8302C251.541 72.9939 251.644 72.1722 251.732 71.3506C251.79 70.8517 251.834 70.3675 251.629 69.8687C251.556 69.678 251.585 69.3698 251.629 69.1351C251.673 68.7683 252.377 68.7389 252.421 68.7683C252.655 68.959 252.816 68.8857 252.919 69.1644C253.065 69.5606 252.963 73.9329 252.934 75.4001H252.919Z" fill="#6B65E2"/>
<path d="M251.849 85.5825C251.6 85.5825 251.527 85.3771 251.541 85.0396C251.571 84.4527 251.615 83.8659 251.615 83.279C251.615 81.7677 251.6 80.2418 251.571 78.7306C251.571 78.2758 251.717 78.0997 251.996 78.2611C252.025 78.2758 252.054 78.3198 252.098 78.3491C252.67 78.7306 253.022 79.2001 252.875 80.3152C252.714 81.5477 252.714 82.8388 252.655 84.1006C252.64 84.3794 252.655 84.6582 252.64 84.9516C252.64 85.2157 252.963 85.5678 252.362 85.5678C251.761 85.5678 252.069 85.6265 251.864 85.6118L251.849 85.5825Z" fill="#6B65E2"/>
<path d="M252.054 107.987C251.571 108.016 251.703 107.385 251.615 107.239C251.483 106.226 251.791 103.248 251.747 103.776C251.703 104.304 251.835 102.661 251.82 102.133C251.805 101.458 251.922 100.724 251.629 100.108C251.483 99.8291 251.6 99.5944 251.835 99.4623C252.172 99.2716 252.553 99.4917 252.743 99.9905C252.89 100.387 252.904 100.812 252.86 101.282C252.699 102.764 252.553 104.245 252.435 105.727C252.391 106.256 252.435 106.784 252.406 107.547C252.406 107.547 252.347 107.972 252.054 107.987Z" fill="#6B65E2"/>
<path d="M251.673 128.264C251.717 127.824 251.761 127.442 251.79 127.061C251.834 126.606 251.937 126.268 252.215 126.18C252.597 126.063 252.875 126.21 253.007 126.723C253.109 127.193 253.212 127.706 253.241 128.22C253.315 129.54 253.329 130.875 253.388 132.196C253.403 132.636 253.315 132.871 253.095 132.959C252.831 133.062 252.567 133.15 252.303 133.223C252.084 133.282 251.922 133.135 251.893 132.695C251.82 131.198 251.747 129.702 251.688 128.264H251.673Z" fill="#6B65E2"/>
<path d="M253.329 145.063C253.373 145.724 253.388 146.399 253.461 147.044C253.505 147.396 253.461 147.69 253.271 147.836C252.948 148.057 252.611 148.218 252.274 148.35C252.054 148.438 251.908 148.247 251.937 147.836C252.01 146.692 251.805 145.548 252.025 144.403C252.069 144.227 252.054 144.007 252.04 143.816C252.01 143.332 252.201 143.068 252.421 142.907C252.626 142.76 252.846 142.775 253.036 143.097C253.432 143.772 253.476 143.86 253.329 145.078V145.063Z" fill="#6B65E2"/>
<path d="M251.761 163.682C251.776 163.066 251.791 162.45 251.835 161.834C251.893 161.159 252.084 161.027 252.494 161.305C252.611 161.393 252.743 161.452 252.86 161.511C253.08 161.599 253.212 161.834 253.241 162.156C253.373 163.492 253.359 164.827 253.212 166.147C253.197 166.309 253.036 166.514 252.919 166.573C252.347 166.881 251.732 166.265 251.732 165.355C251.732 164.797 251.761 164.24 251.791 163.668H251.776L251.761 163.682Z" fill="#6B65E2"/>
<path d="M253.066 157.505C252.67 158.107 252.274 157.828 251.893 157.667C251.805 157.637 251.703 157.168 251.732 156.948C251.908 155.378 251.952 153.808 251.82 152.223C251.776 151.739 252.113 151.094 252.391 151.02C252.89 150.888 253.373 151.812 253.315 152.796C253.256 153.955 253.168 155.114 253.095 156.287C253.066 156.698 253.066 157.109 253.066 157.505Z" fill="#6B65E2"/>
<path d="M252.435 134.969C253.227 134.969 253.227 135.835 253.168 136.744C253.109 137.771 253.197 138.813 253.227 139.943C252.934 140.031 252.641 140.148 252.347 140.163C251.966 140.192 251.82 139.957 251.834 139.415C251.849 138.329 251.908 137.228 251.908 136.128C251.908 135.541 252.157 135.292 252.435 134.954V134.969Z" fill="#6B65E2"/>
<path d="M251.585 110.276C251.659 109.645 252.772 109.924 252.772 110.32C252.772 110.716 252.728 112.139 252.67 112.99C252.641 113.43 252.45 113.665 252.23 113.636C251.834 113.606 251.497 113.21 251.512 112.785C251.541 111.978 251.571 111.185 251.6 110.276C251.6 110.276 251.527 110.921 251.6 110.276H251.585Z" fill="#6B65E2"/>
<path d="M152.912 176.887C152.634 176.961 151.813 177.049 151.534 177.005C148.897 177.005 148.032 176.887 146.757 176.887C145.951 177.093 146.361 173.161 146.127 171.737C145.995 170.916 146.288 170.446 147.05 170.065C147.226 170.065 147.636 170.065 147.666 170.299C147.871 171.077 147.768 172.177 147.9 172.984C148.076 173.982 147.841 174.951 148.882 174.892C149.527 174.862 151.095 174.848 151.74 174.789C152.297 174.73 152.678 174.496 152.853 174.995C153.029 175.493 153.205 176.887 152.897 176.887H152.912Z" fill="#6B65E2"/>
<path d="M240.711 175.493C242.074 175.42 242.47 176.623 241.825 176.755C241.18 176.887 239.773 176.814 239.158 176.755C237.722 176.594 236.315 176.652 234.908 176.755C234.322 176.799 233.735 176.873 233.135 176.902C232.328 176.931 232.05 176.726 232.197 176.271C232.226 176.168 232.226 176.051 232.255 175.963C232.358 175.64 232.812 175.435 233.384 175.449C235.113 175.493 236.828 175.552 238.557 175.581C239.158 175.581 239.759 175.523 240.345 175.508C240.462 175.508 240.579 175.508 240.697 175.523L240.711 175.493Z" fill="#6B65E2"/>
<path d="M195.896 175.2C197.259 175.244 198.607 175.303 199.97 175.303C201.362 175.303 202.754 175.259 204.147 175.244C204.337 175.244 204.542 175.244 204.733 175.244C205.128 175.273 205.304 175.435 205.319 175.684C205.319 175.89 205.319 176.11 205.363 176.315C205.407 176.579 205.202 176.741 204.865 176.902C204.381 176.682 203.897 176.726 203.326 176.77C201.406 176.887 199.501 177.195 197.522 177.049C197.039 177.019 196.541 176.902 196.072 176.77C195.676 176.652 195.412 176.432 195.339 176.154C195.295 175.978 195.222 175.816 195.529 175.684C195.705 175.611 195.749 175.42 195.925 175.2H195.896Z" fill="#6B65E2"/>
<path d="M218.597 176.066C218.597 176.711 218.215 176.726 217.629 176.799C217.219 176.858 216.75 176.828 216.31 176.814C215.197 176.77 214.083 176.682 212.969 176.667C212.471 176.667 211.987 176.77 211.503 176.814C210.961 176.873 210.419 176.931 209.862 176.961C209.642 176.961 209.408 176.902 209.159 176.873C209.188 176.242 209.759 175.86 210.214 175.435C210.287 175.361 210.507 175.317 210.639 175.317C211.254 175.347 211.84 175.42 212.456 175.464C213.013 175.493 213.555 175.552 214.112 175.537C214.889 175.537 215.665 175.479 216.442 175.449C216.545 175.449 216.677 175.479 216.779 175.449C217.732 175.2 218.142 175.64 218.597 176.036V176.066Z" fill="#6B65E2"/>
<path d="M190.136 176.873C189.843 176.975 189.653 177.093 189.447 177.107C187.601 177.137 185.74 177.137 183.893 177.151C183.468 177.151 183.219 177.019 183.058 176.77C182.559 175.934 182.794 175.713 184.128 175.699C185.754 175.699 187.381 175.684 189.008 175.655C189.418 175.655 189.828 175.596 190.239 175.581C190.986 175.552 191.25 175.728 191.118 176.183C191.03 176.447 190.928 176.726 190.825 176.99C190.825 177.019 190.752 177.034 190.678 177.093L190.151 176.873H190.136Z" fill="#6B65E2"/>
<path d="M179.189 177.401C178.705 177.401 178.28 177.371 177.855 177.371C177.43 177.371 177.02 177.445 176.551 177.401C174.748 177.225 172.946 176.99 171.114 177.137C170.806 177.166 170.498 177.137 170.19 177.122C169.824 177.122 169.634 176.99 169.56 176.77C169.443 176.432 169.824 176.198 169.897 175.89C169.897 175.846 170.191 175.816 170.337 175.831C172.037 175.948 173.737 176.11 175.437 176.212C176.316 176.271 177.225 176.256 178.104 176.242C178.881 176.242 178.954 176.242 179.116 176.741C179.145 176.829 179.174 176.917 179.189 177.005C179.189 177.107 179.189 177.21 179.174 177.415L179.189 177.401Z" fill="#6B65E2"/>
<path d="M225.719 175.009C226.657 175.038 227.58 175.038 228.518 175.097C228.782 175.112 229.016 175.347 229.251 175.479C229.295 175.508 229.28 175.581 229.295 175.64C229.544 176.638 229.471 176.755 227.991 176.652C227.111 176.594 226.247 176.506 225.382 176.447C224.664 176.388 223.96 176.33 223.242 176.286C222.817 176.256 222.392 176.227 222.216 175.904C222.041 175.567 222.246 175.273 222.553 175.024C222.641 174.965 222.832 174.936 222.993 174.936C223.902 174.936 224.81 174.936 225.719 174.936V174.98V175.009Z" fill="#6B65E2"/>
<path d="M165.076 175.479C168.08 175.567 166.937 176.579 166.102 176.887C164.402 176.916 163.742 176.828 163.64 176.726C162.321 176.564 161.016 176.623 159.712 176.726C159.17 176.77 158.628 176.843 158.085 176.872C157.353 176.902 157.089 176.696 157.221 176.242C157.25 176.139 157.235 176.021 157.265 175.933C157.353 175.611 157.778 175.405 158.32 175.42C159.903 175.464 161.5 175.523 163.097 175.552C163.654 175.552 164.196 175.493 164.753 175.479C164.856 175.479 164.973 175.479 165.076 175.493V175.479Z" fill="#6B65E2"/>
<path d="M251.966 176.829C250.882 176.873 249.797 176.902 248.713 176.917C248.215 176.917 247.687 177.107 247.438 176.623C247.321 176.403 247.13 176.227 247.013 176.007C246.735 175.537 246.91 175.156 247.453 175.127C248.171 175.097 248.903 175.112 249.622 175.097C249.724 175.097 251.512 175.141 251.629 175.127C251.776 175.024 251.571 172.911 251.659 171.591C251.703 171.004 251.761 170.417 251.835 169.83C251.922 169.272 252.714 168.876 253.183 169.17C253.315 169.258 253.417 169.478 253.417 169.654C253.417 170.109 253.432 170.564 253.315 171.004C253.315 172.207 252.948 176.594 252.948 176.755C252.948 176.917 252.216 176.829 251.966 176.843V176.829Z" fill="#6B65E2"/>
<path d="M124.921 58.7326C133.802 60.684 171.187 75.2094 180.024 77.6743C181.519 78.0851 190.385 81.6064 194.269 83.9246C198.372 86.3602 198.68 89.8522 196.13 96.5133C194.445 100.915 192.95 105.419 191.074 109.718C190.708 112.785 187.498 113.988 184.728 113.856C177.84 113.46 125.258 94.4886 116.362 91.3634C107.715 88.2823 99.0689 85.2304 90.3931 82.208C85.85 80.418 80.1051 78.3492 76.4706 75.0333C76.4706 75.0333 73.3198 74.5051 76.3681 64.264C79.0793 55.1526 80.75 41.7423 89.7043 57.192C95.6689 67.4772 106.382 77.777 118.502 82.9856C124.085 85.0837 131.032 86.7857 136.528 84.0567C139.209 82.5895 142.492 79.5964 140.631 76.2951C135.765 70.1182 127.309 66.7436 124.877 58.7326H124.921ZM124.569 55.5047C124.569 50.2227 132.409 49.944 136.117 51.0591C139.884 51.5579 148.779 62.2392 147.255 65.0123C141.554 62.606 135.678 60.64 129.977 58.2191C128.394 57.9256 127.324 57.3681 125.082 57.1773C124.159 57.104 124.628 55.9595 124.569 55.49V55.5047ZM107.701 75.0627C100.139 68.2841 93.1189 60.8894 88.5905 51.6753C88.3853 50.883 85.9379 48.0219 84.0034 48.0659C77.3646 48.2273 75.5034 58.7032 74.2431 64.44C73.5982 67.1544 72.1034 72.0549 73.3491 74.5198C74.8732 77.5423 80.7353 80.3886 82.5819 81.3277C107.129 91.4368 155.389 107.18 180.537 115.294C183.336 115.983 187.205 116.482 188.773 115.602C193.932 112.359 195.148 105.126 197.024 99.6972C200.234 90.9819 203.546 87.1085 194.21 80.8141C186.443 76.794 169.384 72.1282 163.053 68.4602C163.053 68.4602 164.343 61.6523 162.98 53.4213C164.695 51.5579 165.369 48.9169 165.603 46.452C169.311 43.4442 172.389 38.5437 170.557 33.4965C176.536 35.1398 183.278 31.0463 184.465 24.4291C184.743 22.8299 183.688 21.6121 182.809 20.4677C176.727 14.7162 168.754 12.2513 160.943 9.96242C154.993 8.18709 149.292 5.5461 143.166 4.44569C124.598 0.748318 105.517 0.440203 86.9931 4.69512C78.3319 6.3384 69.8905 8.72996 61.8008 12.2366C61.2732 12.4567 60.8336 12.8528 60.5551 13.3664C60.2767 13.9092 60.3939 14.232 61.2 14.8629C61.9474 15.2884 63.9698 13.9679 64.6439 13.6011C70.506 10.9161 76.7784 8.9207 83.0215 7.3361C101.414 3.2866 120.509 1.77537 139.107 5.20865C151.432 7.6002 175.906 18.2668 176.727 18.5456C177.372 18.7657 182.823 22.6391 182.633 24.3998C182.325 26.4539 181.753 27.2462 181.753 27.2462C181.724 27.3195 181.665 27.3929 181.607 27.4956C179.028 31.237 175.437 32.7776 171.026 32.22C170.747 32.1907 169.897 32.2494 169.634 31.6478C169.003 30.1953 163.933 24.7813 162.467 25.6763C162.218 26.4832 163.434 27.2609 163.947 27.8477C168.505 31.7065 169.971 39.2627 165.662 43.811C164.797 44.0605 164.959 41.2727 164.387 40.4364C162.233 37.4873 160.049 33.8193 156.722 32.1027C152.971 32.6162 168.784 39.7468 161.603 51.4405C161.324 51.8954 161.119 51.8807 160.884 51.3965C158.466 46.5841 155.037 41.9477 150.567 38.8959C149.19 38.1623 146.303 37.0912 148.413 39.5708C150.259 40.6565 151.857 42.0357 153.234 43.6936C156.957 48.5208 160.679 54.0815 161.515 60.2291V63.6918C161.544 69.0618 161.324 69.6927 156.195 67.6973C156.195 67.6973 149.585 66.0246 149.673 64.5721C150.098 57.3534 141.672 51.5286 135.165 49.1957C129.2 47.5964 123.074 50.2814 122.122 56.6932C123.397 63.9118 132.761 70.2209 137.993 75.1947C140.484 77.4249 138.462 81.5184 136.088 82.6628C127.295 86.9177 113.68 79.523 107.73 75.0186L107.701 75.0627Z" fill="#5B5B5B"/>
</svg>
