<svg width="182" height="19" fill="none" xmlns="http://www.w3.org/2000/svg"><path d="M32.812 14.082v-1.794c.175.156.368.29.576.4.227.12.463.22.707.3.244.08.494.142.747.187.227.041.457.063.688.065.57.04 1.138-.087 1.637-.365a1.2 1.2 0 00.538-1.062 1.16 1.16 0 00-.18-.65 1.93 1.93 0 00-.5-.5 5.365 5.365 0 00-.756-.434c-.291-.14-.603-.285-.935-.436-.356-.19-.687-.383-1-.578a4.358 4.358 0 01-.8-.648 2.727 2.727 0 01-.534-.8 2.601 2.601 0 01-.194-1.047 2.417 2.417 0 01.333-1.285c.221-.363.522-.67.879-.9a4.027 4.027 0 011.242-.528 5.922 5.922 0 011.42-.172 5.715 5.715 0 012.4.374v1.72a3.832 3.832 0 00-2.3-.644c-.26 0-.518.025-.773.074-.24.044-.473.125-.69.24a1.5 1.5 0 00-.493.434c-.13.186-.197.41-.19.637-.005.212.045.421.146.608.11.184.255.343.429.468.216.16.446.298.688.414.27.134.584.28.942.436.365.19.71.39 1.036.6.31.2.598.435.856.7.242.246.44.532.586.846.15.332.224.693.217 1.058.015.47-.096.935-.322 1.348-.213.363-.511.669-.868.892-.386.24-.812.41-1.257.5a6.982 6.982 0 01-1.5.155c-.176 0-.392-.014-.65-.04a9.605 9.605 0 01-.786-.117 7.776 7.776 0 01-.761-.187 2.397 2.397 0 01-.578-.27zM42.129 5.426a1.02 1.02 0 01-.94-.583.89.89 0 01-.074-.377.916.916 0 01.3-.7c.192-.183.449-.283.714-.278.27-.006.534.094.732.278a.907.907 0 01.3.7.9.9 0 01-.3.678c-.197.187-.46.288-.732.282zm.842 9.074h-1.7V7h1.7v7.5zM52.017 13.9c0 2.754-1.384 4.13-4.153 4.13a6.187 6.187 0 01-2.556-.49v-1.554c.704.434 1.51.675 2.337.7a2.342 2.342 0 002.672-2.628v-.818h-.03a2.947 2.947 0 01-4.741.436 4.04 4.04 0 01-.838-2.684 4.738 4.738 0 01.9-3.04 3 3 0 012.476-1.128 2.384 2.384 0 012.2 1.216h.029V7h1.7l.004 6.9zm-1.684-2.835v-.973a1.91 1.91 0 00-.524-1.352 1.718 1.718 0 00-1.31-.56 1.793 1.793 0 00-1.511.714 3.217 3.217 0 00-.546 2 2.774 2.774 0 00.524 1.769 1.678 1.678 0 001.387.662 1.804 1.804 0 001.429-.632c.38-.456.576-1.037.55-1.63v.002zM60.908 14.5h-1.7v-4.227c0-1.4-.495-2.1-1.486-2.1a1.622 1.622 0 00-1.282.582c-.343.411-.52.935-.5 1.47V14.5h-1.711V7h1.707v1.245h.029a2.673 2.673 0 012.435-1.42 2.265 2.265 0 011.868.794c.472.67.7 1.482.644 2.3l-.004 4.581zM67.962 5.426a1.02 1.02 0 01-.94-.583.89.89 0 01-.074-.377.917.917 0 01.3-.7c.192-.183.449-.283.714-.278.27-.006.534.094.732.278a.909.909 0 01.3.7.9.9 0 01-.3.678c-.198.187-.46.288-.732.282zM68.8 14.5h-1.7V7h1.7v7.5zM77.7 14.5H76v-4.227c0-1.4-.495-2.1-1.486-2.1a1.622 1.622 0 00-1.282.582c-.345.41-.526.934-.506 1.47V14.5h-1.703V7h1.707v1.245h.03a2.673 2.673 0 012.43-1.42 2.265 2.265 0 011.869.794c.472.67.7 1.482.644 2.3L77.7 14.5zM93.984 7l-2.212 7.5h-1.78l-1.361-5.083a3.213 3.213 0 01-.1-.659H88.5c-.02.219-.064.435-.131.644l-1.48 5.1h-1.744L82.939 7H84.7l1.363 5.405c.051.211.08.428.087.645h.05c.017-.223.056-.444.117-.659L87.832 7h1.6l1.347 5.428c.05.211.082.427.095.644h.052a3.38 3.38 0 01.11-.644L92.365 7h1.619zM96.1 5.426a1.018 1.018 0 01-.94-.583.887.887 0 01-.074-.377.912.912 0 01.3-.7c.192-.183.449-.283.714-.278.271-.006.534.094.732.278a.912.912 0 01.3.7.899.899 0 01-.3.678c-.197.187-.46.288-.732.282zm.841 9.074h-1.7V7h1.7v7.5zM103.117 14.42c-.412.181-.86.266-1.31.248-1.455 0-2.182-.698-2.183-2.094V8.333h-1.253V7h1.253V5.264l1.7-.483V7h1.794v1.333h-1.794v3.75c-.03.335.055.671.241.952a1.002 1.002 0 00.807.285c.27.006.534-.082.746-.248l-.001 1.348zM111.248 14.5h-1.7v-4.1c0-1.484-.496-2.226-1.487-2.226a1.554 1.554 0 00-1.26.644 2.572 2.572 0 00-.513 1.649V14.5h-1.707V3.4h1.707v4.849h.029a2.682 2.682 0 012.432-1.421c1.667 0 2.5 1.018 2.5 3.055l-.001 4.617zM128.907 14.5h-1.728V7.7c0-.557.033-1.238.1-2.043h-.029a7.059 7.059 0 01-.285.988l-3.134 7.855h-1.2l-3.143-7.793a7.276 7.276 0 01-.277-1.047h-.029c.038.42.057 1.106.058 2.058V14.5h-1.611V4h2.453l2.762 7c.16.392.297.792.41 1.2h.036c.181-.551.327-.962.44-1.23L126.541 4h2.366v10.5zM132.158 5.426a1.023 1.023 0 01-.94-.583.89.89 0 01-.074-.377.914.914 0 01.3-.7 1.01 1.01 0 01.714-.278c.271-.006.534.094.733.278a.906.906 0 01.3.7.896.896 0 01-.3.678 1.038 1.038 0 01-.733.282zM133 14.5h-1.7V7h1.7v7.5zM140.589 14.156a4.2 4.2 0 01-2.131.52 3.607 3.607 0 01-2.695-1.044 3.68 3.68 0 01-1.026-2.706 4.06 4.06 0 011.1-2.978 3.933 3.933 0 012.948-1.124 4.3 4.3 0 011.81.36v1.582a2.744 2.744 0 00-1.67-.586 2.325 2.325 0 00-1.766.728 2.665 2.665 0 00-.688 1.908 2.531 2.531 0 00.648 1.838 2.297 2.297 0 001.739.674 2.716 2.716 0 001.729-.652l.002 1.48zM146.625 8.619a1.4 1.4 0 00-.887-.242 1.51 1.51 0 00-1.259.682 3.04 3.04 0 00-.506 1.852V14.5h-1.7V7h1.7v1.545H144c.133-.475.399-.903.766-1.233a1.724 1.724 0 011.154-.444c.241-.013.482.035.7.14l.005 1.61zM151.02 14.676a3.723 3.723 0 01-2.773-1.05 3.804 3.804 0 01-1.036-2.788 3.716 3.716 0 01.206-1.585 3.711 3.711 0 012.201-2.214 3.701 3.701 0 011.584-.215 3.595 3.595 0 012.739 1.033 3.988 3.988 0 01.982 2.864 3.927 3.927 0 01-1.059 2.875 3.803 3.803 0 01-2.844 1.08zm.08-6.5a1.934 1.934 0 00-1.575.7 2.913 2.913 0 00-.579 1.92c-.038.669.171 1.329.586 1.855a1.968 1.968 0 001.568.678 1.87 1.87 0 001.542-.666 2.954 2.954 0 00.538-1.9 2.999 2.999 0 00-.538-1.91 1.855 1.855 0 00-1.542-.673v-.004zM156.182 14.266V12.69c.599.47 1.339.726 2.1.725 1.026 0 1.539-.303 1.538-.908a.71.71 0 00-.132-.436 1.243 1.243 0 00-.355-.318 2.776 2.776 0 00-.527-.25c-.2-.072-.426-.155-.677-.248a7.097 7.097 0 01-.832-.39 2.546 2.546 0 01-.615-.464 1.749 1.749 0 01-.37-.59 2.142 2.142 0 01-.125-.77 1.774 1.774 0 01.256-.954c.175-.282.411-.521.69-.7.301-.194.632-.338.98-.425a4.512 4.512 0 011.136-.143 5.18 5.18 0 011.86.315v1.487a3.136 3.136 0 00-1.816-.542 2.32 2.32 0 00-.582.066 1.472 1.472 0 00-.443.183.888.888 0 00-.286.282.673.673 0 00-.1.363.773.773 0 00.1.41.932.932 0 00.3.3c.153.094.315.172.483.234.188.07.404.147.649.23.296.119.585.252.867.4.239.124.46.28.656.465.179.17.32.374.417.6.104.257.154.533.147.81.009.352-.082.699-.264 1a2.205 2.205 0 01-.7.7 3.294 3.294 0 01-1.015.413 5.213 5.213 0 01-1.212.136 5.113 5.113 0 01-2.128-.406zM166.443 14.676a3.718 3.718 0 01-2.772-1.05 3.8 3.8 0 01-1.036-2.788 3.7 3.7 0 013.991-4.014 3.6 3.6 0 012.739 1.033 3.988 3.988 0 01.982 2.864 3.927 3.927 0 01-1.059 2.875 3.797 3.797 0 01-2.845 1.08zm.08-6.5a1.934 1.934 0 00-1.574.7 2.913 2.913 0 00-.579 1.92c-.038.669.17 1.33.586 1.855a1.965 1.965 0 001.567.678 1.87 1.87 0 001.542-.666 2.948 2.948 0 00.539-1.9 2.992 2.992 0 00-.539-1.91 1.863 1.863 0 00-1.542-.673v-.004zM176.067 4.78a1.535 1.535 0 00-.784-.2c-.825 0-1.237.467-1.237 1.4V7h1.743v1.333h-1.736V14.5h-1.7V8.333h-1.282V7h1.282V5.784a2.359 2.359 0 01.777-1.871 2.819 2.819 0 011.94-.684 2.88 2.88 0 011 .138l-.003 1.414zM181.23 14.42c-.412.181-.86.266-1.31.248-1.455 0-2.182-.698-2.183-2.094V8.333h-1.253V7h1.253V5.264l1.7-.483V7h1.793v1.333h-1.793v3.75c-.03.335.055.671.241.952a1.003 1.003 0 00.806.285c.27.006.533-.082.746-.248v1.348z" fill="#5E5E5E"/><path d="M9 0H0v9h9V0z" fill="#F25022"/><path d="M9 10H0v9h9v-9z" fill="#00A4EF"/><path d="M19 0h-9v9h9V0z" fill="#7FBA00"/><path d="M19 10h-9v9h9v-9z" fill="#FFB900"/></svg>