<svg width="200" height="120" viewBox="0 0 200 120" fill="none" xmlns="http://www.w3.org/2000/svg">
<rect x="1" y="1" width="198" height="118" fill="#F4F6F8"/>
<path d="M107.953 27L108.819 26.5L107.953 25L107.087 26.5L107.953 27ZM126.064 58.37V59.37H127.796L126.93 57.87L126.064 58.37ZM89.8412 58.37L88.9752 57.87L88.1092 59.37H89.8412V58.37ZM107.087 27.5L125.198 58.87L126.93 57.87L108.819 26.5L107.087 27.5ZM98.6874 45.048L108.819 27.5L107.087 26.5L96.9553 44.048L98.6874 45.048ZM89.685 43.2754C92.4757 43.2754 95.0818 44.0529 97.3019 45.4025L98.3408 43.6936C95.8165 42.1589 92.8524 41.2754 89.685 41.2754V43.2754ZM75 57.9604C75 49.8501 81.5747 43.2754 89.685 43.2754V41.2754C80.4701 41.2754 73 48.7455 73 57.9604H75ZM89.685 72.6454C81.5747 72.6454 75 66.0707 75 57.9604H73C73 67.1753 80.4701 74.6454 89.685 74.6454V72.6454ZM104.365 58.3444C104.162 66.277 97.667 72.6454 89.685 72.6454V74.6454C98.7544 74.6454 106.133 67.4097 106.364 58.3957L104.365 58.3444ZM126.064 57.37H105.365V59.37H126.064V57.37ZM105.365 57.37H89.8412V59.37H105.365V57.37ZM90.7073 58.87L98.6874 45.048L96.9553 44.048L88.9752 57.87L90.7073 58.87ZM97.3019 45.4025C101.542 47.98 104.37 52.6404 104.37 57.9604H106.37C106.37 51.9134 103.153 46.6187 98.3408 43.6936L97.3019 45.4025ZM104.37 57.9604C104.37 58.0888 104.368 58.2168 104.365 58.3444L106.364 58.3957C106.368 58.251 106.37 58.1059 106.37 57.9604H104.37Z" fill="#5D6369"/>
<mask id="mask0_220_6270" style="mask-type:alpha" maskUnits="userSpaceOnUse" x="22" y="93" width="12" height="14">
<path fill-rule="evenodd" clip-rule="evenodd" d="M33.5 100L22.5 107V93L33.5 100ZM29.77 100L24.5 96.64V103.36L29.77 100Z" fill="white"/>
</mask>
<g mask="url(#mask0_220_6270)">
<rect x="16" y="88" width="24" height="24" fill="#5D6369"/>
</g>
<rect x="44" y="99" width="140" height="2" fill="#5D6369"/>
<circle cx="62" cy="100" r="5" fill="#5D6369"/>
<rect x="1" y="1" width="198" height="118" stroke="#C0C4C8" stroke-width="2"/>
</svg>
