<svg width="100" height="100" viewBox="0 0 100 100" fill="none" xmlns="http://www.w3.org/2000/svg">
<rect x="1" y="1" width="98" height="98" fill="#F4F6F8"/>
<path d="M55.7391 33L56.6051 32.5L55.7391 31L54.8731 32.5L55.7391 33ZM68.9357 55.8573V56.8573H70.6678L69.8018 55.3573L68.9357 55.8573ZM42.5424 55.8573L41.6764 55.3573L40.8104 56.8573H42.5424V55.8573ZM54.8731 33.5L68.0697 56.3573L69.8018 55.3573L56.6051 32.5L54.8731 33.5ZM49.2231 46.2861L56.6051 33.5L54.8731 32.5L47.491 45.2861L49.2231 46.2861ZM42.4287 45.1302C44.411 45.1302 46.2612 45.6823 47.8376 46.6406L48.8765 44.9316C46.9959 43.7884 44.7876 43.1302 42.4287 43.1302V45.1302ZM32 55.5588C32 49.7992 36.6691 45.1302 42.4287 45.1302V43.1302C35.5645 43.1302 30 48.6947 30 55.5588H32ZM42.4287 65.9875C36.6691 65.9875 32 61.3184 32 55.5588H30C30 62.423 35.5645 67.9875 42.4287 67.9875V65.9875ZM52.8538 55.8317C52.7094 61.4649 48.097 65.9875 42.4287 65.9875V67.9875C49.1844 67.9875 54.681 62.5976 54.8532 55.8829L52.8538 55.8317ZM68.9357 54.8573H53.8535V56.8573H68.9357V54.8573ZM53.8535 54.8573H42.5424V56.8573H53.8535V54.8573ZM43.4085 56.3573L49.2231 46.2861L47.491 45.2861L41.6764 55.3573L43.4085 56.3573ZM47.8376 46.6406C50.8493 48.4715 52.8573 51.7811 52.8573 55.5588H54.8573C54.8573 51.0541 52.4601 47.1101 48.8765 44.9316L47.8376 46.6406ZM52.8573 55.5588C52.8573 55.6501 52.8561 55.741 52.8538 55.8317L54.8532 55.8829C54.8559 55.7752 54.8573 55.6672 54.8573 55.5588H52.8573Z" fill="#5D6369"/>
<rect x="1" y="1" width="98" height="98" stroke="#5D6369" stroke-width="2"/>
</svg>
