<svg width="59" height="67" viewBox="0 0 59 67" fill="none" xmlns="http://www.w3.org/2000/svg">
	<path fill-rule="evenodd" clip-rule="evenodd" d="M19.9922 26.2897C11.5192 26.3217 4.28119 32.1977 1.66119 40.3757C-0.961807 48.5627 1.45119 57.6797 8.31519 62.7377C15.1752 67.7937 24.4632 67.2977 31.3142 62.2297C38.1362 57.1837 41.3092 48.3967 38.7382 40.2357C36.1302 31.9557 28.5582 26.2577 19.9922 26.2897Z" fill="#BCB8FF" />
	<path fill-rule="evenodd" clip-rule="evenodd" d="M11.2893 64.0166C11.4083 64.1196 11.5543 64.1706 11.7003 64.1706C11.8743 64.1706 12.0483 64.0986 12.1703 63.9566C12.3513 63.7476 30.3443 42.8906 30.7033 22.7126C30.7324 21.0809 30.8857 19.5739 31.1387 18.1827C35.8081 32.2766 24.2286 54.2149 15.1173 63.7156C14.8783 63.9646 14.8873 64.3606 15.1363 64.5996C15.2573 64.7156 15.4143 64.7736 15.5693 64.7736C15.7343 64.7736 15.8983 64.7096 16.0223 64.5816C20.4933 59.9196 27.0593 50.5496 30.8503 39.4886C33.2254 32.562 35.0071 23.3685 31.6458 15.9804C33.6809 8.74541 38.54 5.13624 41.6973 3.49664C47.1523 0.661642 53.6153 0.476642 57.3703 2.97964C57.3713 2.98364 57.4063 3.38964 56.4673 4.50664C53.0623 8.55464 42.0293 16.0326 34.2183 16.1016C34.202 16.101 34.1874 16.1006 34.1742 16.1002C34.1461 16.0993 34.1243 16.0987 34.1053 16.0966C34.3503 14.1756 44.7443 5.23664 53.4073 4.28064C53.7513 4.24264 53.9983 3.93464 53.9603 3.59164C53.9223 3.24764 53.6113 3.00264 53.2713 3.03864C49.2693 3.48064 44.2893 5.64164 39.6093 8.96864C36.1763 11.4096 32.7563 14.6156 32.8553 16.2766C32.8873 16.7976 33.2593 17.3526 34.2093 17.3526H34.2313C43.9243 17.2656 57.5093 6.92564 58.5403 3.50464C58.8133 2.60064 58.3323 2.15764 58.1133 2.00964C53.9533 -0.803358 46.9683 -0.650358 41.1223 2.38764C36.2129 4.9378 32.6779 9.15293 30.8558 14.4448C30.3482 13.5663 29.7572 12.7197 29.0743 11.9126C23.5243 4.57264 16.6213 3.98864 11.8153 4.79164C5.78134 5.79664 1.14034 9.26664 0.468341 11.3116C0.287341 11.8616 0.291341 12.7456 1.33634 13.8316C5.01534 17.6556 18.4413 21.3426 28.7483 18.3986C29.3293 18.2326 29.6283 17.7556 29.5073 17.1836C28.9933 14.7406 18.1803 8.17764 7.50534 9.64464C7.16234 9.69164 6.92434 10.0066 6.97134 10.3486C7.01834 10.6916 7.34034 10.9296 7.67534 10.8826C17.6663 9.50664 27.2413 15.5456 28.2093 17.2516C18.0523 20.0546 5.31934 16.1696 2.23634 12.9646C1.95934 12.6756 1.51534 12.1286 1.65534 11.7016C2.13834 10.2276 6.44134 6.95364 12.0203 6.02364C16.4923 5.27764 22.9043 5.82864 28.0973 12.6926C29.0029 13.7632 29.743 14.9276 30.3329 16.1694C29.7938 18.214 29.4952 20.3981 29.4543 22.6916C29.1033 42.4076 11.4083 62.9296 11.2293 63.1346C11.0023 63.3956 11.0293 63.7896 11.2893 64.0166Z" fill="#212866" />
</svg>
